%TF.GenerationSoftware,KiCad,Pcbnew,(5.1.10)-1*%
%TF.CreationDate,2021-10-19T23:48:12-04:00*%
%TF.ProjectId,milk,6d696c6b-2e6b-4696-9361-645f70636258,rev?*%
%TF.SameCoordinates,Original*%
%TF.FileFunction,Paste,Top*%
%TF.FilePolarity,Positive*%
%FSLAX46Y46*%
G04 Gerber Fmt 4.6, Leading zero omitted, Abs format (unit mm)*
G04 Created by KiCad (PCBNEW (5.1.10)-1) date 2021-10-19 23:48:12*
%MOMM*%
%LPD*%
G01*
G04 APERTURE LIST*
%ADD10R,0.300000X1.300000*%
%ADD11R,0.600000X1.300000*%
%ADD12R,0.650000X1.700000*%
%ADD13R,1.200000X0.900000*%
G04 APERTURE END LIST*
%TO.C,C2*%
G36*
G01*
X198069220Y-89810080D02*
X197119220Y-89810080D01*
G75*
G02*
X196869220Y-89560080I0J250000D01*
G01*
X196869220Y-88885080D01*
G75*
G02*
X197119220Y-88635080I250000J0D01*
G01*
X198069220Y-88635080D01*
G75*
G02*
X198319220Y-88885080I0J-250000D01*
G01*
X198319220Y-89560080D01*
G75*
G02*
X198069220Y-89810080I-250000J0D01*
G01*
G37*
G36*
G01*
X198069220Y-91885080D02*
X197119220Y-91885080D01*
G75*
G02*
X196869220Y-91635080I0J250000D01*
G01*
X196869220Y-90960080D01*
G75*
G02*
X197119220Y-90710080I250000J0D01*
G01*
X198069220Y-90710080D01*
G75*
G02*
X198319220Y-90960080I0J-250000D01*
G01*
X198319220Y-91635080D01*
G75*
G02*
X198069220Y-91885080I-250000J0D01*
G01*
G37*
%TD*%
D10*
%TO.C,J1*%
X208445040Y-91994080D03*
X207945040Y-91994080D03*
X207445040Y-91994080D03*
X206945040Y-91994080D03*
X206445040Y-91994080D03*
X205945040Y-91994080D03*
X205445040Y-91994080D03*
X204945040Y-91994080D03*
D11*
X209095040Y-91994080D03*
X209895040Y-91994080D03*
X204295040Y-91994080D03*
X203495040Y-91994080D03*
%TD*%
%TO.C,R6*%
G36*
G01*
X212397900Y-63184619D02*
X212397900Y-64084621D01*
G75*
G02*
X212147901Y-64334620I-249999J0D01*
G01*
X211447899Y-64334620D01*
G75*
G02*
X211197900Y-64084621I0J249999D01*
G01*
X211197900Y-63184619D01*
G75*
G02*
X211447899Y-62934620I249999J0D01*
G01*
X212147901Y-62934620D01*
G75*
G02*
X212397900Y-63184619I0J-249999D01*
G01*
G37*
G36*
G01*
X214397900Y-63184619D02*
X214397900Y-64084621D01*
G75*
G02*
X214147901Y-64334620I-249999J0D01*
G01*
X213447899Y-64334620D01*
G75*
G02*
X213197900Y-64084621I0J249999D01*
G01*
X213197900Y-63184619D01*
G75*
G02*
X213447899Y-62934620I249999J0D01*
G01*
X214147901Y-62934620D01*
G75*
G02*
X214397900Y-63184619I0J-249999D01*
G01*
G37*
%TD*%
D12*
%TO.C,U1*%
X210151980Y-75364320D03*
X211421980Y-75364320D03*
X212691980Y-75364320D03*
X213961980Y-75364320D03*
X213961980Y-82664320D03*
X212691980Y-82664320D03*
X211421980Y-82664320D03*
X210151980Y-82664320D03*
%TD*%
%TO.C,R5*%
G36*
G01*
X215184141Y-87885320D02*
X214284139Y-87885320D01*
G75*
G02*
X214034140Y-87635321I0J249999D01*
G01*
X214034140Y-86935319D01*
G75*
G02*
X214284139Y-86685320I249999J0D01*
G01*
X215184141Y-86685320D01*
G75*
G02*
X215434140Y-86935319I0J-249999D01*
G01*
X215434140Y-87635321D01*
G75*
G02*
X215184141Y-87885320I-249999J0D01*
G01*
G37*
G36*
G01*
X215184141Y-89885320D02*
X214284139Y-89885320D01*
G75*
G02*
X214034140Y-89635321I0J249999D01*
G01*
X214034140Y-88935319D01*
G75*
G02*
X214284139Y-88685320I249999J0D01*
G01*
X215184141Y-88685320D01*
G75*
G02*
X215434140Y-88935319I0J-249999D01*
G01*
X215434140Y-89635321D01*
G75*
G02*
X215184141Y-89885320I-249999J0D01*
G01*
G37*
%TD*%
%TO.C,R4*%
G36*
G01*
X216224699Y-86695740D02*
X217124701Y-86695740D01*
G75*
G02*
X217374700Y-86945739I0J-249999D01*
G01*
X217374700Y-87645741D01*
G75*
G02*
X217124701Y-87895740I-249999J0D01*
G01*
X216224699Y-87895740D01*
G75*
G02*
X215974700Y-87645741I0J249999D01*
G01*
X215974700Y-86945739D01*
G75*
G02*
X216224699Y-86695740I249999J0D01*
G01*
G37*
G36*
G01*
X216224300Y-84695740D02*
X217125100Y-84695740D01*
G75*
G02*
X217374700Y-84945340I0J-249600D01*
G01*
X217374700Y-85646140D01*
G75*
G02*
X217125100Y-85895740I-249600J0D01*
G01*
X216224300Y-85895740D01*
G75*
G02*
X215974700Y-85646140I0J249600D01*
G01*
X215974700Y-84945340D01*
G75*
G02*
X216224300Y-84695740I249600J0D01*
G01*
G37*
%TD*%
%TO.C,R3*%
G36*
G01*
X214184940Y-85847341D02*
X214184940Y-84947339D01*
G75*
G02*
X214434939Y-84697340I249999J0D01*
G01*
X215134941Y-84697340D01*
G75*
G02*
X215384940Y-84947339I0J-249999D01*
G01*
X215384940Y-85847341D01*
G75*
G02*
X215134941Y-86097340I-249999J0D01*
G01*
X214434939Y-86097340D01*
G75*
G02*
X214184940Y-85847341I0J249999D01*
G01*
G37*
G36*
G01*
X212184940Y-85847740D02*
X212184940Y-84946940D01*
G75*
G02*
X212434540Y-84697340I249600J0D01*
G01*
X213135340Y-84697340D01*
G75*
G02*
X213384940Y-84946940I0J-249600D01*
G01*
X213384940Y-85847740D01*
G75*
G02*
X213135340Y-86097340I-249600J0D01*
G01*
X212434540Y-86097340D01*
G75*
G02*
X212184940Y-85847740I0J249600D01*
G01*
G37*
%TD*%
%TO.C,R2*%
G36*
G01*
X214936780Y-92418321D02*
X214936780Y-91518319D01*
G75*
G02*
X215186779Y-91268320I249999J0D01*
G01*
X215886781Y-91268320D01*
G75*
G02*
X216136780Y-91518319I0J-249999D01*
G01*
X216136780Y-92418321D01*
G75*
G02*
X215886781Y-92668320I-249999J0D01*
G01*
X215186779Y-92668320D01*
G75*
G02*
X214936780Y-92418321I0J249999D01*
G01*
G37*
G36*
G01*
X212936780Y-92418321D02*
X212936780Y-91518319D01*
G75*
G02*
X213186779Y-91268320I249999J0D01*
G01*
X213886781Y-91268320D01*
G75*
G02*
X214136780Y-91518319I0J-249999D01*
G01*
X214136780Y-92418321D01*
G75*
G02*
X213886781Y-92668320I-249999J0D01*
G01*
X213186779Y-92668320D01*
G75*
G02*
X212936780Y-92418321I0J249999D01*
G01*
G37*
%TD*%
%TO.C,R1*%
G36*
G01*
X200053361Y-92477640D02*
X199153359Y-92477640D01*
G75*
G02*
X198903360Y-92227641I0J249999D01*
G01*
X198903360Y-91527639D01*
G75*
G02*
X199153359Y-91277640I249999J0D01*
G01*
X200053361Y-91277640D01*
G75*
G02*
X200303360Y-91527639I0J-249999D01*
G01*
X200303360Y-92227641D01*
G75*
G02*
X200053361Y-92477640I-249999J0D01*
G01*
G37*
G36*
G01*
X200053361Y-94477640D02*
X199153359Y-94477640D01*
G75*
G02*
X198903360Y-94227641I0J249999D01*
G01*
X198903360Y-93527639D01*
G75*
G02*
X199153359Y-93277640I249999J0D01*
G01*
X200053361Y-93277640D01*
G75*
G02*
X200303360Y-93527639I0J-249999D01*
G01*
X200303360Y-94227641D01*
G75*
G02*
X200053361Y-94477640I-249999J0D01*
G01*
G37*
%TD*%
%TO.C,F1*%
G36*
G01*
X196857459Y-96485880D02*
X198107461Y-96485880D01*
G75*
G02*
X198357460Y-96735879I0J-249999D01*
G01*
X198357460Y-97535881D01*
G75*
G02*
X198107461Y-97785880I-249999J0D01*
G01*
X196857459Y-97785880D01*
G75*
G02*
X196607460Y-97535881I0J249999D01*
G01*
X196607460Y-96735879D01*
G75*
G02*
X196857459Y-96485880I249999J0D01*
G01*
G37*
G36*
G01*
X196857459Y-93385880D02*
X198107461Y-93385880D01*
G75*
G02*
X198357460Y-93635879I0J-249999D01*
G01*
X198357460Y-94435881D01*
G75*
G02*
X198107461Y-94685880I-249999J0D01*
G01*
X196857459Y-94685880D01*
G75*
G02*
X196607460Y-94435881I0J249999D01*
G01*
X196607460Y-93635879D01*
G75*
G02*
X196857459Y-93385880I249999J0D01*
G01*
G37*
%TD*%
D13*
%TO.C,D2*%
X216568020Y-97379060D03*
X216568020Y-94079060D03*
%TD*%
%TO.C,D1*%
X214215980Y-97379060D03*
X214215980Y-94079060D03*
%TD*%
%TO.C,C1*%
G36*
G01*
X211017360Y-71755020D02*
X211017360Y-70805020D01*
G75*
G02*
X211267360Y-70555020I250000J0D01*
G01*
X211942360Y-70555020D01*
G75*
G02*
X212192360Y-70805020I0J-250000D01*
G01*
X212192360Y-71755020D01*
G75*
G02*
X211942360Y-72005020I-250000J0D01*
G01*
X211267360Y-72005020D01*
G75*
G02*
X211017360Y-71755020I0J250000D01*
G01*
G37*
G36*
G01*
X208942360Y-71755020D02*
X208942360Y-70805020D01*
G75*
G02*
X209192360Y-70555020I250000J0D01*
G01*
X209867360Y-70555020D01*
G75*
G02*
X210117360Y-70805020I0J-250000D01*
G01*
X210117360Y-71755020D01*
G75*
G02*
X209867360Y-72005020I-250000J0D01*
G01*
X209192360Y-72005020D01*
G75*
G02*
X208942360Y-71755020I0J250000D01*
G01*
G37*
%TD*%
M02*
