%FSLAX45Y45*%
G04 Gerber Fmt 4.5, Leading zero omitted, Abs format (unit mm)*
G04 Created by KiCad (PCBNEW (5.1.10)-1) date 2021-10-19 23:48:20*
%MOMM*%
%LPD*%
G01*
G04 APERTURE LIST*
%TA.AperFunction,Profile*%
%ADD10C,0.050000*%
%TD*%
%ADD11C,0.200000*%
%ADD12C,0.300000*%
G04 APERTURE END LIST*
D10*
X19580860Y-5768340D02*
X19580860Y-9789160D01*
X21777960Y-9789160D02*
G75*
G02*
X21650960Y-9916160I-127000J0D01*
G01*
X21650960Y-5704840D02*
G75*
G02*
X21777960Y-5819773I0J-127633D01*
G01*
X19580860Y-5768340D02*
G75*
G02*
X19644360Y-5704840I63500J0D01*
G01*
X19707860Y-9916160D02*
G75*
G02*
X19580860Y-9789160I0J127000D01*
G01*
X21650960Y-5704840D02*
X19644360Y-5704840D01*
X21777960Y-9789160D02*
X21777960Y-5819773D01*
X19707860Y-9916160D02*
X21650960Y-9916160D01*
D11*
X20299504Y-9271408D02*
X20379504Y-9351408D01*
X20379504Y-9271408D02*
X20299504Y-9351408D01*
X20959504Y-9271408D02*
X21039504Y-9351408D01*
X21039504Y-9271408D02*
X20959504Y-9351408D01*
X20247266Y-6860032D02*
G75*
G03*
X20247266Y-6860032I-85000J0D01*
G01*
X20248282Y-8764778D02*
G75*
G03*
X20248282Y-8764778I-85000J0D01*
G01*
X21263266Y-6860032D02*
G75*
G03*
X21263266Y-6860032I-85000J0D01*
G01*
X21264282Y-8764778D02*
G75*
G03*
X21264282Y-8764778I-85000J0D01*
G01*
X20670266Y-6660032D02*
X20670266Y-7060032D01*
X20470266Y-6860032D02*
X20870266Y-6860032D01*
X20671282Y-8564778D02*
X20671282Y-8964778D01*
X20471282Y-8764778D02*
X20871282Y-8764778D01*
D12*
X19864788Y-10384374D02*
X19864788Y-10084374D01*
X19936217Y-10084374D01*
X19979074Y-10098660D01*
X20007646Y-10127232D01*
X20021931Y-10155803D01*
X20036217Y-10212946D01*
X20036217Y-10255803D01*
X20021931Y-10312946D01*
X20007646Y-10341517D01*
X19979074Y-10370089D01*
X19936217Y-10384374D01*
X19864788Y-10384374D01*
X20164788Y-10384374D02*
X20164788Y-10184374D01*
X20164788Y-10241517D02*
X20179074Y-10212946D01*
X20193360Y-10198660D01*
X20221931Y-10184374D01*
X20250503Y-10184374D01*
X20350503Y-10384374D02*
X20350503Y-10184374D01*
X20350503Y-10084374D02*
X20336217Y-10098660D01*
X20350503Y-10112946D01*
X20364788Y-10098660D01*
X20350503Y-10084374D01*
X20350503Y-10112946D01*
X20536217Y-10384374D02*
X20507646Y-10370089D01*
X20493360Y-10341517D01*
X20493360Y-10084374D01*
X20693360Y-10384374D02*
X20664788Y-10370089D01*
X20650503Y-10341517D01*
X20650503Y-10084374D01*
X21036217Y-10384374D02*
X21036217Y-10084374D01*
X21136217Y-10298660D01*
X21236217Y-10084374D01*
X21236217Y-10384374D01*
X21507646Y-10384374D02*
X21507646Y-10227232D01*
X21493360Y-10198660D01*
X21464788Y-10184374D01*
X21407646Y-10184374D01*
X21379074Y-10198660D01*
X21507646Y-10370089D02*
X21479074Y-10384374D01*
X21407646Y-10384374D01*
X21379074Y-10370089D01*
X21364788Y-10341517D01*
X21364788Y-10312946D01*
X21379074Y-10284374D01*
X21407646Y-10270089D01*
X21479074Y-10270089D01*
X21507646Y-10255803D01*
X21650503Y-10184374D02*
X21650503Y-10484374D01*
X21650503Y-10198660D02*
X21679074Y-10184374D01*
X21736217Y-10184374D01*
X21764788Y-10198660D01*
X21779074Y-10212946D01*
X21793360Y-10241517D01*
X21793360Y-10327232D01*
X21779074Y-10355803D01*
X21764788Y-10370089D01*
X21736217Y-10384374D01*
X21679074Y-10384374D01*
X21650503Y-10370089D01*
X21921931Y-10355803D02*
X21936217Y-10370089D01*
X21921931Y-10384374D01*
X21907646Y-10370089D01*
X21921931Y-10355803D01*
X21921931Y-10384374D01*
X21921931Y-10198660D02*
X21936217Y-10212946D01*
X21921931Y-10227232D01*
X21907646Y-10212946D01*
X21921931Y-10198660D01*
X21921931Y-10227232D01*
X19498360Y-10838660D02*
X19578360Y-10918660D01*
X19578360Y-10838660D02*
X19498360Y-10918660D01*
X19921931Y-10714374D02*
X19950503Y-10714374D01*
X19979074Y-10728660D01*
X19993360Y-10742946D01*
X20007646Y-10771517D01*
X20021931Y-10828660D01*
X20021931Y-10900089D01*
X20007646Y-10957232D01*
X19993360Y-10985803D01*
X19979074Y-11000089D01*
X19950503Y-11014374D01*
X19921931Y-11014374D01*
X19893360Y-11000089D01*
X19879074Y-10985803D01*
X19864788Y-10957232D01*
X19850503Y-10900089D01*
X19850503Y-10828660D01*
X19864788Y-10771517D01*
X19879074Y-10742946D01*
X19893360Y-10728660D01*
X19921931Y-10714374D01*
X20150503Y-10985803D02*
X20164788Y-11000089D01*
X20150503Y-11014374D01*
X20136217Y-11000089D01*
X20150503Y-10985803D01*
X20150503Y-11014374D01*
X20336217Y-10842946D02*
X20307646Y-10828660D01*
X20293360Y-10814374D01*
X20279074Y-10785803D01*
X20279074Y-10771517D01*
X20293360Y-10742946D01*
X20307646Y-10728660D01*
X20336217Y-10714374D01*
X20393360Y-10714374D01*
X20421931Y-10728660D01*
X20436217Y-10742946D01*
X20450503Y-10771517D01*
X20450503Y-10785803D01*
X20436217Y-10814374D01*
X20421931Y-10828660D01*
X20393360Y-10842946D01*
X20336217Y-10842946D01*
X20307646Y-10857232D01*
X20293360Y-10871517D01*
X20279074Y-10900089D01*
X20279074Y-10957232D01*
X20293360Y-10985803D01*
X20307646Y-11000089D01*
X20336217Y-11014374D01*
X20393360Y-11014374D01*
X20421931Y-11000089D01*
X20436217Y-10985803D01*
X20450503Y-10957232D01*
X20450503Y-10900089D01*
X20436217Y-10871517D01*
X20421931Y-10857232D01*
X20393360Y-10842946D01*
X20636217Y-10714374D02*
X20664788Y-10714374D01*
X20693360Y-10728660D01*
X20707646Y-10742946D01*
X20721931Y-10771517D01*
X20736217Y-10828660D01*
X20736217Y-10900089D01*
X20721931Y-10957232D01*
X20707646Y-10985803D01*
X20693360Y-11000089D01*
X20664788Y-11014374D01*
X20636217Y-11014374D01*
X20607646Y-11000089D01*
X20593360Y-10985803D01*
X20579074Y-10957232D01*
X20564788Y-10900089D01*
X20564788Y-10828660D01*
X20579074Y-10771517D01*
X20593360Y-10742946D01*
X20607646Y-10728660D01*
X20636217Y-10714374D01*
X20921931Y-10714374D02*
X20950503Y-10714374D01*
X20979074Y-10728660D01*
X20993360Y-10742946D01*
X21007646Y-10771517D01*
X21021931Y-10828660D01*
X21021931Y-10900089D01*
X21007646Y-10957232D01*
X20993360Y-10985803D01*
X20979074Y-11000089D01*
X20950503Y-11014374D01*
X20921931Y-11014374D01*
X20893360Y-11000089D01*
X20879074Y-10985803D01*
X20864788Y-10957232D01*
X20850503Y-10900089D01*
X20850503Y-10828660D01*
X20864788Y-10771517D01*
X20879074Y-10742946D01*
X20893360Y-10728660D01*
X20921931Y-10714374D01*
X21150503Y-11014374D02*
X21150503Y-10814374D01*
X21150503Y-10842946D02*
X21164788Y-10828660D01*
X21193360Y-10814374D01*
X21236217Y-10814374D01*
X21264788Y-10828660D01*
X21279074Y-10857232D01*
X21279074Y-11014374D01*
X21279074Y-10857232D02*
X21293360Y-10828660D01*
X21321931Y-10814374D01*
X21364788Y-10814374D01*
X21393360Y-10828660D01*
X21407646Y-10857232D01*
X21407646Y-11014374D01*
X21550503Y-11014374D02*
X21550503Y-10814374D01*
X21550503Y-10842946D02*
X21564788Y-10828660D01*
X21593360Y-10814374D01*
X21636217Y-10814374D01*
X21664788Y-10828660D01*
X21679074Y-10857232D01*
X21679074Y-11014374D01*
X21679074Y-10857232D02*
X21693360Y-10828660D01*
X21721931Y-10814374D01*
X21764788Y-10814374D01*
X21793360Y-10828660D01*
X21807646Y-10857232D01*
X21807646Y-11014374D01*
X22393360Y-10700089D02*
X22136217Y-11085803D01*
X22779074Y-10714374D02*
X22807646Y-10714374D01*
X22836217Y-10728660D01*
X22850503Y-10742946D01*
X22864788Y-10771517D01*
X22879074Y-10828660D01*
X22879074Y-10900089D01*
X22864788Y-10957232D01*
X22850503Y-10985803D01*
X22836217Y-11000089D01*
X22807646Y-11014374D01*
X22779074Y-11014374D01*
X22750503Y-11000089D01*
X22736217Y-10985803D01*
X22721931Y-10957232D01*
X22707646Y-10900089D01*
X22707646Y-10828660D01*
X22721931Y-10771517D01*
X22736217Y-10742946D01*
X22750503Y-10728660D01*
X22779074Y-10714374D01*
X23007646Y-10985803D02*
X23021931Y-11000089D01*
X23007646Y-11014374D01*
X22993360Y-11000089D01*
X23007646Y-10985803D01*
X23007646Y-11014374D01*
X23207646Y-10714374D02*
X23236217Y-10714374D01*
X23264788Y-10728660D01*
X23279074Y-10742946D01*
X23293360Y-10771517D01*
X23307646Y-10828660D01*
X23307646Y-10900089D01*
X23293360Y-10957232D01*
X23279074Y-10985803D01*
X23264788Y-11000089D01*
X23236217Y-11014374D01*
X23207646Y-11014374D01*
X23179074Y-11000089D01*
X23164788Y-10985803D01*
X23150503Y-10957232D01*
X23136217Y-10900089D01*
X23136217Y-10828660D01*
X23150503Y-10771517D01*
X23164788Y-10742946D01*
X23179074Y-10728660D01*
X23207646Y-10714374D01*
X23407646Y-10714374D02*
X23593360Y-10714374D01*
X23493360Y-10828660D01*
X23536217Y-10828660D01*
X23564788Y-10842946D01*
X23579074Y-10857232D01*
X23593360Y-10885803D01*
X23593360Y-10957232D01*
X23579074Y-10985803D01*
X23564788Y-11000089D01*
X23536217Y-11014374D01*
X23450503Y-11014374D01*
X23421931Y-11000089D01*
X23407646Y-10985803D01*
X23879074Y-11014374D02*
X23707646Y-11014374D01*
X23793360Y-11014374D02*
X23793360Y-10714374D01*
X23764788Y-10757232D01*
X23736217Y-10785803D01*
X23707646Y-10800089D01*
X24150503Y-10714374D02*
X24007646Y-10714374D01*
X23993360Y-10857232D01*
X24007646Y-10842946D01*
X24036217Y-10828660D01*
X24107646Y-10828660D01*
X24136217Y-10842946D01*
X24150503Y-10857232D01*
X24164788Y-10885803D01*
X24164788Y-10957232D01*
X24150503Y-10985803D01*
X24136217Y-11000089D01*
X24107646Y-11014374D01*
X24036217Y-11014374D01*
X24007646Y-11000089D01*
X23993360Y-10985803D01*
X24279074Y-10714374D02*
X24279074Y-10771517D01*
X24393360Y-10714374D02*
X24393360Y-10771517D01*
X24836217Y-11128660D02*
X24821931Y-11114374D01*
X24793360Y-11071517D01*
X24779074Y-11042946D01*
X24764788Y-11000089D01*
X24750503Y-10928660D01*
X24750503Y-10871517D01*
X24764788Y-10800089D01*
X24779074Y-10757232D01*
X24793360Y-10728660D01*
X24821931Y-10685803D01*
X24836217Y-10671517D01*
X24936217Y-10742946D02*
X24950503Y-10728660D01*
X24979074Y-10714374D01*
X25050503Y-10714374D01*
X25079074Y-10728660D01*
X25093360Y-10742946D01*
X25107646Y-10771517D01*
X25107646Y-10800089D01*
X25093360Y-10842946D01*
X24921931Y-11014374D01*
X25107646Y-11014374D01*
X25464788Y-11014374D02*
X25464788Y-10714374D01*
X25593360Y-11014374D02*
X25593360Y-10857232D01*
X25579074Y-10828660D01*
X25550503Y-10814374D01*
X25507646Y-10814374D01*
X25479074Y-10828660D01*
X25464788Y-10842946D01*
X25779074Y-11014374D02*
X25750503Y-11000089D01*
X25736217Y-10985803D01*
X25721931Y-10957232D01*
X25721931Y-10871517D01*
X25736217Y-10842946D01*
X25750503Y-10828660D01*
X25779074Y-10814374D01*
X25821931Y-10814374D01*
X25850503Y-10828660D01*
X25864788Y-10842946D01*
X25879074Y-10871517D01*
X25879074Y-10957232D01*
X25864788Y-10985803D01*
X25850503Y-11000089D01*
X25821931Y-11014374D01*
X25779074Y-11014374D01*
X26050503Y-11014374D02*
X26021931Y-11000089D01*
X26007646Y-10971517D01*
X26007646Y-10714374D01*
X26279074Y-11000089D02*
X26250503Y-11014374D01*
X26193360Y-11014374D01*
X26164788Y-11000089D01*
X26150503Y-10971517D01*
X26150503Y-10857232D01*
X26164788Y-10828660D01*
X26193360Y-10814374D01*
X26250503Y-10814374D01*
X26279074Y-10828660D01*
X26293360Y-10857232D01*
X26293360Y-10885803D01*
X26150503Y-10914374D01*
X26407646Y-11000089D02*
X26436217Y-11014374D01*
X26493360Y-11014374D01*
X26521931Y-11000089D01*
X26536217Y-10971517D01*
X26536217Y-10957232D01*
X26521931Y-10928660D01*
X26493360Y-10914374D01*
X26450503Y-10914374D01*
X26421931Y-10900089D01*
X26407646Y-10871517D01*
X26407646Y-10857232D01*
X26421931Y-10828660D01*
X26450503Y-10814374D01*
X26493360Y-10814374D01*
X26521931Y-10828660D01*
X26636217Y-11128660D02*
X26650503Y-11114374D01*
X26679074Y-11071517D01*
X26693360Y-11042946D01*
X26707646Y-11000089D01*
X26721931Y-10928660D01*
X26721931Y-10871517D01*
X26707646Y-10800089D01*
X26693360Y-10757232D01*
X26679074Y-10728660D01*
X26650503Y-10685803D01*
X26636217Y-10671517D01*
X27179074Y-11128660D02*
X27164788Y-11114374D01*
X27136217Y-11071517D01*
X27121931Y-11042946D01*
X27107646Y-11000089D01*
X27093360Y-10928660D01*
X27093360Y-10871517D01*
X27107646Y-10800089D01*
X27121931Y-10757232D01*
X27136217Y-10728660D01*
X27164788Y-10685803D01*
X27179074Y-10671517D01*
X27293360Y-10814374D02*
X27293360Y-11014374D01*
X27293360Y-10842946D02*
X27307646Y-10828660D01*
X27336217Y-10814374D01*
X27379074Y-10814374D01*
X27407646Y-10828660D01*
X27421931Y-10857232D01*
X27421931Y-11014374D01*
X27607646Y-11014374D02*
X27579074Y-11000089D01*
X27564788Y-10985803D01*
X27550503Y-10957232D01*
X27550503Y-10871517D01*
X27564788Y-10842946D01*
X27579074Y-10828660D01*
X27607646Y-10814374D01*
X27650503Y-10814374D01*
X27679074Y-10828660D01*
X27693360Y-10842946D01*
X27707646Y-10871517D01*
X27707646Y-10957232D01*
X27693360Y-10985803D01*
X27679074Y-11000089D01*
X27650503Y-11014374D01*
X27607646Y-11014374D01*
X27793360Y-10814374D02*
X27907646Y-10814374D01*
X27836217Y-10714374D02*
X27836217Y-10971517D01*
X27850503Y-11000089D01*
X27879074Y-11014374D01*
X27907646Y-11014374D01*
X28236217Y-10814374D02*
X28236217Y-11114374D01*
X28236217Y-10828660D02*
X28264788Y-10814374D01*
X28321931Y-10814374D01*
X28350503Y-10828660D01*
X28364788Y-10842946D01*
X28379074Y-10871517D01*
X28379074Y-10957232D01*
X28364788Y-10985803D01*
X28350503Y-11000089D01*
X28321931Y-11014374D01*
X28264788Y-11014374D01*
X28236217Y-11000089D01*
X28550503Y-11014374D02*
X28521931Y-11000089D01*
X28507646Y-10971517D01*
X28507646Y-10714374D01*
X28793360Y-11014374D02*
X28793360Y-10857232D01*
X28779074Y-10828660D01*
X28750503Y-10814374D01*
X28693360Y-10814374D01*
X28664788Y-10828660D01*
X28793360Y-11000089D02*
X28764788Y-11014374D01*
X28693360Y-11014374D01*
X28664788Y-11000089D01*
X28650503Y-10971517D01*
X28650503Y-10942946D01*
X28664788Y-10914374D01*
X28693360Y-10900089D01*
X28764788Y-10900089D01*
X28793360Y-10885803D01*
X28893360Y-10814374D02*
X29007646Y-10814374D01*
X28936217Y-10714374D02*
X28936217Y-10971517D01*
X28950503Y-11000089D01*
X28979074Y-11014374D01*
X29007646Y-11014374D01*
X29221931Y-11000089D02*
X29193360Y-11014374D01*
X29136217Y-11014374D01*
X29107646Y-11000089D01*
X29093360Y-10971517D01*
X29093360Y-10857232D01*
X29107646Y-10828660D01*
X29136217Y-10814374D01*
X29193360Y-10814374D01*
X29221931Y-10828660D01*
X29236217Y-10857232D01*
X29236217Y-10885803D01*
X29093360Y-10914374D01*
X29493360Y-11014374D02*
X29493360Y-10714374D01*
X29493360Y-11000089D02*
X29464788Y-11014374D01*
X29407646Y-11014374D01*
X29379074Y-11000089D01*
X29364788Y-10985803D01*
X29350503Y-10957232D01*
X29350503Y-10871517D01*
X29364788Y-10842946D01*
X29379074Y-10828660D01*
X29407646Y-10814374D01*
X29464788Y-10814374D01*
X29493360Y-10828660D01*
X29607646Y-11128660D02*
X29621931Y-11114374D01*
X29650503Y-11071517D01*
X29664788Y-11042946D01*
X29679074Y-11000089D01*
X29693360Y-10928660D01*
X29693360Y-10871517D01*
X29679074Y-10800089D01*
X29664788Y-10757232D01*
X29650503Y-10728660D01*
X29621931Y-10685803D01*
X29607646Y-10671517D01*
X19578360Y-11274660D02*
G75*
G03*
X19578360Y-11274660I-85000J0D01*
G01*
X20021931Y-11410374D02*
X19850503Y-11410374D01*
X19936217Y-11410374D02*
X19936217Y-11110374D01*
X19907646Y-11153232D01*
X19879074Y-11181803D01*
X19850503Y-11196089D01*
X20150503Y-11381803D02*
X20164788Y-11396089D01*
X20150503Y-11410374D01*
X20136217Y-11396089D01*
X20150503Y-11381803D01*
X20150503Y-11410374D01*
X20264788Y-11110374D02*
X20464788Y-11110374D01*
X20336217Y-11410374D01*
X20636217Y-11110374D02*
X20664788Y-11110374D01*
X20693360Y-11124660D01*
X20707646Y-11138946D01*
X20721931Y-11167517D01*
X20736217Y-11224660D01*
X20736217Y-11296089D01*
X20721931Y-11353231D01*
X20707646Y-11381803D01*
X20693360Y-11396089D01*
X20664788Y-11410374D01*
X20636217Y-11410374D01*
X20607646Y-11396089D01*
X20593360Y-11381803D01*
X20579074Y-11353231D01*
X20564788Y-11296089D01*
X20564788Y-11224660D01*
X20579074Y-11167517D01*
X20593360Y-11138946D01*
X20607646Y-11124660D01*
X20636217Y-11110374D01*
X20921931Y-11110374D02*
X20950503Y-11110374D01*
X20979074Y-11124660D01*
X20993360Y-11138946D01*
X21007646Y-11167517D01*
X21021931Y-11224660D01*
X21021931Y-11296089D01*
X21007646Y-11353231D01*
X20993360Y-11381803D01*
X20979074Y-11396089D01*
X20950503Y-11410374D01*
X20921931Y-11410374D01*
X20893360Y-11396089D01*
X20879074Y-11381803D01*
X20864788Y-11353231D01*
X20850503Y-11296089D01*
X20850503Y-11224660D01*
X20864788Y-11167517D01*
X20879074Y-11138946D01*
X20893360Y-11124660D01*
X20921931Y-11110374D01*
X21150503Y-11410374D02*
X21150503Y-11210374D01*
X21150503Y-11238946D02*
X21164788Y-11224660D01*
X21193360Y-11210374D01*
X21236217Y-11210374D01*
X21264788Y-11224660D01*
X21279074Y-11253231D01*
X21279074Y-11410374D01*
X21279074Y-11253231D02*
X21293360Y-11224660D01*
X21321931Y-11210374D01*
X21364788Y-11210374D01*
X21393360Y-11224660D01*
X21407646Y-11253231D01*
X21407646Y-11410374D01*
X21550503Y-11410374D02*
X21550503Y-11210374D01*
X21550503Y-11238946D02*
X21564788Y-11224660D01*
X21593360Y-11210374D01*
X21636217Y-11210374D01*
X21664788Y-11224660D01*
X21679074Y-11253231D01*
X21679074Y-11410374D01*
X21679074Y-11253231D02*
X21693360Y-11224660D01*
X21721931Y-11210374D01*
X21764788Y-11210374D01*
X21793360Y-11224660D01*
X21807646Y-11253231D01*
X21807646Y-11410374D01*
X22393360Y-11096089D02*
X22136217Y-11481803D01*
X22779074Y-11110374D02*
X22807646Y-11110374D01*
X22836217Y-11124660D01*
X22850503Y-11138946D01*
X22864788Y-11167517D01*
X22879074Y-11224660D01*
X22879074Y-11296089D01*
X22864788Y-11353231D01*
X22850503Y-11381803D01*
X22836217Y-11396089D01*
X22807646Y-11410374D01*
X22779074Y-11410374D01*
X22750503Y-11396089D01*
X22736217Y-11381803D01*
X22721931Y-11353231D01*
X22707646Y-11296089D01*
X22707646Y-11224660D01*
X22721931Y-11167517D01*
X22736217Y-11138946D01*
X22750503Y-11124660D01*
X22779074Y-11110374D01*
X23007646Y-11381803D02*
X23021931Y-11396089D01*
X23007646Y-11410374D01*
X22993360Y-11396089D01*
X23007646Y-11381803D01*
X23007646Y-11410374D01*
X23207646Y-11110374D02*
X23236217Y-11110374D01*
X23264788Y-11124660D01*
X23279074Y-11138946D01*
X23293360Y-11167517D01*
X23307646Y-11224660D01*
X23307646Y-11296089D01*
X23293360Y-11353231D01*
X23279074Y-11381803D01*
X23264788Y-11396089D01*
X23236217Y-11410374D01*
X23207646Y-11410374D01*
X23179074Y-11396089D01*
X23164788Y-11381803D01*
X23150503Y-11353231D01*
X23136217Y-11296089D01*
X23136217Y-11224660D01*
X23150503Y-11167517D01*
X23164788Y-11138946D01*
X23179074Y-11124660D01*
X23207646Y-11110374D01*
X23564788Y-11110374D02*
X23507646Y-11110374D01*
X23479074Y-11124660D01*
X23464788Y-11138946D01*
X23436217Y-11181803D01*
X23421931Y-11238946D01*
X23421931Y-11353231D01*
X23436217Y-11381803D01*
X23450503Y-11396089D01*
X23479074Y-11410374D01*
X23536217Y-11410374D01*
X23564788Y-11396089D01*
X23579074Y-11381803D01*
X23593360Y-11353231D01*
X23593360Y-11281803D01*
X23579074Y-11253231D01*
X23564788Y-11238946D01*
X23536217Y-11224660D01*
X23479074Y-11224660D01*
X23450503Y-11238946D01*
X23436217Y-11253231D01*
X23421931Y-11281803D01*
X23850503Y-11110374D02*
X23793360Y-11110374D01*
X23764788Y-11124660D01*
X23750503Y-11138946D01*
X23721931Y-11181803D01*
X23707646Y-11238946D01*
X23707646Y-11353231D01*
X23721931Y-11381803D01*
X23736217Y-11396089D01*
X23764788Y-11410374D01*
X23821931Y-11410374D01*
X23850503Y-11396089D01*
X23864788Y-11381803D01*
X23879074Y-11353231D01*
X23879074Y-11281803D01*
X23864788Y-11253231D01*
X23850503Y-11238946D01*
X23821931Y-11224660D01*
X23764788Y-11224660D01*
X23736217Y-11238946D01*
X23721931Y-11253231D01*
X23707646Y-11281803D01*
X24021931Y-11410374D02*
X24079074Y-11410374D01*
X24107646Y-11396089D01*
X24121931Y-11381803D01*
X24150503Y-11338946D01*
X24164788Y-11281803D01*
X24164788Y-11167517D01*
X24150503Y-11138946D01*
X24136217Y-11124660D01*
X24107646Y-11110374D01*
X24050503Y-11110374D01*
X24021931Y-11124660D01*
X24007646Y-11138946D01*
X23993360Y-11167517D01*
X23993360Y-11238946D01*
X24007646Y-11267517D01*
X24021931Y-11281803D01*
X24050503Y-11296089D01*
X24107646Y-11296089D01*
X24136217Y-11281803D01*
X24150503Y-11267517D01*
X24164788Y-11238946D01*
X24279074Y-11110374D02*
X24279074Y-11167517D01*
X24393360Y-11110374D02*
X24393360Y-11167517D01*
X24836217Y-11524660D02*
X24821931Y-11510374D01*
X24793360Y-11467517D01*
X24779074Y-11438946D01*
X24764788Y-11396089D01*
X24750503Y-11324660D01*
X24750503Y-11267517D01*
X24764788Y-11196089D01*
X24779074Y-11153232D01*
X24793360Y-11124660D01*
X24821931Y-11081803D01*
X24836217Y-11067517D01*
X25079074Y-11210374D02*
X25079074Y-11410374D01*
X25007646Y-11096089D02*
X24936217Y-11310374D01*
X25121931Y-11310374D01*
X25464788Y-11410374D02*
X25464788Y-11110374D01*
X25593360Y-11410374D02*
X25593360Y-11253231D01*
X25579074Y-11224660D01*
X25550503Y-11210374D01*
X25507646Y-11210374D01*
X25479074Y-11224660D01*
X25464788Y-11238946D01*
X25779074Y-11410374D02*
X25750503Y-11396089D01*
X25736217Y-11381803D01*
X25721931Y-11353231D01*
X25721931Y-11267517D01*
X25736217Y-11238946D01*
X25750503Y-11224660D01*
X25779074Y-11210374D01*
X25821931Y-11210374D01*
X25850503Y-11224660D01*
X25864788Y-11238946D01*
X25879074Y-11267517D01*
X25879074Y-11353231D01*
X25864788Y-11381803D01*
X25850503Y-11396089D01*
X25821931Y-11410374D01*
X25779074Y-11410374D01*
X26050503Y-11410374D02*
X26021931Y-11396089D01*
X26007646Y-11367517D01*
X26007646Y-11110374D01*
X26279074Y-11396089D02*
X26250503Y-11410374D01*
X26193360Y-11410374D01*
X26164788Y-11396089D01*
X26150503Y-11367517D01*
X26150503Y-11253231D01*
X26164788Y-11224660D01*
X26193360Y-11210374D01*
X26250503Y-11210374D01*
X26279074Y-11224660D01*
X26293360Y-11253231D01*
X26293360Y-11281803D01*
X26150503Y-11310374D01*
X26407646Y-11396089D02*
X26436217Y-11410374D01*
X26493360Y-11410374D01*
X26521931Y-11396089D01*
X26536217Y-11367517D01*
X26536217Y-11353231D01*
X26521931Y-11324660D01*
X26493360Y-11310374D01*
X26450503Y-11310374D01*
X26421931Y-11296089D01*
X26407646Y-11267517D01*
X26407646Y-11253231D01*
X26421931Y-11224660D01*
X26450503Y-11210374D01*
X26493360Y-11210374D01*
X26521931Y-11224660D01*
X26636217Y-11524660D02*
X26650503Y-11510374D01*
X26679074Y-11467517D01*
X26693360Y-11438946D01*
X26707646Y-11396089D01*
X26721931Y-11324660D01*
X26721931Y-11267517D01*
X26707646Y-11196089D01*
X26693360Y-11153232D01*
X26679074Y-11124660D01*
X26650503Y-11081803D01*
X26636217Y-11067517D01*
X27179074Y-11524660D02*
X27164788Y-11510374D01*
X27136217Y-11467517D01*
X27121931Y-11438946D01*
X27107646Y-11396089D01*
X27093360Y-11324660D01*
X27093360Y-11267517D01*
X27107646Y-11196089D01*
X27121931Y-11153232D01*
X27136217Y-11124660D01*
X27164788Y-11081803D01*
X27179074Y-11067517D01*
X27293360Y-11210374D02*
X27293360Y-11410374D01*
X27293360Y-11238946D02*
X27307646Y-11224660D01*
X27336217Y-11210374D01*
X27379074Y-11210374D01*
X27407646Y-11224660D01*
X27421931Y-11253231D01*
X27421931Y-11410374D01*
X27607646Y-11410374D02*
X27579074Y-11396089D01*
X27564788Y-11381803D01*
X27550503Y-11353231D01*
X27550503Y-11267517D01*
X27564788Y-11238946D01*
X27579074Y-11224660D01*
X27607646Y-11210374D01*
X27650503Y-11210374D01*
X27679074Y-11224660D01*
X27693360Y-11238946D01*
X27707646Y-11267517D01*
X27707646Y-11353231D01*
X27693360Y-11381803D01*
X27679074Y-11396089D01*
X27650503Y-11410374D01*
X27607646Y-11410374D01*
X27793360Y-11210374D02*
X27907646Y-11210374D01*
X27836217Y-11110374D02*
X27836217Y-11367517D01*
X27850503Y-11396089D01*
X27879074Y-11410374D01*
X27907646Y-11410374D01*
X28236217Y-11210374D02*
X28236217Y-11510374D01*
X28236217Y-11224660D02*
X28264788Y-11210374D01*
X28321931Y-11210374D01*
X28350503Y-11224660D01*
X28364788Y-11238946D01*
X28379074Y-11267517D01*
X28379074Y-11353231D01*
X28364788Y-11381803D01*
X28350503Y-11396089D01*
X28321931Y-11410374D01*
X28264788Y-11410374D01*
X28236217Y-11396089D01*
X28550503Y-11410374D02*
X28521931Y-11396089D01*
X28507646Y-11367517D01*
X28507646Y-11110374D01*
X28793360Y-11410374D02*
X28793360Y-11253231D01*
X28779074Y-11224660D01*
X28750503Y-11210374D01*
X28693360Y-11210374D01*
X28664788Y-11224660D01*
X28793360Y-11396089D02*
X28764788Y-11410374D01*
X28693360Y-11410374D01*
X28664788Y-11396089D01*
X28650503Y-11367517D01*
X28650503Y-11338946D01*
X28664788Y-11310374D01*
X28693360Y-11296089D01*
X28764788Y-11296089D01*
X28793360Y-11281803D01*
X28893360Y-11210374D02*
X29007646Y-11210374D01*
X28936217Y-11110374D02*
X28936217Y-11367517D01*
X28950503Y-11396089D01*
X28979074Y-11410374D01*
X29007646Y-11410374D01*
X29221931Y-11396089D02*
X29193360Y-11410374D01*
X29136217Y-11410374D01*
X29107646Y-11396089D01*
X29093360Y-11367517D01*
X29093360Y-11253231D01*
X29107646Y-11224660D01*
X29136217Y-11210374D01*
X29193360Y-11210374D01*
X29221931Y-11224660D01*
X29236217Y-11253231D01*
X29236217Y-11281803D01*
X29093360Y-11310374D01*
X29493360Y-11410374D02*
X29493360Y-11110374D01*
X29493360Y-11396089D02*
X29464788Y-11410374D01*
X29407646Y-11410374D01*
X29379074Y-11396089D01*
X29364788Y-11381803D01*
X29350503Y-11353231D01*
X29350503Y-11267517D01*
X29364788Y-11238946D01*
X29379074Y-11224660D01*
X29407646Y-11210374D01*
X29464788Y-11210374D01*
X29493360Y-11224660D01*
X29607646Y-11524660D02*
X29621931Y-11510374D01*
X29650503Y-11467517D01*
X29664788Y-11438946D01*
X29679074Y-11396089D01*
X29693360Y-11324660D01*
X29693360Y-11267517D01*
X29679074Y-11196089D01*
X29664788Y-11153232D01*
X29650503Y-11124660D01*
X29621931Y-11081803D01*
X29607646Y-11067517D01*
X19378360Y-11470660D02*
X19378360Y-11870660D01*
X19178360Y-11670660D02*
X19578360Y-11670660D01*
X19993360Y-11606374D02*
X19993360Y-11806374D01*
X19921931Y-11492089D02*
X19850503Y-11706374D01*
X20036217Y-11706374D01*
X20150503Y-11777803D02*
X20164788Y-11792089D01*
X20150503Y-11806374D01*
X20136217Y-11792089D01*
X20150503Y-11777803D01*
X20150503Y-11806374D01*
X20350503Y-11506374D02*
X20379074Y-11506374D01*
X20407646Y-11520660D01*
X20421931Y-11534946D01*
X20436217Y-11563517D01*
X20450503Y-11620660D01*
X20450503Y-11692089D01*
X20436217Y-11749231D01*
X20421931Y-11777803D01*
X20407646Y-11792089D01*
X20379074Y-11806374D01*
X20350503Y-11806374D01*
X20321931Y-11792089D01*
X20307646Y-11777803D01*
X20293360Y-11749231D01*
X20279074Y-11692089D01*
X20279074Y-11620660D01*
X20293360Y-11563517D01*
X20307646Y-11534946D01*
X20321931Y-11520660D01*
X20350503Y-11506374D01*
X20636217Y-11506374D02*
X20664788Y-11506374D01*
X20693360Y-11520660D01*
X20707646Y-11534946D01*
X20721931Y-11563517D01*
X20736217Y-11620660D01*
X20736217Y-11692089D01*
X20721931Y-11749231D01*
X20707646Y-11777803D01*
X20693360Y-11792089D01*
X20664788Y-11806374D01*
X20636217Y-11806374D01*
X20607646Y-11792089D01*
X20593360Y-11777803D01*
X20579074Y-11749231D01*
X20564788Y-11692089D01*
X20564788Y-11620660D01*
X20579074Y-11563517D01*
X20593360Y-11534946D01*
X20607646Y-11520660D01*
X20636217Y-11506374D01*
X20921931Y-11506374D02*
X20950503Y-11506374D01*
X20979074Y-11520660D01*
X20993360Y-11534946D01*
X21007646Y-11563517D01*
X21021931Y-11620660D01*
X21021931Y-11692089D01*
X21007646Y-11749231D01*
X20993360Y-11777803D01*
X20979074Y-11792089D01*
X20950503Y-11806374D01*
X20921931Y-11806374D01*
X20893360Y-11792089D01*
X20879074Y-11777803D01*
X20864788Y-11749231D01*
X20850503Y-11692089D01*
X20850503Y-11620660D01*
X20864788Y-11563517D01*
X20879074Y-11534946D01*
X20893360Y-11520660D01*
X20921931Y-11506374D01*
X21150503Y-11806374D02*
X21150503Y-11606374D01*
X21150503Y-11634946D02*
X21164788Y-11620660D01*
X21193360Y-11606374D01*
X21236217Y-11606374D01*
X21264788Y-11620660D01*
X21279074Y-11649231D01*
X21279074Y-11806374D01*
X21279074Y-11649231D02*
X21293360Y-11620660D01*
X21321931Y-11606374D01*
X21364788Y-11606374D01*
X21393360Y-11620660D01*
X21407646Y-11649231D01*
X21407646Y-11806374D01*
X21550503Y-11806374D02*
X21550503Y-11606374D01*
X21550503Y-11634946D02*
X21564788Y-11620660D01*
X21593360Y-11606374D01*
X21636217Y-11606374D01*
X21664788Y-11620660D01*
X21679074Y-11649231D01*
X21679074Y-11806374D01*
X21679074Y-11649231D02*
X21693360Y-11620660D01*
X21721931Y-11606374D01*
X21764788Y-11606374D01*
X21793360Y-11620660D01*
X21807646Y-11649231D01*
X21807646Y-11806374D01*
X22393360Y-11492089D02*
X22136217Y-11877803D01*
X22779074Y-11506374D02*
X22807646Y-11506374D01*
X22836217Y-11520660D01*
X22850503Y-11534946D01*
X22864788Y-11563517D01*
X22879074Y-11620660D01*
X22879074Y-11692089D01*
X22864788Y-11749231D01*
X22850503Y-11777803D01*
X22836217Y-11792089D01*
X22807646Y-11806374D01*
X22779074Y-11806374D01*
X22750503Y-11792089D01*
X22736217Y-11777803D01*
X22721931Y-11749231D01*
X22707646Y-11692089D01*
X22707646Y-11620660D01*
X22721931Y-11563517D01*
X22736217Y-11534946D01*
X22750503Y-11520660D01*
X22779074Y-11506374D01*
X23007646Y-11777803D02*
X23021931Y-11792089D01*
X23007646Y-11806374D01*
X22993360Y-11792089D01*
X23007646Y-11777803D01*
X23007646Y-11806374D01*
X23307646Y-11806374D02*
X23136217Y-11806374D01*
X23221931Y-11806374D02*
X23221931Y-11506374D01*
X23193360Y-11549231D01*
X23164788Y-11577803D01*
X23136217Y-11592089D01*
X23579074Y-11506374D02*
X23436217Y-11506374D01*
X23421931Y-11649231D01*
X23436217Y-11634946D01*
X23464788Y-11620660D01*
X23536217Y-11620660D01*
X23564788Y-11634946D01*
X23579074Y-11649231D01*
X23593360Y-11677803D01*
X23593360Y-11749231D01*
X23579074Y-11777803D01*
X23564788Y-11792089D01*
X23536217Y-11806374D01*
X23464788Y-11806374D01*
X23436217Y-11792089D01*
X23421931Y-11777803D01*
X23693360Y-11506374D02*
X23893360Y-11506374D01*
X23764788Y-11806374D01*
X24150503Y-11506374D02*
X24007646Y-11506374D01*
X23993360Y-11649231D01*
X24007646Y-11634946D01*
X24036217Y-11620660D01*
X24107646Y-11620660D01*
X24136217Y-11634946D01*
X24150503Y-11649231D01*
X24164788Y-11677803D01*
X24164788Y-11749231D01*
X24150503Y-11777803D01*
X24136217Y-11792089D01*
X24107646Y-11806374D01*
X24036217Y-11806374D01*
X24007646Y-11792089D01*
X23993360Y-11777803D01*
X24279074Y-11506374D02*
X24279074Y-11563517D01*
X24393360Y-11506374D02*
X24393360Y-11563517D01*
X24836217Y-11920660D02*
X24821931Y-11906374D01*
X24793360Y-11863517D01*
X24779074Y-11834946D01*
X24764788Y-11792089D01*
X24750503Y-11720660D01*
X24750503Y-11663517D01*
X24764788Y-11592089D01*
X24779074Y-11549231D01*
X24793360Y-11520660D01*
X24821931Y-11477803D01*
X24836217Y-11463517D01*
X24936217Y-11534946D02*
X24950503Y-11520660D01*
X24979074Y-11506374D01*
X25050503Y-11506374D01*
X25079074Y-11520660D01*
X25093360Y-11534946D01*
X25107646Y-11563517D01*
X25107646Y-11592089D01*
X25093360Y-11634946D01*
X24921931Y-11806374D01*
X25107646Y-11806374D01*
X25464788Y-11806374D02*
X25464788Y-11506374D01*
X25593360Y-11806374D02*
X25593360Y-11649231D01*
X25579074Y-11620660D01*
X25550503Y-11606374D01*
X25507646Y-11606374D01*
X25479074Y-11620660D01*
X25464788Y-11634946D01*
X25779074Y-11806374D02*
X25750503Y-11792089D01*
X25736217Y-11777803D01*
X25721931Y-11749231D01*
X25721931Y-11663517D01*
X25736217Y-11634946D01*
X25750503Y-11620660D01*
X25779074Y-11606374D01*
X25821931Y-11606374D01*
X25850503Y-11620660D01*
X25864788Y-11634946D01*
X25879074Y-11663517D01*
X25879074Y-11749231D01*
X25864788Y-11777803D01*
X25850503Y-11792089D01*
X25821931Y-11806374D01*
X25779074Y-11806374D01*
X26050503Y-11806374D02*
X26021931Y-11792089D01*
X26007646Y-11763517D01*
X26007646Y-11506374D01*
X26279074Y-11792089D02*
X26250503Y-11806374D01*
X26193360Y-11806374D01*
X26164788Y-11792089D01*
X26150503Y-11763517D01*
X26150503Y-11649231D01*
X26164788Y-11620660D01*
X26193360Y-11606374D01*
X26250503Y-11606374D01*
X26279074Y-11620660D01*
X26293360Y-11649231D01*
X26293360Y-11677803D01*
X26150503Y-11706374D01*
X26407646Y-11792089D02*
X26436217Y-11806374D01*
X26493360Y-11806374D01*
X26521931Y-11792089D01*
X26536217Y-11763517D01*
X26536217Y-11749231D01*
X26521931Y-11720660D01*
X26493360Y-11706374D01*
X26450503Y-11706374D01*
X26421931Y-11692089D01*
X26407646Y-11663517D01*
X26407646Y-11649231D01*
X26421931Y-11620660D01*
X26450503Y-11606374D01*
X26493360Y-11606374D01*
X26521931Y-11620660D01*
X26636217Y-11920660D02*
X26650503Y-11906374D01*
X26679074Y-11863517D01*
X26693360Y-11834946D01*
X26707646Y-11792089D01*
X26721931Y-11720660D01*
X26721931Y-11663517D01*
X26707646Y-11592089D01*
X26693360Y-11549231D01*
X26679074Y-11520660D01*
X26650503Y-11477803D01*
X26636217Y-11463517D01*
X27179074Y-11920660D02*
X27164788Y-11906374D01*
X27136217Y-11863517D01*
X27121931Y-11834946D01*
X27107646Y-11792089D01*
X27093360Y-11720660D01*
X27093360Y-11663517D01*
X27107646Y-11592089D01*
X27121931Y-11549231D01*
X27136217Y-11520660D01*
X27164788Y-11477803D01*
X27179074Y-11463517D01*
X27293360Y-11606374D02*
X27293360Y-11806374D01*
X27293360Y-11634946D02*
X27307646Y-11620660D01*
X27336217Y-11606374D01*
X27379074Y-11606374D01*
X27407646Y-11620660D01*
X27421931Y-11649231D01*
X27421931Y-11806374D01*
X27607646Y-11806374D02*
X27579074Y-11792089D01*
X27564788Y-11777803D01*
X27550503Y-11749231D01*
X27550503Y-11663517D01*
X27564788Y-11634946D01*
X27579074Y-11620660D01*
X27607646Y-11606374D01*
X27650503Y-11606374D01*
X27679074Y-11620660D01*
X27693360Y-11634946D01*
X27707646Y-11663517D01*
X27707646Y-11749231D01*
X27693360Y-11777803D01*
X27679074Y-11792089D01*
X27650503Y-11806374D01*
X27607646Y-11806374D01*
X27793360Y-11606374D02*
X27907646Y-11606374D01*
X27836217Y-11506374D02*
X27836217Y-11763517D01*
X27850503Y-11792089D01*
X27879074Y-11806374D01*
X27907646Y-11806374D01*
X28236217Y-11606374D02*
X28236217Y-11906374D01*
X28236217Y-11620660D02*
X28264788Y-11606374D01*
X28321931Y-11606374D01*
X28350503Y-11620660D01*
X28364788Y-11634946D01*
X28379074Y-11663517D01*
X28379074Y-11749231D01*
X28364788Y-11777803D01*
X28350503Y-11792089D01*
X28321931Y-11806374D01*
X28264788Y-11806374D01*
X28236217Y-11792089D01*
X28550503Y-11806374D02*
X28521931Y-11792089D01*
X28507646Y-11763517D01*
X28507646Y-11506374D01*
X28793360Y-11806374D02*
X28793360Y-11649231D01*
X28779074Y-11620660D01*
X28750503Y-11606374D01*
X28693360Y-11606374D01*
X28664788Y-11620660D01*
X28793360Y-11792089D02*
X28764788Y-11806374D01*
X28693360Y-11806374D01*
X28664788Y-11792089D01*
X28650503Y-11763517D01*
X28650503Y-11734946D01*
X28664788Y-11706374D01*
X28693360Y-11692089D01*
X28764788Y-11692089D01*
X28793360Y-11677803D01*
X28893360Y-11606374D02*
X29007646Y-11606374D01*
X28936217Y-11506374D02*
X28936217Y-11763517D01*
X28950503Y-11792089D01*
X28979074Y-11806374D01*
X29007646Y-11806374D01*
X29221931Y-11792089D02*
X29193360Y-11806374D01*
X29136217Y-11806374D01*
X29107646Y-11792089D01*
X29093360Y-11763517D01*
X29093360Y-11649231D01*
X29107646Y-11620660D01*
X29136217Y-11606374D01*
X29193360Y-11606374D01*
X29221931Y-11620660D01*
X29236217Y-11649231D01*
X29236217Y-11677803D01*
X29093360Y-11706374D01*
X29493360Y-11806374D02*
X29493360Y-11506374D01*
X29493360Y-11792089D02*
X29464788Y-11806374D01*
X29407646Y-11806374D01*
X29379074Y-11792089D01*
X29364788Y-11777803D01*
X29350503Y-11749231D01*
X29350503Y-11663517D01*
X29364788Y-11634946D01*
X29379074Y-11620660D01*
X29407646Y-11606374D01*
X29464788Y-11606374D01*
X29493360Y-11620660D01*
X29607646Y-11920660D02*
X29621931Y-11906374D01*
X29650503Y-11863517D01*
X29664788Y-11834946D01*
X29679074Y-11792089D01*
X29693360Y-11720660D01*
X29693360Y-11663517D01*
X29679074Y-11592089D01*
X29664788Y-11549231D01*
X29650503Y-11520660D01*
X29621931Y-11477803D01*
X29607646Y-11463517D01*
M02*
