M48
; DRILL file {KiCad (5.1.10)-1} date 08/29/21 12:19:46
; FORMAT={-:-/ absolute / metric / decimal}
; #@! TF.CreationDate,2021-08-29T12:19:46-04:00
; #@! TF.GenerationSoftware,Kicad,Pcbnew,(5.1.10)-1
; #@! TF.FileFunction,Plated,1,2,PTH
FMAT,2
METRIC
T1C0.400
T2C0.600
T3C0.700
T4C1.300
T5C1.500
%
G90
G05
T1
X172.54Y-61.788
X173.228Y-69.088
X178.74Y-66.98
X178.918Y-85.928
X179.07Y-64.516
X180.213Y-76.149
X180.899Y-79.908
X181.839Y-64.262
X182.194Y-94.336
X183.642Y-71.882
X183.921Y-90.424
X183.998Y-86.766
X184.252Y-81.407
X184.892Y-68.326
X185.433Y-78.819
X185.953Y-83.541
X186.207Y-76.251
X186.906Y-78.831
X187.655Y-71.704
X187.79Y-90.084
X188.003Y-76.106
X188.798Y-87.554
X189.255Y-93.383
X189.611Y-64.338
X189.738Y-75.616
X189.967Y-86.487
T3
X172.72Y-63.5
X172.72Y-73.66
X175.26Y-63.5
X175.26Y-73.66
X177.8Y-63.5
X177.8Y-73.66
X180.34Y-63.5
X180.34Y-73.66
T4
X182.856Y-62.56
X189.356Y-62.56
T5
X177.216Y-67.945
X177.216Y-86.995
X183.566Y-65.405
X183.566Y-84.455
T2
G00X176.454Y-93.103
M15
G01X176.454Y-94.103
M16
G05
G00X176.454Y-97.603
M15
G01X176.454Y-98.603
M16
G05
G00X185.674Y-93.103
M15
G01X185.674Y-94.103
M16
G05
G00X185.674Y-97.603
M15
G01X185.674Y-98.603
M16
G05
T0
M30
