%TF.GenerationSoftware,KiCad,Pcbnew,(5.1.10)-1*%
%TF.CreationDate,2021-10-19T16:21:33-04:00*%
%TF.ProjectId,milk,6d696c6b-2e6b-4696-9361-645f70636258,rev?*%
%TF.SameCoordinates,Original*%
%TF.FileFunction,Copper,L2,Bot*%
%TF.FilePolarity,Positive*%
%FSLAX46Y46*%
G04 Gerber Fmt 4.6, Leading zero omitted, Abs format (unit mm)*
G04 Created by KiCad (PCBNEW (5.1.10)-1) date 2021-10-19 16:21:33*
%MOMM*%
%LPD*%
G01*
G04 APERTURE LIST*
%TA.AperFunction,SMDPad,CuDef*%
%ADD10R,0.500000X0.500000*%
%TD*%
%TA.AperFunction,ComponentPad*%
%ADD11O,1.600000X1.600000*%
%TD*%
%TA.AperFunction,ComponentPad*%
%ADD12R,1.600000X1.600000*%
%TD*%
%TA.AperFunction,ComponentPad*%
%ADD13C,2.200000*%
%TD*%
%TA.AperFunction,ComponentPad*%
%ADD14O,1.000000X2.000000*%
%TD*%
%TA.AperFunction,ComponentPad*%
%ADD15C,2.000000*%
%TD*%
%TA.AperFunction,ComponentPad*%
%ADD16R,1.500000X1.500000*%
%TD*%
%TA.AperFunction,ComponentPad*%
%ADD17C,1.500000*%
%TD*%
%TA.AperFunction,ViaPad*%
%ADD18C,0.800000*%
%TD*%
%TA.AperFunction,Conductor*%
%ADD19C,0.250000*%
%TD*%
%TA.AperFunction,Conductor*%
%ADD20C,0.254000*%
%TD*%
%TA.AperFunction,Conductor*%
%ADD21C,0.100000*%
%TD*%
G04 APERTURE END LIST*
D10*
%TO.P,D4,1*%
%TO.N,N/C*%
X207137840Y-72229980D03*
%TO.P,D4,2*%
%TO.N,GND*%
X207137840Y-73129980D03*
%TO.P,D4,3*%
%TO.N,Net-(D3-Pad1)*%
X206237840Y-73129980D03*
%TO.P,D4,4*%
%TO.N,+5V*%
X206237840Y-72229980D03*
%TD*%
%TO.P,D3,1*%
%TO.N,Net-(D3-Pad1)*%
X207155620Y-91277440D03*
%TO.P,D3,2*%
%TO.N,GND*%
X207155620Y-92177440D03*
%TO.P,D3,3*%
%TO.N,RGB*%
X206255620Y-92177440D03*
%TO.P,D3,4*%
%TO.N,+5V*%
X206255620Y-91277440D03*
%TD*%
D11*
%TO.P,J3,8*%
%TO.N,+5V*%
X215884760Y-75176380D03*
%TO.P,J3,4*%
%TO.N,GND*%
X208264760Y-82796380D03*
%TO.P,J3,7*%
%TO.N,RGB*%
X215884760Y-77716380D03*
%TO.P,J3,3*%
%TO.N,PB4*%
X208264760Y-80256380D03*
%TO.P,J3,6*%
%TO.N,PB1*%
X215884760Y-80256380D03*
%TO.P,J3,2*%
%TO.N,PB3*%
X208264760Y-77716380D03*
%TO.P,J3,5*%
%TO.N,PB0*%
X215884760Y-82796380D03*
D12*
%TO.P,J3,1*%
%TO.N,RST*%
X208264760Y-75176380D03*
%TD*%
D13*
%TO.P,SW2,2*%
%TO.N,GND*%
X210512660Y-66060320D03*
%TO.P,SW2,1*%
%TO.N,PB1*%
X204162660Y-63520320D03*
%TD*%
%TO.P,SW1,2*%
%TO.N,GND*%
X210522820Y-85107780D03*
%TO.P,SW1,1*%
%TO.N,PB0*%
X204172820Y-82567780D03*
%TD*%
D14*
%TO.P,J1,S1*%
%TO.N,GND*%
X211305040Y-92554080D03*
X202085040Y-92554080D03*
X202085040Y-97054080D03*
X211305040Y-97054080D03*
%TD*%
D15*
%TO.P,SW3,2*%
%TO.N,GND*%
X208625440Y-59405520D03*
%TO.P,SW3,1*%
%TO.N,RST*%
X215125440Y-59405520D03*
%TD*%
D16*
%TO.P,J2,1*%
%TO.N,GND*%
X197949820Y-58750200D03*
D17*
%TO.P,J2,2*%
%TO.N,RGB*%
X200489820Y-58750200D03*
%TO.P,J2,3*%
%TO.N,+5V*%
X203029820Y-58750200D03*
%TD*%
D18*
%TO.N,D+*%
X216547700Y-95460820D03*
%TO.N,+5V*%
X217114120Y-76474320D03*
%TO.N,GND*%
X198998840Y-90469720D03*
X210411060Y-77409040D03*
X206109562Y-74343260D03*
X202130660Y-80553560D03*
X213718140Y-67294760D03*
X201912220Y-65829180D03*
X197939660Y-65905380D03*
X201612500Y-75201780D03*
X200639680Y-85821520D03*
X215107520Y-71752460D03*
X209214720Y-61879480D03*
X202168760Y-62057280D03*
X203682600Y-69852540D03*
X203982320Y-74625200D03*
X206456280Y-97889060D03*
X209933540Y-88798400D03*
X212526880Y-95280480D03*
%TO.N,+5V*%
X213159340Y-89207340D03*
%TO.N,D+*%
X208252060Y-93276420D03*
%TO.N,PB4*%
X212686900Y-81170780D03*
%TO.N,PB1*%
X212719920Y-76827380D03*
%TD*%
D19*
%TO.N,GND*%
X207137840Y-73314982D02*
X206109562Y-74343260D01*
X207137840Y-73129980D02*
X207137840Y-73314982D01*
X207155620Y-92177440D02*
X207895620Y-92177440D01*
X207895620Y-92177440D02*
X208981040Y-91092020D01*
X206109562Y-74343260D02*
X206109562Y-74343260D01*
X207322842Y-73129980D02*
X208437480Y-72015342D01*
X207137840Y-73129980D02*
X207322842Y-73129980D01*
%TO.N,+5V*%
X206237840Y-72229980D02*
X205640940Y-72229980D01*
X206255620Y-91277440D02*
X205854300Y-91277440D01*
X205854300Y-91277440D02*
X203700380Y-89123520D01*
X203700380Y-89123520D02*
X203700380Y-86372700D01*
X203700380Y-86372700D02*
X199654590Y-82326910D01*
X199654590Y-62125430D02*
X202064620Y-59715400D01*
X202064620Y-59715400D02*
X203029820Y-58750200D01*
X201884280Y-59895740D02*
X202064620Y-59715400D01*
X200561800Y-72229980D02*
X199654590Y-71322770D01*
X199654590Y-71322770D02*
X199654590Y-62125430D01*
X206237840Y-72229980D02*
X200561800Y-72229980D01*
X199654590Y-82326910D02*
X199654590Y-71322770D01*
X217114120Y-83232022D02*
X213513702Y-86832440D01*
X217114120Y-76474320D02*
X217114120Y-83232022D01*
X213159340Y-87186802D02*
X213513702Y-86832440D01*
X213159340Y-89207340D02*
X213159340Y-87186802D01*
%TO.N,D+*%
X208252060Y-93276420D02*
X208854730Y-93879090D01*
X214965970Y-93879090D02*
X214676410Y-93879090D01*
X216547700Y-95460820D02*
X214965970Y-93879090D01*
X208854730Y-93879090D02*
X214676410Y-93879090D01*
%TO.N,RST*%
X215125440Y-68315700D02*
X208264760Y-75176380D01*
X215125440Y-59405520D02*
X215125440Y-68315700D01*
%TO.N,RGB*%
X200116440Y-90383360D02*
X199204580Y-89471500D01*
X199204580Y-60299600D02*
X200449180Y-59055000D01*
X199204580Y-89471500D02*
X199204580Y-60299600D01*
X206255620Y-92177440D02*
X205100760Y-92177440D01*
X203306680Y-90383360D02*
X200116440Y-90383360D01*
X205100760Y-92177440D02*
X203306680Y-90383360D01*
X201564821Y-57675199D02*
X200489820Y-58750200D01*
X215356121Y-57675199D02*
X201564821Y-57675199D01*
X216450441Y-58769519D02*
X215356121Y-57675199D01*
X216450441Y-72945697D02*
X216450441Y-58769519D01*
X214759759Y-74636379D02*
X216450441Y-72945697D01*
X214759759Y-76591379D02*
X214759759Y-74636379D01*
X215884760Y-77716380D02*
X214759759Y-76591379D01*
%TO.N,PB4*%
X212651340Y-81206340D02*
X212686900Y-81170780D01*
X209179160Y-81170780D02*
X208264760Y-80256380D01*
X212686900Y-81170780D02*
X209179160Y-81170780D01*
%TO.N,PB0*%
X210725218Y-82796380D02*
X215884760Y-82796380D01*
X209600217Y-83921381D02*
X210725218Y-82796380D01*
X205526421Y-83921381D02*
X209600217Y-83921381D01*
X204172820Y-82567780D02*
X205526421Y-83921381D01*
%TO.N,PB1*%
X212719920Y-77091540D02*
X212719920Y-76827380D01*
X215884760Y-80256380D02*
X212719920Y-77091540D01*
X212483919Y-76591379D02*
X212719920Y-76827380D01*
X207494757Y-76591379D02*
X212483919Y-76591379D01*
X207139759Y-76236381D02*
X207494757Y-76591379D01*
X207139759Y-74116379D02*
X207139759Y-76236381D01*
X209699860Y-71556278D02*
X207139759Y-74116379D01*
X205718294Y-63520320D02*
X209699860Y-67501886D01*
X209699860Y-67501886D02*
X209699860Y-71556278D01*
X204162660Y-63520320D02*
X205718294Y-63520320D01*
%TO.N,Net-(D3-Pad1)*%
X207155620Y-90777440D02*
X207155620Y-91277440D01*
X206652320Y-90274140D02*
X207155620Y-90777440D01*
X205487410Y-90274140D02*
X206652320Y-90274140D01*
X204150390Y-88937120D02*
X205487410Y-90274140D01*
X204150390Y-86154690D02*
X204150390Y-88937120D01*
X200104600Y-82108900D02*
X204150390Y-86154690D01*
X200104600Y-73654060D02*
X200104600Y-82108900D01*
X200628680Y-73129980D02*
X200104600Y-73654060D01*
X206237840Y-73129980D02*
X200628680Y-73129980D01*
%TD*%
D20*
%TO.N,GND*%
X196610318Y-57756020D02*
X196574008Y-57875718D01*
X196561748Y-58000200D01*
X196564820Y-58464450D01*
X196723570Y-58623200D01*
X197822820Y-58623200D01*
X197822820Y-58603200D01*
X198076820Y-58603200D01*
X198076820Y-58623200D01*
X198096820Y-58623200D01*
X198096820Y-58877200D01*
X198076820Y-58877200D01*
X198076820Y-59976450D01*
X198235570Y-60135200D01*
X198459804Y-60136684D01*
X198455578Y-60150614D01*
X198448113Y-60226403D01*
X198440904Y-60299600D01*
X198444581Y-60336933D01*
X198444580Y-89434178D01*
X198440904Y-89471500D01*
X198444580Y-89508822D01*
X198444580Y-89508832D01*
X198455577Y-89620485D01*
X198478968Y-89697596D01*
X198499034Y-89763746D01*
X198569606Y-89895776D01*
X198609451Y-89944326D01*
X198664579Y-90011501D01*
X198693582Y-90035303D01*
X199552640Y-90894362D01*
X199576439Y-90923361D01*
X199692164Y-91018334D01*
X199824193Y-91088906D01*
X199967454Y-91132363D01*
X200079107Y-91143360D01*
X200079115Y-91143360D01*
X200116440Y-91147036D01*
X200153765Y-91143360D01*
X201400544Y-91143360D01*
X201372276Y-91161711D01*
X201211879Y-91317911D01*
X201085037Y-91502402D01*
X200996625Y-91708093D01*
X200950040Y-91927080D01*
X200950040Y-92427080D01*
X201958040Y-92427080D01*
X201958040Y-92407080D01*
X202212040Y-92407080D01*
X202212040Y-92427080D01*
X202232040Y-92427080D01*
X202232040Y-92681080D01*
X202212040Y-92681080D01*
X202212040Y-94022034D01*
X202386914Y-94148199D01*
X202610016Y-94068356D01*
X202787667Y-93953030D01*
X202904784Y-94031285D01*
X203093142Y-94109306D01*
X203293101Y-94149080D01*
X203496979Y-94149080D01*
X203696938Y-94109306D01*
X203885296Y-94031285D01*
X204054814Y-93918017D01*
X204198977Y-93773854D01*
X204312245Y-93604336D01*
X204390266Y-93415978D01*
X204430040Y-93216019D01*
X204430040Y-93012141D01*
X204390266Y-92812182D01*
X204312245Y-92623824D01*
X204198977Y-92454306D01*
X204054814Y-92310143D01*
X203885296Y-92196875D01*
X203696938Y-92118854D01*
X203496979Y-92079080D01*
X203293101Y-92079080D01*
X203220040Y-92093613D01*
X203220040Y-91927080D01*
X203173455Y-91708093D01*
X203085043Y-91502402D01*
X202958201Y-91317911D01*
X202797804Y-91161711D01*
X202769536Y-91143360D01*
X202991879Y-91143360D01*
X204536961Y-92688443D01*
X204560759Y-92717441D01*
X204676484Y-92812414D01*
X204808513Y-92882986D01*
X204951774Y-92926443D01*
X205063427Y-92937440D01*
X205063436Y-92937440D01*
X205100759Y-92941116D01*
X205138082Y-92937440D01*
X205626102Y-92937440D01*
X205651126Y-92957977D01*
X205761440Y-93016942D01*
X205881138Y-93053252D01*
X206005620Y-93065512D01*
X206505620Y-93065512D01*
X206630102Y-93053252D01*
X206705968Y-93030238D01*
X206763688Y-93049526D01*
X206873870Y-93062440D01*
X207032620Y-92903690D01*
X207032620Y-92786244D01*
X207036157Y-92781934D01*
X207095122Y-92671620D01*
X207131432Y-92551922D01*
X207143692Y-92427440D01*
X207143692Y-92165512D01*
X207405620Y-92165512D01*
X207530102Y-92153252D01*
X207649800Y-92116942D01*
X207760114Y-92057977D01*
X207764424Y-92054440D01*
X207881870Y-92054440D01*
X208040620Y-91895690D01*
X208034668Y-91820506D01*
X208008909Y-91726171D01*
X208031432Y-91651922D01*
X208043692Y-91527440D01*
X208043692Y-91027440D01*
X208031432Y-90902958D01*
X207995122Y-90783260D01*
X207936157Y-90672946D01*
X207905302Y-90635349D01*
X207904623Y-90628454D01*
X207861166Y-90485193D01*
X207790594Y-90353164D01*
X207695621Y-90237439D01*
X207666618Y-90213637D01*
X207589664Y-90136683D01*
X207960961Y-89982887D01*
X208392535Y-89694518D01*
X208759558Y-89327495D01*
X209047927Y-88895921D01*
X209246559Y-88416381D01*
X209347820Y-87907305D01*
X209347820Y-87388255D01*
X209246559Y-86879179D01*
X209047927Y-86399639D01*
X208759558Y-85968065D01*
X208392535Y-85601042D01*
X207960961Y-85312673D01*
X207481421Y-85114041D01*
X206972345Y-85012780D01*
X206453295Y-85012780D01*
X205944219Y-85114041D01*
X205464679Y-85312673D01*
X205033105Y-85601042D01*
X204826596Y-85807551D01*
X204785364Y-85730413D01*
X204714189Y-85643687D01*
X204690391Y-85614689D01*
X204661394Y-85590892D01*
X200864600Y-81794099D01*
X200864600Y-73968861D01*
X200943482Y-73889980D01*
X205608322Y-73889980D01*
X205633346Y-73910517D01*
X205743660Y-73969482D01*
X205863358Y-74005792D01*
X205987840Y-74018052D01*
X206385767Y-74018052D01*
X206379759Y-74079047D01*
X206379759Y-74079057D01*
X206376083Y-74116379D01*
X206379759Y-74153702D01*
X206379760Y-76199049D01*
X206376083Y-76236381D01*
X206379760Y-76273714D01*
X206390757Y-76385367D01*
X206396138Y-76403105D01*
X206434213Y-76528627D01*
X206504785Y-76660657D01*
X206575960Y-76747383D01*
X206599759Y-76776382D01*
X206628757Y-76800180D01*
X206930953Y-77102376D01*
X206954149Y-77130641D01*
X206884907Y-77297806D01*
X206829760Y-77575045D01*
X206829760Y-77857715D01*
X206884907Y-78134954D01*
X206993080Y-78396107D01*
X207150123Y-78631139D01*
X207350001Y-78831017D01*
X207582519Y-78986380D01*
X207350001Y-79141743D01*
X207150123Y-79341621D01*
X206993080Y-79576653D01*
X206884907Y-79837806D01*
X206829760Y-80115045D01*
X206829760Y-80397715D01*
X206884907Y-80674954D01*
X206993080Y-80936107D01*
X207150123Y-81171139D01*
X207350001Y-81371017D01*
X207585033Y-81528060D01*
X207595625Y-81532447D01*
X207409629Y-81643995D01*
X207201241Y-81832966D01*
X207033723Y-82058960D01*
X206913514Y-82313293D01*
X206872856Y-82447341D01*
X206994845Y-82669380D01*
X208137760Y-82669380D01*
X208137760Y-82649380D01*
X208391760Y-82649380D01*
X208391760Y-82669380D01*
X208411760Y-82669380D01*
X208411760Y-82923380D01*
X208391760Y-82923380D01*
X208391760Y-82943380D01*
X208137760Y-82943380D01*
X208137760Y-82923380D01*
X206994845Y-82923380D01*
X206872856Y-83145419D01*
X206877697Y-83161381D01*
X205841223Y-83161381D01*
X205815534Y-83135692D01*
X205841145Y-83073861D01*
X205907820Y-82738663D01*
X205907820Y-82396897D01*
X205841145Y-82061699D01*
X205710357Y-81745949D01*
X205520483Y-81461782D01*
X205278818Y-81220117D01*
X204994651Y-81030243D01*
X204678901Y-80899455D01*
X204343703Y-80832780D01*
X204001937Y-80832780D01*
X203666739Y-80899455D01*
X203350989Y-81030243D01*
X203066822Y-81220117D01*
X202825157Y-81461782D01*
X202635283Y-81745949D01*
X202504495Y-82061699D01*
X202437820Y-82396897D01*
X202437820Y-82738663D01*
X202504495Y-83073861D01*
X202635283Y-83389611D01*
X202825157Y-83673778D01*
X203066822Y-83915443D01*
X203350989Y-84105317D01*
X203666739Y-84236105D01*
X204001937Y-84302780D01*
X204343703Y-84302780D01*
X204678901Y-84236105D01*
X204740732Y-84210494D01*
X204962622Y-84432384D01*
X204986420Y-84461382D01*
X205015418Y-84485180D01*
X205102144Y-84556355D01*
X205234174Y-84626927D01*
X205377435Y-84670384D01*
X205489088Y-84681381D01*
X205489098Y-84681381D01*
X205526421Y-84685057D01*
X205563744Y-84681381D01*
X208840890Y-84681381D01*
X208802451Y-84825365D01*
X208780411Y-85166419D01*
X208825331Y-85505219D01*
X208935484Y-85828746D01*
X209041482Y-86027054D01*
X209316108Y-86134887D01*
X210343215Y-85107780D01*
X210329073Y-85093638D01*
X210508678Y-84914033D01*
X210522820Y-84928175D01*
X211549927Y-83901068D01*
X211442094Y-83626442D01*
X211299694Y-83556380D01*
X214666717Y-83556380D01*
X214770123Y-83711139D01*
X214970001Y-83911017D01*
X215203982Y-84067358D01*
X213002700Y-86268641D01*
X212758244Y-86513097D01*
X212739452Y-86494305D01*
X212496231Y-86331790D01*
X212225978Y-86219848D01*
X211939080Y-86162780D01*
X211757428Y-86162780D01*
X211729534Y-86134886D01*
X212004158Y-86027054D01*
X212155036Y-85720396D01*
X212243189Y-85390195D01*
X212265229Y-85049141D01*
X212220309Y-84710341D01*
X212110156Y-84386814D01*
X212004158Y-84188506D01*
X211729532Y-84080673D01*
X210702425Y-85107780D01*
X210716568Y-85121923D01*
X210536963Y-85301528D01*
X210522820Y-85287385D01*
X209495713Y-86314492D01*
X209603546Y-86589118D01*
X209910204Y-86739996D01*
X210240405Y-86828149D01*
X210541485Y-86847606D01*
X210476830Y-86944369D01*
X210364888Y-87214622D01*
X210307820Y-87501520D01*
X210307820Y-87794040D01*
X210364888Y-88080938D01*
X210476830Y-88351191D01*
X210639345Y-88594412D01*
X210846188Y-88801255D01*
X211089409Y-88963770D01*
X211359662Y-89075712D01*
X211646560Y-89132780D01*
X211939080Y-89132780D01*
X212126302Y-89095539D01*
X212124340Y-89105401D01*
X212124340Y-89309279D01*
X212164114Y-89509238D01*
X212242135Y-89697596D01*
X212355403Y-89867114D01*
X212499566Y-90011277D01*
X212669084Y-90124545D01*
X212857442Y-90202566D01*
X213057401Y-90242340D01*
X213261279Y-90242340D01*
X213461238Y-90202566D01*
X213649596Y-90124545D01*
X213819114Y-90011277D01*
X213963277Y-89867114D01*
X214076545Y-89697596D01*
X214154566Y-89509238D01*
X214194340Y-89309279D01*
X214194340Y-89105401D01*
X214154566Y-88905442D01*
X214076545Y-88717084D01*
X213963277Y-88547566D01*
X213919340Y-88503629D01*
X213919340Y-87501603D01*
X214077501Y-87343442D01*
X217119600Y-84301344D01*
X217119600Y-94598168D01*
X217037956Y-94543615D01*
X216849598Y-94465594D01*
X216649639Y-94425820D01*
X216587502Y-94425820D01*
X215529774Y-93368093D01*
X215505971Y-93339089D01*
X215390246Y-93244116D01*
X215258217Y-93173544D01*
X215114956Y-93130087D01*
X215003303Y-93119090D01*
X215003292Y-93119090D01*
X214965970Y-93115414D01*
X214928648Y-93119090D01*
X212440040Y-93119090D01*
X212440040Y-92681080D01*
X211432040Y-92681080D01*
X211432040Y-92701080D01*
X211178040Y-92701080D01*
X211178040Y-92681080D01*
X211158040Y-92681080D01*
X211158040Y-92427080D01*
X211178040Y-92427080D01*
X211178040Y-91086126D01*
X211432040Y-91086126D01*
X211432040Y-92427080D01*
X212440040Y-92427080D01*
X212440040Y-91927080D01*
X212393455Y-91708093D01*
X212305043Y-91502402D01*
X212178201Y-91317911D01*
X212017804Y-91161711D01*
X211830016Y-91039804D01*
X211606914Y-90959961D01*
X211432040Y-91086126D01*
X211178040Y-91086126D01*
X211003166Y-90959961D01*
X210780064Y-91039804D01*
X210592276Y-91161711D01*
X210431879Y-91317911D01*
X210305037Y-91502402D01*
X210216625Y-91708093D01*
X210170040Y-91927080D01*
X210170040Y-92093613D01*
X210096979Y-92079080D01*
X209893101Y-92079080D01*
X209693142Y-92118854D01*
X209504784Y-92196875D01*
X209335266Y-92310143D01*
X209191103Y-92454306D01*
X209077835Y-92623824D01*
X209071313Y-92639569D01*
X209055997Y-92616646D01*
X208911834Y-92472483D01*
X208742316Y-92359215D01*
X208553958Y-92281194D01*
X208353999Y-92241420D01*
X208150121Y-92241420D01*
X207950162Y-92281194D01*
X207888263Y-92306833D01*
X207881870Y-92300440D01*
X207278620Y-92300440D01*
X207278620Y-92903690D01*
X207283961Y-92909031D01*
X207256834Y-92974522D01*
X207217060Y-93174481D01*
X207217060Y-93378359D01*
X207256834Y-93578318D01*
X207334855Y-93766676D01*
X207448123Y-93936194D01*
X207592286Y-94080357D01*
X207761804Y-94193625D01*
X207950162Y-94271646D01*
X208150121Y-94311420D01*
X208212258Y-94311420D01*
X208290930Y-94390092D01*
X208314729Y-94419091D01*
X208343727Y-94442889D01*
X208430453Y-94514064D01*
X208485739Y-94543615D01*
X208562483Y-94584636D01*
X208705744Y-94628093D01*
X208817397Y-94639090D01*
X208817406Y-94639090D01*
X208854729Y-94642766D01*
X208892052Y-94639090D01*
X214651169Y-94639090D01*
X215512700Y-95500622D01*
X215512700Y-95562759D01*
X215552474Y-95762718D01*
X215630495Y-95951076D01*
X215743763Y-96120594D01*
X215887926Y-96264757D01*
X216057444Y-96378025D01*
X216245802Y-96456046D01*
X216445761Y-96495820D01*
X216649639Y-96495820D01*
X216849598Y-96456046D01*
X217037956Y-96378025D01*
X217119600Y-96323472D01*
X217119600Y-97859321D01*
X217104878Y-98009469D01*
X217070647Y-98122846D01*
X217015046Y-98227417D01*
X216940194Y-98319195D01*
X216848935Y-98394691D01*
X216744760Y-98451019D01*
X216631624Y-98486040D01*
X216483579Y-98501600D01*
X211932848Y-98501600D01*
X212017804Y-98446449D01*
X212178201Y-98290249D01*
X212305043Y-98105758D01*
X212393455Y-97900067D01*
X212440040Y-97681080D01*
X212440040Y-97181080D01*
X211432040Y-97181080D01*
X211432040Y-97201080D01*
X211178040Y-97201080D01*
X211178040Y-97181080D01*
X210170040Y-97181080D01*
X210170040Y-97681080D01*
X210216625Y-97900067D01*
X210305037Y-98105758D01*
X210431879Y-98290249D01*
X210592276Y-98446449D01*
X210677232Y-98501600D01*
X202712848Y-98501600D01*
X202797804Y-98446449D01*
X202958201Y-98290249D01*
X203085043Y-98105758D01*
X203173455Y-97900067D01*
X203220040Y-97681080D01*
X203220040Y-97181080D01*
X202212040Y-97181080D01*
X202212040Y-97201080D01*
X201958040Y-97201080D01*
X201958040Y-97181080D01*
X200950040Y-97181080D01*
X200950040Y-97681080D01*
X200996625Y-97900067D01*
X201085037Y-98105758D01*
X201211879Y-98290249D01*
X201372276Y-98446449D01*
X201457232Y-98501600D01*
X197110879Y-98501600D01*
X196960731Y-98486878D01*
X196847354Y-98452647D01*
X196742783Y-98397046D01*
X196651005Y-98322194D01*
X196575509Y-98230935D01*
X196519181Y-98126760D01*
X196484160Y-98013624D01*
X196468600Y-97865579D01*
X196468600Y-96427080D01*
X200950040Y-96427080D01*
X200950040Y-96927080D01*
X201958040Y-96927080D01*
X201958040Y-95586126D01*
X202212040Y-95586126D01*
X202212040Y-96927080D01*
X203220040Y-96927080D01*
X203220040Y-96427080D01*
X210170040Y-96427080D01*
X210170040Y-96927080D01*
X211178040Y-96927080D01*
X211178040Y-95586126D01*
X211432040Y-95586126D01*
X211432040Y-96927080D01*
X212440040Y-96927080D01*
X212440040Y-96427080D01*
X212393455Y-96208093D01*
X212305043Y-96002402D01*
X212178201Y-95817911D01*
X212017804Y-95661711D01*
X211830016Y-95539804D01*
X211606914Y-95459961D01*
X211432040Y-95586126D01*
X211178040Y-95586126D01*
X211003166Y-95459961D01*
X210780064Y-95539804D01*
X210592276Y-95661711D01*
X210431879Y-95817911D01*
X210305037Y-96002402D01*
X210216625Y-96208093D01*
X210170040Y-96427080D01*
X203220040Y-96427080D01*
X203173455Y-96208093D01*
X203085043Y-96002402D01*
X202958201Y-95817911D01*
X202797804Y-95661711D01*
X202610016Y-95539804D01*
X202386914Y-95459961D01*
X202212040Y-95586126D01*
X201958040Y-95586126D01*
X201783166Y-95459961D01*
X201560064Y-95539804D01*
X201372276Y-95661711D01*
X201211879Y-95817911D01*
X201085037Y-96002402D01*
X200996625Y-96208093D01*
X200950040Y-96427080D01*
X196468600Y-96427080D01*
X196468600Y-92681080D01*
X200950040Y-92681080D01*
X200950040Y-93181080D01*
X200996625Y-93400067D01*
X201085037Y-93605758D01*
X201211879Y-93790249D01*
X201372276Y-93946449D01*
X201560064Y-94068356D01*
X201783166Y-94148199D01*
X201958040Y-94022034D01*
X201958040Y-92681080D01*
X200950040Y-92681080D01*
X196468600Y-92681080D01*
X196468600Y-59500200D01*
X196561748Y-59500200D01*
X196574008Y-59624682D01*
X196610318Y-59744380D01*
X196669283Y-59854694D01*
X196748635Y-59951385D01*
X196845326Y-60030737D01*
X196955640Y-60089702D01*
X197075338Y-60126012D01*
X197199820Y-60138272D01*
X197664070Y-60135200D01*
X197822820Y-59976450D01*
X197822820Y-58877200D01*
X196723570Y-58877200D01*
X196564820Y-59035950D01*
X196561748Y-59500200D01*
X196468600Y-59500200D01*
X196468600Y-57715675D01*
X196469266Y-57708887D01*
X196473901Y-57708400D01*
X196635772Y-57708400D01*
X196610318Y-57756020D01*
%TA.AperFunction,Conductor*%
D21*
G36*
X196610318Y-57756020D02*
G01*
X196574008Y-57875718D01*
X196561748Y-58000200D01*
X196564820Y-58464450D01*
X196723570Y-58623200D01*
X197822820Y-58623200D01*
X197822820Y-58603200D01*
X198076820Y-58603200D01*
X198076820Y-58623200D01*
X198096820Y-58623200D01*
X198096820Y-58877200D01*
X198076820Y-58877200D01*
X198076820Y-59976450D01*
X198235570Y-60135200D01*
X198459804Y-60136684D01*
X198455578Y-60150614D01*
X198448113Y-60226403D01*
X198440904Y-60299600D01*
X198444581Y-60336933D01*
X198444580Y-89434178D01*
X198440904Y-89471500D01*
X198444580Y-89508822D01*
X198444580Y-89508832D01*
X198455577Y-89620485D01*
X198478968Y-89697596D01*
X198499034Y-89763746D01*
X198569606Y-89895776D01*
X198609451Y-89944326D01*
X198664579Y-90011501D01*
X198693582Y-90035303D01*
X199552640Y-90894362D01*
X199576439Y-90923361D01*
X199692164Y-91018334D01*
X199824193Y-91088906D01*
X199967454Y-91132363D01*
X200079107Y-91143360D01*
X200079115Y-91143360D01*
X200116440Y-91147036D01*
X200153765Y-91143360D01*
X201400544Y-91143360D01*
X201372276Y-91161711D01*
X201211879Y-91317911D01*
X201085037Y-91502402D01*
X200996625Y-91708093D01*
X200950040Y-91927080D01*
X200950040Y-92427080D01*
X201958040Y-92427080D01*
X201958040Y-92407080D01*
X202212040Y-92407080D01*
X202212040Y-92427080D01*
X202232040Y-92427080D01*
X202232040Y-92681080D01*
X202212040Y-92681080D01*
X202212040Y-94022034D01*
X202386914Y-94148199D01*
X202610016Y-94068356D01*
X202787667Y-93953030D01*
X202904784Y-94031285D01*
X203093142Y-94109306D01*
X203293101Y-94149080D01*
X203496979Y-94149080D01*
X203696938Y-94109306D01*
X203885296Y-94031285D01*
X204054814Y-93918017D01*
X204198977Y-93773854D01*
X204312245Y-93604336D01*
X204390266Y-93415978D01*
X204430040Y-93216019D01*
X204430040Y-93012141D01*
X204390266Y-92812182D01*
X204312245Y-92623824D01*
X204198977Y-92454306D01*
X204054814Y-92310143D01*
X203885296Y-92196875D01*
X203696938Y-92118854D01*
X203496979Y-92079080D01*
X203293101Y-92079080D01*
X203220040Y-92093613D01*
X203220040Y-91927080D01*
X203173455Y-91708093D01*
X203085043Y-91502402D01*
X202958201Y-91317911D01*
X202797804Y-91161711D01*
X202769536Y-91143360D01*
X202991879Y-91143360D01*
X204536961Y-92688443D01*
X204560759Y-92717441D01*
X204676484Y-92812414D01*
X204808513Y-92882986D01*
X204951774Y-92926443D01*
X205063427Y-92937440D01*
X205063436Y-92937440D01*
X205100759Y-92941116D01*
X205138082Y-92937440D01*
X205626102Y-92937440D01*
X205651126Y-92957977D01*
X205761440Y-93016942D01*
X205881138Y-93053252D01*
X206005620Y-93065512D01*
X206505620Y-93065512D01*
X206630102Y-93053252D01*
X206705968Y-93030238D01*
X206763688Y-93049526D01*
X206873870Y-93062440D01*
X207032620Y-92903690D01*
X207032620Y-92786244D01*
X207036157Y-92781934D01*
X207095122Y-92671620D01*
X207131432Y-92551922D01*
X207143692Y-92427440D01*
X207143692Y-92165512D01*
X207405620Y-92165512D01*
X207530102Y-92153252D01*
X207649800Y-92116942D01*
X207760114Y-92057977D01*
X207764424Y-92054440D01*
X207881870Y-92054440D01*
X208040620Y-91895690D01*
X208034668Y-91820506D01*
X208008909Y-91726171D01*
X208031432Y-91651922D01*
X208043692Y-91527440D01*
X208043692Y-91027440D01*
X208031432Y-90902958D01*
X207995122Y-90783260D01*
X207936157Y-90672946D01*
X207905302Y-90635349D01*
X207904623Y-90628454D01*
X207861166Y-90485193D01*
X207790594Y-90353164D01*
X207695621Y-90237439D01*
X207666618Y-90213637D01*
X207589664Y-90136683D01*
X207960961Y-89982887D01*
X208392535Y-89694518D01*
X208759558Y-89327495D01*
X209047927Y-88895921D01*
X209246559Y-88416381D01*
X209347820Y-87907305D01*
X209347820Y-87388255D01*
X209246559Y-86879179D01*
X209047927Y-86399639D01*
X208759558Y-85968065D01*
X208392535Y-85601042D01*
X207960961Y-85312673D01*
X207481421Y-85114041D01*
X206972345Y-85012780D01*
X206453295Y-85012780D01*
X205944219Y-85114041D01*
X205464679Y-85312673D01*
X205033105Y-85601042D01*
X204826596Y-85807551D01*
X204785364Y-85730413D01*
X204714189Y-85643687D01*
X204690391Y-85614689D01*
X204661394Y-85590892D01*
X200864600Y-81794099D01*
X200864600Y-73968861D01*
X200943482Y-73889980D01*
X205608322Y-73889980D01*
X205633346Y-73910517D01*
X205743660Y-73969482D01*
X205863358Y-74005792D01*
X205987840Y-74018052D01*
X206385767Y-74018052D01*
X206379759Y-74079047D01*
X206379759Y-74079057D01*
X206376083Y-74116379D01*
X206379759Y-74153702D01*
X206379760Y-76199049D01*
X206376083Y-76236381D01*
X206379760Y-76273714D01*
X206390757Y-76385367D01*
X206396138Y-76403105D01*
X206434213Y-76528627D01*
X206504785Y-76660657D01*
X206575960Y-76747383D01*
X206599759Y-76776382D01*
X206628757Y-76800180D01*
X206930953Y-77102376D01*
X206954149Y-77130641D01*
X206884907Y-77297806D01*
X206829760Y-77575045D01*
X206829760Y-77857715D01*
X206884907Y-78134954D01*
X206993080Y-78396107D01*
X207150123Y-78631139D01*
X207350001Y-78831017D01*
X207582519Y-78986380D01*
X207350001Y-79141743D01*
X207150123Y-79341621D01*
X206993080Y-79576653D01*
X206884907Y-79837806D01*
X206829760Y-80115045D01*
X206829760Y-80397715D01*
X206884907Y-80674954D01*
X206993080Y-80936107D01*
X207150123Y-81171139D01*
X207350001Y-81371017D01*
X207585033Y-81528060D01*
X207595625Y-81532447D01*
X207409629Y-81643995D01*
X207201241Y-81832966D01*
X207033723Y-82058960D01*
X206913514Y-82313293D01*
X206872856Y-82447341D01*
X206994845Y-82669380D01*
X208137760Y-82669380D01*
X208137760Y-82649380D01*
X208391760Y-82649380D01*
X208391760Y-82669380D01*
X208411760Y-82669380D01*
X208411760Y-82923380D01*
X208391760Y-82923380D01*
X208391760Y-82943380D01*
X208137760Y-82943380D01*
X208137760Y-82923380D01*
X206994845Y-82923380D01*
X206872856Y-83145419D01*
X206877697Y-83161381D01*
X205841223Y-83161381D01*
X205815534Y-83135692D01*
X205841145Y-83073861D01*
X205907820Y-82738663D01*
X205907820Y-82396897D01*
X205841145Y-82061699D01*
X205710357Y-81745949D01*
X205520483Y-81461782D01*
X205278818Y-81220117D01*
X204994651Y-81030243D01*
X204678901Y-80899455D01*
X204343703Y-80832780D01*
X204001937Y-80832780D01*
X203666739Y-80899455D01*
X203350989Y-81030243D01*
X203066822Y-81220117D01*
X202825157Y-81461782D01*
X202635283Y-81745949D01*
X202504495Y-82061699D01*
X202437820Y-82396897D01*
X202437820Y-82738663D01*
X202504495Y-83073861D01*
X202635283Y-83389611D01*
X202825157Y-83673778D01*
X203066822Y-83915443D01*
X203350989Y-84105317D01*
X203666739Y-84236105D01*
X204001937Y-84302780D01*
X204343703Y-84302780D01*
X204678901Y-84236105D01*
X204740732Y-84210494D01*
X204962622Y-84432384D01*
X204986420Y-84461382D01*
X205015418Y-84485180D01*
X205102144Y-84556355D01*
X205234174Y-84626927D01*
X205377435Y-84670384D01*
X205489088Y-84681381D01*
X205489098Y-84681381D01*
X205526421Y-84685057D01*
X205563744Y-84681381D01*
X208840890Y-84681381D01*
X208802451Y-84825365D01*
X208780411Y-85166419D01*
X208825331Y-85505219D01*
X208935484Y-85828746D01*
X209041482Y-86027054D01*
X209316108Y-86134887D01*
X210343215Y-85107780D01*
X210329073Y-85093638D01*
X210508678Y-84914033D01*
X210522820Y-84928175D01*
X211549927Y-83901068D01*
X211442094Y-83626442D01*
X211299694Y-83556380D01*
X214666717Y-83556380D01*
X214770123Y-83711139D01*
X214970001Y-83911017D01*
X215203982Y-84067358D01*
X213002700Y-86268641D01*
X212758244Y-86513097D01*
X212739452Y-86494305D01*
X212496231Y-86331790D01*
X212225978Y-86219848D01*
X211939080Y-86162780D01*
X211757428Y-86162780D01*
X211729534Y-86134886D01*
X212004158Y-86027054D01*
X212155036Y-85720396D01*
X212243189Y-85390195D01*
X212265229Y-85049141D01*
X212220309Y-84710341D01*
X212110156Y-84386814D01*
X212004158Y-84188506D01*
X211729532Y-84080673D01*
X210702425Y-85107780D01*
X210716568Y-85121923D01*
X210536963Y-85301528D01*
X210522820Y-85287385D01*
X209495713Y-86314492D01*
X209603546Y-86589118D01*
X209910204Y-86739996D01*
X210240405Y-86828149D01*
X210541485Y-86847606D01*
X210476830Y-86944369D01*
X210364888Y-87214622D01*
X210307820Y-87501520D01*
X210307820Y-87794040D01*
X210364888Y-88080938D01*
X210476830Y-88351191D01*
X210639345Y-88594412D01*
X210846188Y-88801255D01*
X211089409Y-88963770D01*
X211359662Y-89075712D01*
X211646560Y-89132780D01*
X211939080Y-89132780D01*
X212126302Y-89095539D01*
X212124340Y-89105401D01*
X212124340Y-89309279D01*
X212164114Y-89509238D01*
X212242135Y-89697596D01*
X212355403Y-89867114D01*
X212499566Y-90011277D01*
X212669084Y-90124545D01*
X212857442Y-90202566D01*
X213057401Y-90242340D01*
X213261279Y-90242340D01*
X213461238Y-90202566D01*
X213649596Y-90124545D01*
X213819114Y-90011277D01*
X213963277Y-89867114D01*
X214076545Y-89697596D01*
X214154566Y-89509238D01*
X214194340Y-89309279D01*
X214194340Y-89105401D01*
X214154566Y-88905442D01*
X214076545Y-88717084D01*
X213963277Y-88547566D01*
X213919340Y-88503629D01*
X213919340Y-87501603D01*
X214077501Y-87343442D01*
X217119600Y-84301344D01*
X217119600Y-94598168D01*
X217037956Y-94543615D01*
X216849598Y-94465594D01*
X216649639Y-94425820D01*
X216587502Y-94425820D01*
X215529774Y-93368093D01*
X215505971Y-93339089D01*
X215390246Y-93244116D01*
X215258217Y-93173544D01*
X215114956Y-93130087D01*
X215003303Y-93119090D01*
X215003292Y-93119090D01*
X214965970Y-93115414D01*
X214928648Y-93119090D01*
X212440040Y-93119090D01*
X212440040Y-92681080D01*
X211432040Y-92681080D01*
X211432040Y-92701080D01*
X211178040Y-92701080D01*
X211178040Y-92681080D01*
X211158040Y-92681080D01*
X211158040Y-92427080D01*
X211178040Y-92427080D01*
X211178040Y-91086126D01*
X211432040Y-91086126D01*
X211432040Y-92427080D01*
X212440040Y-92427080D01*
X212440040Y-91927080D01*
X212393455Y-91708093D01*
X212305043Y-91502402D01*
X212178201Y-91317911D01*
X212017804Y-91161711D01*
X211830016Y-91039804D01*
X211606914Y-90959961D01*
X211432040Y-91086126D01*
X211178040Y-91086126D01*
X211003166Y-90959961D01*
X210780064Y-91039804D01*
X210592276Y-91161711D01*
X210431879Y-91317911D01*
X210305037Y-91502402D01*
X210216625Y-91708093D01*
X210170040Y-91927080D01*
X210170040Y-92093613D01*
X210096979Y-92079080D01*
X209893101Y-92079080D01*
X209693142Y-92118854D01*
X209504784Y-92196875D01*
X209335266Y-92310143D01*
X209191103Y-92454306D01*
X209077835Y-92623824D01*
X209071313Y-92639569D01*
X209055997Y-92616646D01*
X208911834Y-92472483D01*
X208742316Y-92359215D01*
X208553958Y-92281194D01*
X208353999Y-92241420D01*
X208150121Y-92241420D01*
X207950162Y-92281194D01*
X207888263Y-92306833D01*
X207881870Y-92300440D01*
X207278620Y-92300440D01*
X207278620Y-92903690D01*
X207283961Y-92909031D01*
X207256834Y-92974522D01*
X207217060Y-93174481D01*
X207217060Y-93378359D01*
X207256834Y-93578318D01*
X207334855Y-93766676D01*
X207448123Y-93936194D01*
X207592286Y-94080357D01*
X207761804Y-94193625D01*
X207950162Y-94271646D01*
X208150121Y-94311420D01*
X208212258Y-94311420D01*
X208290930Y-94390092D01*
X208314729Y-94419091D01*
X208343727Y-94442889D01*
X208430453Y-94514064D01*
X208485739Y-94543615D01*
X208562483Y-94584636D01*
X208705744Y-94628093D01*
X208817397Y-94639090D01*
X208817406Y-94639090D01*
X208854729Y-94642766D01*
X208892052Y-94639090D01*
X214651169Y-94639090D01*
X215512700Y-95500622D01*
X215512700Y-95562759D01*
X215552474Y-95762718D01*
X215630495Y-95951076D01*
X215743763Y-96120594D01*
X215887926Y-96264757D01*
X216057444Y-96378025D01*
X216245802Y-96456046D01*
X216445761Y-96495820D01*
X216649639Y-96495820D01*
X216849598Y-96456046D01*
X217037956Y-96378025D01*
X217119600Y-96323472D01*
X217119600Y-97859321D01*
X217104878Y-98009469D01*
X217070647Y-98122846D01*
X217015046Y-98227417D01*
X216940194Y-98319195D01*
X216848935Y-98394691D01*
X216744760Y-98451019D01*
X216631624Y-98486040D01*
X216483579Y-98501600D01*
X211932848Y-98501600D01*
X212017804Y-98446449D01*
X212178201Y-98290249D01*
X212305043Y-98105758D01*
X212393455Y-97900067D01*
X212440040Y-97681080D01*
X212440040Y-97181080D01*
X211432040Y-97181080D01*
X211432040Y-97201080D01*
X211178040Y-97201080D01*
X211178040Y-97181080D01*
X210170040Y-97181080D01*
X210170040Y-97681080D01*
X210216625Y-97900067D01*
X210305037Y-98105758D01*
X210431879Y-98290249D01*
X210592276Y-98446449D01*
X210677232Y-98501600D01*
X202712848Y-98501600D01*
X202797804Y-98446449D01*
X202958201Y-98290249D01*
X203085043Y-98105758D01*
X203173455Y-97900067D01*
X203220040Y-97681080D01*
X203220040Y-97181080D01*
X202212040Y-97181080D01*
X202212040Y-97201080D01*
X201958040Y-97201080D01*
X201958040Y-97181080D01*
X200950040Y-97181080D01*
X200950040Y-97681080D01*
X200996625Y-97900067D01*
X201085037Y-98105758D01*
X201211879Y-98290249D01*
X201372276Y-98446449D01*
X201457232Y-98501600D01*
X197110879Y-98501600D01*
X196960731Y-98486878D01*
X196847354Y-98452647D01*
X196742783Y-98397046D01*
X196651005Y-98322194D01*
X196575509Y-98230935D01*
X196519181Y-98126760D01*
X196484160Y-98013624D01*
X196468600Y-97865579D01*
X196468600Y-96427080D01*
X200950040Y-96427080D01*
X200950040Y-96927080D01*
X201958040Y-96927080D01*
X201958040Y-95586126D01*
X202212040Y-95586126D01*
X202212040Y-96927080D01*
X203220040Y-96927080D01*
X203220040Y-96427080D01*
X210170040Y-96427080D01*
X210170040Y-96927080D01*
X211178040Y-96927080D01*
X211178040Y-95586126D01*
X211432040Y-95586126D01*
X211432040Y-96927080D01*
X212440040Y-96927080D01*
X212440040Y-96427080D01*
X212393455Y-96208093D01*
X212305043Y-96002402D01*
X212178201Y-95817911D01*
X212017804Y-95661711D01*
X211830016Y-95539804D01*
X211606914Y-95459961D01*
X211432040Y-95586126D01*
X211178040Y-95586126D01*
X211003166Y-95459961D01*
X210780064Y-95539804D01*
X210592276Y-95661711D01*
X210431879Y-95817911D01*
X210305037Y-96002402D01*
X210216625Y-96208093D01*
X210170040Y-96427080D01*
X203220040Y-96427080D01*
X203173455Y-96208093D01*
X203085043Y-96002402D01*
X202958201Y-95817911D01*
X202797804Y-95661711D01*
X202610016Y-95539804D01*
X202386914Y-95459961D01*
X202212040Y-95586126D01*
X201958040Y-95586126D01*
X201783166Y-95459961D01*
X201560064Y-95539804D01*
X201372276Y-95661711D01*
X201211879Y-95817911D01*
X201085037Y-96002402D01*
X200996625Y-96208093D01*
X200950040Y-96427080D01*
X196468600Y-96427080D01*
X196468600Y-92681080D01*
X200950040Y-92681080D01*
X200950040Y-93181080D01*
X200996625Y-93400067D01*
X201085037Y-93605758D01*
X201211879Y-93790249D01*
X201372276Y-93946449D01*
X201560064Y-94068356D01*
X201783166Y-94148199D01*
X201958040Y-94022034D01*
X201958040Y-92681080D01*
X200950040Y-92681080D01*
X196468600Y-92681080D01*
X196468600Y-59500200D01*
X196561748Y-59500200D01*
X196574008Y-59624682D01*
X196610318Y-59744380D01*
X196669283Y-59854694D01*
X196748635Y-59951385D01*
X196845326Y-60030737D01*
X196955640Y-60089702D01*
X197075338Y-60126012D01*
X197199820Y-60138272D01*
X197664070Y-60135200D01*
X197822820Y-59976450D01*
X197822820Y-58877200D01*
X196723570Y-58877200D01*
X196564820Y-59035950D01*
X196561748Y-59500200D01*
X196468600Y-59500200D01*
X196468600Y-57715675D01*
X196469266Y-57708887D01*
X196473901Y-57708400D01*
X196635772Y-57708400D01*
X196610318Y-57756020D01*
G37*
%TD.AperFunction*%
D20*
X202940381Y-86687503D02*
X202940381Y-86931754D01*
X202786295Y-86701148D01*
X202579452Y-86494305D01*
X202336231Y-86331790D01*
X202065978Y-86219848D01*
X201779080Y-86162780D01*
X201486560Y-86162780D01*
X201199662Y-86219848D01*
X200929409Y-86331790D01*
X200686188Y-86494305D01*
X200479345Y-86701148D01*
X200316830Y-86944369D01*
X200204888Y-87214622D01*
X200147820Y-87501520D01*
X200147820Y-87794040D01*
X200204888Y-88080938D01*
X200316830Y-88351191D01*
X200479345Y-88594412D01*
X200686188Y-88801255D01*
X200929409Y-88963770D01*
X201199662Y-89075712D01*
X201486560Y-89132780D01*
X201779080Y-89132780D01*
X202065978Y-89075712D01*
X202336231Y-88963770D01*
X202579452Y-88801255D01*
X202786295Y-88594412D01*
X202940380Y-88363807D01*
X202940380Y-89086197D01*
X202936704Y-89123520D01*
X202940380Y-89160842D01*
X202940380Y-89160852D01*
X202951377Y-89272505D01*
X202994834Y-89415766D01*
X203065406Y-89547796D01*
X203082475Y-89568594D01*
X203127420Y-89623360D01*
X200431242Y-89623360D01*
X199964580Y-89156699D01*
X199964580Y-83711701D01*
X202940381Y-86687503D01*
%TA.AperFunction,Conductor*%
D21*
G36*
X202940381Y-86687503D02*
G01*
X202940381Y-86931754D01*
X202786295Y-86701148D01*
X202579452Y-86494305D01*
X202336231Y-86331790D01*
X202065978Y-86219848D01*
X201779080Y-86162780D01*
X201486560Y-86162780D01*
X201199662Y-86219848D01*
X200929409Y-86331790D01*
X200686188Y-86494305D01*
X200479345Y-86701148D01*
X200316830Y-86944369D01*
X200204888Y-87214622D01*
X200147820Y-87501520D01*
X200147820Y-87794040D01*
X200204888Y-88080938D01*
X200316830Y-88351191D01*
X200479345Y-88594412D01*
X200686188Y-88801255D01*
X200929409Y-88963770D01*
X201199662Y-89075712D01*
X201486560Y-89132780D01*
X201779080Y-89132780D01*
X202065978Y-89075712D01*
X202336231Y-88963770D01*
X202579452Y-88801255D01*
X202786295Y-88594412D01*
X202940380Y-88363807D01*
X202940380Y-89086197D01*
X202936704Y-89123520D01*
X202940380Y-89160842D01*
X202940380Y-89160852D01*
X202951377Y-89272505D01*
X202994834Y-89415766D01*
X203065406Y-89547796D01*
X203082475Y-89568594D01*
X203127420Y-89623360D01*
X200431242Y-89623360D01*
X199964580Y-89156699D01*
X199964580Y-83711701D01*
X202940381Y-86687503D01*
G37*
%TD.AperFunction*%
D20*
X211915983Y-77487154D02*
X212060146Y-77631317D01*
X212229664Y-77744585D01*
X212346601Y-77793022D01*
X214486072Y-79932494D01*
X214449760Y-80115045D01*
X214449760Y-80397715D01*
X214504907Y-80674954D01*
X214613080Y-80936107D01*
X214770123Y-81171139D01*
X214970001Y-81371017D01*
X215202519Y-81526380D01*
X214970001Y-81681743D01*
X214770123Y-81881621D01*
X214666717Y-82036380D01*
X213254389Y-82036380D01*
X213346674Y-81974717D01*
X213490837Y-81830554D01*
X213604105Y-81661036D01*
X213682126Y-81472678D01*
X213721900Y-81272719D01*
X213721900Y-81068841D01*
X213682126Y-80868882D01*
X213604105Y-80680524D01*
X213490837Y-80511006D01*
X213346674Y-80366843D01*
X213177156Y-80253575D01*
X212988798Y-80175554D01*
X212788839Y-80135780D01*
X212584961Y-80135780D01*
X212385002Y-80175554D01*
X212196644Y-80253575D01*
X212027126Y-80366843D01*
X211983189Y-80410780D01*
X209697161Y-80410780D01*
X209699760Y-80397715D01*
X209699760Y-80115045D01*
X209644613Y-79837806D01*
X209536440Y-79576653D01*
X209379397Y-79341621D01*
X209179519Y-79141743D01*
X208947001Y-78986380D01*
X209179519Y-78831017D01*
X209379397Y-78631139D01*
X209536440Y-78396107D01*
X209644613Y-78134954D01*
X209699760Y-77857715D01*
X209699760Y-77575045D01*
X209655269Y-77351379D01*
X211825261Y-77351379D01*
X211915983Y-77487154D01*
%TA.AperFunction,Conductor*%
D21*
G36*
X211915983Y-77487154D02*
G01*
X212060146Y-77631317D01*
X212229664Y-77744585D01*
X212346601Y-77793022D01*
X214486072Y-79932494D01*
X214449760Y-80115045D01*
X214449760Y-80397715D01*
X214504907Y-80674954D01*
X214613080Y-80936107D01*
X214770123Y-81171139D01*
X214970001Y-81371017D01*
X215202519Y-81526380D01*
X214970001Y-81681743D01*
X214770123Y-81881621D01*
X214666717Y-82036380D01*
X213254389Y-82036380D01*
X213346674Y-81974717D01*
X213490837Y-81830554D01*
X213604105Y-81661036D01*
X213682126Y-81472678D01*
X213721900Y-81272719D01*
X213721900Y-81068841D01*
X213682126Y-80868882D01*
X213604105Y-80680524D01*
X213490837Y-80511006D01*
X213346674Y-80366843D01*
X213177156Y-80253575D01*
X212988798Y-80175554D01*
X212788839Y-80135780D01*
X212584961Y-80135780D01*
X212385002Y-80175554D01*
X212196644Y-80253575D01*
X212027126Y-80366843D01*
X211983189Y-80410780D01*
X209697161Y-80410780D01*
X209699760Y-80397715D01*
X209699760Y-80115045D01*
X209644613Y-79837806D01*
X209536440Y-79576653D01*
X209379397Y-79341621D01*
X209179519Y-79141743D01*
X208947001Y-78986380D01*
X209179519Y-78831017D01*
X209379397Y-78631139D01*
X209536440Y-78396107D01*
X209644613Y-78134954D01*
X209699760Y-77857715D01*
X209699760Y-77575045D01*
X209655269Y-77351379D01*
X211825261Y-77351379D01*
X211915983Y-77487154D01*
G37*
%TD.AperFunction*%
D20*
X215690441Y-72630894D02*
X214248757Y-74072580D01*
X214219759Y-74096378D01*
X214195961Y-74125376D01*
X214195960Y-74125377D01*
X214124785Y-74212103D01*
X214054213Y-74344133D01*
X214010757Y-74487394D01*
X213996083Y-74636379D01*
X213999760Y-74673711D01*
X213999759Y-76554056D01*
X213996083Y-76591379D01*
X213999759Y-76628701D01*
X213999759Y-76628711D01*
X214010756Y-76740364D01*
X214029338Y-76801621D01*
X214054213Y-76883625D01*
X214124785Y-77015655D01*
X214142018Y-77036653D01*
X214219758Y-77131380D01*
X214248761Y-77155183D01*
X214486072Y-77392493D01*
X214449760Y-77575045D01*
X214449760Y-77746579D01*
X213734609Y-77031428D01*
X213754920Y-76929319D01*
X213754920Y-76725441D01*
X213715146Y-76525482D01*
X213637125Y-76337124D01*
X213523857Y-76167606D01*
X213379694Y-76023443D01*
X213210176Y-75910175D01*
X213021818Y-75832154D01*
X212821859Y-75792380D01*
X212617981Y-75792380D01*
X212421918Y-75831379D01*
X209702832Y-75831379D01*
X209702832Y-74813109D01*
X215636443Y-68879499D01*
X215665441Y-68855701D01*
X215690441Y-68825238D01*
X215690441Y-72630894D01*
%TA.AperFunction,Conductor*%
D21*
G36*
X215690441Y-72630894D02*
G01*
X214248757Y-74072580D01*
X214219759Y-74096378D01*
X214195961Y-74125376D01*
X214195960Y-74125377D01*
X214124785Y-74212103D01*
X214054213Y-74344133D01*
X214010757Y-74487394D01*
X213996083Y-74636379D01*
X213999760Y-74673711D01*
X213999759Y-76554056D01*
X213996083Y-76591379D01*
X213999759Y-76628701D01*
X213999759Y-76628711D01*
X214010756Y-76740364D01*
X214029338Y-76801621D01*
X214054213Y-76883625D01*
X214124785Y-77015655D01*
X214142018Y-77036653D01*
X214219758Y-77131380D01*
X214248761Y-77155183D01*
X214486072Y-77392493D01*
X214449760Y-77575045D01*
X214449760Y-77746579D01*
X213734609Y-77031428D01*
X213754920Y-76929319D01*
X213754920Y-76725441D01*
X213715146Y-76525482D01*
X213637125Y-76337124D01*
X213523857Y-76167606D01*
X213379694Y-76023443D01*
X213210176Y-75910175D01*
X213021818Y-75832154D01*
X212821859Y-75792380D01*
X212617981Y-75792380D01*
X212421918Y-75831379D01*
X209702832Y-75831379D01*
X209702832Y-74813109D01*
X215636443Y-68879499D01*
X215665441Y-68855701D01*
X215690441Y-68825238D01*
X215690441Y-72630894D01*
G37*
%TD.AperFunction*%
D20*
X207490025Y-58449713D02*
X207225626Y-58545476D01*
X207084736Y-58835091D01*
X207003056Y-59146628D01*
X206983722Y-59468115D01*
X207027479Y-59787195D01*
X207132645Y-60091608D01*
X207225626Y-60265564D01*
X207490027Y-60361328D01*
X208445835Y-59405520D01*
X208431693Y-59391378D01*
X208611298Y-59211773D01*
X208625440Y-59225915D01*
X208639583Y-59211773D01*
X208819188Y-59391378D01*
X208805045Y-59405520D01*
X209760853Y-60361328D01*
X210025254Y-60265564D01*
X210166144Y-59975949D01*
X210247824Y-59664412D01*
X210267158Y-59342925D01*
X210223401Y-59023845D01*
X210118235Y-58719432D01*
X210025254Y-58545476D01*
X209760855Y-58449713D01*
X209775369Y-58435199D01*
X213807390Y-58435199D01*
X213676522Y-58631057D01*
X213553272Y-58928608D01*
X213490440Y-59244487D01*
X213490440Y-59566553D01*
X213553272Y-59882432D01*
X213676522Y-60179983D01*
X213855453Y-60447772D01*
X214083188Y-60675507D01*
X214350977Y-60854438D01*
X214365440Y-60860429D01*
X214365441Y-68000897D01*
X213124136Y-69242202D01*
X213210592Y-69033478D01*
X213267660Y-68746580D01*
X213267660Y-68454060D01*
X213210592Y-68167162D01*
X213098650Y-67896909D01*
X212936135Y-67653688D01*
X212729292Y-67446845D01*
X212486071Y-67284330D01*
X212215818Y-67172388D01*
X211928920Y-67115320D01*
X211747268Y-67115320D01*
X211719374Y-67087426D01*
X211993998Y-66979594D01*
X212144876Y-66672936D01*
X212233029Y-66342735D01*
X212255069Y-66001681D01*
X212210149Y-65662881D01*
X212099996Y-65339354D01*
X211993998Y-65141046D01*
X211719372Y-65033213D01*
X210692265Y-66060320D01*
X210706408Y-66074463D01*
X210526803Y-66254068D01*
X210512660Y-66239925D01*
X210498518Y-66254068D01*
X210318913Y-66074463D01*
X210333055Y-66060320D01*
X209305948Y-65033213D01*
X209031322Y-65141046D01*
X208880444Y-65447704D01*
X208846737Y-65573962D01*
X208126383Y-64853608D01*
X209485553Y-64853608D01*
X210512660Y-65880715D01*
X211539767Y-64853608D01*
X211431934Y-64578982D01*
X211125276Y-64428104D01*
X210795075Y-64339951D01*
X210454021Y-64317911D01*
X210115221Y-64362831D01*
X209791694Y-64472984D01*
X209593386Y-64578982D01*
X209485553Y-64853608D01*
X208126383Y-64853608D01*
X206282098Y-63009323D01*
X206258295Y-62980319D01*
X206142570Y-62885346D01*
X206010541Y-62814774D01*
X205867280Y-62771317D01*
X205755627Y-62760320D01*
X205755616Y-62760320D01*
X205724540Y-62757259D01*
X205700197Y-62698489D01*
X205510323Y-62414322D01*
X205268658Y-62172657D01*
X204984491Y-61982783D01*
X204668741Y-61851995D01*
X204333543Y-61785320D01*
X203991777Y-61785320D01*
X203656579Y-61851995D01*
X203340829Y-61982783D01*
X203056662Y-62172657D01*
X202814997Y-62414322D01*
X202625123Y-62698489D01*
X202494335Y-63014239D01*
X202427660Y-63349437D01*
X202427660Y-63691203D01*
X202494335Y-64026401D01*
X202625123Y-64342151D01*
X202814997Y-64626318D01*
X203056662Y-64867983D01*
X203340829Y-65057857D01*
X203656579Y-65188645D01*
X203991777Y-65255320D01*
X204333543Y-65255320D01*
X204668741Y-65188645D01*
X204984491Y-65057857D01*
X205268658Y-64867983D01*
X205510323Y-64626318D01*
X205606120Y-64482947D01*
X207119855Y-65996682D01*
X206962185Y-65965320D01*
X206443135Y-65965320D01*
X205934059Y-66066581D01*
X205454519Y-66265213D01*
X205022945Y-66553582D01*
X204655922Y-66920605D01*
X204367553Y-67352179D01*
X204168921Y-67831719D01*
X204067660Y-68340795D01*
X204067660Y-68859845D01*
X204168921Y-69368921D01*
X204367553Y-69848461D01*
X204655922Y-70280035D01*
X205022945Y-70647058D01*
X205454519Y-70935427D01*
X205934059Y-71134059D01*
X206443135Y-71235320D01*
X206962185Y-71235320D01*
X207471261Y-71134059D01*
X207950801Y-70935427D01*
X208382375Y-70647058D01*
X208749398Y-70280035D01*
X208939861Y-69994988D01*
X208939861Y-71241475D01*
X208025912Y-72155424D01*
X208025912Y-71979980D01*
X208013652Y-71855498D01*
X207977342Y-71735800D01*
X207918377Y-71625486D01*
X207839025Y-71528795D01*
X207742334Y-71449443D01*
X207632020Y-71390478D01*
X207512322Y-71354168D01*
X207387840Y-71341908D01*
X206887840Y-71341908D01*
X206763358Y-71354168D01*
X206687840Y-71377076D01*
X206612322Y-71354168D01*
X206487840Y-71341908D01*
X205987840Y-71341908D01*
X205863358Y-71354168D01*
X205743660Y-71390478D01*
X205633346Y-71449443D01*
X205608322Y-71469980D01*
X200876602Y-71469980D01*
X200414590Y-71007969D01*
X200414590Y-69465245D01*
X200469185Y-69546952D01*
X200676028Y-69753795D01*
X200919249Y-69916310D01*
X201189502Y-70028252D01*
X201476400Y-70085320D01*
X201768920Y-70085320D01*
X202055818Y-70028252D01*
X202326071Y-69916310D01*
X202569292Y-69753795D01*
X202776135Y-69546952D01*
X202938650Y-69303731D01*
X203050592Y-69033478D01*
X203107660Y-68746580D01*
X203107660Y-68454060D01*
X203050592Y-68167162D01*
X202938650Y-67896909D01*
X202776135Y-67653688D01*
X202569292Y-67446845D01*
X202326071Y-67284330D01*
X202055818Y-67172388D01*
X201768920Y-67115320D01*
X201476400Y-67115320D01*
X201189502Y-67172388D01*
X200919249Y-67284330D01*
X200676028Y-67446845D01*
X200469185Y-67653688D01*
X200414590Y-67735395D01*
X200414590Y-62440231D01*
X202313888Y-60540933D01*
X207669632Y-60540933D01*
X207765396Y-60805334D01*
X208055011Y-60946224D01*
X208366548Y-61027904D01*
X208688035Y-61047238D01*
X209007115Y-61003481D01*
X209311528Y-60898315D01*
X209485484Y-60805334D01*
X209581248Y-60540933D01*
X208625440Y-59585125D01*
X207669632Y-60540933D01*
X202313888Y-60540933D01*
X202628419Y-60226403D01*
X202628423Y-60226398D01*
X202748455Y-60106367D01*
X202893409Y-60135200D01*
X203166231Y-60135200D01*
X203433809Y-60081975D01*
X203685863Y-59977571D01*
X203912706Y-59825999D01*
X204105619Y-59633086D01*
X204257191Y-59406243D01*
X204361595Y-59154189D01*
X204414820Y-58886611D01*
X204414820Y-58613789D01*
X204379296Y-58435199D01*
X207475511Y-58435199D01*
X207490025Y-58449713D01*
%TA.AperFunction,Conductor*%
D21*
G36*
X207490025Y-58449713D02*
G01*
X207225626Y-58545476D01*
X207084736Y-58835091D01*
X207003056Y-59146628D01*
X206983722Y-59468115D01*
X207027479Y-59787195D01*
X207132645Y-60091608D01*
X207225626Y-60265564D01*
X207490027Y-60361328D01*
X208445835Y-59405520D01*
X208431693Y-59391378D01*
X208611298Y-59211773D01*
X208625440Y-59225915D01*
X208639583Y-59211773D01*
X208819188Y-59391378D01*
X208805045Y-59405520D01*
X209760853Y-60361328D01*
X210025254Y-60265564D01*
X210166144Y-59975949D01*
X210247824Y-59664412D01*
X210267158Y-59342925D01*
X210223401Y-59023845D01*
X210118235Y-58719432D01*
X210025254Y-58545476D01*
X209760855Y-58449713D01*
X209775369Y-58435199D01*
X213807390Y-58435199D01*
X213676522Y-58631057D01*
X213553272Y-58928608D01*
X213490440Y-59244487D01*
X213490440Y-59566553D01*
X213553272Y-59882432D01*
X213676522Y-60179983D01*
X213855453Y-60447772D01*
X214083188Y-60675507D01*
X214350977Y-60854438D01*
X214365440Y-60860429D01*
X214365441Y-68000897D01*
X213124136Y-69242202D01*
X213210592Y-69033478D01*
X213267660Y-68746580D01*
X213267660Y-68454060D01*
X213210592Y-68167162D01*
X213098650Y-67896909D01*
X212936135Y-67653688D01*
X212729292Y-67446845D01*
X212486071Y-67284330D01*
X212215818Y-67172388D01*
X211928920Y-67115320D01*
X211747268Y-67115320D01*
X211719374Y-67087426D01*
X211993998Y-66979594D01*
X212144876Y-66672936D01*
X212233029Y-66342735D01*
X212255069Y-66001681D01*
X212210149Y-65662881D01*
X212099996Y-65339354D01*
X211993998Y-65141046D01*
X211719372Y-65033213D01*
X210692265Y-66060320D01*
X210706408Y-66074463D01*
X210526803Y-66254068D01*
X210512660Y-66239925D01*
X210498518Y-66254068D01*
X210318913Y-66074463D01*
X210333055Y-66060320D01*
X209305948Y-65033213D01*
X209031322Y-65141046D01*
X208880444Y-65447704D01*
X208846737Y-65573962D01*
X208126383Y-64853608D01*
X209485553Y-64853608D01*
X210512660Y-65880715D01*
X211539767Y-64853608D01*
X211431934Y-64578982D01*
X211125276Y-64428104D01*
X210795075Y-64339951D01*
X210454021Y-64317911D01*
X210115221Y-64362831D01*
X209791694Y-64472984D01*
X209593386Y-64578982D01*
X209485553Y-64853608D01*
X208126383Y-64853608D01*
X206282098Y-63009323D01*
X206258295Y-62980319D01*
X206142570Y-62885346D01*
X206010541Y-62814774D01*
X205867280Y-62771317D01*
X205755627Y-62760320D01*
X205755616Y-62760320D01*
X205724540Y-62757259D01*
X205700197Y-62698489D01*
X205510323Y-62414322D01*
X205268658Y-62172657D01*
X204984491Y-61982783D01*
X204668741Y-61851995D01*
X204333543Y-61785320D01*
X203991777Y-61785320D01*
X203656579Y-61851995D01*
X203340829Y-61982783D01*
X203056662Y-62172657D01*
X202814997Y-62414322D01*
X202625123Y-62698489D01*
X202494335Y-63014239D01*
X202427660Y-63349437D01*
X202427660Y-63691203D01*
X202494335Y-64026401D01*
X202625123Y-64342151D01*
X202814997Y-64626318D01*
X203056662Y-64867983D01*
X203340829Y-65057857D01*
X203656579Y-65188645D01*
X203991777Y-65255320D01*
X204333543Y-65255320D01*
X204668741Y-65188645D01*
X204984491Y-65057857D01*
X205268658Y-64867983D01*
X205510323Y-64626318D01*
X205606120Y-64482947D01*
X207119855Y-65996682D01*
X206962185Y-65965320D01*
X206443135Y-65965320D01*
X205934059Y-66066581D01*
X205454519Y-66265213D01*
X205022945Y-66553582D01*
X204655922Y-66920605D01*
X204367553Y-67352179D01*
X204168921Y-67831719D01*
X204067660Y-68340795D01*
X204067660Y-68859845D01*
X204168921Y-69368921D01*
X204367553Y-69848461D01*
X204655922Y-70280035D01*
X205022945Y-70647058D01*
X205454519Y-70935427D01*
X205934059Y-71134059D01*
X206443135Y-71235320D01*
X206962185Y-71235320D01*
X207471261Y-71134059D01*
X207950801Y-70935427D01*
X208382375Y-70647058D01*
X208749398Y-70280035D01*
X208939861Y-69994988D01*
X208939861Y-71241475D01*
X208025912Y-72155424D01*
X208025912Y-71979980D01*
X208013652Y-71855498D01*
X207977342Y-71735800D01*
X207918377Y-71625486D01*
X207839025Y-71528795D01*
X207742334Y-71449443D01*
X207632020Y-71390478D01*
X207512322Y-71354168D01*
X207387840Y-71341908D01*
X206887840Y-71341908D01*
X206763358Y-71354168D01*
X206687840Y-71377076D01*
X206612322Y-71354168D01*
X206487840Y-71341908D01*
X205987840Y-71341908D01*
X205863358Y-71354168D01*
X205743660Y-71390478D01*
X205633346Y-71449443D01*
X205608322Y-71469980D01*
X200876602Y-71469980D01*
X200414590Y-71007969D01*
X200414590Y-69465245D01*
X200469185Y-69546952D01*
X200676028Y-69753795D01*
X200919249Y-69916310D01*
X201189502Y-70028252D01*
X201476400Y-70085320D01*
X201768920Y-70085320D01*
X202055818Y-70028252D01*
X202326071Y-69916310D01*
X202569292Y-69753795D01*
X202776135Y-69546952D01*
X202938650Y-69303731D01*
X203050592Y-69033478D01*
X203107660Y-68746580D01*
X203107660Y-68454060D01*
X203050592Y-68167162D01*
X202938650Y-67896909D01*
X202776135Y-67653688D01*
X202569292Y-67446845D01*
X202326071Y-67284330D01*
X202055818Y-67172388D01*
X201768920Y-67115320D01*
X201476400Y-67115320D01*
X201189502Y-67172388D01*
X200919249Y-67284330D01*
X200676028Y-67446845D01*
X200469185Y-67653688D01*
X200414590Y-67735395D01*
X200414590Y-62440231D01*
X202313888Y-60540933D01*
X207669632Y-60540933D01*
X207765396Y-60805334D01*
X208055011Y-60946224D01*
X208366548Y-61027904D01*
X208688035Y-61047238D01*
X209007115Y-61003481D01*
X209311528Y-60898315D01*
X209485484Y-60805334D01*
X209581248Y-60540933D01*
X208625440Y-59585125D01*
X207669632Y-60540933D01*
X202313888Y-60540933D01*
X202628419Y-60226403D01*
X202628423Y-60226398D01*
X202748455Y-60106367D01*
X202893409Y-60135200D01*
X203166231Y-60135200D01*
X203433809Y-60081975D01*
X203685863Y-59977571D01*
X203912706Y-59825999D01*
X204105619Y-59633086D01*
X204257191Y-59406243D01*
X204361595Y-59154189D01*
X204414820Y-58886611D01*
X204414820Y-58613789D01*
X204379296Y-58435199D01*
X207475511Y-58435199D01*
X207490025Y-58449713D01*
G37*
%TD.AperFunction*%
%TD*%
M02*
