G04 #@! TF.GenerationSoftware,KiCad,Pcbnew,(5.1.10)-1*
G04 #@! TF.CreationDate,2021-08-29T23:35:30-04:00*
G04 #@! TF.ProjectId,milk,6d696c6b-2e6b-4696-9361-645f70636258,rev?*
G04 #@! TF.SameCoordinates,Original*
G04 #@! TF.FileFunction,Copper,L1,Top*
G04 #@! TF.FilePolarity,Positive*
%FSLAX46Y46*%
G04 Gerber Fmt 4.6, Leading zero omitted, Abs format (unit mm)*
G04 Created by KiCad (PCBNEW (5.1.10)-1) date 2021-08-29 23:35:30*
%MOMM*%
%LPD*%
G01*
G04 APERTURE LIST*
G04 #@! TA.AperFunction,ComponentPad*
%ADD10O,1.600000X1.600000*%
G04 #@! TD*
G04 #@! TA.AperFunction,ComponentPad*
%ADD11R,1.600000X1.600000*%
G04 #@! TD*
G04 #@! TA.AperFunction,ComponentPad*
%ADD12C,2.200000*%
G04 #@! TD*
G04 #@! TA.AperFunction,ComponentPad*
%ADD13C,2.000000*%
G04 #@! TD*
G04 #@! TA.AperFunction,SMDPad,CuDef*
%ADD14R,0.650000X1.700000*%
G04 #@! TD*
G04 #@! TA.AperFunction,SMDPad,CuDef*
%ADD15R,0.300000X1.300000*%
G04 #@! TD*
G04 #@! TA.AperFunction,SMDPad,CuDef*
%ADD16R,0.600000X1.300000*%
G04 #@! TD*
G04 #@! TA.AperFunction,ComponentPad*
%ADD17O,1.000000X2.000000*%
G04 #@! TD*
G04 #@! TA.AperFunction,SMDPad,CuDef*
%ADD18R,1.200000X0.900000*%
G04 #@! TD*
G04 #@! TA.AperFunction,ComponentPad*
%ADD19R,1.500000X1.500000*%
G04 #@! TD*
G04 #@! TA.AperFunction,ComponentPad*
%ADD20C,1.500000*%
G04 #@! TD*
G04 #@! TA.AperFunction,ViaPad*
%ADD21C,0.800000*%
G04 #@! TD*
G04 #@! TA.AperFunction,Conductor*
%ADD22C,0.250000*%
G04 #@! TD*
G04 #@! TA.AperFunction,Conductor*
%ADD23C,0.254000*%
G04 #@! TD*
G04 #@! TA.AperFunction,Conductor*
%ADD24C,0.100000*%
G04 #@! TD*
G04 APERTURE END LIST*
D10*
X172948600Y-74218800D03*
X180568600Y-81838800D03*
X175488600Y-74218800D03*
X178028600Y-81838800D03*
X178028600Y-74218800D03*
X175488600Y-81838800D03*
X180568600Y-74218800D03*
D11*
X172948600Y-81838800D03*
D12*
X177215800Y-67945000D03*
X183565800Y-65405000D03*
G04 #@! TA.AperFunction,SMDPad,CuDef*
G36*
G01*
X180891601Y-62312600D02*
X179991599Y-62312600D01*
G75*
G02*
X179741600Y-62062601I0J249999D01*
G01*
X179741600Y-61362599D01*
G75*
G02*
X179991599Y-61112600I249999J0D01*
G01*
X180891601Y-61112600D01*
G75*
G02*
X181141600Y-61362599I0J-249999D01*
G01*
X181141600Y-62062601D01*
G75*
G02*
X180891601Y-62312600I-249999J0D01*
G01*
G37*
G04 #@! TD.AperFunction*
G04 #@! TA.AperFunction,SMDPad,CuDef*
G36*
G01*
X180891601Y-64312600D02*
X179991599Y-64312600D01*
G75*
G02*
X179741600Y-64062601I0J249999D01*
G01*
X179741600Y-63362599D01*
G75*
G02*
X179991599Y-63112600I249999J0D01*
G01*
X180891601Y-63112600D01*
G75*
G02*
X181141600Y-63362599I0J-249999D01*
G01*
X181141600Y-64062601D01*
G75*
G02*
X180891601Y-64312600I-249999J0D01*
G01*
G37*
G04 #@! TD.AperFunction*
D13*
X189355800Y-62560200D03*
X182855800Y-62560200D03*
D12*
X177215800Y-86995000D03*
X183565800Y-84455000D03*
D14*
X185521600Y-73845400D03*
X186791600Y-73845400D03*
X188061600Y-73845400D03*
X189331600Y-73845400D03*
X189331600Y-81145400D03*
X188061600Y-81145400D03*
X186791600Y-81145400D03*
X185521600Y-81145400D03*
G04 #@! TA.AperFunction,SMDPad,CuDef*
G36*
G01*
X186950300Y-87508501D02*
X186950300Y-86608499D01*
G75*
G02*
X187200299Y-86358500I249999J0D01*
G01*
X187900301Y-86358500D01*
G75*
G02*
X188150300Y-86608499I0J-249999D01*
G01*
X188150300Y-87508501D01*
G75*
G02*
X187900301Y-87758500I-249999J0D01*
G01*
X187200299Y-87758500D01*
G75*
G02*
X186950300Y-87508501I0J249999D01*
G01*
G37*
G04 #@! TD.AperFunction*
G04 #@! TA.AperFunction,SMDPad,CuDef*
G36*
G01*
X184950300Y-87508501D02*
X184950300Y-86608499D01*
G75*
G02*
X185200299Y-86358500I249999J0D01*
G01*
X185900301Y-86358500D01*
G75*
G02*
X186150300Y-86608499I0J-249999D01*
G01*
X186150300Y-87508501D01*
G75*
G02*
X185900301Y-87758500I-249999J0D01*
G01*
X185200299Y-87758500D01*
G75*
G02*
X184950300Y-87508501I0J249999D01*
G01*
G37*
G04 #@! TD.AperFunction*
G04 #@! TA.AperFunction,SMDPad,CuDef*
G36*
G01*
X188957799Y-84601000D02*
X189857801Y-84601000D01*
G75*
G02*
X190107800Y-84850999I0J-249999D01*
G01*
X190107800Y-85551001D01*
G75*
G02*
X189857801Y-85801000I-249999J0D01*
G01*
X188957799Y-85801000D01*
G75*
G02*
X188707800Y-85551001I0J249999D01*
G01*
X188707800Y-84850999D01*
G75*
G02*
X188957799Y-84601000I249999J0D01*
G01*
G37*
G04 #@! TD.AperFunction*
G04 #@! TA.AperFunction,SMDPad,CuDef*
G36*
G01*
X188957400Y-82601000D02*
X189858200Y-82601000D01*
G75*
G02*
X190107800Y-82850600I0J-249600D01*
G01*
X190107800Y-83551400D01*
G75*
G02*
X189858200Y-83801000I-249600J0D01*
G01*
X188957400Y-83801000D01*
G75*
G02*
X188707800Y-83551400I0J249600D01*
G01*
X188707800Y-82850600D01*
G75*
G02*
X188957400Y-82601000I249600J0D01*
G01*
G37*
G04 #@! TD.AperFunction*
G04 #@! TA.AperFunction,SMDPad,CuDef*
G36*
G01*
X187001999Y-84601000D02*
X187902001Y-84601000D01*
G75*
G02*
X188152000Y-84850999I0J-249999D01*
G01*
X188152000Y-85551001D01*
G75*
G02*
X187902001Y-85801000I-249999J0D01*
G01*
X187001999Y-85801000D01*
G75*
G02*
X186752000Y-85551001I0J249999D01*
G01*
X186752000Y-84850999D01*
G75*
G02*
X187001999Y-84601000I249999J0D01*
G01*
G37*
G04 #@! TD.AperFunction*
G04 #@! TA.AperFunction,SMDPad,CuDef*
G36*
G01*
X187001600Y-82601000D02*
X187902400Y-82601000D01*
G75*
G02*
X188152000Y-82850600I0J-249600D01*
G01*
X188152000Y-83551400D01*
G75*
G02*
X187902400Y-83801000I-249600J0D01*
G01*
X187001600Y-83801000D01*
G75*
G02*
X186752000Y-83551400I0J249600D01*
G01*
X186752000Y-82850600D01*
G75*
G02*
X187001600Y-82601000I249600J0D01*
G01*
G37*
G04 #@! TD.AperFunction*
G04 #@! TA.AperFunction,SMDPad,CuDef*
G36*
G01*
X180296399Y-85490000D02*
X181196401Y-85490000D01*
G75*
G02*
X181446400Y-85739999I0J-249999D01*
G01*
X181446400Y-86440001D01*
G75*
G02*
X181196401Y-86690000I-249999J0D01*
G01*
X180296399Y-86690000D01*
G75*
G02*
X180046400Y-86440001I0J249999D01*
G01*
X180046400Y-85739999D01*
G75*
G02*
X180296399Y-85490000I249999J0D01*
G01*
G37*
G04 #@! TD.AperFunction*
G04 #@! TA.AperFunction,SMDPad,CuDef*
G36*
G01*
X180296399Y-83490000D02*
X181196401Y-83490000D01*
G75*
G02*
X181446400Y-83739999I0J-249999D01*
G01*
X181446400Y-84440001D01*
G75*
G02*
X181196401Y-84690000I-249999J0D01*
G01*
X180296399Y-84690000D01*
G75*
G02*
X180046400Y-84440001I0J249999D01*
G01*
X180046400Y-83739999D01*
G75*
G02*
X180296399Y-83490000I249999J0D01*
G01*
G37*
G04 #@! TD.AperFunction*
G04 #@! TA.AperFunction,SMDPad,CuDef*
G36*
G01*
X175189301Y-93808600D02*
X174289299Y-93808600D01*
G75*
G02*
X174039300Y-93558601I0J249999D01*
G01*
X174039300Y-92858599D01*
G75*
G02*
X174289299Y-92608600I249999J0D01*
G01*
X175189301Y-92608600D01*
G75*
G02*
X175439300Y-92858599I0J-249999D01*
G01*
X175439300Y-93558601D01*
G75*
G02*
X175189301Y-93808600I-249999J0D01*
G01*
G37*
G04 #@! TD.AperFunction*
G04 #@! TA.AperFunction,SMDPad,CuDef*
G36*
G01*
X175189301Y-95808600D02*
X174289299Y-95808600D01*
G75*
G02*
X174039300Y-95558601I0J249999D01*
G01*
X174039300Y-94858599D01*
G75*
G02*
X174289299Y-94608600I249999J0D01*
G01*
X175189301Y-94608600D01*
G75*
G02*
X175439300Y-94858599I0J-249999D01*
G01*
X175439300Y-95558601D01*
G75*
G02*
X175189301Y-95808600I-249999J0D01*
G01*
G37*
G04 #@! TD.AperFunction*
D15*
X182813900Y-93043100D03*
X182313900Y-93043100D03*
X181813900Y-93043100D03*
X181313900Y-93043100D03*
X180813900Y-93043100D03*
X180313900Y-93043100D03*
X179813900Y-93043100D03*
X179313900Y-93043100D03*
D16*
X183463900Y-93043100D03*
X184263900Y-93043100D03*
X178663900Y-93043100D03*
X177863900Y-93043100D03*
D17*
X185673900Y-93603100D03*
X176453900Y-93603100D03*
X176453900Y-98103100D03*
X185673900Y-98103100D03*
G04 #@! TA.AperFunction,SMDPad,CuDef*
G36*
G01*
X188706599Y-91412300D02*
X189956601Y-91412300D01*
G75*
G02*
X190206600Y-91662299I0J-249999D01*
G01*
X190206600Y-92462301D01*
G75*
G02*
X189956601Y-92712300I-249999J0D01*
G01*
X188706599Y-92712300D01*
G75*
G02*
X188456600Y-92462301I0J249999D01*
G01*
X188456600Y-91662299D01*
G75*
G02*
X188706599Y-91412300I249999J0D01*
G01*
G37*
G04 #@! TD.AperFunction*
G04 #@! TA.AperFunction,SMDPad,CuDef*
G36*
G01*
X188706599Y-88312300D02*
X189956601Y-88312300D01*
G75*
G02*
X190206600Y-88562299I0J-249999D01*
G01*
X190206600Y-89362301D01*
G75*
G02*
X189956601Y-89612300I-249999J0D01*
G01*
X188706599Y-89612300D01*
G75*
G02*
X188456600Y-89362301I0J249999D01*
G01*
X188456600Y-88562299D01*
G75*
G02*
X188706599Y-88312300I249999J0D01*
G01*
G37*
G04 #@! TD.AperFunction*
D18*
X189255400Y-97852500D03*
X189255400Y-94552500D03*
X173710600Y-88075500D03*
X173710600Y-91375500D03*
G04 #@! TA.AperFunction,SMDPad,CuDef*
G36*
G01*
X182963800Y-75075200D02*
X183913800Y-75075200D01*
G75*
G02*
X184163800Y-75325200I0J-250000D01*
G01*
X184163800Y-76000200D01*
G75*
G02*
X183913800Y-76250200I-250000J0D01*
G01*
X182963800Y-76250200D01*
G75*
G02*
X182713800Y-76000200I0J250000D01*
G01*
X182713800Y-75325200D01*
G75*
G02*
X182963800Y-75075200I250000J0D01*
G01*
G37*
G04 #@! TD.AperFunction*
G04 #@! TA.AperFunction,SMDPad,CuDef*
G36*
G01*
X182963800Y-73000200D02*
X183913800Y-73000200D01*
G75*
G02*
X184163800Y-73250200I0J-250000D01*
G01*
X184163800Y-73925200D01*
G75*
G02*
X183913800Y-74175200I-250000J0D01*
G01*
X182963800Y-74175200D01*
G75*
G02*
X182713800Y-73925200I0J250000D01*
G01*
X182713800Y-73250200D01*
G75*
G02*
X182963800Y-73000200I250000J0D01*
G01*
G37*
G04 #@! TD.AperFunction*
D19*
X177800000Y-63500000D03*
D20*
X175260000Y-63500000D03*
X172720000Y-63500000D03*
D21*
X173786800Y-77698600D03*
X183997600Y-86766400D03*
X187789820Y-90083640D03*
X187655200Y-71704200D03*
X178917600Y-85928200D03*
X185826400Y-65963800D03*
X184505600Y-67945000D03*
X172669200Y-68427600D03*
X183997600Y-81051400D03*
X176479200Y-66268600D03*
X188798200Y-87553800D03*
X183921400Y-90424000D03*
X189255400Y-93383100D03*
X189966600Y-86487000D03*
X182194200Y-94335600D03*
X185953400Y-83540600D03*
X185432700Y-78818740D03*
X186905900Y-78831440D03*
X188003180Y-76106020D03*
D22*
X185113900Y-93043100D02*
X185673900Y-93603100D01*
X184263900Y-93043100D02*
X185113900Y-93043100D01*
X177013900Y-93043100D02*
X177863900Y-93043100D01*
X176453900Y-93603100D02*
X177013900Y-93043100D01*
X183997600Y-86766400D02*
X183768198Y-86766400D01*
X183997600Y-86766400D02*
X183743600Y-86766400D01*
X179680810Y-85164990D02*
X178917600Y-85928200D01*
X183743600Y-86766400D02*
X182142190Y-85164990D01*
X180746400Y-85138380D02*
X180719790Y-85164990D01*
X180746400Y-84090000D02*
X180746400Y-85138380D01*
X180719790Y-85164990D02*
X179680810Y-85164990D01*
X182142190Y-85164990D02*
X180719790Y-85164990D01*
X183812915Y-67945000D02*
X184505600Y-67945000D01*
X181508400Y-65640485D02*
X183812915Y-67945000D01*
X181508400Y-65074800D02*
X181508400Y-65640485D01*
X178663900Y-93904100D02*
X178663900Y-93043100D01*
X179820401Y-95060601D02*
X178663900Y-93904100D01*
X183463900Y-94138902D02*
X182542201Y-95060601D01*
X183463900Y-93043100D02*
X183463900Y-94138902D01*
X183463900Y-92202300D02*
X183463900Y-93043100D01*
X183603900Y-92062300D02*
X183463900Y-92202300D01*
X189331600Y-92062300D02*
X183603900Y-92062300D01*
X180174900Y-95049002D02*
X180163301Y-95060601D01*
X180163301Y-95060601D02*
X179820401Y-95060601D01*
X182542201Y-95060601D02*
X180163301Y-95060601D01*
X185387000Y-73710800D02*
X185521600Y-73845400D01*
X187454100Y-88962300D02*
X189331600Y-88962300D01*
X185550300Y-87058500D02*
X187454100Y-88962300D01*
X185263900Y-73587700D02*
X185521600Y-73845400D01*
X183438800Y-73587700D02*
X185263900Y-73587700D01*
X182388790Y-74637710D02*
X183438800Y-73587700D01*
X182388790Y-81048992D02*
X182388790Y-74637710D01*
X185550300Y-84210502D02*
X182388790Y-81048992D01*
X185550300Y-87058500D02*
X185550300Y-84210502D01*
X174507400Y-61712600D02*
X180441600Y-61712600D01*
X172720000Y-63500000D02*
X174507400Y-61712600D01*
X183438800Y-73587700D02*
X182944899Y-73093799D01*
X174073601Y-75343801D02*
X172948600Y-74218800D01*
X181682699Y-75343801D02*
X174073601Y-75343801D01*
X183438800Y-73587700D02*
X181682699Y-75343801D01*
X187452000Y-86960200D02*
X187550300Y-87058500D01*
X187452000Y-85201000D02*
X187452000Y-86960200D01*
X181313900Y-92108100D02*
X181313900Y-93043100D01*
X181273899Y-92068099D02*
X181313900Y-92108100D01*
X180403899Y-92068099D02*
X181273899Y-92068099D01*
X180313900Y-92158098D02*
X180403899Y-92068099D01*
X180313900Y-93043100D02*
X180313900Y-92158098D01*
X187601100Y-87007700D02*
X187550300Y-87058500D01*
X180313900Y-92021688D02*
X180313900Y-93043100D01*
X179910302Y-91618090D02*
X180313900Y-92021688D01*
X173953189Y-91618089D02*
X179910302Y-91618090D01*
X173710600Y-91375500D02*
X173953189Y-91618089D01*
X188045600Y-87553800D02*
X187550300Y-87058500D01*
X188798200Y-87553800D02*
X188045600Y-87553800D01*
X181403899Y-92068099D02*
X181313900Y-92158098D01*
X182252491Y-92068099D02*
X181403899Y-92068099D01*
X183158310Y-91162280D02*
X182252491Y-92068099D01*
X181313900Y-92158098D02*
X181313900Y-93043100D01*
X183183120Y-91162280D02*
X183158310Y-91162280D01*
X183921400Y-90424000D02*
X183183120Y-91162280D01*
X181813900Y-93928102D02*
X181813900Y-93043100D01*
X180903899Y-94018101D02*
X181723901Y-94018101D01*
X181723901Y-94018101D02*
X181813900Y-93928102D01*
X180813900Y-93928102D02*
X180903899Y-94018101D01*
X180813900Y-93043100D02*
X180813900Y-93928102D01*
X189890400Y-85683600D02*
X189407800Y-85201000D01*
X182041400Y-94335600D02*
X181723901Y-94018101D01*
X182194200Y-94335600D02*
X182041400Y-94335600D01*
X189255400Y-93383100D02*
X189255400Y-94552500D01*
X189966600Y-85759800D02*
X189407800Y-85201000D01*
X189966600Y-86487000D02*
X189966600Y-85759800D01*
X181797200Y-86090000D02*
X180746400Y-86090000D01*
X184861200Y-91338400D02*
X184861200Y-89154000D01*
X184861200Y-89154000D02*
X181797200Y-86090000D01*
X184587310Y-91612290D02*
X184861200Y-91338400D01*
X183344710Y-91612290D02*
X184587310Y-91612290D01*
X182813900Y-92143100D02*
X183344710Y-91612290D01*
X182813900Y-93043100D02*
X182813900Y-92143100D01*
X175879801Y-92068099D02*
X174739300Y-93208600D01*
X179813900Y-92158098D02*
X179723901Y-92068099D01*
X179723901Y-92068099D02*
X175879801Y-92068099D01*
X179813900Y-93043100D02*
X179813900Y-92158098D01*
X185521600Y-83108800D02*
X185953400Y-83540600D01*
X185521600Y-81145400D02*
X185521600Y-83108800D01*
X182855800Y-62560200D02*
X181817520Y-62560200D01*
X181594000Y-62560200D02*
X180441600Y-63712600D01*
X182855800Y-62560200D02*
X181594000Y-62560200D01*
X186791600Y-73845400D02*
X186791600Y-73329800D01*
X186791600Y-73845400D02*
X186791600Y-73320400D01*
X175768000Y-64008000D02*
X175260000Y-63500000D01*
X182141801Y-72810001D02*
X176897399Y-72810001D01*
X182460202Y-72491600D02*
X182141801Y-72810001D01*
X186537800Y-72491600D02*
X182460202Y-72491600D01*
X176897399Y-72810001D02*
X175488600Y-74218800D01*
X186791600Y-72745400D02*
X186537800Y-72491600D01*
X186791600Y-73845400D02*
X186791600Y-72745400D01*
X186791600Y-82540600D02*
X186791600Y-81145400D01*
X187452000Y-83201000D02*
X186791600Y-82540600D01*
X186791600Y-80177640D02*
X185432700Y-78818740D01*
X186791600Y-81145400D02*
X186791600Y-80177640D01*
X188061600Y-81854800D02*
X189407800Y-83201000D01*
X188061600Y-81145400D02*
X188061600Y-81854800D01*
X188061600Y-79987140D02*
X186905900Y-78831440D01*
X188061600Y-81145400D02*
X188061600Y-79987140D01*
X189331600Y-71170800D02*
X189331600Y-73845400D01*
X183565800Y-65405000D02*
X189331600Y-71170800D01*
X188010800Y-73794600D02*
X188061600Y-73845400D01*
X188061600Y-76047600D02*
X188003180Y-76106020D01*
X188061600Y-73845400D02*
X188061600Y-76047600D01*
D23*
X172268873Y-75490480D02*
X172530026Y-75598653D01*
X172807265Y-75653800D01*
X173089935Y-75653800D01*
X173272486Y-75617488D01*
X173509802Y-75854804D01*
X173533600Y-75883802D01*
X173649325Y-75978775D01*
X173781354Y-76049347D01*
X173924615Y-76092804D01*
X174036268Y-76103801D01*
X174036276Y-76103801D01*
X174073601Y-76107477D01*
X174110926Y-76103801D01*
X181628791Y-76103801D01*
X181628790Y-81011669D01*
X181625114Y-81048992D01*
X181628790Y-81086314D01*
X181628790Y-81086324D01*
X181639787Y-81197977D01*
X181668005Y-81291001D01*
X181683244Y-81341238D01*
X181753816Y-81473268D01*
X181793661Y-81521818D01*
X181848789Y-81588993D01*
X181877793Y-81612796D01*
X183054029Y-82789032D01*
X182743969Y-82917463D01*
X182459802Y-83107337D01*
X182218137Y-83349002D01*
X182028263Y-83633169D01*
X181897475Y-83948919D01*
X181830800Y-84284117D01*
X181830800Y-84625883D01*
X181897475Y-84961081D01*
X182028263Y-85276831D01*
X182106134Y-85393374D01*
X182089447Y-85384454D01*
X181992815Y-85355141D01*
X181934805Y-85246613D01*
X181824362Y-85112038D01*
X181689787Y-85001595D01*
X181536251Y-84919528D01*
X181369655Y-84868992D01*
X181196401Y-84851928D01*
X180296399Y-84851928D01*
X180123145Y-84868992D01*
X179956549Y-84919528D01*
X179803013Y-85001595D01*
X179668438Y-85112038D01*
X179557995Y-85246613D01*
X179475928Y-85400149D01*
X179425392Y-85566745D01*
X179408328Y-85739999D01*
X179408328Y-86440001D01*
X179425392Y-86613255D01*
X179475928Y-86779851D01*
X179557995Y-86933387D01*
X179668438Y-87067962D01*
X179803013Y-87178405D01*
X179814593Y-87184595D01*
X179777659Y-87199893D01*
X179346085Y-87488262D01*
X178979062Y-87855285D01*
X178690693Y-88286859D01*
X178492061Y-88766399D01*
X178390800Y-89275475D01*
X178390800Y-89794525D01*
X178492061Y-90303601D01*
X178690693Y-90783141D01*
X178740773Y-90858091D01*
X176632070Y-90858090D01*
X176649211Y-90850990D01*
X176892432Y-90688475D01*
X177099275Y-90481632D01*
X177261790Y-90238411D01*
X177373732Y-89968158D01*
X177430800Y-89681260D01*
X177430800Y-89388740D01*
X177373732Y-89101842D01*
X177261790Y-88831589D01*
X177099275Y-88588368D01*
X176892432Y-88381525D01*
X176649211Y-88219010D01*
X176378958Y-88107068D01*
X176092060Y-88050000D01*
X175799540Y-88050000D01*
X175512642Y-88107068D01*
X175242389Y-88219010D01*
X174999168Y-88381525D01*
X174792325Y-88588368D01*
X174629810Y-88831589D01*
X174517868Y-89101842D01*
X174460800Y-89388740D01*
X174460800Y-89681260D01*
X174517868Y-89968158D01*
X174629810Y-90238411D01*
X174792325Y-90481632D01*
X174999168Y-90688475D01*
X175242389Y-90850990D01*
X175259529Y-90858089D01*
X174942033Y-90858089D01*
X174936412Y-90801018D01*
X174900102Y-90681320D01*
X174841137Y-90571006D01*
X174761785Y-90474315D01*
X174665094Y-90394963D01*
X174554780Y-90335998D01*
X174435082Y-90299688D01*
X174310600Y-90287428D01*
X173110600Y-90287428D01*
X172986118Y-90299688D01*
X172866420Y-90335998D01*
X172756106Y-90394963D01*
X172659415Y-90474315D01*
X172580063Y-90571006D01*
X172521098Y-90681320D01*
X172484788Y-90801018D01*
X172472528Y-90925500D01*
X172472528Y-91825500D01*
X172484788Y-91949982D01*
X172521098Y-92069680D01*
X172580063Y-92179994D01*
X172659415Y-92276685D01*
X172756106Y-92356037D01*
X172866420Y-92415002D01*
X172986118Y-92451312D01*
X173110600Y-92463572D01*
X173498321Y-92463572D01*
X173468828Y-92518749D01*
X173418292Y-92685345D01*
X173401228Y-92858599D01*
X173401228Y-93558601D01*
X173418292Y-93731855D01*
X173468828Y-93898451D01*
X173550895Y-94051987D01*
X173661338Y-94186562D01*
X173795913Y-94297005D01*
X173949449Y-94379072D01*
X174116045Y-94429608D01*
X174289299Y-94446672D01*
X175189301Y-94446672D01*
X175362555Y-94429608D01*
X175529151Y-94379072D01*
X175682687Y-94297005D01*
X175817262Y-94186562D01*
X175927705Y-94051987D01*
X176009772Y-93898451D01*
X176060308Y-93731855D01*
X176077372Y-93558601D01*
X176077372Y-92945330D01*
X176194603Y-92828099D01*
X177725828Y-92828099D01*
X177725828Y-93128100D01*
X177661961Y-93128100D01*
X177462002Y-93167874D01*
X177273644Y-93245895D01*
X177104126Y-93359163D01*
X176959963Y-93503326D01*
X176846695Y-93672844D01*
X176768674Y-93861202D01*
X176728900Y-94061161D01*
X176728900Y-94265039D01*
X176768674Y-94464998D01*
X176846695Y-94653356D01*
X176959963Y-94822874D01*
X177104126Y-94967037D01*
X177273644Y-95080305D01*
X177462002Y-95158326D01*
X177661961Y-95198100D01*
X177865839Y-95198100D01*
X178065798Y-95158326D01*
X178254156Y-95080305D01*
X178423674Y-94967037D01*
X178537855Y-94852856D01*
X179256606Y-95571609D01*
X179280400Y-95600602D01*
X179309393Y-95624396D01*
X179309397Y-95624400D01*
X179380086Y-95682412D01*
X179396125Y-95695575D01*
X179528154Y-95766147D01*
X179671415Y-95809604D01*
X179783068Y-95820601D01*
X179783077Y-95820601D01*
X179820400Y-95824277D01*
X179857723Y-95820601D01*
X180125979Y-95820601D01*
X180163301Y-95824277D01*
X180200623Y-95820601D01*
X182504879Y-95820601D01*
X182542201Y-95824277D01*
X182579523Y-95820601D01*
X182579534Y-95820601D01*
X182691187Y-95809604D01*
X182834448Y-95766147D01*
X182966477Y-95695575D01*
X183082202Y-95600602D01*
X183106004Y-95571599D01*
X183707987Y-94969617D01*
X183873644Y-95080305D01*
X184062002Y-95158326D01*
X184261961Y-95198100D01*
X184465839Y-95198100D01*
X184665798Y-95158326D01*
X184854156Y-95080305D01*
X185023674Y-94967037D01*
X185167837Y-94822874D01*
X185281105Y-94653356D01*
X185359126Y-94464998D01*
X185398900Y-94265039D01*
X185398900Y-94061161D01*
X185359126Y-93861202D01*
X185281105Y-93672844D01*
X185167837Y-93503326D01*
X185023674Y-93359163D01*
X184854156Y-93245895D01*
X184665798Y-93167874D01*
X184465839Y-93128100D01*
X184401972Y-93128100D01*
X184401972Y-92822300D01*
X187896898Y-92822300D01*
X187968195Y-92955687D01*
X188078638Y-93090262D01*
X188213213Y-93200705D01*
X188234175Y-93211909D01*
X188220400Y-93281161D01*
X188220400Y-93485039D01*
X188246561Y-93616562D01*
X188204215Y-93651315D01*
X188124863Y-93748006D01*
X188065898Y-93858320D01*
X188029588Y-93978018D01*
X188017328Y-94102500D01*
X188017328Y-95002500D01*
X188029588Y-95126982D01*
X188065898Y-95246680D01*
X188124863Y-95356994D01*
X188204215Y-95453685D01*
X188300906Y-95533037D01*
X188411220Y-95592002D01*
X188530918Y-95628312D01*
X188655400Y-95640572D01*
X189855400Y-95640572D01*
X189967000Y-95629581D01*
X189967000Y-98900721D01*
X189952278Y-99050869D01*
X189918047Y-99164246D01*
X189862446Y-99268817D01*
X189787594Y-99360595D01*
X189696335Y-99436091D01*
X189592160Y-99492419D01*
X189479024Y-99527440D01*
X189330979Y-99543000D01*
X172752279Y-99543000D01*
X172602131Y-99528278D01*
X172488754Y-99494047D01*
X172384183Y-99438446D01*
X172292405Y-99363594D01*
X172216909Y-99272335D01*
X172160581Y-99168160D01*
X172125560Y-99055024D01*
X172110000Y-98906979D01*
X172110000Y-83273070D01*
X172148600Y-83276872D01*
X173748600Y-83276872D01*
X173873082Y-83264612D01*
X173992780Y-83228302D01*
X174103094Y-83169337D01*
X174199785Y-83089985D01*
X174279137Y-82993294D01*
X174338102Y-82882980D01*
X174374412Y-82763282D01*
X174375243Y-82754839D01*
X174573841Y-82953437D01*
X174808873Y-83110480D01*
X175070026Y-83218653D01*
X175347265Y-83273800D01*
X175629935Y-83273800D01*
X175907174Y-83218653D01*
X176168327Y-83110480D01*
X176403359Y-82953437D01*
X176603237Y-82753559D01*
X176758600Y-82521041D01*
X176913963Y-82753559D01*
X177113841Y-82953437D01*
X177348873Y-83110480D01*
X177610026Y-83218653D01*
X177887265Y-83273800D01*
X178169935Y-83273800D01*
X178447174Y-83218653D01*
X178708327Y-83110480D01*
X178943359Y-82953437D01*
X179143237Y-82753559D01*
X179300280Y-82518527D01*
X179408453Y-82257374D01*
X179463600Y-81980135D01*
X179463600Y-81697465D01*
X179408453Y-81420226D01*
X179300280Y-81159073D01*
X179143237Y-80924041D01*
X178943359Y-80724163D01*
X178708327Y-80567120D01*
X178447174Y-80458947D01*
X178169935Y-80403800D01*
X177887265Y-80403800D01*
X177610026Y-80458947D01*
X177348873Y-80567120D01*
X177113841Y-80724163D01*
X176913963Y-80924041D01*
X176758600Y-81156559D01*
X176603237Y-80924041D01*
X176403359Y-80724163D01*
X176168327Y-80567120D01*
X175907174Y-80458947D01*
X175629935Y-80403800D01*
X175347265Y-80403800D01*
X175070026Y-80458947D01*
X174808873Y-80567120D01*
X174573841Y-80724163D01*
X174375243Y-80922761D01*
X174374412Y-80914318D01*
X174338102Y-80794620D01*
X174279137Y-80684306D01*
X174199785Y-80587615D01*
X174103094Y-80508263D01*
X173992780Y-80449298D01*
X173873082Y-80412988D01*
X173748600Y-80400728D01*
X172148600Y-80400728D01*
X172110000Y-80404530D01*
X172110000Y-75384325D01*
X172268873Y-75490480D01*
G04 #@! TA.AperFunction,Conductor*
D24*
G36*
X172268873Y-75490480D02*
G01*
X172530026Y-75598653D01*
X172807265Y-75653800D01*
X173089935Y-75653800D01*
X173272486Y-75617488D01*
X173509802Y-75854804D01*
X173533600Y-75883802D01*
X173649325Y-75978775D01*
X173781354Y-76049347D01*
X173924615Y-76092804D01*
X174036268Y-76103801D01*
X174036276Y-76103801D01*
X174073601Y-76107477D01*
X174110926Y-76103801D01*
X181628791Y-76103801D01*
X181628790Y-81011669D01*
X181625114Y-81048992D01*
X181628790Y-81086314D01*
X181628790Y-81086324D01*
X181639787Y-81197977D01*
X181668005Y-81291001D01*
X181683244Y-81341238D01*
X181753816Y-81473268D01*
X181793661Y-81521818D01*
X181848789Y-81588993D01*
X181877793Y-81612796D01*
X183054029Y-82789032D01*
X182743969Y-82917463D01*
X182459802Y-83107337D01*
X182218137Y-83349002D01*
X182028263Y-83633169D01*
X181897475Y-83948919D01*
X181830800Y-84284117D01*
X181830800Y-84625883D01*
X181897475Y-84961081D01*
X182028263Y-85276831D01*
X182106134Y-85393374D01*
X182089447Y-85384454D01*
X181992815Y-85355141D01*
X181934805Y-85246613D01*
X181824362Y-85112038D01*
X181689787Y-85001595D01*
X181536251Y-84919528D01*
X181369655Y-84868992D01*
X181196401Y-84851928D01*
X180296399Y-84851928D01*
X180123145Y-84868992D01*
X179956549Y-84919528D01*
X179803013Y-85001595D01*
X179668438Y-85112038D01*
X179557995Y-85246613D01*
X179475928Y-85400149D01*
X179425392Y-85566745D01*
X179408328Y-85739999D01*
X179408328Y-86440001D01*
X179425392Y-86613255D01*
X179475928Y-86779851D01*
X179557995Y-86933387D01*
X179668438Y-87067962D01*
X179803013Y-87178405D01*
X179814593Y-87184595D01*
X179777659Y-87199893D01*
X179346085Y-87488262D01*
X178979062Y-87855285D01*
X178690693Y-88286859D01*
X178492061Y-88766399D01*
X178390800Y-89275475D01*
X178390800Y-89794525D01*
X178492061Y-90303601D01*
X178690693Y-90783141D01*
X178740773Y-90858091D01*
X176632070Y-90858090D01*
X176649211Y-90850990D01*
X176892432Y-90688475D01*
X177099275Y-90481632D01*
X177261790Y-90238411D01*
X177373732Y-89968158D01*
X177430800Y-89681260D01*
X177430800Y-89388740D01*
X177373732Y-89101842D01*
X177261790Y-88831589D01*
X177099275Y-88588368D01*
X176892432Y-88381525D01*
X176649211Y-88219010D01*
X176378958Y-88107068D01*
X176092060Y-88050000D01*
X175799540Y-88050000D01*
X175512642Y-88107068D01*
X175242389Y-88219010D01*
X174999168Y-88381525D01*
X174792325Y-88588368D01*
X174629810Y-88831589D01*
X174517868Y-89101842D01*
X174460800Y-89388740D01*
X174460800Y-89681260D01*
X174517868Y-89968158D01*
X174629810Y-90238411D01*
X174792325Y-90481632D01*
X174999168Y-90688475D01*
X175242389Y-90850990D01*
X175259529Y-90858089D01*
X174942033Y-90858089D01*
X174936412Y-90801018D01*
X174900102Y-90681320D01*
X174841137Y-90571006D01*
X174761785Y-90474315D01*
X174665094Y-90394963D01*
X174554780Y-90335998D01*
X174435082Y-90299688D01*
X174310600Y-90287428D01*
X173110600Y-90287428D01*
X172986118Y-90299688D01*
X172866420Y-90335998D01*
X172756106Y-90394963D01*
X172659415Y-90474315D01*
X172580063Y-90571006D01*
X172521098Y-90681320D01*
X172484788Y-90801018D01*
X172472528Y-90925500D01*
X172472528Y-91825500D01*
X172484788Y-91949982D01*
X172521098Y-92069680D01*
X172580063Y-92179994D01*
X172659415Y-92276685D01*
X172756106Y-92356037D01*
X172866420Y-92415002D01*
X172986118Y-92451312D01*
X173110600Y-92463572D01*
X173498321Y-92463572D01*
X173468828Y-92518749D01*
X173418292Y-92685345D01*
X173401228Y-92858599D01*
X173401228Y-93558601D01*
X173418292Y-93731855D01*
X173468828Y-93898451D01*
X173550895Y-94051987D01*
X173661338Y-94186562D01*
X173795913Y-94297005D01*
X173949449Y-94379072D01*
X174116045Y-94429608D01*
X174289299Y-94446672D01*
X175189301Y-94446672D01*
X175362555Y-94429608D01*
X175529151Y-94379072D01*
X175682687Y-94297005D01*
X175817262Y-94186562D01*
X175927705Y-94051987D01*
X176009772Y-93898451D01*
X176060308Y-93731855D01*
X176077372Y-93558601D01*
X176077372Y-92945330D01*
X176194603Y-92828099D01*
X177725828Y-92828099D01*
X177725828Y-93128100D01*
X177661961Y-93128100D01*
X177462002Y-93167874D01*
X177273644Y-93245895D01*
X177104126Y-93359163D01*
X176959963Y-93503326D01*
X176846695Y-93672844D01*
X176768674Y-93861202D01*
X176728900Y-94061161D01*
X176728900Y-94265039D01*
X176768674Y-94464998D01*
X176846695Y-94653356D01*
X176959963Y-94822874D01*
X177104126Y-94967037D01*
X177273644Y-95080305D01*
X177462002Y-95158326D01*
X177661961Y-95198100D01*
X177865839Y-95198100D01*
X178065798Y-95158326D01*
X178254156Y-95080305D01*
X178423674Y-94967037D01*
X178537855Y-94852856D01*
X179256606Y-95571609D01*
X179280400Y-95600602D01*
X179309393Y-95624396D01*
X179309397Y-95624400D01*
X179380086Y-95682412D01*
X179396125Y-95695575D01*
X179528154Y-95766147D01*
X179671415Y-95809604D01*
X179783068Y-95820601D01*
X179783077Y-95820601D01*
X179820400Y-95824277D01*
X179857723Y-95820601D01*
X180125979Y-95820601D01*
X180163301Y-95824277D01*
X180200623Y-95820601D01*
X182504879Y-95820601D01*
X182542201Y-95824277D01*
X182579523Y-95820601D01*
X182579534Y-95820601D01*
X182691187Y-95809604D01*
X182834448Y-95766147D01*
X182966477Y-95695575D01*
X183082202Y-95600602D01*
X183106004Y-95571599D01*
X183707987Y-94969617D01*
X183873644Y-95080305D01*
X184062002Y-95158326D01*
X184261961Y-95198100D01*
X184465839Y-95198100D01*
X184665798Y-95158326D01*
X184854156Y-95080305D01*
X185023674Y-94967037D01*
X185167837Y-94822874D01*
X185281105Y-94653356D01*
X185359126Y-94464998D01*
X185398900Y-94265039D01*
X185398900Y-94061161D01*
X185359126Y-93861202D01*
X185281105Y-93672844D01*
X185167837Y-93503326D01*
X185023674Y-93359163D01*
X184854156Y-93245895D01*
X184665798Y-93167874D01*
X184465839Y-93128100D01*
X184401972Y-93128100D01*
X184401972Y-92822300D01*
X187896898Y-92822300D01*
X187968195Y-92955687D01*
X188078638Y-93090262D01*
X188213213Y-93200705D01*
X188234175Y-93211909D01*
X188220400Y-93281161D01*
X188220400Y-93485039D01*
X188246561Y-93616562D01*
X188204215Y-93651315D01*
X188124863Y-93748006D01*
X188065898Y-93858320D01*
X188029588Y-93978018D01*
X188017328Y-94102500D01*
X188017328Y-95002500D01*
X188029588Y-95126982D01*
X188065898Y-95246680D01*
X188124863Y-95356994D01*
X188204215Y-95453685D01*
X188300906Y-95533037D01*
X188411220Y-95592002D01*
X188530918Y-95628312D01*
X188655400Y-95640572D01*
X189855400Y-95640572D01*
X189967000Y-95629581D01*
X189967000Y-98900721D01*
X189952278Y-99050869D01*
X189918047Y-99164246D01*
X189862446Y-99268817D01*
X189787594Y-99360595D01*
X189696335Y-99436091D01*
X189592160Y-99492419D01*
X189479024Y-99527440D01*
X189330979Y-99543000D01*
X172752279Y-99543000D01*
X172602131Y-99528278D01*
X172488754Y-99494047D01*
X172384183Y-99438446D01*
X172292405Y-99363594D01*
X172216909Y-99272335D01*
X172160581Y-99168160D01*
X172125560Y-99055024D01*
X172110000Y-98906979D01*
X172110000Y-83273070D01*
X172148600Y-83276872D01*
X173748600Y-83276872D01*
X173873082Y-83264612D01*
X173992780Y-83228302D01*
X174103094Y-83169337D01*
X174199785Y-83089985D01*
X174279137Y-82993294D01*
X174338102Y-82882980D01*
X174374412Y-82763282D01*
X174375243Y-82754839D01*
X174573841Y-82953437D01*
X174808873Y-83110480D01*
X175070026Y-83218653D01*
X175347265Y-83273800D01*
X175629935Y-83273800D01*
X175907174Y-83218653D01*
X176168327Y-83110480D01*
X176403359Y-82953437D01*
X176603237Y-82753559D01*
X176758600Y-82521041D01*
X176913963Y-82753559D01*
X177113841Y-82953437D01*
X177348873Y-83110480D01*
X177610026Y-83218653D01*
X177887265Y-83273800D01*
X178169935Y-83273800D01*
X178447174Y-83218653D01*
X178708327Y-83110480D01*
X178943359Y-82953437D01*
X179143237Y-82753559D01*
X179300280Y-82518527D01*
X179408453Y-82257374D01*
X179463600Y-81980135D01*
X179463600Y-81697465D01*
X179408453Y-81420226D01*
X179300280Y-81159073D01*
X179143237Y-80924041D01*
X178943359Y-80724163D01*
X178708327Y-80567120D01*
X178447174Y-80458947D01*
X178169935Y-80403800D01*
X177887265Y-80403800D01*
X177610026Y-80458947D01*
X177348873Y-80567120D01*
X177113841Y-80724163D01*
X176913963Y-80924041D01*
X176758600Y-81156559D01*
X176603237Y-80924041D01*
X176403359Y-80724163D01*
X176168327Y-80567120D01*
X175907174Y-80458947D01*
X175629935Y-80403800D01*
X175347265Y-80403800D01*
X175070026Y-80458947D01*
X174808873Y-80567120D01*
X174573841Y-80724163D01*
X174375243Y-80922761D01*
X174374412Y-80914318D01*
X174338102Y-80794620D01*
X174279137Y-80684306D01*
X174199785Y-80587615D01*
X174103094Y-80508263D01*
X173992780Y-80449298D01*
X173873082Y-80412988D01*
X173748600Y-80400728D01*
X172148600Y-80400728D01*
X172110000Y-80404530D01*
X172110000Y-75384325D01*
X172268873Y-75490480D01*
G37*
G04 #@! TD.AperFunction*
D23*
X187968195Y-89855687D02*
X188078638Y-89990262D01*
X188213213Y-90100705D01*
X188366749Y-90182772D01*
X188533345Y-90233308D01*
X188706599Y-90250372D01*
X189956601Y-90250372D01*
X189967000Y-90249348D01*
X189967000Y-90775252D01*
X189956601Y-90774228D01*
X188706599Y-90774228D01*
X188533345Y-90791292D01*
X188366749Y-90841828D01*
X188213213Y-90923895D01*
X188078638Y-91034338D01*
X187968195Y-91168913D01*
X187896898Y-91302300D01*
X185621320Y-91302300D01*
X185621200Y-91301077D01*
X185621200Y-90941624D01*
X185672642Y-90962932D01*
X185959540Y-91020000D01*
X186252060Y-91020000D01*
X186538958Y-90962932D01*
X186809211Y-90850990D01*
X187052432Y-90688475D01*
X187259275Y-90481632D01*
X187421790Y-90238411D01*
X187533732Y-89968158D01*
X187582637Y-89722300D01*
X187896898Y-89722300D01*
X187968195Y-89855687D01*
G04 #@! TA.AperFunction,Conductor*
D24*
G36*
X187968195Y-89855687D02*
G01*
X188078638Y-89990262D01*
X188213213Y-90100705D01*
X188366749Y-90182772D01*
X188533345Y-90233308D01*
X188706599Y-90250372D01*
X189956601Y-90250372D01*
X189967000Y-90249348D01*
X189967000Y-90775252D01*
X189956601Y-90774228D01*
X188706599Y-90774228D01*
X188533345Y-90791292D01*
X188366749Y-90841828D01*
X188213213Y-90923895D01*
X188078638Y-91034338D01*
X187968195Y-91168913D01*
X187896898Y-91302300D01*
X185621320Y-91302300D01*
X185621200Y-91301077D01*
X185621200Y-90941624D01*
X185672642Y-90962932D01*
X185959540Y-91020000D01*
X186252060Y-91020000D01*
X186538958Y-90962932D01*
X186809211Y-90850990D01*
X187052432Y-90688475D01*
X187259275Y-90481632D01*
X187421790Y-90238411D01*
X187533732Y-89968158D01*
X187582637Y-89722300D01*
X187896898Y-89722300D01*
X187968195Y-89855687D01*
G37*
G04 #@! TD.AperFunction*
D23*
X184790300Y-85825523D02*
X184706913Y-85870095D01*
X184572338Y-85980538D01*
X184461895Y-86115113D01*
X184379828Y-86268649D01*
X184329292Y-86435245D01*
X184312228Y-86608499D01*
X184312228Y-87508501D01*
X184314602Y-87532600D01*
X182796154Y-86014153D01*
X183059719Y-86123325D01*
X183394917Y-86190000D01*
X183736683Y-86190000D01*
X184071881Y-86123325D01*
X184387631Y-85992537D01*
X184671798Y-85802663D01*
X184790300Y-85684161D01*
X184790300Y-85825523D01*
G04 #@! TA.AperFunction,Conductor*
D24*
G36*
X184790300Y-85825523D02*
G01*
X184706913Y-85870095D01*
X184572338Y-85980538D01*
X184461895Y-86115113D01*
X184379828Y-86268649D01*
X184329292Y-86435245D01*
X184312228Y-86608499D01*
X184312228Y-87508501D01*
X184314602Y-87532600D01*
X182796154Y-86014153D01*
X183059719Y-86123325D01*
X183394917Y-86190000D01*
X183736683Y-86190000D01*
X184071881Y-86123325D01*
X184387631Y-85992537D01*
X184671798Y-85802663D01*
X184790300Y-85684161D01*
X184790300Y-85825523D01*
G37*
G04 #@! TD.AperFunction*
D23*
X184558528Y-74695400D02*
X184570788Y-74819882D01*
X184607098Y-74939580D01*
X184666063Y-75049894D01*
X184745415Y-75146585D01*
X184842106Y-75225937D01*
X184952420Y-75284902D01*
X185072118Y-75321212D01*
X185196600Y-75333472D01*
X185846600Y-75333472D01*
X185971082Y-75321212D01*
X186090780Y-75284902D01*
X186156600Y-75249720D01*
X186222420Y-75284902D01*
X186342118Y-75321212D01*
X186466600Y-75333472D01*
X187116600Y-75333472D01*
X187241082Y-75321212D01*
X187301601Y-75302854D01*
X187301601Y-75343888D01*
X187199243Y-75446246D01*
X187085975Y-75615764D01*
X187007954Y-75804122D01*
X186968180Y-76004081D01*
X186968180Y-76207959D01*
X187007954Y-76407918D01*
X187085975Y-76596276D01*
X187199243Y-76765794D01*
X187343406Y-76909957D01*
X187512924Y-77023225D01*
X187701282Y-77101246D01*
X187901241Y-77141020D01*
X188105119Y-77141020D01*
X188305078Y-77101246D01*
X188493436Y-77023225D01*
X188662954Y-76909957D01*
X188807117Y-76765794D01*
X188920385Y-76596276D01*
X188998406Y-76407918D01*
X189038180Y-76207959D01*
X189038180Y-76004081D01*
X188998406Y-75804122D01*
X188920385Y-75615764D01*
X188821600Y-75467921D01*
X188821600Y-75302854D01*
X188882118Y-75321212D01*
X189006600Y-75333472D01*
X189656600Y-75333472D01*
X189781082Y-75321212D01*
X189900780Y-75284902D01*
X189967001Y-75249506D01*
X189967000Y-81973644D01*
X189858200Y-81962928D01*
X189244529Y-81962928D01*
X189024672Y-81743071D01*
X189024672Y-80295400D01*
X189012412Y-80170918D01*
X188976102Y-80051220D01*
X188917137Y-79940906D01*
X188837785Y-79844215D01*
X188804041Y-79816522D01*
X188767146Y-79694893D01*
X188696574Y-79562864D01*
X188625399Y-79476137D01*
X188601601Y-79447139D01*
X188572603Y-79423341D01*
X187940900Y-78791639D01*
X187940900Y-78729501D01*
X187901126Y-78529542D01*
X187823105Y-78341184D01*
X187709837Y-78171666D01*
X187565674Y-78027503D01*
X187396156Y-77914235D01*
X187207798Y-77836214D01*
X187007839Y-77796440D01*
X186803961Y-77796440D01*
X186604002Y-77836214D01*
X186415644Y-77914235D01*
X186246126Y-78027503D01*
X186175650Y-78097979D01*
X186092474Y-78014803D01*
X185922956Y-77901535D01*
X185734598Y-77823514D01*
X185534639Y-77783740D01*
X185330761Y-77783740D01*
X185130802Y-77823514D01*
X184942444Y-77901535D01*
X184772926Y-78014803D01*
X184628763Y-78158966D01*
X184515495Y-78328484D01*
X184437474Y-78516842D01*
X184397700Y-78716801D01*
X184397700Y-78920679D01*
X184437474Y-79120638D01*
X184515495Y-79308996D01*
X184628763Y-79478514D01*
X184772926Y-79622677D01*
X184921895Y-79722214D01*
X184842106Y-79764863D01*
X184745415Y-79844215D01*
X184666063Y-79940906D01*
X184607098Y-80051220D01*
X184570788Y-80170918D01*
X184558528Y-80295400D01*
X184558528Y-81995400D01*
X184570788Y-82119882D01*
X184586597Y-82171998D01*
X183148790Y-80734191D01*
X183148790Y-74952512D01*
X183288030Y-74813272D01*
X183913800Y-74813272D01*
X184087054Y-74796208D01*
X184253650Y-74745672D01*
X184407186Y-74663605D01*
X184541762Y-74553162D01*
X184558528Y-74532732D01*
X184558528Y-74695400D01*
G04 #@! TA.AperFunction,Conductor*
D24*
G36*
X184558528Y-74695400D02*
G01*
X184570788Y-74819882D01*
X184607098Y-74939580D01*
X184666063Y-75049894D01*
X184745415Y-75146585D01*
X184842106Y-75225937D01*
X184952420Y-75284902D01*
X185072118Y-75321212D01*
X185196600Y-75333472D01*
X185846600Y-75333472D01*
X185971082Y-75321212D01*
X186090780Y-75284902D01*
X186156600Y-75249720D01*
X186222420Y-75284902D01*
X186342118Y-75321212D01*
X186466600Y-75333472D01*
X187116600Y-75333472D01*
X187241082Y-75321212D01*
X187301601Y-75302854D01*
X187301601Y-75343888D01*
X187199243Y-75446246D01*
X187085975Y-75615764D01*
X187007954Y-75804122D01*
X186968180Y-76004081D01*
X186968180Y-76207959D01*
X187007954Y-76407918D01*
X187085975Y-76596276D01*
X187199243Y-76765794D01*
X187343406Y-76909957D01*
X187512924Y-77023225D01*
X187701282Y-77101246D01*
X187901241Y-77141020D01*
X188105119Y-77141020D01*
X188305078Y-77101246D01*
X188493436Y-77023225D01*
X188662954Y-76909957D01*
X188807117Y-76765794D01*
X188920385Y-76596276D01*
X188998406Y-76407918D01*
X189038180Y-76207959D01*
X189038180Y-76004081D01*
X188998406Y-75804122D01*
X188920385Y-75615764D01*
X188821600Y-75467921D01*
X188821600Y-75302854D01*
X188882118Y-75321212D01*
X189006600Y-75333472D01*
X189656600Y-75333472D01*
X189781082Y-75321212D01*
X189900780Y-75284902D01*
X189967001Y-75249506D01*
X189967000Y-81973644D01*
X189858200Y-81962928D01*
X189244529Y-81962928D01*
X189024672Y-81743071D01*
X189024672Y-80295400D01*
X189012412Y-80170918D01*
X188976102Y-80051220D01*
X188917137Y-79940906D01*
X188837785Y-79844215D01*
X188804041Y-79816522D01*
X188767146Y-79694893D01*
X188696574Y-79562864D01*
X188625399Y-79476137D01*
X188601601Y-79447139D01*
X188572603Y-79423341D01*
X187940900Y-78791639D01*
X187940900Y-78729501D01*
X187901126Y-78529542D01*
X187823105Y-78341184D01*
X187709837Y-78171666D01*
X187565674Y-78027503D01*
X187396156Y-77914235D01*
X187207798Y-77836214D01*
X187007839Y-77796440D01*
X186803961Y-77796440D01*
X186604002Y-77836214D01*
X186415644Y-77914235D01*
X186246126Y-78027503D01*
X186175650Y-78097979D01*
X186092474Y-78014803D01*
X185922956Y-77901535D01*
X185734598Y-77823514D01*
X185534639Y-77783740D01*
X185330761Y-77783740D01*
X185130802Y-77823514D01*
X184942444Y-77901535D01*
X184772926Y-78014803D01*
X184628763Y-78158966D01*
X184515495Y-78328484D01*
X184437474Y-78516842D01*
X184397700Y-78716801D01*
X184397700Y-78920679D01*
X184437474Y-79120638D01*
X184515495Y-79308996D01*
X184628763Y-79478514D01*
X184772926Y-79622677D01*
X184921895Y-79722214D01*
X184842106Y-79764863D01*
X184745415Y-79844215D01*
X184666063Y-79940906D01*
X184607098Y-80051220D01*
X184570788Y-80170918D01*
X184558528Y-80295400D01*
X184558528Y-81995400D01*
X184570788Y-82119882D01*
X184586597Y-82171998D01*
X183148790Y-80734191D01*
X183148790Y-74952512D01*
X183288030Y-74813272D01*
X183913800Y-74813272D01*
X184087054Y-74796208D01*
X184253650Y-74745672D01*
X184407186Y-74663605D01*
X184541762Y-74553162D01*
X184558528Y-74532732D01*
X184558528Y-74695400D01*
G37*
G04 #@! TD.AperFunction*
D23*
X179253195Y-62555987D02*
X179363638Y-62690562D01*
X179390491Y-62712600D01*
X179363638Y-62734638D01*
X179253195Y-62869213D01*
X179171128Y-63022749D01*
X179120592Y-63189345D01*
X179103528Y-63362599D01*
X179103528Y-64062601D01*
X179120592Y-64235855D01*
X179171128Y-64402451D01*
X179253195Y-64555987D01*
X179363638Y-64690562D01*
X179498213Y-64801005D01*
X179651749Y-64883072D01*
X179818345Y-64933608D01*
X179991599Y-64950672D01*
X180891601Y-64950672D01*
X181064855Y-64933608D01*
X181231451Y-64883072D01*
X181384987Y-64801005D01*
X181519562Y-64690562D01*
X181630005Y-64555987D01*
X181712072Y-64402451D01*
X181762608Y-64235855D01*
X181779672Y-64062601D01*
X181779672Y-63796311D01*
X181813548Y-63830187D01*
X182081337Y-64009118D01*
X182378888Y-64132368D01*
X182383795Y-64133344D01*
X182218137Y-64299002D01*
X182028263Y-64583169D01*
X181897475Y-64898919D01*
X181830800Y-65234117D01*
X181830800Y-65575883D01*
X181897475Y-65911081D01*
X182028263Y-66226831D01*
X182218137Y-66510998D01*
X182459802Y-66752663D01*
X182743969Y-66942537D01*
X183059719Y-67073325D01*
X183394917Y-67140000D01*
X183736683Y-67140000D01*
X184071881Y-67073325D01*
X184133712Y-67047714D01*
X186085998Y-69000000D01*
X185959540Y-69000000D01*
X185672642Y-69057068D01*
X185402389Y-69169010D01*
X185159168Y-69331525D01*
X184952325Y-69538368D01*
X184789810Y-69781589D01*
X184677868Y-70051842D01*
X184620800Y-70338740D01*
X184620800Y-70631260D01*
X184677868Y-70918158D01*
X184789810Y-71188411D01*
X184952325Y-71431632D01*
X185159168Y-71638475D01*
X185298539Y-71731600D01*
X183361545Y-71731600D01*
X183559539Y-71253601D01*
X183660800Y-70744525D01*
X183660800Y-70225475D01*
X183559539Y-69716399D01*
X183360907Y-69236859D01*
X183072538Y-68805285D01*
X182705515Y-68438262D01*
X182273941Y-68149893D01*
X181794401Y-67951261D01*
X181285325Y-67850000D01*
X180766275Y-67850000D01*
X180257199Y-67951261D01*
X179777659Y-68149893D01*
X179346085Y-68438262D01*
X178979062Y-68805285D01*
X178690693Y-69236859D01*
X178492061Y-69716399D01*
X178390800Y-70225475D01*
X178390800Y-70744525D01*
X178492061Y-71253601D01*
X178690693Y-71733141D01*
X178902412Y-72050001D01*
X176934724Y-72050001D01*
X176897399Y-72046325D01*
X176860074Y-72050001D01*
X176860066Y-72050001D01*
X176748413Y-72060998D01*
X176605152Y-72104455D01*
X176473123Y-72175027D01*
X176357398Y-72270000D01*
X176333600Y-72298998D01*
X175812486Y-72820112D01*
X175629935Y-72783800D01*
X175347265Y-72783800D01*
X175070026Y-72838947D01*
X174808873Y-72947120D01*
X174573841Y-73104163D01*
X174373963Y-73304041D01*
X174218600Y-73536559D01*
X174063237Y-73304041D01*
X173863359Y-73104163D01*
X173628327Y-72947120D01*
X173367174Y-72838947D01*
X173089935Y-72783800D01*
X172807265Y-72783800D01*
X172530026Y-72838947D01*
X172268873Y-72947120D01*
X172110000Y-73053275D01*
X172110000Y-70338740D01*
X174460800Y-70338740D01*
X174460800Y-70631260D01*
X174517868Y-70918158D01*
X174629810Y-71188411D01*
X174792325Y-71431632D01*
X174999168Y-71638475D01*
X175242389Y-71800990D01*
X175512642Y-71912932D01*
X175799540Y-71970000D01*
X176092060Y-71970000D01*
X176378958Y-71912932D01*
X176649211Y-71800990D01*
X176892432Y-71638475D01*
X177099275Y-71431632D01*
X177261790Y-71188411D01*
X177373732Y-70918158D01*
X177430800Y-70631260D01*
X177430800Y-70338740D01*
X177373732Y-70051842D01*
X177261790Y-69781589D01*
X177099275Y-69538368D01*
X176892432Y-69331525D01*
X176649211Y-69169010D01*
X176378958Y-69057068D01*
X176092060Y-69000000D01*
X175799540Y-69000000D01*
X175512642Y-69057068D01*
X175242389Y-69169010D01*
X174999168Y-69331525D01*
X174792325Y-69538368D01*
X174629810Y-69781589D01*
X174517868Y-70051842D01*
X174460800Y-70338740D01*
X172110000Y-70338740D01*
X172110000Y-64746443D01*
X172316011Y-64831775D01*
X172583589Y-64885000D01*
X172856411Y-64885000D01*
X173123989Y-64831775D01*
X173376043Y-64727371D01*
X173602886Y-64575799D01*
X173795799Y-64382886D01*
X173947371Y-64156043D01*
X173990000Y-64053127D01*
X174032629Y-64156043D01*
X174184201Y-64382886D01*
X174377114Y-64575799D01*
X174603957Y-64727371D01*
X174856011Y-64831775D01*
X175123589Y-64885000D01*
X175396411Y-64885000D01*
X175663989Y-64831775D01*
X175821897Y-64766367D01*
X175916985Y-64757002D01*
X176060246Y-64713545D01*
X176192275Y-64642973D01*
X176308000Y-64548000D01*
X176402973Y-64432275D01*
X176473545Y-64300246D01*
X176517002Y-64156985D01*
X176526367Y-64061897D01*
X176591775Y-63903989D01*
X176645000Y-63636411D01*
X176645000Y-63363589D01*
X176591775Y-63096011D01*
X176487371Y-62843957D01*
X176335799Y-62617114D01*
X176191285Y-62472600D01*
X179208624Y-62472600D01*
X179253195Y-62555987D01*
G04 #@! TA.AperFunction,Conductor*
D24*
G36*
X179253195Y-62555987D02*
G01*
X179363638Y-62690562D01*
X179390491Y-62712600D01*
X179363638Y-62734638D01*
X179253195Y-62869213D01*
X179171128Y-63022749D01*
X179120592Y-63189345D01*
X179103528Y-63362599D01*
X179103528Y-64062601D01*
X179120592Y-64235855D01*
X179171128Y-64402451D01*
X179253195Y-64555987D01*
X179363638Y-64690562D01*
X179498213Y-64801005D01*
X179651749Y-64883072D01*
X179818345Y-64933608D01*
X179991599Y-64950672D01*
X180891601Y-64950672D01*
X181064855Y-64933608D01*
X181231451Y-64883072D01*
X181384987Y-64801005D01*
X181519562Y-64690562D01*
X181630005Y-64555987D01*
X181712072Y-64402451D01*
X181762608Y-64235855D01*
X181779672Y-64062601D01*
X181779672Y-63796311D01*
X181813548Y-63830187D01*
X182081337Y-64009118D01*
X182378888Y-64132368D01*
X182383795Y-64133344D01*
X182218137Y-64299002D01*
X182028263Y-64583169D01*
X181897475Y-64898919D01*
X181830800Y-65234117D01*
X181830800Y-65575883D01*
X181897475Y-65911081D01*
X182028263Y-66226831D01*
X182218137Y-66510998D01*
X182459802Y-66752663D01*
X182743969Y-66942537D01*
X183059719Y-67073325D01*
X183394917Y-67140000D01*
X183736683Y-67140000D01*
X184071881Y-67073325D01*
X184133712Y-67047714D01*
X186085998Y-69000000D01*
X185959540Y-69000000D01*
X185672642Y-69057068D01*
X185402389Y-69169010D01*
X185159168Y-69331525D01*
X184952325Y-69538368D01*
X184789810Y-69781589D01*
X184677868Y-70051842D01*
X184620800Y-70338740D01*
X184620800Y-70631260D01*
X184677868Y-70918158D01*
X184789810Y-71188411D01*
X184952325Y-71431632D01*
X185159168Y-71638475D01*
X185298539Y-71731600D01*
X183361545Y-71731600D01*
X183559539Y-71253601D01*
X183660800Y-70744525D01*
X183660800Y-70225475D01*
X183559539Y-69716399D01*
X183360907Y-69236859D01*
X183072538Y-68805285D01*
X182705515Y-68438262D01*
X182273941Y-68149893D01*
X181794401Y-67951261D01*
X181285325Y-67850000D01*
X180766275Y-67850000D01*
X180257199Y-67951261D01*
X179777659Y-68149893D01*
X179346085Y-68438262D01*
X178979062Y-68805285D01*
X178690693Y-69236859D01*
X178492061Y-69716399D01*
X178390800Y-70225475D01*
X178390800Y-70744525D01*
X178492061Y-71253601D01*
X178690693Y-71733141D01*
X178902412Y-72050001D01*
X176934724Y-72050001D01*
X176897399Y-72046325D01*
X176860074Y-72050001D01*
X176860066Y-72050001D01*
X176748413Y-72060998D01*
X176605152Y-72104455D01*
X176473123Y-72175027D01*
X176357398Y-72270000D01*
X176333600Y-72298998D01*
X175812486Y-72820112D01*
X175629935Y-72783800D01*
X175347265Y-72783800D01*
X175070026Y-72838947D01*
X174808873Y-72947120D01*
X174573841Y-73104163D01*
X174373963Y-73304041D01*
X174218600Y-73536559D01*
X174063237Y-73304041D01*
X173863359Y-73104163D01*
X173628327Y-72947120D01*
X173367174Y-72838947D01*
X173089935Y-72783800D01*
X172807265Y-72783800D01*
X172530026Y-72838947D01*
X172268873Y-72947120D01*
X172110000Y-73053275D01*
X172110000Y-70338740D01*
X174460800Y-70338740D01*
X174460800Y-70631260D01*
X174517868Y-70918158D01*
X174629810Y-71188411D01*
X174792325Y-71431632D01*
X174999168Y-71638475D01*
X175242389Y-71800990D01*
X175512642Y-71912932D01*
X175799540Y-71970000D01*
X176092060Y-71970000D01*
X176378958Y-71912932D01*
X176649211Y-71800990D01*
X176892432Y-71638475D01*
X177099275Y-71431632D01*
X177261790Y-71188411D01*
X177373732Y-70918158D01*
X177430800Y-70631260D01*
X177430800Y-70338740D01*
X177373732Y-70051842D01*
X177261790Y-69781589D01*
X177099275Y-69538368D01*
X176892432Y-69331525D01*
X176649211Y-69169010D01*
X176378958Y-69057068D01*
X176092060Y-69000000D01*
X175799540Y-69000000D01*
X175512642Y-69057068D01*
X175242389Y-69169010D01*
X174999168Y-69331525D01*
X174792325Y-69538368D01*
X174629810Y-69781589D01*
X174517868Y-70051842D01*
X174460800Y-70338740D01*
X172110000Y-70338740D01*
X172110000Y-64746443D01*
X172316011Y-64831775D01*
X172583589Y-64885000D01*
X172856411Y-64885000D01*
X173123989Y-64831775D01*
X173376043Y-64727371D01*
X173602886Y-64575799D01*
X173795799Y-64382886D01*
X173947371Y-64156043D01*
X173990000Y-64053127D01*
X174032629Y-64156043D01*
X174184201Y-64382886D01*
X174377114Y-64575799D01*
X174603957Y-64727371D01*
X174856011Y-64831775D01*
X175123589Y-64885000D01*
X175396411Y-64885000D01*
X175663989Y-64831775D01*
X175821897Y-64766367D01*
X175916985Y-64757002D01*
X176060246Y-64713545D01*
X176192275Y-64642973D01*
X176308000Y-64548000D01*
X176402973Y-64432275D01*
X176473545Y-64300246D01*
X176517002Y-64156985D01*
X176526367Y-64061897D01*
X176591775Y-63903989D01*
X176645000Y-63636411D01*
X176645000Y-63363589D01*
X176591775Y-63096011D01*
X176487371Y-62843957D01*
X176335799Y-62617114D01*
X176191285Y-62472600D01*
X179208624Y-62472600D01*
X179253195Y-62555987D01*
G37*
G04 #@! TD.AperFunction*
D23*
X188571600Y-71485602D02*
X188571600Y-72387946D01*
X188511082Y-72369588D01*
X188386600Y-72357328D01*
X187736600Y-72357328D01*
X187612118Y-72369588D01*
X187492420Y-72405898D01*
X187476450Y-72414434D01*
X187426574Y-72321124D01*
X187331601Y-72205399D01*
X187302602Y-72181600D01*
X187101603Y-71980602D01*
X187077801Y-71951599D01*
X186962076Y-71856626D01*
X186830890Y-71786505D01*
X187052432Y-71638475D01*
X187259275Y-71431632D01*
X187421790Y-71188411D01*
X187533732Y-70918158D01*
X187590800Y-70631260D01*
X187590800Y-70504802D01*
X188571600Y-71485602D01*
G04 #@! TA.AperFunction,Conductor*
D24*
G36*
X188571600Y-71485602D02*
G01*
X188571600Y-72387946D01*
X188511082Y-72369588D01*
X188386600Y-72357328D01*
X187736600Y-72357328D01*
X187612118Y-72369588D01*
X187492420Y-72405898D01*
X187476450Y-72414434D01*
X187426574Y-72321124D01*
X187331601Y-72205399D01*
X187302602Y-72181600D01*
X187101603Y-71980602D01*
X187077801Y-71951599D01*
X186962076Y-71856626D01*
X186830890Y-71786505D01*
X187052432Y-71638475D01*
X187259275Y-71431632D01*
X187421790Y-71188411D01*
X187533732Y-70918158D01*
X187590800Y-70631260D01*
X187590800Y-70504802D01*
X188571600Y-71485602D01*
G37*
G04 #@! TD.AperFunction*
D23*
X189476102Y-61507843D02*
X189590659Y-61542430D01*
X189696321Y-61598611D01*
X189789060Y-61674248D01*
X189865339Y-61766454D01*
X189922259Y-61871724D01*
X189962203Y-62000764D01*
X189967001Y-62032284D01*
X189967001Y-70747322D01*
X189966574Y-70746524D01*
X189895399Y-70659797D01*
X189871601Y-70630799D01*
X189842604Y-70607002D01*
X185208514Y-65972912D01*
X185234125Y-65911081D01*
X185300800Y-65575883D01*
X185300800Y-65234117D01*
X185234125Y-64898919D01*
X185103337Y-64583169D01*
X184913463Y-64299002D01*
X184671798Y-64057337D01*
X184387631Y-63867463D01*
X184071881Y-63736675D01*
X184004889Y-63723350D01*
X184125787Y-63602452D01*
X184304718Y-63334663D01*
X184427968Y-63037112D01*
X184490800Y-62721233D01*
X184490800Y-62399167D01*
X184427968Y-62083288D01*
X184304718Y-61785737D01*
X184125787Y-61517948D01*
X184100839Y-61493000D01*
X189324720Y-61493000D01*
X189476102Y-61507843D01*
G04 #@! TA.AperFunction,Conductor*
D24*
G36*
X189476102Y-61507843D02*
G01*
X189590659Y-61542430D01*
X189696321Y-61598611D01*
X189789060Y-61674248D01*
X189865339Y-61766454D01*
X189922259Y-61871724D01*
X189962203Y-62000764D01*
X189967001Y-62032284D01*
X189967001Y-70747322D01*
X189966574Y-70746524D01*
X189895399Y-70659797D01*
X189871601Y-70630799D01*
X189842604Y-70607002D01*
X185208514Y-65972912D01*
X185234125Y-65911081D01*
X185300800Y-65575883D01*
X185300800Y-65234117D01*
X185234125Y-64898919D01*
X185103337Y-64583169D01*
X184913463Y-64299002D01*
X184671798Y-64057337D01*
X184387631Y-63867463D01*
X184071881Y-63736675D01*
X184004889Y-63723350D01*
X184125787Y-63602452D01*
X184304718Y-63334663D01*
X184427968Y-63037112D01*
X184490800Y-62721233D01*
X184490800Y-62399167D01*
X184427968Y-62083288D01*
X184304718Y-61785737D01*
X184125787Y-61517948D01*
X184100839Y-61493000D01*
X189324720Y-61493000D01*
X189476102Y-61507843D01*
G37*
G04 #@! TD.AperFunction*
M02*
