G04 #@! TF.GenerationSoftware,KiCad,Pcbnew,(5.1.10)-1*
G04 #@! TF.CreationDate,2021-08-29T12:19:40-04:00*
G04 #@! TF.ProjectId,milk,6d696c6b-2e6b-4696-9361-645f70636258,rev?*
G04 #@! TF.SameCoordinates,Original*
G04 #@! TF.FileFunction,Legend,Bot*
G04 #@! TF.FilePolarity,Positive*
%FSLAX46Y46*%
G04 Gerber Fmt 4.6, Leading zero omitted, Abs format (unit mm)*
G04 Created by KiCad (PCBNEW (5.1.10)-1) date 2021-08-29 12:19:40*
%MOMM*%
%LPD*%
G01*
G04 APERTURE LIST*
%ADD10C,0.010000*%
%ADD11C,1.500000*%
%ADD12C,2.000000*%
%ADD13C,1.700000*%
%ADD14C,4.000000*%
%ADD15C,2.200000*%
%ADD16C,0.800000*%
%ADD17O,1.000000X2.000000*%
%ADD18R,1.500000X1.500000*%
G04 APERTURE END LIST*
D10*
G36*
X179666445Y-78809146D02*
G01*
X179564401Y-78856751D01*
X179470540Y-78922460D01*
X179406756Y-78991406D01*
X179359827Y-79103089D01*
X179347964Y-79230953D01*
X179371173Y-79355208D01*
X179406637Y-79427020D01*
X179496233Y-79521859D01*
X179610301Y-79587318D01*
X179734349Y-79617685D01*
X179853883Y-79607248D01*
X179859596Y-79605517D01*
X179987321Y-79542276D01*
X180083702Y-79440670D01*
X180106596Y-79403518D01*
X180154052Y-79277041D01*
X180153236Y-79209900D01*
X179984400Y-79209900D01*
X179963134Y-79309222D01*
X179907127Y-79383536D01*
X179828070Y-79428426D01*
X179737652Y-79439482D01*
X179647563Y-79412291D01*
X179584350Y-79360910D01*
X179535157Y-79274157D01*
X179527622Y-79184469D01*
X179554750Y-79101042D01*
X179609547Y-79033071D01*
X179685019Y-78989751D01*
X179774172Y-78980279D01*
X179854794Y-79005351D01*
X179939536Y-79070681D01*
X179979839Y-79158455D01*
X179984400Y-79209900D01*
X180153236Y-79209900D01*
X180152501Y-79149560D01*
X180103711Y-79018384D01*
X180033120Y-78925580D01*
X179935813Y-78849626D01*
X179828802Y-78801695D01*
X179757187Y-78790800D01*
X179666445Y-78809146D01*
G37*
X179666445Y-78809146D02*
X179564401Y-78856751D01*
X179470540Y-78922460D01*
X179406756Y-78991406D01*
X179359827Y-79103089D01*
X179347964Y-79230953D01*
X179371173Y-79355208D01*
X179406637Y-79427020D01*
X179496233Y-79521859D01*
X179610301Y-79587318D01*
X179734349Y-79617685D01*
X179853883Y-79607248D01*
X179859596Y-79605517D01*
X179987321Y-79542276D01*
X180083702Y-79440670D01*
X180106596Y-79403518D01*
X180154052Y-79277041D01*
X180153236Y-79209900D01*
X179984400Y-79209900D01*
X179963134Y-79309222D01*
X179907127Y-79383536D01*
X179828070Y-79428426D01*
X179737652Y-79439482D01*
X179647563Y-79412291D01*
X179584350Y-79360910D01*
X179535157Y-79274157D01*
X179527622Y-79184469D01*
X179554750Y-79101042D01*
X179609547Y-79033071D01*
X179685019Y-78989751D01*
X179774172Y-78980279D01*
X179854794Y-79005351D01*
X179939536Y-79070681D01*
X179979839Y-79158455D01*
X179984400Y-79209900D01*
X180153236Y-79209900D01*
X180152501Y-79149560D01*
X180103711Y-79018384D01*
X180033120Y-78925580D01*
X179935813Y-78849626D01*
X179828802Y-78801695D01*
X179757187Y-78790800D01*
X179666445Y-78809146D01*
G36*
X181785494Y-75732894D02*
G01*
X181752783Y-75756045D01*
X181736926Y-75779252D01*
X181725619Y-75817294D01*
X181718152Y-75877915D01*
X181713812Y-75968857D01*
X181711890Y-76097862D01*
X181711600Y-76204531D01*
X181710987Y-76358772D01*
X181708744Y-76468738D01*
X181704267Y-76540942D01*
X181696950Y-76581898D01*
X181686189Y-76598121D01*
X181675089Y-76597824D01*
X181542002Y-76560580D01*
X181373464Y-76534026D01*
X181183781Y-76518609D01*
X180987260Y-76514778D01*
X180798207Y-76522982D01*
X180630927Y-76543667D01*
X180546274Y-76562446D01*
X180304826Y-76638663D01*
X180096605Y-76728183D01*
X179907664Y-76839167D01*
X179724055Y-76979772D01*
X179537531Y-77152500D01*
X179429352Y-77261684D01*
X179349066Y-77349502D01*
X179287064Y-77428859D01*
X179233739Y-77512657D01*
X179179483Y-77613802D01*
X179149846Y-77673200D01*
X179077255Y-77834269D01*
X179013855Y-78000951D01*
X178963528Y-78160867D01*
X178930154Y-78301642D01*
X178917614Y-78410898D01*
X178917600Y-78413863D01*
X178917600Y-78486000D01*
X178515137Y-78486000D01*
X178362194Y-78486488D01*
X178251838Y-78488560D01*
X178175865Y-78493130D01*
X178126065Y-78501107D01*
X178094233Y-78513405D01*
X178072162Y-78530935D01*
X178067678Y-78535719D01*
X178056185Y-78546598D01*
X178046501Y-78555709D01*
X178040682Y-78566584D01*
X178040786Y-78582759D01*
X178048869Y-78607767D01*
X178066987Y-78645141D01*
X178097198Y-78698416D01*
X178141558Y-78771125D01*
X178202125Y-78866802D01*
X178280954Y-78988980D01*
X178380103Y-79141195D01*
X178501628Y-79326979D01*
X178647586Y-79549866D01*
X178740954Y-79692500D01*
X178873882Y-79895738D01*
X179011723Y-80106670D01*
X179148642Y-80316356D01*
X179278809Y-80515859D01*
X179396389Y-80696240D01*
X179495549Y-80848560D01*
X179544840Y-80924400D01*
X179634013Y-81059835D01*
X179716724Y-81181927D01*
X179788078Y-81283723D01*
X179843175Y-81358271D01*
X179877118Y-81398619D01*
X179881673Y-81402511D01*
X179921834Y-81421337D01*
X179958232Y-81405907D01*
X179983121Y-81382879D01*
X180001438Y-81365542D01*
X180014574Y-81350221D01*
X180019966Y-81331787D01*
X180015050Y-81305113D01*
X179997265Y-81265072D01*
X179964048Y-81206535D01*
X179912836Y-81124376D01*
X179841066Y-81013467D01*
X179746176Y-80868679D01*
X179662153Y-80740657D01*
X179583736Y-80620884D01*
X179489708Y-80476958D01*
X179383384Y-80313979D01*
X179268078Y-80137047D01*
X179147104Y-79951260D01*
X179023778Y-79761717D01*
X178901412Y-79573519D01*
X178783321Y-79391764D01*
X178672820Y-79221551D01*
X178573222Y-79067980D01*
X178487842Y-78936150D01*
X178419994Y-78831160D01*
X178372992Y-78758109D01*
X178350151Y-78722098D01*
X178349455Y-78720950D01*
X178351983Y-78706558D01*
X178384256Y-78697003D01*
X178452580Y-78691515D01*
X178563264Y-78689328D01*
X178610151Y-78689200D01*
X178889899Y-78689200D01*
X178903535Y-78784450D01*
X178956371Y-79083960D01*
X179025227Y-79343320D01*
X179114219Y-79571762D01*
X179227460Y-79778521D01*
X179369065Y-79972829D01*
X179497143Y-80116769D01*
X179748282Y-80347089D01*
X180015913Y-80529391D01*
X180300484Y-80663859D01*
X180602445Y-80750674D01*
X180922245Y-80790019D01*
X181151316Y-80789695D01*
X181284236Y-80780469D01*
X181413102Y-80766735D01*
X181520904Y-80750554D01*
X181577531Y-80738098D01*
X181710161Y-80700777D01*
X181717231Y-81032117D01*
X181721065Y-81170803D01*
X181726443Y-81267225D01*
X181734588Y-81329914D01*
X181746722Y-81367404D01*
X181764071Y-81388229D01*
X181768750Y-81391448D01*
X181823442Y-81405850D01*
X181857650Y-81391441D01*
X181875348Y-81374373D01*
X181888100Y-81343661D01*
X181896941Y-81291269D01*
X181902906Y-81209165D01*
X181907028Y-81089315D01*
X181909129Y-80991691D01*
X181916157Y-80619940D01*
X182023429Y-80565395D01*
X182281928Y-80407535D01*
X182520380Y-80209948D01*
X182731076Y-79980927D01*
X182906307Y-79728764D01*
X183029873Y-79482728D01*
X183092762Y-79303491D01*
X183147469Y-79096691D01*
X183188178Y-78885509D01*
X183198657Y-78809850D01*
X183213313Y-78689200D01*
X183011044Y-78689200D01*
X182993818Y-78860650D01*
X182970338Y-79002073D01*
X182928700Y-79166665D01*
X182874873Y-79335498D01*
X182814828Y-79489643D01*
X182760742Y-79599586D01*
X182672093Y-79737366D01*
X182563366Y-79881241D01*
X182448048Y-80014664D01*
X182339627Y-80121088D01*
X182326637Y-80132165D01*
X182247067Y-80194838D01*
X182157972Y-80259252D01*
X182070613Y-80317959D01*
X181996255Y-80363509D01*
X181946159Y-80388456D01*
X181935228Y-80391000D01*
X181930375Y-80366579D01*
X181925934Y-80297235D01*
X181922046Y-80188841D01*
X181918853Y-80047274D01*
X181916494Y-79878408D01*
X181915112Y-79688119D01*
X181914800Y-79540100D01*
X181914800Y-78689200D01*
X181711600Y-78689200D01*
X181711600Y-80491180D01*
X181578250Y-80528628D01*
X181486997Y-80553384D01*
X181411670Y-80570284D01*
X181339273Y-80580515D01*
X181256808Y-80585264D01*
X181151277Y-80585718D01*
X181009684Y-80583062D01*
X180987700Y-80582545D01*
X180821293Y-80576118D01*
X180691180Y-80564636D01*
X180582959Y-80546281D01*
X180482230Y-80519236D01*
X180479700Y-80518438D01*
X180187541Y-80400381D01*
X179923200Y-80241805D01*
X179689855Y-80046616D01*
X179490685Y-79818720D01*
X179328868Y-79562023D01*
X179207580Y-79280428D01*
X179130000Y-78977843D01*
X179110130Y-78835250D01*
X179094957Y-78689200D01*
X181711600Y-78689200D01*
X181914800Y-78689200D01*
X183011044Y-78689200D01*
X183213313Y-78689200D01*
X183627747Y-78689200D01*
X183798118Y-78688001D01*
X183923731Y-78683447D01*
X184010590Y-78674100D01*
X184064701Y-78658519D01*
X184092069Y-78635267D01*
X184098698Y-78602906D01*
X184094948Y-78577279D01*
X184077403Y-78547413D01*
X184032588Y-78483763D01*
X184023608Y-78471617D01*
X183769000Y-78471617D01*
X183745273Y-78477280D01*
X183680776Y-78481892D01*
X183585535Y-78484962D01*
X183476900Y-78486000D01*
X183184800Y-78486000D01*
X182999310Y-78486000D01*
X181914800Y-78486000D01*
X181914800Y-77698600D01*
X181915433Y-77504432D01*
X181917225Y-77327661D01*
X181920018Y-77174393D01*
X181923653Y-77050736D01*
X181927973Y-76962798D01*
X181932818Y-76916686D01*
X181935228Y-76911200D01*
X181973450Y-76925802D01*
X182040536Y-76964743D01*
X182125605Y-77020726D01*
X182217776Y-77086451D01*
X182306166Y-77154622D01*
X182340328Y-77182893D01*
X182532619Y-77377069D01*
X182699284Y-77607190D01*
X182834319Y-77862340D01*
X182931717Y-78131606D01*
X182977022Y-78339950D01*
X182999310Y-78486000D01*
X183184800Y-78486000D01*
X183184800Y-78401883D01*
X183175520Y-78312574D01*
X183150443Y-78191876D01*
X183113717Y-78055122D01*
X183069488Y-77917646D01*
X183021904Y-77794780D01*
X183018484Y-77786962D01*
X182878251Y-77527142D01*
X182696287Y-77281138D01*
X182481463Y-77058310D01*
X182242653Y-76868020D01*
X182147378Y-76811019D01*
X181711600Y-76811019D01*
X181711600Y-78486000D01*
X179120800Y-78486000D01*
X179120800Y-78402436D01*
X179134538Y-78278288D01*
X179173206Y-78125137D01*
X179232984Y-77955861D01*
X179295628Y-77812900D01*
X179453303Y-77537315D01*
X179644804Y-77299181D01*
X179871091Y-77097653D01*
X180133124Y-76931886D01*
X180431863Y-76801036D01*
X180454300Y-76793118D01*
X180538420Y-76765246D01*
X180611622Y-76745779D01*
X180686319Y-76733199D01*
X180774925Y-76725984D01*
X180889851Y-76722616D01*
X181038500Y-76721586D01*
X181208611Y-76722810D01*
X181338768Y-76727987D01*
X181439728Y-76738020D01*
X181522247Y-76753812D01*
X181565550Y-76765859D01*
X181711600Y-76811019D01*
X182147378Y-76811019D01*
X182022750Y-76736458D01*
X181914800Y-76681567D01*
X181914800Y-76397240D01*
X181915622Y-76273963D01*
X181918721Y-76194648D01*
X181925047Y-76152476D01*
X181935550Y-76140627D01*
X181949223Y-76150107D01*
X181974134Y-76179931D01*
X182025601Y-76243708D01*
X182098829Y-76335420D01*
X182189023Y-76449047D01*
X182291389Y-76578571D01*
X182363334Y-76669900D01*
X182608513Y-76981565D01*
X182824084Y-77255680D01*
X183011882Y-77494594D01*
X183173739Y-77700658D01*
X183311490Y-77876221D01*
X183426968Y-78023634D01*
X183522007Y-78145247D01*
X183598440Y-78243411D01*
X183658101Y-78320475D01*
X183702823Y-78378790D01*
X183734441Y-78420705D01*
X183754787Y-78448572D01*
X183765695Y-78464741D01*
X183768999Y-78471561D01*
X183769000Y-78471617D01*
X184023608Y-78471617D01*
X183964926Y-78392248D01*
X183878839Y-78278785D01*
X183778750Y-78149292D01*
X183700147Y-78049009D01*
X183599034Y-77920719D01*
X183472271Y-77759850D01*
X183325635Y-77573736D01*
X183164904Y-77369709D01*
X182995854Y-77155103D01*
X182824262Y-76937251D01*
X182655906Y-76723487D01*
X182593748Y-76644559D01*
X182445433Y-76457134D01*
X182305702Y-76282309D01*
X182177864Y-76124098D01*
X182065230Y-75986517D01*
X181971106Y-75873580D01*
X181898804Y-75789303D01*
X181851633Y-75737701D01*
X181833834Y-75722540D01*
X181785494Y-75732894D01*
G37*
X181785494Y-75732894D02*
X181752783Y-75756045D01*
X181736926Y-75779252D01*
X181725619Y-75817294D01*
X181718152Y-75877915D01*
X181713812Y-75968857D01*
X181711890Y-76097862D01*
X181711600Y-76204531D01*
X181710987Y-76358772D01*
X181708744Y-76468738D01*
X181704267Y-76540942D01*
X181696950Y-76581898D01*
X181686189Y-76598121D01*
X181675089Y-76597824D01*
X181542002Y-76560580D01*
X181373464Y-76534026D01*
X181183781Y-76518609D01*
X180987260Y-76514778D01*
X180798207Y-76522982D01*
X180630927Y-76543667D01*
X180546274Y-76562446D01*
X180304826Y-76638663D01*
X180096605Y-76728183D01*
X179907664Y-76839167D01*
X179724055Y-76979772D01*
X179537531Y-77152500D01*
X179429352Y-77261684D01*
X179349066Y-77349502D01*
X179287064Y-77428859D01*
X179233739Y-77512657D01*
X179179483Y-77613802D01*
X179149846Y-77673200D01*
X179077255Y-77834269D01*
X179013855Y-78000951D01*
X178963528Y-78160867D01*
X178930154Y-78301642D01*
X178917614Y-78410898D01*
X178917600Y-78413863D01*
X178917600Y-78486000D01*
X178515137Y-78486000D01*
X178362194Y-78486488D01*
X178251838Y-78488560D01*
X178175865Y-78493130D01*
X178126065Y-78501107D01*
X178094233Y-78513405D01*
X178072162Y-78530935D01*
X178067678Y-78535719D01*
X178056185Y-78546598D01*
X178046501Y-78555709D01*
X178040682Y-78566584D01*
X178040786Y-78582759D01*
X178048869Y-78607767D01*
X178066987Y-78645141D01*
X178097198Y-78698416D01*
X178141558Y-78771125D01*
X178202125Y-78866802D01*
X178280954Y-78988980D01*
X178380103Y-79141195D01*
X178501628Y-79326979D01*
X178647586Y-79549866D01*
X178740954Y-79692500D01*
X178873882Y-79895738D01*
X179011723Y-80106670D01*
X179148642Y-80316356D01*
X179278809Y-80515859D01*
X179396389Y-80696240D01*
X179495549Y-80848560D01*
X179544840Y-80924400D01*
X179634013Y-81059835D01*
X179716724Y-81181927D01*
X179788078Y-81283723D01*
X179843175Y-81358271D01*
X179877118Y-81398619D01*
X179881673Y-81402511D01*
X179921834Y-81421337D01*
X179958232Y-81405907D01*
X179983121Y-81382879D01*
X180001438Y-81365542D01*
X180014574Y-81350221D01*
X180019966Y-81331787D01*
X180015050Y-81305113D01*
X179997265Y-81265072D01*
X179964048Y-81206535D01*
X179912836Y-81124376D01*
X179841066Y-81013467D01*
X179746176Y-80868679D01*
X179662153Y-80740657D01*
X179583736Y-80620884D01*
X179489708Y-80476958D01*
X179383384Y-80313979D01*
X179268078Y-80137047D01*
X179147104Y-79951260D01*
X179023778Y-79761717D01*
X178901412Y-79573519D01*
X178783321Y-79391764D01*
X178672820Y-79221551D01*
X178573222Y-79067980D01*
X178487842Y-78936150D01*
X178419994Y-78831160D01*
X178372992Y-78758109D01*
X178350151Y-78722098D01*
X178349455Y-78720950D01*
X178351983Y-78706558D01*
X178384256Y-78697003D01*
X178452580Y-78691515D01*
X178563264Y-78689328D01*
X178610151Y-78689200D01*
X178889899Y-78689200D01*
X178903535Y-78784450D01*
X178956371Y-79083960D01*
X179025227Y-79343320D01*
X179114219Y-79571762D01*
X179227460Y-79778521D01*
X179369065Y-79972829D01*
X179497143Y-80116769D01*
X179748282Y-80347089D01*
X180015913Y-80529391D01*
X180300484Y-80663859D01*
X180602445Y-80750674D01*
X180922245Y-80790019D01*
X181151316Y-80789695D01*
X181284236Y-80780469D01*
X181413102Y-80766735D01*
X181520904Y-80750554D01*
X181577531Y-80738098D01*
X181710161Y-80700777D01*
X181717231Y-81032117D01*
X181721065Y-81170803D01*
X181726443Y-81267225D01*
X181734588Y-81329914D01*
X181746722Y-81367404D01*
X181764071Y-81388229D01*
X181768750Y-81391448D01*
X181823442Y-81405850D01*
X181857650Y-81391441D01*
X181875348Y-81374373D01*
X181888100Y-81343661D01*
X181896941Y-81291269D01*
X181902906Y-81209165D01*
X181907028Y-81089315D01*
X181909129Y-80991691D01*
X181916157Y-80619940D01*
X182023429Y-80565395D01*
X182281928Y-80407535D01*
X182520380Y-80209948D01*
X182731076Y-79980927D01*
X182906307Y-79728764D01*
X183029873Y-79482728D01*
X183092762Y-79303491D01*
X183147469Y-79096691D01*
X183188178Y-78885509D01*
X183198657Y-78809850D01*
X183213313Y-78689200D01*
X183011044Y-78689200D01*
X182993818Y-78860650D01*
X182970338Y-79002073D01*
X182928700Y-79166665D01*
X182874873Y-79335498D01*
X182814828Y-79489643D01*
X182760742Y-79599586D01*
X182672093Y-79737366D01*
X182563366Y-79881241D01*
X182448048Y-80014664D01*
X182339627Y-80121088D01*
X182326637Y-80132165D01*
X182247067Y-80194838D01*
X182157972Y-80259252D01*
X182070613Y-80317959D01*
X181996255Y-80363509D01*
X181946159Y-80388456D01*
X181935228Y-80391000D01*
X181930375Y-80366579D01*
X181925934Y-80297235D01*
X181922046Y-80188841D01*
X181918853Y-80047274D01*
X181916494Y-79878408D01*
X181915112Y-79688119D01*
X181914800Y-79540100D01*
X181914800Y-78689200D01*
X181711600Y-78689200D01*
X181711600Y-80491180D01*
X181578250Y-80528628D01*
X181486997Y-80553384D01*
X181411670Y-80570284D01*
X181339273Y-80580515D01*
X181256808Y-80585264D01*
X181151277Y-80585718D01*
X181009684Y-80583062D01*
X180987700Y-80582545D01*
X180821293Y-80576118D01*
X180691180Y-80564636D01*
X180582959Y-80546281D01*
X180482230Y-80519236D01*
X180479700Y-80518438D01*
X180187541Y-80400381D01*
X179923200Y-80241805D01*
X179689855Y-80046616D01*
X179490685Y-79818720D01*
X179328868Y-79562023D01*
X179207580Y-79280428D01*
X179130000Y-78977843D01*
X179110130Y-78835250D01*
X179094957Y-78689200D01*
X181711600Y-78689200D01*
X181914800Y-78689200D01*
X183011044Y-78689200D01*
X183213313Y-78689200D01*
X183627747Y-78689200D01*
X183798118Y-78688001D01*
X183923731Y-78683447D01*
X184010590Y-78674100D01*
X184064701Y-78658519D01*
X184092069Y-78635267D01*
X184098698Y-78602906D01*
X184094948Y-78577279D01*
X184077403Y-78547413D01*
X184032588Y-78483763D01*
X184023608Y-78471617D01*
X183769000Y-78471617D01*
X183745273Y-78477280D01*
X183680776Y-78481892D01*
X183585535Y-78484962D01*
X183476900Y-78486000D01*
X183184800Y-78486000D01*
X182999310Y-78486000D01*
X181914800Y-78486000D01*
X181914800Y-77698600D01*
X181915433Y-77504432D01*
X181917225Y-77327661D01*
X181920018Y-77174393D01*
X181923653Y-77050736D01*
X181927973Y-76962798D01*
X181932818Y-76916686D01*
X181935228Y-76911200D01*
X181973450Y-76925802D01*
X182040536Y-76964743D01*
X182125605Y-77020726D01*
X182217776Y-77086451D01*
X182306166Y-77154622D01*
X182340328Y-77182893D01*
X182532619Y-77377069D01*
X182699284Y-77607190D01*
X182834319Y-77862340D01*
X182931717Y-78131606D01*
X182977022Y-78339950D01*
X182999310Y-78486000D01*
X183184800Y-78486000D01*
X183184800Y-78401883D01*
X183175520Y-78312574D01*
X183150443Y-78191876D01*
X183113717Y-78055122D01*
X183069488Y-77917646D01*
X183021904Y-77794780D01*
X183018484Y-77786962D01*
X182878251Y-77527142D01*
X182696287Y-77281138D01*
X182481463Y-77058310D01*
X182242653Y-76868020D01*
X182147378Y-76811019D01*
X181711600Y-76811019D01*
X181711600Y-78486000D01*
X179120800Y-78486000D01*
X179120800Y-78402436D01*
X179134538Y-78278288D01*
X179173206Y-78125137D01*
X179232984Y-77955861D01*
X179295628Y-77812900D01*
X179453303Y-77537315D01*
X179644804Y-77299181D01*
X179871091Y-77097653D01*
X180133124Y-76931886D01*
X180431863Y-76801036D01*
X180454300Y-76793118D01*
X180538420Y-76765246D01*
X180611622Y-76745779D01*
X180686319Y-76733199D01*
X180774925Y-76725984D01*
X180889851Y-76722616D01*
X181038500Y-76721586D01*
X181208611Y-76722810D01*
X181338768Y-76727987D01*
X181439728Y-76738020D01*
X181522247Y-76753812D01*
X181565550Y-76765859D01*
X181711600Y-76811019D01*
X182147378Y-76811019D01*
X182022750Y-76736458D01*
X181914800Y-76681567D01*
X181914800Y-76397240D01*
X181915622Y-76273963D01*
X181918721Y-76194648D01*
X181925047Y-76152476D01*
X181935550Y-76140627D01*
X181949223Y-76150107D01*
X181974134Y-76179931D01*
X182025601Y-76243708D01*
X182098829Y-76335420D01*
X182189023Y-76449047D01*
X182291389Y-76578571D01*
X182363334Y-76669900D01*
X182608513Y-76981565D01*
X182824084Y-77255680D01*
X183011882Y-77494594D01*
X183173739Y-77700658D01*
X183311490Y-77876221D01*
X183426968Y-78023634D01*
X183522007Y-78145247D01*
X183598440Y-78243411D01*
X183658101Y-78320475D01*
X183702823Y-78378790D01*
X183734441Y-78420705D01*
X183754787Y-78448572D01*
X183765695Y-78464741D01*
X183768999Y-78471561D01*
X183769000Y-78471617D01*
X184023608Y-78471617D01*
X183964926Y-78392248D01*
X183878839Y-78278785D01*
X183778750Y-78149292D01*
X183700147Y-78049009D01*
X183599034Y-77920719D01*
X183472271Y-77759850D01*
X183325635Y-77573736D01*
X183164904Y-77369709D01*
X182995854Y-77155103D01*
X182824262Y-76937251D01*
X182655906Y-76723487D01*
X182593748Y-76644559D01*
X182445433Y-76457134D01*
X182305702Y-76282309D01*
X182177864Y-76124098D01*
X182065230Y-75986517D01*
X181971106Y-75873580D01*
X181898804Y-75789303D01*
X181851633Y-75737701D01*
X181833834Y-75722540D01*
X181785494Y-75732894D01*
%LPC*%
D11*
X180340000Y-63500000D03*
D12*
X189355800Y-62560200D03*
X182855800Y-62560200D03*
D11*
X180340000Y-73660000D03*
X177800000Y-73660000D03*
X175260000Y-73660000D03*
X172720000Y-73660000D03*
D13*
X186105800Y-89535000D03*
X175945800Y-89535000D03*
D14*
X181025800Y-89535000D03*
D15*
X177215800Y-86995000D03*
X183565800Y-84455000D03*
D13*
X186105800Y-70485000D03*
X175945800Y-70485000D03*
D14*
X181025800Y-70485000D03*
D15*
X177215800Y-67945000D03*
X183565800Y-65405000D03*
D16*
X184363900Y-94163100D03*
X177763900Y-94163100D03*
D17*
X185673900Y-93603100D03*
X176453900Y-93603100D03*
X176453900Y-98103100D03*
X185673900Y-98103100D03*
D18*
X177800000Y-63500000D03*
D11*
X175260000Y-63500000D03*
X172720000Y-63500000D03*
M02*
