%FSLAX45Y45*%
G04 Gerber Fmt 4.5, Leading zero omitted, Abs format (unit mm)*
G04 Created by KiCad (PCBNEW (5.1.10)-1) date 2021-08-28 07:38:45*
%MOMM*%
%LPD*%
G01*
G04 APERTURE LIST*
%TA.AperFunction,Profile*%
%ADD10C,0.050000*%
%TD*%
%ADD11C,0.200000*%
%ADD12C,0.300000*%
G04 APERTURE END LIST*
D10*
X19062700Y-9893300D02*
G75*
G02*
X18935700Y-10020300I-127000J0D01*
G01*
X18935700Y-6083300D02*
G75*
G02*
X19062700Y-6198233I0J-127633D01*
G01*
X17145000Y-6146800D02*
G75*
G02*
X17208500Y-6083300I63500J0D01*
G01*
X17272000Y-10020300D02*
G75*
G02*
X17145000Y-9893300I0J127000D01*
G01*
X17327880Y-10020300D02*
X17272000Y-10020300D01*
X17145000Y-6146800D02*
X17145000Y-9893300D01*
X18935700Y-6083300D02*
X17208500Y-6083300D01*
X19062700Y-9893300D02*
X19062700Y-6198233D01*
X17327880Y-10020300D02*
X18935700Y-10020300D01*
D11*
X17736390Y-9376310D02*
X17816390Y-9456310D01*
X17816390Y-9376310D02*
X17736390Y-9456310D01*
X18396390Y-9376310D02*
X18476390Y-9456310D01*
X18476390Y-9376310D02*
X18396390Y-9456310D01*
X17679580Y-7048500D02*
G75*
G03*
X17679580Y-7048500I-85000J0D01*
G01*
X17679580Y-8953500D02*
G75*
G03*
X17679580Y-8953500I-85000J0D01*
G01*
X18695580Y-7048500D02*
G75*
G03*
X18695580Y-7048500I-85000J0D01*
G01*
X18695580Y-8953500D02*
G75*
G03*
X18695580Y-8953500I-85000J0D01*
G01*
X18102580Y-6848500D02*
X18102580Y-7248500D01*
X17902580Y-7048500D02*
X18302580Y-7048500D01*
X18102580Y-8753500D02*
X18102580Y-9153500D01*
X17902580Y-8953500D02*
X18302580Y-8953500D01*
D12*
X17428928Y-10488514D02*
X17428928Y-10188514D01*
X17500357Y-10188514D01*
X17543214Y-10202800D01*
X17571786Y-10231372D01*
X17586071Y-10259943D01*
X17600357Y-10317086D01*
X17600357Y-10359943D01*
X17586071Y-10417086D01*
X17571786Y-10445657D01*
X17543214Y-10474229D01*
X17500357Y-10488514D01*
X17428928Y-10488514D01*
X17728928Y-10488514D02*
X17728928Y-10288514D01*
X17728928Y-10345657D02*
X17743214Y-10317086D01*
X17757500Y-10302800D01*
X17786071Y-10288514D01*
X17814643Y-10288514D01*
X17914643Y-10488514D02*
X17914643Y-10288514D01*
X17914643Y-10188514D02*
X17900357Y-10202800D01*
X17914643Y-10217086D01*
X17928928Y-10202800D01*
X17914643Y-10188514D01*
X17914643Y-10217086D01*
X18100357Y-10488514D02*
X18071786Y-10474229D01*
X18057500Y-10445657D01*
X18057500Y-10188514D01*
X18257500Y-10488514D02*
X18228928Y-10474229D01*
X18214643Y-10445657D01*
X18214643Y-10188514D01*
X18600357Y-10488514D02*
X18600357Y-10188514D01*
X18700357Y-10402800D01*
X18800357Y-10188514D01*
X18800357Y-10488514D01*
X19071786Y-10488514D02*
X19071786Y-10331372D01*
X19057500Y-10302800D01*
X19028928Y-10288514D01*
X18971786Y-10288514D01*
X18943214Y-10302800D01*
X19071786Y-10474229D02*
X19043214Y-10488514D01*
X18971786Y-10488514D01*
X18943214Y-10474229D01*
X18928928Y-10445657D01*
X18928928Y-10417086D01*
X18943214Y-10388514D01*
X18971786Y-10374229D01*
X19043214Y-10374229D01*
X19071786Y-10359943D01*
X19214643Y-10288514D02*
X19214643Y-10588514D01*
X19214643Y-10302800D02*
X19243214Y-10288514D01*
X19300357Y-10288514D01*
X19328928Y-10302800D01*
X19343214Y-10317086D01*
X19357500Y-10345657D01*
X19357500Y-10431372D01*
X19343214Y-10459943D01*
X19328928Y-10474229D01*
X19300357Y-10488514D01*
X19243214Y-10488514D01*
X19214643Y-10474229D01*
X19486071Y-10459943D02*
X19500357Y-10474229D01*
X19486071Y-10488514D01*
X19471786Y-10474229D01*
X19486071Y-10459943D01*
X19486071Y-10488514D01*
X19486071Y-10302800D02*
X19500357Y-10317086D01*
X19486071Y-10331372D01*
X19471786Y-10317086D01*
X19486071Y-10302800D01*
X19486071Y-10331372D01*
X17062500Y-10942800D02*
X17142500Y-11022800D01*
X17142500Y-10942800D02*
X17062500Y-11022800D01*
X17486071Y-10818514D02*
X17514643Y-10818514D01*
X17543214Y-10832800D01*
X17557500Y-10847086D01*
X17571786Y-10875657D01*
X17586071Y-10932800D01*
X17586071Y-11004229D01*
X17571786Y-11061372D01*
X17557500Y-11089943D01*
X17543214Y-11104229D01*
X17514643Y-11118514D01*
X17486071Y-11118514D01*
X17457500Y-11104229D01*
X17443214Y-11089943D01*
X17428928Y-11061372D01*
X17414643Y-11004229D01*
X17414643Y-10932800D01*
X17428928Y-10875657D01*
X17443214Y-10847086D01*
X17457500Y-10832800D01*
X17486071Y-10818514D01*
X17714643Y-11089943D02*
X17728928Y-11104229D01*
X17714643Y-11118514D01*
X17700357Y-11104229D01*
X17714643Y-11089943D01*
X17714643Y-11118514D01*
X17900357Y-10947086D02*
X17871786Y-10932800D01*
X17857500Y-10918514D01*
X17843214Y-10889943D01*
X17843214Y-10875657D01*
X17857500Y-10847086D01*
X17871786Y-10832800D01*
X17900357Y-10818514D01*
X17957500Y-10818514D01*
X17986071Y-10832800D01*
X18000357Y-10847086D01*
X18014643Y-10875657D01*
X18014643Y-10889943D01*
X18000357Y-10918514D01*
X17986071Y-10932800D01*
X17957500Y-10947086D01*
X17900357Y-10947086D01*
X17871786Y-10961372D01*
X17857500Y-10975657D01*
X17843214Y-11004229D01*
X17843214Y-11061372D01*
X17857500Y-11089943D01*
X17871786Y-11104229D01*
X17900357Y-11118514D01*
X17957500Y-11118514D01*
X17986071Y-11104229D01*
X18000357Y-11089943D01*
X18014643Y-11061372D01*
X18014643Y-11004229D01*
X18000357Y-10975657D01*
X17986071Y-10961372D01*
X17957500Y-10947086D01*
X18200357Y-10818514D02*
X18228928Y-10818514D01*
X18257500Y-10832800D01*
X18271786Y-10847086D01*
X18286071Y-10875657D01*
X18300357Y-10932800D01*
X18300357Y-11004229D01*
X18286071Y-11061372D01*
X18271786Y-11089943D01*
X18257500Y-11104229D01*
X18228928Y-11118514D01*
X18200357Y-11118514D01*
X18171786Y-11104229D01*
X18157500Y-11089943D01*
X18143214Y-11061372D01*
X18128928Y-11004229D01*
X18128928Y-10932800D01*
X18143214Y-10875657D01*
X18157500Y-10847086D01*
X18171786Y-10832800D01*
X18200357Y-10818514D01*
X18486071Y-10818514D02*
X18514643Y-10818514D01*
X18543214Y-10832800D01*
X18557500Y-10847086D01*
X18571786Y-10875657D01*
X18586071Y-10932800D01*
X18586071Y-11004229D01*
X18571786Y-11061372D01*
X18557500Y-11089943D01*
X18543214Y-11104229D01*
X18514643Y-11118514D01*
X18486071Y-11118514D01*
X18457500Y-11104229D01*
X18443214Y-11089943D01*
X18428928Y-11061372D01*
X18414643Y-11004229D01*
X18414643Y-10932800D01*
X18428928Y-10875657D01*
X18443214Y-10847086D01*
X18457500Y-10832800D01*
X18486071Y-10818514D01*
X18714643Y-11118514D02*
X18714643Y-10918514D01*
X18714643Y-10947086D02*
X18728928Y-10932800D01*
X18757500Y-10918514D01*
X18800357Y-10918514D01*
X18828928Y-10932800D01*
X18843214Y-10961372D01*
X18843214Y-11118514D01*
X18843214Y-10961372D02*
X18857500Y-10932800D01*
X18886071Y-10918514D01*
X18928928Y-10918514D01*
X18957500Y-10932800D01*
X18971786Y-10961372D01*
X18971786Y-11118514D01*
X19114643Y-11118514D02*
X19114643Y-10918514D01*
X19114643Y-10947086D02*
X19128928Y-10932800D01*
X19157500Y-10918514D01*
X19200357Y-10918514D01*
X19228928Y-10932800D01*
X19243214Y-10961372D01*
X19243214Y-11118514D01*
X19243214Y-10961372D02*
X19257500Y-10932800D01*
X19286071Y-10918514D01*
X19328928Y-10918514D01*
X19357500Y-10932800D01*
X19371786Y-10961372D01*
X19371786Y-11118514D01*
X19957500Y-10804229D02*
X19700357Y-11189943D01*
X20343214Y-10818514D02*
X20371786Y-10818514D01*
X20400357Y-10832800D01*
X20414643Y-10847086D01*
X20428928Y-10875657D01*
X20443214Y-10932800D01*
X20443214Y-11004229D01*
X20428928Y-11061372D01*
X20414643Y-11089943D01*
X20400357Y-11104229D01*
X20371786Y-11118514D01*
X20343214Y-11118514D01*
X20314643Y-11104229D01*
X20300357Y-11089943D01*
X20286071Y-11061372D01*
X20271786Y-11004229D01*
X20271786Y-10932800D01*
X20286071Y-10875657D01*
X20300357Y-10847086D01*
X20314643Y-10832800D01*
X20343214Y-10818514D01*
X20571786Y-11089943D02*
X20586071Y-11104229D01*
X20571786Y-11118514D01*
X20557500Y-11104229D01*
X20571786Y-11089943D01*
X20571786Y-11118514D01*
X20771786Y-10818514D02*
X20800357Y-10818514D01*
X20828928Y-10832800D01*
X20843214Y-10847086D01*
X20857500Y-10875657D01*
X20871786Y-10932800D01*
X20871786Y-11004229D01*
X20857500Y-11061372D01*
X20843214Y-11089943D01*
X20828928Y-11104229D01*
X20800357Y-11118514D01*
X20771786Y-11118514D01*
X20743214Y-11104229D01*
X20728928Y-11089943D01*
X20714643Y-11061372D01*
X20700357Y-11004229D01*
X20700357Y-10932800D01*
X20714643Y-10875657D01*
X20728928Y-10847086D01*
X20743214Y-10832800D01*
X20771786Y-10818514D01*
X20971786Y-10818514D02*
X21157500Y-10818514D01*
X21057500Y-10932800D01*
X21100357Y-10932800D01*
X21128928Y-10947086D01*
X21143214Y-10961372D01*
X21157500Y-10989943D01*
X21157500Y-11061372D01*
X21143214Y-11089943D01*
X21128928Y-11104229D01*
X21100357Y-11118514D01*
X21014643Y-11118514D01*
X20986071Y-11104229D01*
X20971786Y-11089943D01*
X21443214Y-11118514D02*
X21271786Y-11118514D01*
X21357500Y-11118514D02*
X21357500Y-10818514D01*
X21328928Y-10861372D01*
X21300357Y-10889943D01*
X21271786Y-10904229D01*
X21714643Y-10818514D02*
X21571786Y-10818514D01*
X21557500Y-10961372D01*
X21571786Y-10947086D01*
X21600357Y-10932800D01*
X21671786Y-10932800D01*
X21700357Y-10947086D01*
X21714643Y-10961372D01*
X21728928Y-10989943D01*
X21728928Y-11061372D01*
X21714643Y-11089943D01*
X21700357Y-11104229D01*
X21671786Y-11118514D01*
X21600357Y-11118514D01*
X21571786Y-11104229D01*
X21557500Y-11089943D01*
X21843214Y-10818514D02*
X21843214Y-10875657D01*
X21957500Y-10818514D02*
X21957500Y-10875657D01*
X22400357Y-11232800D02*
X22386071Y-11218514D01*
X22357500Y-11175657D01*
X22343214Y-11147086D01*
X22328928Y-11104229D01*
X22314643Y-11032800D01*
X22314643Y-10975657D01*
X22328928Y-10904229D01*
X22343214Y-10861372D01*
X22357500Y-10832800D01*
X22386071Y-10789943D01*
X22400357Y-10775657D01*
X22500357Y-10847086D02*
X22514643Y-10832800D01*
X22543214Y-10818514D01*
X22614643Y-10818514D01*
X22643214Y-10832800D01*
X22657500Y-10847086D01*
X22671786Y-10875657D01*
X22671786Y-10904229D01*
X22657500Y-10947086D01*
X22486071Y-11118514D01*
X22671786Y-11118514D01*
X23028928Y-11118514D02*
X23028928Y-10818514D01*
X23157500Y-11118514D02*
X23157500Y-10961372D01*
X23143214Y-10932800D01*
X23114643Y-10918514D01*
X23071786Y-10918514D01*
X23043214Y-10932800D01*
X23028928Y-10947086D01*
X23343214Y-11118514D02*
X23314643Y-11104229D01*
X23300357Y-11089943D01*
X23286071Y-11061372D01*
X23286071Y-10975657D01*
X23300357Y-10947086D01*
X23314643Y-10932800D01*
X23343214Y-10918514D01*
X23386071Y-10918514D01*
X23414643Y-10932800D01*
X23428928Y-10947086D01*
X23443214Y-10975657D01*
X23443214Y-11061372D01*
X23428928Y-11089943D01*
X23414643Y-11104229D01*
X23386071Y-11118514D01*
X23343214Y-11118514D01*
X23614643Y-11118514D02*
X23586071Y-11104229D01*
X23571786Y-11075657D01*
X23571786Y-10818514D01*
X23843214Y-11104229D02*
X23814643Y-11118514D01*
X23757500Y-11118514D01*
X23728928Y-11104229D01*
X23714643Y-11075657D01*
X23714643Y-10961372D01*
X23728928Y-10932800D01*
X23757500Y-10918514D01*
X23814643Y-10918514D01*
X23843214Y-10932800D01*
X23857500Y-10961372D01*
X23857500Y-10989943D01*
X23714643Y-11018514D01*
X23971786Y-11104229D02*
X24000357Y-11118514D01*
X24057500Y-11118514D01*
X24086071Y-11104229D01*
X24100357Y-11075657D01*
X24100357Y-11061372D01*
X24086071Y-11032800D01*
X24057500Y-11018514D01*
X24014643Y-11018514D01*
X23986071Y-11004229D01*
X23971786Y-10975657D01*
X23971786Y-10961372D01*
X23986071Y-10932800D01*
X24014643Y-10918514D01*
X24057500Y-10918514D01*
X24086071Y-10932800D01*
X24200357Y-11232800D02*
X24214643Y-11218514D01*
X24243214Y-11175657D01*
X24257500Y-11147086D01*
X24271786Y-11104229D01*
X24286071Y-11032800D01*
X24286071Y-10975657D01*
X24271786Y-10904229D01*
X24257500Y-10861372D01*
X24243214Y-10832800D01*
X24214643Y-10789943D01*
X24200357Y-10775657D01*
X24743214Y-11232800D02*
X24728928Y-11218514D01*
X24700357Y-11175657D01*
X24686071Y-11147086D01*
X24671786Y-11104229D01*
X24657500Y-11032800D01*
X24657500Y-10975657D01*
X24671786Y-10904229D01*
X24686071Y-10861372D01*
X24700357Y-10832800D01*
X24728928Y-10789943D01*
X24743214Y-10775657D01*
X24857500Y-10918514D02*
X24857500Y-11118514D01*
X24857500Y-10947086D02*
X24871786Y-10932800D01*
X24900357Y-10918514D01*
X24943214Y-10918514D01*
X24971786Y-10932800D01*
X24986071Y-10961372D01*
X24986071Y-11118514D01*
X25171786Y-11118514D02*
X25143214Y-11104229D01*
X25128928Y-11089943D01*
X25114643Y-11061372D01*
X25114643Y-10975657D01*
X25128928Y-10947086D01*
X25143214Y-10932800D01*
X25171786Y-10918514D01*
X25214643Y-10918514D01*
X25243214Y-10932800D01*
X25257500Y-10947086D01*
X25271786Y-10975657D01*
X25271786Y-11061372D01*
X25257500Y-11089943D01*
X25243214Y-11104229D01*
X25214643Y-11118514D01*
X25171786Y-11118514D01*
X25357500Y-10918514D02*
X25471786Y-10918514D01*
X25400357Y-10818514D02*
X25400357Y-11075657D01*
X25414643Y-11104229D01*
X25443214Y-11118514D01*
X25471786Y-11118514D01*
X25800357Y-10918514D02*
X25800357Y-11218514D01*
X25800357Y-10932800D02*
X25828928Y-10918514D01*
X25886071Y-10918514D01*
X25914643Y-10932800D01*
X25928928Y-10947086D01*
X25943214Y-10975657D01*
X25943214Y-11061372D01*
X25928928Y-11089943D01*
X25914643Y-11104229D01*
X25886071Y-11118514D01*
X25828928Y-11118514D01*
X25800357Y-11104229D01*
X26114643Y-11118514D02*
X26086071Y-11104229D01*
X26071786Y-11075657D01*
X26071786Y-10818514D01*
X26357500Y-11118514D02*
X26357500Y-10961372D01*
X26343214Y-10932800D01*
X26314643Y-10918514D01*
X26257500Y-10918514D01*
X26228928Y-10932800D01*
X26357500Y-11104229D02*
X26328928Y-11118514D01*
X26257500Y-11118514D01*
X26228928Y-11104229D01*
X26214643Y-11075657D01*
X26214643Y-11047086D01*
X26228928Y-11018514D01*
X26257500Y-11004229D01*
X26328928Y-11004229D01*
X26357500Y-10989943D01*
X26457500Y-10918514D02*
X26571786Y-10918514D01*
X26500357Y-10818514D02*
X26500357Y-11075657D01*
X26514643Y-11104229D01*
X26543214Y-11118514D01*
X26571786Y-11118514D01*
X26786071Y-11104229D02*
X26757500Y-11118514D01*
X26700357Y-11118514D01*
X26671786Y-11104229D01*
X26657500Y-11075657D01*
X26657500Y-10961372D01*
X26671786Y-10932800D01*
X26700357Y-10918514D01*
X26757500Y-10918514D01*
X26786071Y-10932800D01*
X26800357Y-10961372D01*
X26800357Y-10989943D01*
X26657500Y-11018514D01*
X27057500Y-11118514D02*
X27057500Y-10818514D01*
X27057500Y-11104229D02*
X27028928Y-11118514D01*
X26971786Y-11118514D01*
X26943214Y-11104229D01*
X26928928Y-11089943D01*
X26914643Y-11061372D01*
X26914643Y-10975657D01*
X26928928Y-10947086D01*
X26943214Y-10932800D01*
X26971786Y-10918514D01*
X27028928Y-10918514D01*
X27057500Y-10932800D01*
X27171786Y-11232800D02*
X27186071Y-11218514D01*
X27214643Y-11175657D01*
X27228928Y-11147086D01*
X27243214Y-11104229D01*
X27257500Y-11032800D01*
X27257500Y-10975657D01*
X27243214Y-10904229D01*
X27228928Y-10861372D01*
X27214643Y-10832800D01*
X27186071Y-10789943D01*
X27171786Y-10775657D01*
X17142500Y-11378800D02*
G75*
G03*
X17142500Y-11378800I-85000J0D01*
G01*
X17586071Y-11514514D02*
X17414643Y-11514514D01*
X17500357Y-11514514D02*
X17500357Y-11214514D01*
X17471786Y-11257371D01*
X17443214Y-11285943D01*
X17414643Y-11300229D01*
X17714643Y-11485943D02*
X17728928Y-11500229D01*
X17714643Y-11514514D01*
X17700357Y-11500229D01*
X17714643Y-11485943D01*
X17714643Y-11514514D01*
X17828928Y-11214514D02*
X18028928Y-11214514D01*
X17900357Y-11514514D01*
X18200357Y-11214514D02*
X18228928Y-11214514D01*
X18257500Y-11228800D01*
X18271786Y-11243086D01*
X18286071Y-11271657D01*
X18300357Y-11328800D01*
X18300357Y-11400229D01*
X18286071Y-11457371D01*
X18271786Y-11485943D01*
X18257500Y-11500229D01*
X18228928Y-11514514D01*
X18200357Y-11514514D01*
X18171786Y-11500229D01*
X18157500Y-11485943D01*
X18143214Y-11457371D01*
X18128928Y-11400229D01*
X18128928Y-11328800D01*
X18143214Y-11271657D01*
X18157500Y-11243086D01*
X18171786Y-11228800D01*
X18200357Y-11214514D01*
X18486071Y-11214514D02*
X18514643Y-11214514D01*
X18543214Y-11228800D01*
X18557500Y-11243086D01*
X18571786Y-11271657D01*
X18586071Y-11328800D01*
X18586071Y-11400229D01*
X18571786Y-11457371D01*
X18557500Y-11485943D01*
X18543214Y-11500229D01*
X18514643Y-11514514D01*
X18486071Y-11514514D01*
X18457500Y-11500229D01*
X18443214Y-11485943D01*
X18428928Y-11457371D01*
X18414643Y-11400229D01*
X18414643Y-11328800D01*
X18428928Y-11271657D01*
X18443214Y-11243086D01*
X18457500Y-11228800D01*
X18486071Y-11214514D01*
X18714643Y-11514514D02*
X18714643Y-11314514D01*
X18714643Y-11343086D02*
X18728928Y-11328800D01*
X18757500Y-11314514D01*
X18800357Y-11314514D01*
X18828928Y-11328800D01*
X18843214Y-11357371D01*
X18843214Y-11514514D01*
X18843214Y-11357371D02*
X18857500Y-11328800D01*
X18886071Y-11314514D01*
X18928928Y-11314514D01*
X18957500Y-11328800D01*
X18971786Y-11357371D01*
X18971786Y-11514514D01*
X19114643Y-11514514D02*
X19114643Y-11314514D01*
X19114643Y-11343086D02*
X19128928Y-11328800D01*
X19157500Y-11314514D01*
X19200357Y-11314514D01*
X19228928Y-11328800D01*
X19243214Y-11357371D01*
X19243214Y-11514514D01*
X19243214Y-11357371D02*
X19257500Y-11328800D01*
X19286071Y-11314514D01*
X19328928Y-11314514D01*
X19357500Y-11328800D01*
X19371786Y-11357371D01*
X19371786Y-11514514D01*
X19957500Y-11200229D02*
X19700357Y-11585943D01*
X20343214Y-11214514D02*
X20371786Y-11214514D01*
X20400357Y-11228800D01*
X20414643Y-11243086D01*
X20428928Y-11271657D01*
X20443214Y-11328800D01*
X20443214Y-11400229D01*
X20428928Y-11457371D01*
X20414643Y-11485943D01*
X20400357Y-11500229D01*
X20371786Y-11514514D01*
X20343214Y-11514514D01*
X20314643Y-11500229D01*
X20300357Y-11485943D01*
X20286071Y-11457371D01*
X20271786Y-11400229D01*
X20271786Y-11328800D01*
X20286071Y-11271657D01*
X20300357Y-11243086D01*
X20314643Y-11228800D01*
X20343214Y-11214514D01*
X20571786Y-11485943D02*
X20586071Y-11500229D01*
X20571786Y-11514514D01*
X20557500Y-11500229D01*
X20571786Y-11485943D01*
X20571786Y-11514514D01*
X20771786Y-11214514D02*
X20800357Y-11214514D01*
X20828928Y-11228800D01*
X20843214Y-11243086D01*
X20857500Y-11271657D01*
X20871786Y-11328800D01*
X20871786Y-11400229D01*
X20857500Y-11457371D01*
X20843214Y-11485943D01*
X20828928Y-11500229D01*
X20800357Y-11514514D01*
X20771786Y-11514514D01*
X20743214Y-11500229D01*
X20728928Y-11485943D01*
X20714643Y-11457371D01*
X20700357Y-11400229D01*
X20700357Y-11328800D01*
X20714643Y-11271657D01*
X20728928Y-11243086D01*
X20743214Y-11228800D01*
X20771786Y-11214514D01*
X21128928Y-11214514D02*
X21071786Y-11214514D01*
X21043214Y-11228800D01*
X21028928Y-11243086D01*
X21000357Y-11285943D01*
X20986071Y-11343086D01*
X20986071Y-11457371D01*
X21000357Y-11485943D01*
X21014643Y-11500229D01*
X21043214Y-11514514D01*
X21100357Y-11514514D01*
X21128928Y-11500229D01*
X21143214Y-11485943D01*
X21157500Y-11457371D01*
X21157500Y-11385943D01*
X21143214Y-11357371D01*
X21128928Y-11343086D01*
X21100357Y-11328800D01*
X21043214Y-11328800D01*
X21014643Y-11343086D01*
X21000357Y-11357371D01*
X20986071Y-11385943D01*
X21414643Y-11214514D02*
X21357500Y-11214514D01*
X21328928Y-11228800D01*
X21314643Y-11243086D01*
X21286071Y-11285943D01*
X21271786Y-11343086D01*
X21271786Y-11457371D01*
X21286071Y-11485943D01*
X21300357Y-11500229D01*
X21328928Y-11514514D01*
X21386071Y-11514514D01*
X21414643Y-11500229D01*
X21428928Y-11485943D01*
X21443214Y-11457371D01*
X21443214Y-11385943D01*
X21428928Y-11357371D01*
X21414643Y-11343086D01*
X21386071Y-11328800D01*
X21328928Y-11328800D01*
X21300357Y-11343086D01*
X21286071Y-11357371D01*
X21271786Y-11385943D01*
X21586071Y-11514514D02*
X21643214Y-11514514D01*
X21671786Y-11500229D01*
X21686071Y-11485943D01*
X21714643Y-11443086D01*
X21728928Y-11385943D01*
X21728928Y-11271657D01*
X21714643Y-11243086D01*
X21700357Y-11228800D01*
X21671786Y-11214514D01*
X21614643Y-11214514D01*
X21586071Y-11228800D01*
X21571786Y-11243086D01*
X21557500Y-11271657D01*
X21557500Y-11343086D01*
X21571786Y-11371657D01*
X21586071Y-11385943D01*
X21614643Y-11400229D01*
X21671786Y-11400229D01*
X21700357Y-11385943D01*
X21714643Y-11371657D01*
X21728928Y-11343086D01*
X21843214Y-11214514D02*
X21843214Y-11271657D01*
X21957500Y-11214514D02*
X21957500Y-11271657D01*
X22400357Y-11628800D02*
X22386071Y-11614514D01*
X22357500Y-11571657D01*
X22343214Y-11543086D01*
X22328928Y-11500229D01*
X22314643Y-11428800D01*
X22314643Y-11371657D01*
X22328928Y-11300229D01*
X22343214Y-11257371D01*
X22357500Y-11228800D01*
X22386071Y-11185943D01*
X22400357Y-11171657D01*
X22643214Y-11314514D02*
X22643214Y-11514514D01*
X22571786Y-11200229D02*
X22500357Y-11414514D01*
X22686071Y-11414514D01*
X23028928Y-11514514D02*
X23028928Y-11214514D01*
X23157500Y-11514514D02*
X23157500Y-11357371D01*
X23143214Y-11328800D01*
X23114643Y-11314514D01*
X23071786Y-11314514D01*
X23043214Y-11328800D01*
X23028928Y-11343086D01*
X23343214Y-11514514D02*
X23314643Y-11500229D01*
X23300357Y-11485943D01*
X23286071Y-11457371D01*
X23286071Y-11371657D01*
X23300357Y-11343086D01*
X23314643Y-11328800D01*
X23343214Y-11314514D01*
X23386071Y-11314514D01*
X23414643Y-11328800D01*
X23428928Y-11343086D01*
X23443214Y-11371657D01*
X23443214Y-11457371D01*
X23428928Y-11485943D01*
X23414643Y-11500229D01*
X23386071Y-11514514D01*
X23343214Y-11514514D01*
X23614643Y-11514514D02*
X23586071Y-11500229D01*
X23571786Y-11471657D01*
X23571786Y-11214514D01*
X23843214Y-11500229D02*
X23814643Y-11514514D01*
X23757500Y-11514514D01*
X23728928Y-11500229D01*
X23714643Y-11471657D01*
X23714643Y-11357371D01*
X23728928Y-11328800D01*
X23757500Y-11314514D01*
X23814643Y-11314514D01*
X23843214Y-11328800D01*
X23857500Y-11357371D01*
X23857500Y-11385943D01*
X23714643Y-11414514D01*
X23971786Y-11500229D02*
X24000357Y-11514514D01*
X24057500Y-11514514D01*
X24086071Y-11500229D01*
X24100357Y-11471657D01*
X24100357Y-11457371D01*
X24086071Y-11428800D01*
X24057500Y-11414514D01*
X24014643Y-11414514D01*
X23986071Y-11400229D01*
X23971786Y-11371657D01*
X23971786Y-11357371D01*
X23986071Y-11328800D01*
X24014643Y-11314514D01*
X24057500Y-11314514D01*
X24086071Y-11328800D01*
X24200357Y-11628800D02*
X24214643Y-11614514D01*
X24243214Y-11571657D01*
X24257500Y-11543086D01*
X24271786Y-11500229D01*
X24286071Y-11428800D01*
X24286071Y-11371657D01*
X24271786Y-11300229D01*
X24257500Y-11257371D01*
X24243214Y-11228800D01*
X24214643Y-11185943D01*
X24200357Y-11171657D01*
X24743214Y-11628800D02*
X24728928Y-11614514D01*
X24700357Y-11571657D01*
X24686071Y-11543086D01*
X24671786Y-11500229D01*
X24657500Y-11428800D01*
X24657500Y-11371657D01*
X24671786Y-11300229D01*
X24686071Y-11257371D01*
X24700357Y-11228800D01*
X24728928Y-11185943D01*
X24743214Y-11171657D01*
X24857500Y-11314514D02*
X24857500Y-11514514D01*
X24857500Y-11343086D02*
X24871786Y-11328800D01*
X24900357Y-11314514D01*
X24943214Y-11314514D01*
X24971786Y-11328800D01*
X24986071Y-11357371D01*
X24986071Y-11514514D01*
X25171786Y-11514514D02*
X25143214Y-11500229D01*
X25128928Y-11485943D01*
X25114643Y-11457371D01*
X25114643Y-11371657D01*
X25128928Y-11343086D01*
X25143214Y-11328800D01*
X25171786Y-11314514D01*
X25214643Y-11314514D01*
X25243214Y-11328800D01*
X25257500Y-11343086D01*
X25271786Y-11371657D01*
X25271786Y-11457371D01*
X25257500Y-11485943D01*
X25243214Y-11500229D01*
X25214643Y-11514514D01*
X25171786Y-11514514D01*
X25357500Y-11314514D02*
X25471786Y-11314514D01*
X25400357Y-11214514D02*
X25400357Y-11471657D01*
X25414643Y-11500229D01*
X25443214Y-11514514D01*
X25471786Y-11514514D01*
X25800357Y-11314514D02*
X25800357Y-11614514D01*
X25800357Y-11328800D02*
X25828928Y-11314514D01*
X25886071Y-11314514D01*
X25914643Y-11328800D01*
X25928928Y-11343086D01*
X25943214Y-11371657D01*
X25943214Y-11457371D01*
X25928928Y-11485943D01*
X25914643Y-11500229D01*
X25886071Y-11514514D01*
X25828928Y-11514514D01*
X25800357Y-11500229D01*
X26114643Y-11514514D02*
X26086071Y-11500229D01*
X26071786Y-11471657D01*
X26071786Y-11214514D01*
X26357500Y-11514514D02*
X26357500Y-11357371D01*
X26343214Y-11328800D01*
X26314643Y-11314514D01*
X26257500Y-11314514D01*
X26228928Y-11328800D01*
X26357500Y-11500229D02*
X26328928Y-11514514D01*
X26257500Y-11514514D01*
X26228928Y-11500229D01*
X26214643Y-11471657D01*
X26214643Y-11443086D01*
X26228928Y-11414514D01*
X26257500Y-11400229D01*
X26328928Y-11400229D01*
X26357500Y-11385943D01*
X26457500Y-11314514D02*
X26571786Y-11314514D01*
X26500357Y-11214514D02*
X26500357Y-11471657D01*
X26514643Y-11500229D01*
X26543214Y-11514514D01*
X26571786Y-11514514D01*
X26786071Y-11500229D02*
X26757500Y-11514514D01*
X26700357Y-11514514D01*
X26671786Y-11500229D01*
X26657500Y-11471657D01*
X26657500Y-11357371D01*
X26671786Y-11328800D01*
X26700357Y-11314514D01*
X26757500Y-11314514D01*
X26786071Y-11328800D01*
X26800357Y-11357371D01*
X26800357Y-11385943D01*
X26657500Y-11414514D01*
X27057500Y-11514514D02*
X27057500Y-11214514D01*
X27057500Y-11500229D02*
X27028928Y-11514514D01*
X26971786Y-11514514D01*
X26943214Y-11500229D01*
X26928928Y-11485943D01*
X26914643Y-11457371D01*
X26914643Y-11371657D01*
X26928928Y-11343086D01*
X26943214Y-11328800D01*
X26971786Y-11314514D01*
X27028928Y-11314514D01*
X27057500Y-11328800D01*
X27171786Y-11628800D02*
X27186071Y-11614514D01*
X27214643Y-11571657D01*
X27228928Y-11543086D01*
X27243214Y-11500229D01*
X27257500Y-11428800D01*
X27257500Y-11371657D01*
X27243214Y-11300229D01*
X27228928Y-11257371D01*
X27214643Y-11228800D01*
X27186071Y-11185943D01*
X27171786Y-11171657D01*
X16942500Y-11574800D02*
X16942500Y-11974800D01*
X16742500Y-11774800D02*
X17142500Y-11774800D01*
X17557500Y-11710514D02*
X17557500Y-11910514D01*
X17486071Y-11596229D02*
X17414643Y-11810514D01*
X17600357Y-11810514D01*
X17714643Y-11881943D02*
X17728928Y-11896229D01*
X17714643Y-11910514D01*
X17700357Y-11896229D01*
X17714643Y-11881943D01*
X17714643Y-11910514D01*
X17914643Y-11610514D02*
X17943214Y-11610514D01*
X17971786Y-11624800D01*
X17986071Y-11639086D01*
X18000357Y-11667657D01*
X18014643Y-11724800D01*
X18014643Y-11796229D01*
X18000357Y-11853371D01*
X17986071Y-11881943D01*
X17971786Y-11896229D01*
X17943214Y-11910514D01*
X17914643Y-11910514D01*
X17886071Y-11896229D01*
X17871786Y-11881943D01*
X17857500Y-11853371D01*
X17843214Y-11796229D01*
X17843214Y-11724800D01*
X17857500Y-11667657D01*
X17871786Y-11639086D01*
X17886071Y-11624800D01*
X17914643Y-11610514D01*
X18200357Y-11610514D02*
X18228928Y-11610514D01*
X18257500Y-11624800D01*
X18271786Y-11639086D01*
X18286071Y-11667657D01*
X18300357Y-11724800D01*
X18300357Y-11796229D01*
X18286071Y-11853371D01*
X18271786Y-11881943D01*
X18257500Y-11896229D01*
X18228928Y-11910514D01*
X18200357Y-11910514D01*
X18171786Y-11896229D01*
X18157500Y-11881943D01*
X18143214Y-11853371D01*
X18128928Y-11796229D01*
X18128928Y-11724800D01*
X18143214Y-11667657D01*
X18157500Y-11639086D01*
X18171786Y-11624800D01*
X18200357Y-11610514D01*
X18486071Y-11610514D02*
X18514643Y-11610514D01*
X18543214Y-11624800D01*
X18557500Y-11639086D01*
X18571786Y-11667657D01*
X18586071Y-11724800D01*
X18586071Y-11796229D01*
X18571786Y-11853371D01*
X18557500Y-11881943D01*
X18543214Y-11896229D01*
X18514643Y-11910514D01*
X18486071Y-11910514D01*
X18457500Y-11896229D01*
X18443214Y-11881943D01*
X18428928Y-11853371D01*
X18414643Y-11796229D01*
X18414643Y-11724800D01*
X18428928Y-11667657D01*
X18443214Y-11639086D01*
X18457500Y-11624800D01*
X18486071Y-11610514D01*
X18714643Y-11910514D02*
X18714643Y-11710514D01*
X18714643Y-11739086D02*
X18728928Y-11724800D01*
X18757500Y-11710514D01*
X18800357Y-11710514D01*
X18828928Y-11724800D01*
X18843214Y-11753371D01*
X18843214Y-11910514D01*
X18843214Y-11753371D02*
X18857500Y-11724800D01*
X18886071Y-11710514D01*
X18928928Y-11710514D01*
X18957500Y-11724800D01*
X18971786Y-11753371D01*
X18971786Y-11910514D01*
X19114643Y-11910514D02*
X19114643Y-11710514D01*
X19114643Y-11739086D02*
X19128928Y-11724800D01*
X19157500Y-11710514D01*
X19200357Y-11710514D01*
X19228928Y-11724800D01*
X19243214Y-11753371D01*
X19243214Y-11910514D01*
X19243214Y-11753371D02*
X19257500Y-11724800D01*
X19286071Y-11710514D01*
X19328928Y-11710514D01*
X19357500Y-11724800D01*
X19371786Y-11753371D01*
X19371786Y-11910514D01*
X19957500Y-11596229D02*
X19700357Y-11981943D01*
X20343214Y-11610514D02*
X20371786Y-11610514D01*
X20400357Y-11624800D01*
X20414643Y-11639086D01*
X20428928Y-11667657D01*
X20443214Y-11724800D01*
X20443214Y-11796229D01*
X20428928Y-11853371D01*
X20414643Y-11881943D01*
X20400357Y-11896229D01*
X20371786Y-11910514D01*
X20343214Y-11910514D01*
X20314643Y-11896229D01*
X20300357Y-11881943D01*
X20286071Y-11853371D01*
X20271786Y-11796229D01*
X20271786Y-11724800D01*
X20286071Y-11667657D01*
X20300357Y-11639086D01*
X20314643Y-11624800D01*
X20343214Y-11610514D01*
X20571786Y-11881943D02*
X20586071Y-11896229D01*
X20571786Y-11910514D01*
X20557500Y-11896229D01*
X20571786Y-11881943D01*
X20571786Y-11910514D01*
X20871786Y-11910514D02*
X20700357Y-11910514D01*
X20786071Y-11910514D02*
X20786071Y-11610514D01*
X20757500Y-11653371D01*
X20728928Y-11681943D01*
X20700357Y-11696229D01*
X21143214Y-11610514D02*
X21000357Y-11610514D01*
X20986071Y-11753371D01*
X21000357Y-11739086D01*
X21028928Y-11724800D01*
X21100357Y-11724800D01*
X21128928Y-11739086D01*
X21143214Y-11753371D01*
X21157500Y-11781943D01*
X21157500Y-11853371D01*
X21143214Y-11881943D01*
X21128928Y-11896229D01*
X21100357Y-11910514D01*
X21028928Y-11910514D01*
X21000357Y-11896229D01*
X20986071Y-11881943D01*
X21257500Y-11610514D02*
X21457500Y-11610514D01*
X21328928Y-11910514D01*
X21714643Y-11610514D02*
X21571786Y-11610514D01*
X21557500Y-11753371D01*
X21571786Y-11739086D01*
X21600357Y-11724800D01*
X21671786Y-11724800D01*
X21700357Y-11739086D01*
X21714643Y-11753371D01*
X21728928Y-11781943D01*
X21728928Y-11853371D01*
X21714643Y-11881943D01*
X21700357Y-11896229D01*
X21671786Y-11910514D01*
X21600357Y-11910514D01*
X21571786Y-11896229D01*
X21557500Y-11881943D01*
X21843214Y-11610514D02*
X21843214Y-11667657D01*
X21957500Y-11610514D02*
X21957500Y-11667657D01*
X22400357Y-12024800D02*
X22386071Y-12010514D01*
X22357500Y-11967657D01*
X22343214Y-11939086D01*
X22328928Y-11896229D01*
X22314643Y-11824800D01*
X22314643Y-11767657D01*
X22328928Y-11696229D01*
X22343214Y-11653371D01*
X22357500Y-11624800D01*
X22386071Y-11581943D01*
X22400357Y-11567657D01*
X22500357Y-11639086D02*
X22514643Y-11624800D01*
X22543214Y-11610514D01*
X22614643Y-11610514D01*
X22643214Y-11624800D01*
X22657500Y-11639086D01*
X22671786Y-11667657D01*
X22671786Y-11696229D01*
X22657500Y-11739086D01*
X22486071Y-11910514D01*
X22671786Y-11910514D01*
X23028928Y-11910514D02*
X23028928Y-11610514D01*
X23157500Y-11910514D02*
X23157500Y-11753371D01*
X23143214Y-11724800D01*
X23114643Y-11710514D01*
X23071786Y-11710514D01*
X23043214Y-11724800D01*
X23028928Y-11739086D01*
X23343214Y-11910514D02*
X23314643Y-11896229D01*
X23300357Y-11881943D01*
X23286071Y-11853371D01*
X23286071Y-11767657D01*
X23300357Y-11739086D01*
X23314643Y-11724800D01*
X23343214Y-11710514D01*
X23386071Y-11710514D01*
X23414643Y-11724800D01*
X23428928Y-11739086D01*
X23443214Y-11767657D01*
X23443214Y-11853371D01*
X23428928Y-11881943D01*
X23414643Y-11896229D01*
X23386071Y-11910514D01*
X23343214Y-11910514D01*
X23614643Y-11910514D02*
X23586071Y-11896229D01*
X23571786Y-11867657D01*
X23571786Y-11610514D01*
X23843214Y-11896229D02*
X23814643Y-11910514D01*
X23757500Y-11910514D01*
X23728928Y-11896229D01*
X23714643Y-11867657D01*
X23714643Y-11753371D01*
X23728928Y-11724800D01*
X23757500Y-11710514D01*
X23814643Y-11710514D01*
X23843214Y-11724800D01*
X23857500Y-11753371D01*
X23857500Y-11781943D01*
X23714643Y-11810514D01*
X23971786Y-11896229D02*
X24000357Y-11910514D01*
X24057500Y-11910514D01*
X24086071Y-11896229D01*
X24100357Y-11867657D01*
X24100357Y-11853371D01*
X24086071Y-11824800D01*
X24057500Y-11810514D01*
X24014643Y-11810514D01*
X23986071Y-11796229D01*
X23971786Y-11767657D01*
X23971786Y-11753371D01*
X23986071Y-11724800D01*
X24014643Y-11710514D01*
X24057500Y-11710514D01*
X24086071Y-11724800D01*
X24200357Y-12024800D02*
X24214643Y-12010514D01*
X24243214Y-11967657D01*
X24257500Y-11939086D01*
X24271786Y-11896229D01*
X24286071Y-11824800D01*
X24286071Y-11767657D01*
X24271786Y-11696229D01*
X24257500Y-11653371D01*
X24243214Y-11624800D01*
X24214643Y-11581943D01*
X24200357Y-11567657D01*
X24743214Y-12024800D02*
X24728928Y-12010514D01*
X24700357Y-11967657D01*
X24686071Y-11939086D01*
X24671786Y-11896229D01*
X24657500Y-11824800D01*
X24657500Y-11767657D01*
X24671786Y-11696229D01*
X24686071Y-11653371D01*
X24700357Y-11624800D01*
X24728928Y-11581943D01*
X24743214Y-11567657D01*
X24857500Y-11710514D02*
X24857500Y-11910514D01*
X24857500Y-11739086D02*
X24871786Y-11724800D01*
X24900357Y-11710514D01*
X24943214Y-11710514D01*
X24971786Y-11724800D01*
X24986071Y-11753371D01*
X24986071Y-11910514D01*
X25171786Y-11910514D02*
X25143214Y-11896229D01*
X25128928Y-11881943D01*
X25114643Y-11853371D01*
X25114643Y-11767657D01*
X25128928Y-11739086D01*
X25143214Y-11724800D01*
X25171786Y-11710514D01*
X25214643Y-11710514D01*
X25243214Y-11724800D01*
X25257500Y-11739086D01*
X25271786Y-11767657D01*
X25271786Y-11853371D01*
X25257500Y-11881943D01*
X25243214Y-11896229D01*
X25214643Y-11910514D01*
X25171786Y-11910514D01*
X25357500Y-11710514D02*
X25471786Y-11710514D01*
X25400357Y-11610514D02*
X25400357Y-11867657D01*
X25414643Y-11896229D01*
X25443214Y-11910514D01*
X25471786Y-11910514D01*
X25800357Y-11710514D02*
X25800357Y-12010514D01*
X25800357Y-11724800D02*
X25828928Y-11710514D01*
X25886071Y-11710514D01*
X25914643Y-11724800D01*
X25928928Y-11739086D01*
X25943214Y-11767657D01*
X25943214Y-11853371D01*
X25928928Y-11881943D01*
X25914643Y-11896229D01*
X25886071Y-11910514D01*
X25828928Y-11910514D01*
X25800357Y-11896229D01*
X26114643Y-11910514D02*
X26086071Y-11896229D01*
X26071786Y-11867657D01*
X26071786Y-11610514D01*
X26357500Y-11910514D02*
X26357500Y-11753371D01*
X26343214Y-11724800D01*
X26314643Y-11710514D01*
X26257500Y-11710514D01*
X26228928Y-11724800D01*
X26357500Y-11896229D02*
X26328928Y-11910514D01*
X26257500Y-11910514D01*
X26228928Y-11896229D01*
X26214643Y-11867657D01*
X26214643Y-11839086D01*
X26228928Y-11810514D01*
X26257500Y-11796229D01*
X26328928Y-11796229D01*
X26357500Y-11781943D01*
X26457500Y-11710514D02*
X26571786Y-11710514D01*
X26500357Y-11610514D02*
X26500357Y-11867657D01*
X26514643Y-11896229D01*
X26543214Y-11910514D01*
X26571786Y-11910514D01*
X26786071Y-11896229D02*
X26757500Y-11910514D01*
X26700357Y-11910514D01*
X26671786Y-11896229D01*
X26657500Y-11867657D01*
X26657500Y-11753371D01*
X26671786Y-11724800D01*
X26700357Y-11710514D01*
X26757500Y-11710514D01*
X26786071Y-11724800D01*
X26800357Y-11753371D01*
X26800357Y-11781943D01*
X26657500Y-11810514D01*
X27057500Y-11910514D02*
X27057500Y-11610514D01*
X27057500Y-11896229D02*
X27028928Y-11910514D01*
X26971786Y-11910514D01*
X26943214Y-11896229D01*
X26928928Y-11881943D01*
X26914643Y-11853371D01*
X26914643Y-11767657D01*
X26928928Y-11739086D01*
X26943214Y-11724800D01*
X26971786Y-11710514D01*
X27028928Y-11710514D01*
X27057500Y-11724800D01*
X27171786Y-12024800D02*
X27186071Y-12010514D01*
X27214643Y-11967657D01*
X27228928Y-11939086D01*
X27243214Y-11896229D01*
X27257500Y-11824800D01*
X27257500Y-11767657D01*
X27243214Y-11696229D01*
X27228928Y-11653371D01*
X27214643Y-11624800D01*
X27186071Y-11581943D01*
X27171786Y-11567657D01*
M02*
