G04 #@! TF.GenerationSoftware,KiCad,Pcbnew,(5.1.10)-1*
G04 #@! TF.CreationDate,2021-08-28T06:12:41-04:00*
G04 #@! TF.ProjectId,milk,6d696c6b-2e6b-4696-9361-645f70636258,rev?*
G04 #@! TF.SameCoordinates,Original*
G04 #@! TF.FileFunction,Copper,L1,Top*
G04 #@! TF.FilePolarity,Positive*
%FSLAX46Y46*%
G04 Gerber Fmt 4.6, Leading zero omitted, Abs format (unit mm)*
G04 Created by KiCad (PCBNEW (5.1.10)-1) date 2021-08-28 06:12:41*
%MOMM*%
%LPD*%
G01*
G04 APERTURE LIST*
G04 #@! TA.AperFunction,ComponentPad*
%ADD10C,1.700000*%
G04 #@! TD*
G04 #@! TA.AperFunction,ComponentPad*
%ADD11C,2.200000*%
G04 #@! TD*
G04 #@! TA.AperFunction,SMDPad,CuDef*
%ADD12R,0.650000X1.700000*%
G04 #@! TD*
G04 #@! TA.AperFunction,SMDPad,CuDef*
%ADD13R,0.300000X1.300000*%
G04 #@! TD*
G04 #@! TA.AperFunction,SMDPad,CuDef*
%ADD14R,0.600000X1.300000*%
G04 #@! TD*
G04 #@! TA.AperFunction,ComponentPad*
%ADD15O,1.000000X2.000000*%
G04 #@! TD*
G04 #@! TA.AperFunction,SMDPad,CuDef*
%ADD16R,1.200000X0.900000*%
G04 #@! TD*
G04 #@! TA.AperFunction,ComponentPad*
%ADD17R,1.700000X1.700000*%
G04 #@! TD*
G04 #@! TA.AperFunction,ComponentPad*
%ADD18O,1.700000X1.700000*%
G04 #@! TD*
G04 #@! TA.AperFunction,ViaPad*
%ADD19C,0.800000*%
G04 #@! TD*
G04 #@! TA.AperFunction,Conductor*
%ADD20C,0.250000*%
G04 #@! TD*
G04 #@! TA.AperFunction,Conductor*
%ADD21C,0.254000*%
G04 #@! TD*
G04 #@! TA.AperFunction,Conductor*
%ADD22C,0.100000*%
G04 #@! TD*
G04 APERTURE END LIST*
D10*
X175854360Y-73741280D03*
X173314360Y-73741280D03*
D11*
X177215800Y-86995000D03*
X183565800Y-84455000D03*
X177215800Y-67945000D03*
X183565800Y-65405000D03*
D12*
X185521600Y-73845400D03*
X186791600Y-73845400D03*
X188061600Y-73845400D03*
X189331600Y-73845400D03*
X189331600Y-81145400D03*
X188061600Y-81145400D03*
X186791600Y-81145400D03*
X185521600Y-81145400D03*
G04 #@! TA.AperFunction,SMDPad,CuDef*
G36*
G01*
X186950300Y-87508501D02*
X186950300Y-86608499D01*
G75*
G02*
X187200299Y-86358500I249999J0D01*
G01*
X187900301Y-86358500D01*
G75*
G02*
X188150300Y-86608499I0J-249999D01*
G01*
X188150300Y-87508501D01*
G75*
G02*
X187900301Y-87758500I-249999J0D01*
G01*
X187200299Y-87758500D01*
G75*
G02*
X186950300Y-87508501I0J249999D01*
G01*
G37*
G04 #@! TD.AperFunction*
G04 #@! TA.AperFunction,SMDPad,CuDef*
G36*
G01*
X184950300Y-87508501D02*
X184950300Y-86608499D01*
G75*
G02*
X185200299Y-86358500I249999J0D01*
G01*
X185900301Y-86358500D01*
G75*
G02*
X186150300Y-86608499I0J-249999D01*
G01*
X186150300Y-87508501D01*
G75*
G02*
X185900301Y-87758500I-249999J0D01*
G01*
X185200299Y-87758500D01*
G75*
G02*
X184950300Y-87508501I0J249999D01*
G01*
G37*
G04 #@! TD.AperFunction*
G04 #@! TA.AperFunction,SMDPad,CuDef*
G36*
G01*
X188957799Y-84601000D02*
X189857801Y-84601000D01*
G75*
G02*
X190107800Y-84850999I0J-249999D01*
G01*
X190107800Y-85551001D01*
G75*
G02*
X189857801Y-85801000I-249999J0D01*
G01*
X188957799Y-85801000D01*
G75*
G02*
X188707800Y-85551001I0J249999D01*
G01*
X188707800Y-84850999D01*
G75*
G02*
X188957799Y-84601000I249999J0D01*
G01*
G37*
G04 #@! TD.AperFunction*
G04 #@! TA.AperFunction,SMDPad,CuDef*
G36*
G01*
X188957400Y-82601000D02*
X189858200Y-82601000D01*
G75*
G02*
X190107800Y-82850600I0J-249600D01*
G01*
X190107800Y-83551400D01*
G75*
G02*
X189858200Y-83801000I-249600J0D01*
G01*
X188957400Y-83801000D01*
G75*
G02*
X188707800Y-83551400I0J249600D01*
G01*
X188707800Y-82850600D01*
G75*
G02*
X188957400Y-82601000I249600J0D01*
G01*
G37*
G04 #@! TD.AperFunction*
G04 #@! TA.AperFunction,SMDPad,CuDef*
G36*
G01*
X187001999Y-84601000D02*
X187902001Y-84601000D01*
G75*
G02*
X188152000Y-84850999I0J-249999D01*
G01*
X188152000Y-85551001D01*
G75*
G02*
X187902001Y-85801000I-249999J0D01*
G01*
X187001999Y-85801000D01*
G75*
G02*
X186752000Y-85551001I0J249999D01*
G01*
X186752000Y-84850999D01*
G75*
G02*
X187001999Y-84601000I249999J0D01*
G01*
G37*
G04 #@! TD.AperFunction*
G04 #@! TA.AperFunction,SMDPad,CuDef*
G36*
G01*
X187001600Y-82601000D02*
X187902400Y-82601000D01*
G75*
G02*
X188152000Y-82850600I0J-249600D01*
G01*
X188152000Y-83551400D01*
G75*
G02*
X187902400Y-83801000I-249600J0D01*
G01*
X187001600Y-83801000D01*
G75*
G02*
X186752000Y-83551400I0J249600D01*
G01*
X186752000Y-82850600D01*
G75*
G02*
X187001600Y-82601000I249600J0D01*
G01*
G37*
G04 #@! TD.AperFunction*
G04 #@! TA.AperFunction,SMDPad,CuDef*
G36*
G01*
X180296399Y-85490000D02*
X181196401Y-85490000D01*
G75*
G02*
X181446400Y-85739999I0J-249999D01*
G01*
X181446400Y-86440001D01*
G75*
G02*
X181196401Y-86690000I-249999J0D01*
G01*
X180296399Y-86690000D01*
G75*
G02*
X180046400Y-86440001I0J249999D01*
G01*
X180046400Y-85739999D01*
G75*
G02*
X180296399Y-85490000I249999J0D01*
G01*
G37*
G04 #@! TD.AperFunction*
G04 #@! TA.AperFunction,SMDPad,CuDef*
G36*
G01*
X180296399Y-83490000D02*
X181196401Y-83490000D01*
G75*
G02*
X181446400Y-83739999I0J-249999D01*
G01*
X181446400Y-84440001D01*
G75*
G02*
X181196401Y-84690000I-249999J0D01*
G01*
X180296399Y-84690000D01*
G75*
G02*
X180046400Y-84440001I0J249999D01*
G01*
X180046400Y-83739999D01*
G75*
G02*
X180296399Y-83490000I249999J0D01*
G01*
G37*
G04 #@! TD.AperFunction*
G04 #@! TA.AperFunction,SMDPad,CuDef*
G36*
G01*
X175189301Y-93808600D02*
X174289299Y-93808600D01*
G75*
G02*
X174039300Y-93558601I0J249999D01*
G01*
X174039300Y-92858599D01*
G75*
G02*
X174289299Y-92608600I249999J0D01*
G01*
X175189301Y-92608600D01*
G75*
G02*
X175439300Y-92858599I0J-249999D01*
G01*
X175439300Y-93558601D01*
G75*
G02*
X175189301Y-93808600I-249999J0D01*
G01*
G37*
G04 #@! TD.AperFunction*
G04 #@! TA.AperFunction,SMDPad,CuDef*
G36*
G01*
X175189301Y-95808600D02*
X174289299Y-95808600D01*
G75*
G02*
X174039300Y-95558601I0J249999D01*
G01*
X174039300Y-94858599D01*
G75*
G02*
X174289299Y-94608600I249999J0D01*
G01*
X175189301Y-94608600D01*
G75*
G02*
X175439300Y-94858599I0J-249999D01*
G01*
X175439300Y-95558601D01*
G75*
G02*
X175189301Y-95808600I-249999J0D01*
G01*
G37*
G04 #@! TD.AperFunction*
D13*
X182813900Y-93043100D03*
X182313900Y-93043100D03*
X181813900Y-93043100D03*
X181313900Y-93043100D03*
X180813900Y-93043100D03*
X180313900Y-93043100D03*
X179813900Y-93043100D03*
X179313900Y-93043100D03*
D14*
X183463900Y-93043100D03*
X184263900Y-93043100D03*
X178663900Y-93043100D03*
X177863900Y-93043100D03*
D15*
X185673900Y-93603100D03*
X176453900Y-93603100D03*
X176453900Y-98103100D03*
X185673900Y-98103100D03*
G04 #@! TA.AperFunction,SMDPad,CuDef*
G36*
G01*
X188706599Y-91412300D02*
X189956601Y-91412300D01*
G75*
G02*
X190206600Y-91662299I0J-249999D01*
G01*
X190206600Y-92462301D01*
G75*
G02*
X189956601Y-92712300I-249999J0D01*
G01*
X188706599Y-92712300D01*
G75*
G02*
X188456600Y-92462301I0J249999D01*
G01*
X188456600Y-91662299D01*
G75*
G02*
X188706599Y-91412300I249999J0D01*
G01*
G37*
G04 #@! TD.AperFunction*
G04 #@! TA.AperFunction,SMDPad,CuDef*
G36*
G01*
X188706599Y-88312300D02*
X189956601Y-88312300D01*
G75*
G02*
X190206600Y-88562299I0J-249999D01*
G01*
X190206600Y-89362301D01*
G75*
G02*
X189956601Y-89612300I-249999J0D01*
G01*
X188706599Y-89612300D01*
G75*
G02*
X188456600Y-89362301I0J249999D01*
G01*
X188456600Y-88562299D01*
G75*
G02*
X188706599Y-88312300I249999J0D01*
G01*
G37*
G04 #@! TD.AperFunction*
D16*
X189255400Y-97852500D03*
X189255400Y-94552500D03*
X173710600Y-88075500D03*
X173710600Y-91375500D03*
G04 #@! TA.AperFunction,SMDPad,CuDef*
G36*
G01*
X182099800Y-73235800D02*
X182099800Y-74185800D01*
G75*
G02*
X181849800Y-74435800I-250000J0D01*
G01*
X181174800Y-74435800D01*
G75*
G02*
X180924800Y-74185800I0J250000D01*
G01*
X180924800Y-73235800D01*
G75*
G02*
X181174800Y-72985800I250000J0D01*
G01*
X181849800Y-72985800D01*
G75*
G02*
X182099800Y-73235800I0J-250000D01*
G01*
G37*
G04 #@! TD.AperFunction*
G04 #@! TA.AperFunction,SMDPad,CuDef*
G36*
G01*
X184174800Y-73235800D02*
X184174800Y-74185800D01*
G75*
G02*
X183924800Y-74435800I-250000J0D01*
G01*
X183249800Y-74435800D01*
G75*
G02*
X182999800Y-74185800I0J250000D01*
G01*
X182999800Y-73235800D01*
G75*
G02*
X183249800Y-72985800I250000J0D01*
G01*
X183924800Y-72985800D01*
G75*
G02*
X184174800Y-73235800I0J-250000D01*
G01*
G37*
G04 #@! TD.AperFunction*
D17*
X178330860Y-62674500D03*
D18*
X175790860Y-62674500D03*
X173250860Y-62674500D03*
D17*
X188790580Y-62702440D03*
D18*
X186250580Y-62702440D03*
D19*
X186905900Y-78831440D03*
X185432700Y-78818740D03*
X184891680Y-68326000D03*
X183997600Y-86766400D03*
X186207400Y-76250800D03*
X187789820Y-90083640D03*
X187843160Y-70799960D03*
X186695080Y-72151240D03*
X188798200Y-87553800D03*
X183921400Y-90424000D03*
X189255400Y-93383100D03*
X189966600Y-86487000D03*
X182194200Y-94335600D03*
X185953400Y-83540600D03*
X188003180Y-76106020D03*
D20*
X185113900Y-93043100D02*
X185673900Y-93603100D01*
X184263900Y-93043100D02*
X185113900Y-93043100D01*
X177013900Y-93043100D02*
X177863900Y-93043100D01*
X176453900Y-93603100D02*
X177013900Y-93043100D01*
X178663900Y-93904100D02*
X178663900Y-93043100D01*
X179820401Y-95060601D02*
X178663900Y-93904100D01*
X183463900Y-94138902D02*
X182542201Y-95060601D01*
X183463900Y-93043100D02*
X183463900Y-94138902D01*
X183463900Y-92202300D02*
X183463900Y-93043100D01*
X183603900Y-92062300D02*
X183463900Y-92202300D01*
X189331600Y-92062300D02*
X183603900Y-92062300D01*
X180174900Y-95049002D02*
X180163301Y-95060601D01*
X180163301Y-95060601D02*
X179820401Y-95060601D01*
X182542201Y-95060601D02*
X180163301Y-95060601D01*
X185387000Y-73710800D02*
X185521600Y-73845400D01*
X183587300Y-73710800D02*
X185387000Y-73710800D01*
X187454100Y-88962300D02*
X189331600Y-88962300D01*
X185550300Y-87058500D02*
X187454100Y-88962300D01*
X185550300Y-84330498D02*
X185550300Y-87058500D01*
X183587300Y-82367498D02*
X185550300Y-84330498D01*
X183587300Y-73710800D02*
X183587300Y-82367498D01*
X183587300Y-73710800D02*
X183415940Y-73710800D01*
X180936620Y-74760810D02*
X177866040Y-71690230D01*
X182087980Y-74760810D02*
X180936620Y-74760810D01*
X183137990Y-73710800D02*
X182087980Y-74760810D01*
X183587300Y-73710800D02*
X183137990Y-73710800D01*
X173250860Y-66089062D02*
X173250860Y-62674500D01*
X177866040Y-70704242D02*
X173250860Y-66089062D01*
X177866040Y-71690230D02*
X177866040Y-70704242D01*
X187452000Y-86960200D02*
X187550300Y-87058500D01*
X187452000Y-85201000D02*
X187452000Y-86960200D01*
X181313900Y-92108100D02*
X181313900Y-93043100D01*
X181273899Y-92068099D02*
X181313900Y-92108100D01*
X180403899Y-92068099D02*
X181273899Y-92068099D01*
X180313900Y-92158098D02*
X180403899Y-92068099D01*
X180313900Y-93043100D02*
X180313900Y-92158098D01*
X187601100Y-87007700D02*
X187550300Y-87058500D01*
X180313900Y-92021688D02*
X180313900Y-93043100D01*
X179910302Y-91618090D02*
X180313900Y-92021688D01*
X173953189Y-91618089D02*
X179910302Y-91618090D01*
X173710600Y-91375500D02*
X173953189Y-91618089D01*
X188045600Y-87553800D02*
X187550300Y-87058500D01*
X188798200Y-87553800D02*
X188045600Y-87553800D01*
X181403899Y-92068099D02*
X181313900Y-92158098D01*
X182252491Y-92068099D02*
X181403899Y-92068099D01*
X183158310Y-91162280D02*
X182252491Y-92068099D01*
X181313900Y-92158098D02*
X181313900Y-93043100D01*
X183183120Y-91162280D02*
X183158310Y-91162280D01*
X183921400Y-90424000D02*
X183183120Y-91162280D01*
X181813900Y-93928102D02*
X181813900Y-93043100D01*
X180903899Y-94018101D02*
X181723901Y-94018101D01*
X181723901Y-94018101D02*
X181813900Y-93928102D01*
X180813900Y-93928102D02*
X180903899Y-94018101D01*
X180813900Y-93043100D02*
X180813900Y-93928102D01*
X189890400Y-85683600D02*
X189407800Y-85201000D01*
X182041400Y-94335600D02*
X181723901Y-94018101D01*
X182194200Y-94335600D02*
X182041400Y-94335600D01*
X189255400Y-93383100D02*
X189255400Y-94552500D01*
X189966600Y-85759800D02*
X189407800Y-85201000D01*
X189966600Y-86487000D02*
X189966600Y-85759800D01*
X181797200Y-86090000D02*
X180746400Y-86090000D01*
X184861200Y-91338400D02*
X184861200Y-89154000D01*
X184861200Y-89154000D02*
X181797200Y-86090000D01*
X184587310Y-91612290D02*
X184861200Y-91338400D01*
X183344710Y-91612290D02*
X184587310Y-91612290D01*
X182813900Y-92143100D02*
X183344710Y-91612290D01*
X182813900Y-93043100D02*
X182813900Y-92143100D01*
X175879801Y-92068099D02*
X174739300Y-93208600D01*
X179813900Y-92158098D02*
X179723901Y-92068099D01*
X179723901Y-92068099D02*
X175879801Y-92068099D01*
X179813900Y-93043100D02*
X179813900Y-92158098D01*
X185521600Y-83108800D02*
X185953400Y-83540600D01*
X185521600Y-81145400D02*
X185521600Y-83108800D01*
X186791600Y-73845400D02*
X186791600Y-73329800D01*
X177831303Y-63849501D02*
X176965861Y-63849501D01*
X183350801Y-69368999D02*
X177831303Y-63849501D01*
X183350801Y-69879601D02*
X183350801Y-69368999D01*
X186791600Y-73320400D02*
X183350801Y-69879601D01*
X176965861Y-63849501D02*
X175790860Y-62674500D01*
X186791600Y-73845400D02*
X186791600Y-73320400D01*
X186791600Y-82540600D02*
X186791600Y-81145400D01*
X187452000Y-83201000D02*
X186791600Y-82540600D01*
X186791600Y-80177640D02*
X185432700Y-78818740D01*
X186791600Y-81145400D02*
X186791600Y-80177640D01*
X188061600Y-81854800D02*
X189407800Y-83201000D01*
X188061600Y-81145400D02*
X188061600Y-81854800D01*
X188061600Y-79987140D02*
X186905900Y-78831440D01*
X188061600Y-81145400D02*
X188061600Y-79987140D01*
X189331600Y-71170800D02*
X189331600Y-73845400D01*
X183565800Y-65405000D02*
X189331600Y-71170800D01*
X188010800Y-73794600D02*
X188061600Y-73845400D01*
X188061600Y-76047600D02*
X188003180Y-76106020D01*
X188061600Y-73845400D02*
X188061600Y-76047600D01*
D21*
X172304228Y-63827975D02*
X172490861Y-63952679D01*
X172490860Y-66051739D01*
X172487184Y-66089062D01*
X172490860Y-66126384D01*
X172490860Y-66126394D01*
X172501857Y-66238047D01*
X172545314Y-66381308D01*
X172615886Y-66513338D01*
X172655731Y-66561888D01*
X172710859Y-66629063D01*
X172739863Y-66652866D01*
X175252018Y-69165022D01*
X175242389Y-69169010D01*
X174999168Y-69331525D01*
X174792325Y-69538368D01*
X174629810Y-69781589D01*
X174517868Y-70051842D01*
X174460800Y-70338740D01*
X174460800Y-70631260D01*
X174517868Y-70918158D01*
X174629810Y-71188411D01*
X174792325Y-71431632D01*
X174999168Y-71638475D01*
X175242389Y-71800990D01*
X175512642Y-71912932D01*
X175799540Y-71970000D01*
X176092060Y-71970000D01*
X176378958Y-71912932D01*
X176649211Y-71800990D01*
X176892432Y-71638475D01*
X177099275Y-71431632D01*
X177106040Y-71421507D01*
X177106040Y-71652907D01*
X177102364Y-71690230D01*
X177106040Y-71727552D01*
X177106040Y-71727562D01*
X177117037Y-71839215D01*
X177141483Y-71919803D01*
X177160494Y-71982476D01*
X177231066Y-72114506D01*
X177270911Y-72163056D01*
X177326039Y-72230231D01*
X177355043Y-72254034D01*
X180372821Y-75271813D01*
X180396619Y-75300811D01*
X180425617Y-75324609D01*
X180512343Y-75395784D01*
X180606750Y-75446246D01*
X180644373Y-75466356D01*
X180787634Y-75509813D01*
X180899287Y-75520810D01*
X180899297Y-75520810D01*
X180936620Y-75524486D01*
X180973943Y-75520810D01*
X182050658Y-75520810D01*
X182087980Y-75524486D01*
X182125302Y-75520810D01*
X182125313Y-75520810D01*
X182236966Y-75509813D01*
X182380227Y-75466356D01*
X182512256Y-75395784D01*
X182627981Y-75300811D01*
X182651783Y-75271808D01*
X182827300Y-75096291D01*
X182827301Y-82330166D01*
X182823624Y-82367498D01*
X182827301Y-82404831D01*
X182838298Y-82516484D01*
X182846948Y-82545001D01*
X182881754Y-82659744D01*
X182952326Y-82791774D01*
X182976448Y-82821167D01*
X182743969Y-82917463D01*
X182459802Y-83107337D01*
X182218137Y-83349002D01*
X182028263Y-83633169D01*
X181897475Y-83948919D01*
X181830800Y-84284117D01*
X181830800Y-84625883D01*
X181897475Y-84961081D01*
X182028263Y-85276831D01*
X182106134Y-85393374D01*
X182089447Y-85384454D01*
X181992815Y-85355141D01*
X181934805Y-85246613D01*
X181824362Y-85112038D01*
X181689787Y-85001595D01*
X181536251Y-84919528D01*
X181369655Y-84868992D01*
X181196401Y-84851928D01*
X180296399Y-84851928D01*
X180123145Y-84868992D01*
X179956549Y-84919528D01*
X179803013Y-85001595D01*
X179668438Y-85112038D01*
X179557995Y-85246613D01*
X179475928Y-85400149D01*
X179425392Y-85566745D01*
X179408328Y-85739999D01*
X179408328Y-86440001D01*
X179425392Y-86613255D01*
X179475928Y-86779851D01*
X179557995Y-86933387D01*
X179668438Y-87067962D01*
X179803013Y-87178405D01*
X179814593Y-87184595D01*
X179777659Y-87199893D01*
X179346085Y-87488262D01*
X178979062Y-87855285D01*
X178690693Y-88286859D01*
X178492061Y-88766399D01*
X178390800Y-89275475D01*
X178390800Y-89794525D01*
X178492061Y-90303601D01*
X178690693Y-90783141D01*
X178740773Y-90858091D01*
X176632070Y-90858090D01*
X176649211Y-90850990D01*
X176892432Y-90688475D01*
X177099275Y-90481632D01*
X177261790Y-90238411D01*
X177373732Y-89968158D01*
X177430800Y-89681260D01*
X177430800Y-89388740D01*
X177373732Y-89101842D01*
X177261790Y-88831589D01*
X177099275Y-88588368D01*
X176892432Y-88381525D01*
X176649211Y-88219010D01*
X176378958Y-88107068D01*
X176092060Y-88050000D01*
X175799540Y-88050000D01*
X175512642Y-88107068D01*
X175242389Y-88219010D01*
X174999168Y-88381525D01*
X174792325Y-88588368D01*
X174629810Y-88831589D01*
X174517868Y-89101842D01*
X174460800Y-89388740D01*
X174460800Y-89681260D01*
X174517868Y-89968158D01*
X174629810Y-90238411D01*
X174792325Y-90481632D01*
X174999168Y-90688475D01*
X175242389Y-90850990D01*
X175259529Y-90858089D01*
X174942033Y-90858089D01*
X174936412Y-90801018D01*
X174900102Y-90681320D01*
X174841137Y-90571006D01*
X174761785Y-90474315D01*
X174665094Y-90394963D01*
X174554780Y-90335998D01*
X174435082Y-90299688D01*
X174310600Y-90287428D01*
X173110600Y-90287428D01*
X172986118Y-90299688D01*
X172866420Y-90335998D01*
X172756106Y-90394963D01*
X172659415Y-90474315D01*
X172580063Y-90571006D01*
X172521098Y-90681320D01*
X172484788Y-90801018D01*
X172472528Y-90925500D01*
X172472528Y-91825500D01*
X172484788Y-91949982D01*
X172521098Y-92069680D01*
X172580063Y-92179994D01*
X172659415Y-92276685D01*
X172756106Y-92356037D01*
X172866420Y-92415002D01*
X172986118Y-92451312D01*
X173110600Y-92463572D01*
X173498321Y-92463572D01*
X173468828Y-92518749D01*
X173418292Y-92685345D01*
X173401228Y-92858599D01*
X173401228Y-93558601D01*
X173418292Y-93731855D01*
X173468828Y-93898451D01*
X173550895Y-94051987D01*
X173661338Y-94186562D01*
X173795913Y-94297005D01*
X173949449Y-94379072D01*
X174116045Y-94429608D01*
X174289299Y-94446672D01*
X175189301Y-94446672D01*
X175362555Y-94429608D01*
X175529151Y-94379072D01*
X175682687Y-94297005D01*
X175817262Y-94186562D01*
X175927705Y-94051987D01*
X176009772Y-93898451D01*
X176060308Y-93731855D01*
X176077372Y-93558601D01*
X176077372Y-92945330D01*
X176194603Y-92828099D01*
X177725828Y-92828099D01*
X177725828Y-93128100D01*
X177661961Y-93128100D01*
X177462002Y-93167874D01*
X177273644Y-93245895D01*
X177104126Y-93359163D01*
X176959963Y-93503326D01*
X176846695Y-93672844D01*
X176768674Y-93861202D01*
X176728900Y-94061161D01*
X176728900Y-94265039D01*
X176768674Y-94464998D01*
X176846695Y-94653356D01*
X176959963Y-94822874D01*
X177104126Y-94967037D01*
X177273644Y-95080305D01*
X177462002Y-95158326D01*
X177661961Y-95198100D01*
X177865839Y-95198100D01*
X178065798Y-95158326D01*
X178254156Y-95080305D01*
X178423674Y-94967037D01*
X178537855Y-94852856D01*
X179256606Y-95571609D01*
X179280400Y-95600602D01*
X179309393Y-95624396D01*
X179309397Y-95624400D01*
X179380086Y-95682412D01*
X179396125Y-95695575D01*
X179528154Y-95766147D01*
X179671415Y-95809604D01*
X179783068Y-95820601D01*
X179783077Y-95820601D01*
X179820400Y-95824277D01*
X179857723Y-95820601D01*
X180125979Y-95820601D01*
X180163301Y-95824277D01*
X180200623Y-95820601D01*
X182504879Y-95820601D01*
X182542201Y-95824277D01*
X182579523Y-95820601D01*
X182579534Y-95820601D01*
X182691187Y-95809604D01*
X182834448Y-95766147D01*
X182966477Y-95695575D01*
X183082202Y-95600602D01*
X183106004Y-95571599D01*
X183707987Y-94969617D01*
X183873644Y-95080305D01*
X184062002Y-95158326D01*
X184261961Y-95198100D01*
X184465839Y-95198100D01*
X184665798Y-95158326D01*
X184854156Y-95080305D01*
X185023674Y-94967037D01*
X185167837Y-94822874D01*
X185281105Y-94653356D01*
X185359126Y-94464998D01*
X185398900Y-94265039D01*
X185398900Y-94061161D01*
X185359126Y-93861202D01*
X185281105Y-93672844D01*
X185167837Y-93503326D01*
X185023674Y-93359163D01*
X184854156Y-93245895D01*
X184665798Y-93167874D01*
X184465839Y-93128100D01*
X184401972Y-93128100D01*
X184401972Y-92822300D01*
X187896898Y-92822300D01*
X187968195Y-92955687D01*
X188078638Y-93090262D01*
X188213213Y-93200705D01*
X188234175Y-93211909D01*
X188220400Y-93281161D01*
X188220400Y-93485039D01*
X188246561Y-93616562D01*
X188204215Y-93651315D01*
X188124863Y-93748006D01*
X188065898Y-93858320D01*
X188029588Y-93978018D01*
X188017328Y-94102500D01*
X188017328Y-95002500D01*
X188029588Y-95126982D01*
X188065898Y-95246680D01*
X188124863Y-95356994D01*
X188204215Y-95453685D01*
X188300906Y-95533037D01*
X188411220Y-95592002D01*
X188530918Y-95628312D01*
X188655400Y-95640572D01*
X189855400Y-95640572D01*
X189967000Y-95629581D01*
X189967000Y-98900721D01*
X189952278Y-99050869D01*
X189918047Y-99164246D01*
X189862446Y-99268817D01*
X189787594Y-99360595D01*
X189696335Y-99436091D01*
X189592160Y-99492419D01*
X189479024Y-99527440D01*
X189330979Y-99543000D01*
X172752279Y-99543000D01*
X172602131Y-99528278D01*
X172488754Y-99494047D01*
X172384183Y-99438446D01*
X172292405Y-99363594D01*
X172216909Y-99272335D01*
X172160581Y-99168160D01*
X172125560Y-99055024D01*
X172110000Y-98906979D01*
X172110000Y-74611757D01*
X172160885Y-74687912D01*
X172367728Y-74894755D01*
X172610949Y-75057270D01*
X172881202Y-75169212D01*
X173168100Y-75226280D01*
X173460620Y-75226280D01*
X173747518Y-75169212D01*
X174017771Y-75057270D01*
X174260992Y-74894755D01*
X174467835Y-74687912D01*
X174584360Y-74513520D01*
X174700885Y-74687912D01*
X174907728Y-74894755D01*
X175150949Y-75057270D01*
X175421202Y-75169212D01*
X175708100Y-75226280D01*
X176000620Y-75226280D01*
X176287518Y-75169212D01*
X176557771Y-75057270D01*
X176800992Y-74894755D01*
X177007835Y-74687912D01*
X177170350Y-74444691D01*
X177282292Y-74174438D01*
X177339360Y-73887540D01*
X177339360Y-73595020D01*
X177282292Y-73308122D01*
X177170350Y-73037869D01*
X177007835Y-72794648D01*
X176800992Y-72587805D01*
X176557771Y-72425290D01*
X176287518Y-72313348D01*
X176000620Y-72256280D01*
X175708100Y-72256280D01*
X175421202Y-72313348D01*
X175150949Y-72425290D01*
X174907728Y-72587805D01*
X174700885Y-72794648D01*
X174584360Y-72969040D01*
X174467835Y-72794648D01*
X174260992Y-72587805D01*
X174017771Y-72425290D01*
X173747518Y-72313348D01*
X173460620Y-72256280D01*
X173168100Y-72256280D01*
X172881202Y-72313348D01*
X172610949Y-72425290D01*
X172367728Y-72587805D01*
X172160885Y-72794648D01*
X172110000Y-72870803D01*
X172110000Y-63633747D01*
X172304228Y-63827975D01*
G04 #@! TA.AperFunction,Conductor*
D22*
G36*
X172304228Y-63827975D02*
G01*
X172490861Y-63952679D01*
X172490860Y-66051739D01*
X172487184Y-66089062D01*
X172490860Y-66126384D01*
X172490860Y-66126394D01*
X172501857Y-66238047D01*
X172545314Y-66381308D01*
X172615886Y-66513338D01*
X172655731Y-66561888D01*
X172710859Y-66629063D01*
X172739863Y-66652866D01*
X175252018Y-69165022D01*
X175242389Y-69169010D01*
X174999168Y-69331525D01*
X174792325Y-69538368D01*
X174629810Y-69781589D01*
X174517868Y-70051842D01*
X174460800Y-70338740D01*
X174460800Y-70631260D01*
X174517868Y-70918158D01*
X174629810Y-71188411D01*
X174792325Y-71431632D01*
X174999168Y-71638475D01*
X175242389Y-71800990D01*
X175512642Y-71912932D01*
X175799540Y-71970000D01*
X176092060Y-71970000D01*
X176378958Y-71912932D01*
X176649211Y-71800990D01*
X176892432Y-71638475D01*
X177099275Y-71431632D01*
X177106040Y-71421507D01*
X177106040Y-71652907D01*
X177102364Y-71690230D01*
X177106040Y-71727552D01*
X177106040Y-71727562D01*
X177117037Y-71839215D01*
X177141483Y-71919803D01*
X177160494Y-71982476D01*
X177231066Y-72114506D01*
X177270911Y-72163056D01*
X177326039Y-72230231D01*
X177355043Y-72254034D01*
X180372821Y-75271813D01*
X180396619Y-75300811D01*
X180425617Y-75324609D01*
X180512343Y-75395784D01*
X180606750Y-75446246D01*
X180644373Y-75466356D01*
X180787634Y-75509813D01*
X180899287Y-75520810D01*
X180899297Y-75520810D01*
X180936620Y-75524486D01*
X180973943Y-75520810D01*
X182050658Y-75520810D01*
X182087980Y-75524486D01*
X182125302Y-75520810D01*
X182125313Y-75520810D01*
X182236966Y-75509813D01*
X182380227Y-75466356D01*
X182512256Y-75395784D01*
X182627981Y-75300811D01*
X182651783Y-75271808D01*
X182827300Y-75096291D01*
X182827301Y-82330166D01*
X182823624Y-82367498D01*
X182827301Y-82404831D01*
X182838298Y-82516484D01*
X182846948Y-82545001D01*
X182881754Y-82659744D01*
X182952326Y-82791774D01*
X182976448Y-82821167D01*
X182743969Y-82917463D01*
X182459802Y-83107337D01*
X182218137Y-83349002D01*
X182028263Y-83633169D01*
X181897475Y-83948919D01*
X181830800Y-84284117D01*
X181830800Y-84625883D01*
X181897475Y-84961081D01*
X182028263Y-85276831D01*
X182106134Y-85393374D01*
X182089447Y-85384454D01*
X181992815Y-85355141D01*
X181934805Y-85246613D01*
X181824362Y-85112038D01*
X181689787Y-85001595D01*
X181536251Y-84919528D01*
X181369655Y-84868992D01*
X181196401Y-84851928D01*
X180296399Y-84851928D01*
X180123145Y-84868992D01*
X179956549Y-84919528D01*
X179803013Y-85001595D01*
X179668438Y-85112038D01*
X179557995Y-85246613D01*
X179475928Y-85400149D01*
X179425392Y-85566745D01*
X179408328Y-85739999D01*
X179408328Y-86440001D01*
X179425392Y-86613255D01*
X179475928Y-86779851D01*
X179557995Y-86933387D01*
X179668438Y-87067962D01*
X179803013Y-87178405D01*
X179814593Y-87184595D01*
X179777659Y-87199893D01*
X179346085Y-87488262D01*
X178979062Y-87855285D01*
X178690693Y-88286859D01*
X178492061Y-88766399D01*
X178390800Y-89275475D01*
X178390800Y-89794525D01*
X178492061Y-90303601D01*
X178690693Y-90783141D01*
X178740773Y-90858091D01*
X176632070Y-90858090D01*
X176649211Y-90850990D01*
X176892432Y-90688475D01*
X177099275Y-90481632D01*
X177261790Y-90238411D01*
X177373732Y-89968158D01*
X177430800Y-89681260D01*
X177430800Y-89388740D01*
X177373732Y-89101842D01*
X177261790Y-88831589D01*
X177099275Y-88588368D01*
X176892432Y-88381525D01*
X176649211Y-88219010D01*
X176378958Y-88107068D01*
X176092060Y-88050000D01*
X175799540Y-88050000D01*
X175512642Y-88107068D01*
X175242389Y-88219010D01*
X174999168Y-88381525D01*
X174792325Y-88588368D01*
X174629810Y-88831589D01*
X174517868Y-89101842D01*
X174460800Y-89388740D01*
X174460800Y-89681260D01*
X174517868Y-89968158D01*
X174629810Y-90238411D01*
X174792325Y-90481632D01*
X174999168Y-90688475D01*
X175242389Y-90850990D01*
X175259529Y-90858089D01*
X174942033Y-90858089D01*
X174936412Y-90801018D01*
X174900102Y-90681320D01*
X174841137Y-90571006D01*
X174761785Y-90474315D01*
X174665094Y-90394963D01*
X174554780Y-90335998D01*
X174435082Y-90299688D01*
X174310600Y-90287428D01*
X173110600Y-90287428D01*
X172986118Y-90299688D01*
X172866420Y-90335998D01*
X172756106Y-90394963D01*
X172659415Y-90474315D01*
X172580063Y-90571006D01*
X172521098Y-90681320D01*
X172484788Y-90801018D01*
X172472528Y-90925500D01*
X172472528Y-91825500D01*
X172484788Y-91949982D01*
X172521098Y-92069680D01*
X172580063Y-92179994D01*
X172659415Y-92276685D01*
X172756106Y-92356037D01*
X172866420Y-92415002D01*
X172986118Y-92451312D01*
X173110600Y-92463572D01*
X173498321Y-92463572D01*
X173468828Y-92518749D01*
X173418292Y-92685345D01*
X173401228Y-92858599D01*
X173401228Y-93558601D01*
X173418292Y-93731855D01*
X173468828Y-93898451D01*
X173550895Y-94051987D01*
X173661338Y-94186562D01*
X173795913Y-94297005D01*
X173949449Y-94379072D01*
X174116045Y-94429608D01*
X174289299Y-94446672D01*
X175189301Y-94446672D01*
X175362555Y-94429608D01*
X175529151Y-94379072D01*
X175682687Y-94297005D01*
X175817262Y-94186562D01*
X175927705Y-94051987D01*
X176009772Y-93898451D01*
X176060308Y-93731855D01*
X176077372Y-93558601D01*
X176077372Y-92945330D01*
X176194603Y-92828099D01*
X177725828Y-92828099D01*
X177725828Y-93128100D01*
X177661961Y-93128100D01*
X177462002Y-93167874D01*
X177273644Y-93245895D01*
X177104126Y-93359163D01*
X176959963Y-93503326D01*
X176846695Y-93672844D01*
X176768674Y-93861202D01*
X176728900Y-94061161D01*
X176728900Y-94265039D01*
X176768674Y-94464998D01*
X176846695Y-94653356D01*
X176959963Y-94822874D01*
X177104126Y-94967037D01*
X177273644Y-95080305D01*
X177462002Y-95158326D01*
X177661961Y-95198100D01*
X177865839Y-95198100D01*
X178065798Y-95158326D01*
X178254156Y-95080305D01*
X178423674Y-94967037D01*
X178537855Y-94852856D01*
X179256606Y-95571609D01*
X179280400Y-95600602D01*
X179309393Y-95624396D01*
X179309397Y-95624400D01*
X179380086Y-95682412D01*
X179396125Y-95695575D01*
X179528154Y-95766147D01*
X179671415Y-95809604D01*
X179783068Y-95820601D01*
X179783077Y-95820601D01*
X179820400Y-95824277D01*
X179857723Y-95820601D01*
X180125979Y-95820601D01*
X180163301Y-95824277D01*
X180200623Y-95820601D01*
X182504879Y-95820601D01*
X182542201Y-95824277D01*
X182579523Y-95820601D01*
X182579534Y-95820601D01*
X182691187Y-95809604D01*
X182834448Y-95766147D01*
X182966477Y-95695575D01*
X183082202Y-95600602D01*
X183106004Y-95571599D01*
X183707987Y-94969617D01*
X183873644Y-95080305D01*
X184062002Y-95158326D01*
X184261961Y-95198100D01*
X184465839Y-95198100D01*
X184665798Y-95158326D01*
X184854156Y-95080305D01*
X185023674Y-94967037D01*
X185167837Y-94822874D01*
X185281105Y-94653356D01*
X185359126Y-94464998D01*
X185398900Y-94265039D01*
X185398900Y-94061161D01*
X185359126Y-93861202D01*
X185281105Y-93672844D01*
X185167837Y-93503326D01*
X185023674Y-93359163D01*
X184854156Y-93245895D01*
X184665798Y-93167874D01*
X184465839Y-93128100D01*
X184401972Y-93128100D01*
X184401972Y-92822300D01*
X187896898Y-92822300D01*
X187968195Y-92955687D01*
X188078638Y-93090262D01*
X188213213Y-93200705D01*
X188234175Y-93211909D01*
X188220400Y-93281161D01*
X188220400Y-93485039D01*
X188246561Y-93616562D01*
X188204215Y-93651315D01*
X188124863Y-93748006D01*
X188065898Y-93858320D01*
X188029588Y-93978018D01*
X188017328Y-94102500D01*
X188017328Y-95002500D01*
X188029588Y-95126982D01*
X188065898Y-95246680D01*
X188124863Y-95356994D01*
X188204215Y-95453685D01*
X188300906Y-95533037D01*
X188411220Y-95592002D01*
X188530918Y-95628312D01*
X188655400Y-95640572D01*
X189855400Y-95640572D01*
X189967000Y-95629581D01*
X189967000Y-98900721D01*
X189952278Y-99050869D01*
X189918047Y-99164246D01*
X189862446Y-99268817D01*
X189787594Y-99360595D01*
X189696335Y-99436091D01*
X189592160Y-99492419D01*
X189479024Y-99527440D01*
X189330979Y-99543000D01*
X172752279Y-99543000D01*
X172602131Y-99528278D01*
X172488754Y-99494047D01*
X172384183Y-99438446D01*
X172292405Y-99363594D01*
X172216909Y-99272335D01*
X172160581Y-99168160D01*
X172125560Y-99055024D01*
X172110000Y-98906979D01*
X172110000Y-74611757D01*
X172160885Y-74687912D01*
X172367728Y-74894755D01*
X172610949Y-75057270D01*
X172881202Y-75169212D01*
X173168100Y-75226280D01*
X173460620Y-75226280D01*
X173747518Y-75169212D01*
X174017771Y-75057270D01*
X174260992Y-74894755D01*
X174467835Y-74687912D01*
X174584360Y-74513520D01*
X174700885Y-74687912D01*
X174907728Y-74894755D01*
X175150949Y-75057270D01*
X175421202Y-75169212D01*
X175708100Y-75226280D01*
X176000620Y-75226280D01*
X176287518Y-75169212D01*
X176557771Y-75057270D01*
X176800992Y-74894755D01*
X177007835Y-74687912D01*
X177170350Y-74444691D01*
X177282292Y-74174438D01*
X177339360Y-73887540D01*
X177339360Y-73595020D01*
X177282292Y-73308122D01*
X177170350Y-73037869D01*
X177007835Y-72794648D01*
X176800992Y-72587805D01*
X176557771Y-72425290D01*
X176287518Y-72313348D01*
X176000620Y-72256280D01*
X175708100Y-72256280D01*
X175421202Y-72313348D01*
X175150949Y-72425290D01*
X174907728Y-72587805D01*
X174700885Y-72794648D01*
X174584360Y-72969040D01*
X174467835Y-72794648D01*
X174260992Y-72587805D01*
X174017771Y-72425290D01*
X173747518Y-72313348D01*
X173460620Y-72256280D01*
X173168100Y-72256280D01*
X172881202Y-72313348D01*
X172610949Y-72425290D01*
X172367728Y-72587805D01*
X172160885Y-72794648D01*
X172110000Y-72870803D01*
X172110000Y-63633747D01*
X172304228Y-63827975D01*
G37*
G04 #@! TD.AperFunction*
D21*
X187968195Y-89855687D02*
X188078638Y-89990262D01*
X188213213Y-90100705D01*
X188366749Y-90182772D01*
X188533345Y-90233308D01*
X188706599Y-90250372D01*
X189956601Y-90250372D01*
X189967000Y-90249348D01*
X189967000Y-90775252D01*
X189956601Y-90774228D01*
X188706599Y-90774228D01*
X188533345Y-90791292D01*
X188366749Y-90841828D01*
X188213213Y-90923895D01*
X188078638Y-91034338D01*
X187968195Y-91168913D01*
X187896898Y-91302300D01*
X185621320Y-91302300D01*
X185621200Y-91301077D01*
X185621200Y-90941624D01*
X185672642Y-90962932D01*
X185959540Y-91020000D01*
X186252060Y-91020000D01*
X186538958Y-90962932D01*
X186809211Y-90850990D01*
X187052432Y-90688475D01*
X187259275Y-90481632D01*
X187421790Y-90238411D01*
X187533732Y-89968158D01*
X187582637Y-89722300D01*
X187896898Y-89722300D01*
X187968195Y-89855687D01*
G04 #@! TA.AperFunction,Conductor*
D22*
G36*
X187968195Y-89855687D02*
G01*
X188078638Y-89990262D01*
X188213213Y-90100705D01*
X188366749Y-90182772D01*
X188533345Y-90233308D01*
X188706599Y-90250372D01*
X189956601Y-90250372D01*
X189967000Y-90249348D01*
X189967000Y-90775252D01*
X189956601Y-90774228D01*
X188706599Y-90774228D01*
X188533345Y-90791292D01*
X188366749Y-90841828D01*
X188213213Y-90923895D01*
X188078638Y-91034338D01*
X187968195Y-91168913D01*
X187896898Y-91302300D01*
X185621320Y-91302300D01*
X185621200Y-91301077D01*
X185621200Y-90941624D01*
X185672642Y-90962932D01*
X185959540Y-91020000D01*
X186252060Y-91020000D01*
X186538958Y-90962932D01*
X186809211Y-90850990D01*
X187052432Y-90688475D01*
X187259275Y-90481632D01*
X187421790Y-90238411D01*
X187533732Y-89968158D01*
X187582637Y-89722300D01*
X187896898Y-89722300D01*
X187968195Y-89855687D01*
G37*
G04 #@! TD.AperFunction*
D21*
X184790301Y-85825523D02*
X184706913Y-85870095D01*
X184572338Y-85980538D01*
X184461895Y-86115113D01*
X184379828Y-86268649D01*
X184329292Y-86435245D01*
X184312228Y-86608499D01*
X184312228Y-87508501D01*
X184314602Y-87532600D01*
X182796154Y-86014153D01*
X183059719Y-86123325D01*
X183394917Y-86190000D01*
X183736683Y-86190000D01*
X184071881Y-86123325D01*
X184387631Y-85992537D01*
X184671798Y-85802663D01*
X184790300Y-85684161D01*
X184790301Y-85825523D01*
G04 #@! TA.AperFunction,Conductor*
D22*
G36*
X184790301Y-85825523D02*
G01*
X184706913Y-85870095D01*
X184572338Y-85980538D01*
X184461895Y-86115113D01*
X184379828Y-86268649D01*
X184329292Y-86435245D01*
X184312228Y-86608499D01*
X184312228Y-87508501D01*
X184314602Y-87532600D01*
X182796154Y-86014153D01*
X183059719Y-86123325D01*
X183394917Y-86190000D01*
X183736683Y-86190000D01*
X184071881Y-86123325D01*
X184387631Y-85992537D01*
X184671798Y-85802663D01*
X184790300Y-85684161D01*
X184790301Y-85825523D01*
G37*
G04 #@! TD.AperFunction*
D21*
X184570788Y-74819882D02*
X184607098Y-74939580D01*
X184666063Y-75049894D01*
X184745415Y-75146585D01*
X184842106Y-75225937D01*
X184952420Y-75284902D01*
X185072118Y-75321212D01*
X185196600Y-75333472D01*
X185846600Y-75333472D01*
X185971082Y-75321212D01*
X186090780Y-75284902D01*
X186156600Y-75249720D01*
X186222420Y-75284902D01*
X186342118Y-75321212D01*
X186466600Y-75333472D01*
X187116600Y-75333472D01*
X187241082Y-75321212D01*
X187301601Y-75302854D01*
X187301601Y-75343888D01*
X187199243Y-75446246D01*
X187085975Y-75615764D01*
X187007954Y-75804122D01*
X186968180Y-76004081D01*
X186968180Y-76207959D01*
X187007954Y-76407918D01*
X187085975Y-76596276D01*
X187199243Y-76765794D01*
X187343406Y-76909957D01*
X187512924Y-77023225D01*
X187701282Y-77101246D01*
X187901241Y-77141020D01*
X188105119Y-77141020D01*
X188305078Y-77101246D01*
X188493436Y-77023225D01*
X188662954Y-76909957D01*
X188807117Y-76765794D01*
X188920385Y-76596276D01*
X188998406Y-76407918D01*
X189038180Y-76207959D01*
X189038180Y-76004081D01*
X188998406Y-75804122D01*
X188920385Y-75615764D01*
X188821600Y-75467921D01*
X188821600Y-75302854D01*
X188882118Y-75321212D01*
X189006600Y-75333472D01*
X189656600Y-75333472D01*
X189781082Y-75321212D01*
X189900780Y-75284902D01*
X189967001Y-75249506D01*
X189967000Y-81973644D01*
X189858200Y-81962928D01*
X189244529Y-81962928D01*
X189024672Y-81743071D01*
X189024672Y-80295400D01*
X189012412Y-80170918D01*
X188976102Y-80051220D01*
X188917137Y-79940906D01*
X188837785Y-79844215D01*
X188804041Y-79816522D01*
X188767146Y-79694893D01*
X188696574Y-79562864D01*
X188625399Y-79476137D01*
X188601601Y-79447139D01*
X188572603Y-79423341D01*
X187940900Y-78791639D01*
X187940900Y-78729501D01*
X187901126Y-78529542D01*
X187823105Y-78341184D01*
X187709837Y-78171666D01*
X187565674Y-78027503D01*
X187396156Y-77914235D01*
X187207798Y-77836214D01*
X187007839Y-77796440D01*
X186803961Y-77796440D01*
X186604002Y-77836214D01*
X186415644Y-77914235D01*
X186246126Y-78027503D01*
X186175650Y-78097979D01*
X186092474Y-78014803D01*
X185922956Y-77901535D01*
X185734598Y-77823514D01*
X185534639Y-77783740D01*
X185330761Y-77783740D01*
X185130802Y-77823514D01*
X184942444Y-77901535D01*
X184772926Y-78014803D01*
X184628763Y-78158966D01*
X184515495Y-78328484D01*
X184437474Y-78516842D01*
X184397700Y-78716801D01*
X184397700Y-78920679D01*
X184437474Y-79120638D01*
X184515495Y-79308996D01*
X184628763Y-79478514D01*
X184772926Y-79622677D01*
X184921895Y-79722214D01*
X184842106Y-79764863D01*
X184745415Y-79844215D01*
X184666063Y-79940906D01*
X184607098Y-80051220D01*
X184570788Y-80170918D01*
X184558528Y-80295400D01*
X184558528Y-81995400D01*
X184570788Y-82119882D01*
X184607098Y-82239580D01*
X184666063Y-82349894D01*
X184745415Y-82446585D01*
X184761601Y-82459868D01*
X184761601Y-82466997D01*
X184347300Y-82052697D01*
X184347300Y-74962094D01*
X184418186Y-74924205D01*
X184552762Y-74813762D01*
X184568318Y-74794806D01*
X184570788Y-74819882D01*
G04 #@! TA.AperFunction,Conductor*
D22*
G36*
X184570788Y-74819882D02*
G01*
X184607098Y-74939580D01*
X184666063Y-75049894D01*
X184745415Y-75146585D01*
X184842106Y-75225937D01*
X184952420Y-75284902D01*
X185072118Y-75321212D01*
X185196600Y-75333472D01*
X185846600Y-75333472D01*
X185971082Y-75321212D01*
X186090780Y-75284902D01*
X186156600Y-75249720D01*
X186222420Y-75284902D01*
X186342118Y-75321212D01*
X186466600Y-75333472D01*
X187116600Y-75333472D01*
X187241082Y-75321212D01*
X187301601Y-75302854D01*
X187301601Y-75343888D01*
X187199243Y-75446246D01*
X187085975Y-75615764D01*
X187007954Y-75804122D01*
X186968180Y-76004081D01*
X186968180Y-76207959D01*
X187007954Y-76407918D01*
X187085975Y-76596276D01*
X187199243Y-76765794D01*
X187343406Y-76909957D01*
X187512924Y-77023225D01*
X187701282Y-77101246D01*
X187901241Y-77141020D01*
X188105119Y-77141020D01*
X188305078Y-77101246D01*
X188493436Y-77023225D01*
X188662954Y-76909957D01*
X188807117Y-76765794D01*
X188920385Y-76596276D01*
X188998406Y-76407918D01*
X189038180Y-76207959D01*
X189038180Y-76004081D01*
X188998406Y-75804122D01*
X188920385Y-75615764D01*
X188821600Y-75467921D01*
X188821600Y-75302854D01*
X188882118Y-75321212D01*
X189006600Y-75333472D01*
X189656600Y-75333472D01*
X189781082Y-75321212D01*
X189900780Y-75284902D01*
X189967001Y-75249506D01*
X189967000Y-81973644D01*
X189858200Y-81962928D01*
X189244529Y-81962928D01*
X189024672Y-81743071D01*
X189024672Y-80295400D01*
X189012412Y-80170918D01*
X188976102Y-80051220D01*
X188917137Y-79940906D01*
X188837785Y-79844215D01*
X188804041Y-79816522D01*
X188767146Y-79694893D01*
X188696574Y-79562864D01*
X188625399Y-79476137D01*
X188601601Y-79447139D01*
X188572603Y-79423341D01*
X187940900Y-78791639D01*
X187940900Y-78729501D01*
X187901126Y-78529542D01*
X187823105Y-78341184D01*
X187709837Y-78171666D01*
X187565674Y-78027503D01*
X187396156Y-77914235D01*
X187207798Y-77836214D01*
X187007839Y-77796440D01*
X186803961Y-77796440D01*
X186604002Y-77836214D01*
X186415644Y-77914235D01*
X186246126Y-78027503D01*
X186175650Y-78097979D01*
X186092474Y-78014803D01*
X185922956Y-77901535D01*
X185734598Y-77823514D01*
X185534639Y-77783740D01*
X185330761Y-77783740D01*
X185130802Y-77823514D01*
X184942444Y-77901535D01*
X184772926Y-78014803D01*
X184628763Y-78158966D01*
X184515495Y-78328484D01*
X184437474Y-78516842D01*
X184397700Y-78716801D01*
X184397700Y-78920679D01*
X184437474Y-79120638D01*
X184515495Y-79308996D01*
X184628763Y-79478514D01*
X184772926Y-79622677D01*
X184921895Y-79722214D01*
X184842106Y-79764863D01*
X184745415Y-79844215D01*
X184666063Y-79940906D01*
X184607098Y-80051220D01*
X184570788Y-80170918D01*
X184558528Y-80295400D01*
X184558528Y-81995400D01*
X184570788Y-82119882D01*
X184607098Y-82239580D01*
X184666063Y-82349894D01*
X184745415Y-82446585D01*
X184761601Y-82459868D01*
X184761601Y-82466997D01*
X184347300Y-82052697D01*
X184347300Y-74962094D01*
X184418186Y-74924205D01*
X184552762Y-74813762D01*
X184568318Y-74794806D01*
X184570788Y-74819882D01*
G37*
G04 #@! TD.AperFunction*
D21*
X184854589Y-72458191D02*
X184842106Y-72464863D01*
X184745415Y-72544215D01*
X184666063Y-72640906D01*
X184632078Y-72704486D01*
X184552762Y-72607838D01*
X184418186Y-72497395D01*
X184264650Y-72415328D01*
X184098054Y-72364792D01*
X183924800Y-72347728D01*
X183249800Y-72347728D01*
X183076546Y-72364792D01*
X182909950Y-72415328D01*
X182756414Y-72497395D01*
X182621838Y-72607838D01*
X182511395Y-72742414D01*
X182429328Y-72895950D01*
X182378792Y-73062546D01*
X182361728Y-73235800D01*
X182361728Y-73412259D01*
X181773179Y-74000810D01*
X181251422Y-74000810D01*
X180272368Y-73021756D01*
X180766275Y-73120000D01*
X181285325Y-73120000D01*
X181794401Y-73018739D01*
X182273941Y-72820107D01*
X182705515Y-72531738D01*
X183072538Y-72164715D01*
X183360907Y-71733141D01*
X183559539Y-71253601D01*
X183574547Y-71178149D01*
X184854589Y-72458191D01*
G04 #@! TA.AperFunction,Conductor*
D22*
G36*
X184854589Y-72458191D02*
G01*
X184842106Y-72464863D01*
X184745415Y-72544215D01*
X184666063Y-72640906D01*
X184632078Y-72704486D01*
X184552762Y-72607838D01*
X184418186Y-72497395D01*
X184264650Y-72415328D01*
X184098054Y-72364792D01*
X183924800Y-72347728D01*
X183249800Y-72347728D01*
X183076546Y-72364792D01*
X182909950Y-72415328D01*
X182756414Y-72497395D01*
X182621838Y-72607838D01*
X182511395Y-72742414D01*
X182429328Y-72895950D01*
X182378792Y-73062546D01*
X182361728Y-73235800D01*
X182361728Y-73412259D01*
X181773179Y-74000810D01*
X181251422Y-74000810D01*
X180272368Y-73021756D01*
X180766275Y-73120000D01*
X181285325Y-73120000D01*
X181794401Y-73018739D01*
X182273941Y-72820107D01*
X182705515Y-72531738D01*
X183072538Y-72164715D01*
X183360907Y-71733141D01*
X183559539Y-71253601D01*
X183574547Y-71178149D01*
X184854589Y-72458191D01*
G37*
G04 #@! TD.AperFunction*
D21*
X188571600Y-71485602D02*
X188571600Y-72387946D01*
X188511082Y-72369588D01*
X188386600Y-72357328D01*
X187736600Y-72357328D01*
X187612118Y-72369588D01*
X187492420Y-72405898D01*
X187426600Y-72441080D01*
X187360780Y-72405898D01*
X187241082Y-72369588D01*
X187116600Y-72357328D01*
X186903330Y-72357328D01*
X186472211Y-71926209D01*
X186538958Y-71912932D01*
X186809211Y-71800990D01*
X187052432Y-71638475D01*
X187259275Y-71431632D01*
X187421790Y-71188411D01*
X187533732Y-70918158D01*
X187590800Y-70631260D01*
X187590800Y-70504802D01*
X188571600Y-71485602D01*
G04 #@! TA.AperFunction,Conductor*
D22*
G36*
X188571600Y-71485602D02*
G01*
X188571600Y-72387946D01*
X188511082Y-72369588D01*
X188386600Y-72357328D01*
X187736600Y-72357328D01*
X187612118Y-72369588D01*
X187492420Y-72405898D01*
X187426600Y-72441080D01*
X187360780Y-72405898D01*
X187241082Y-72369588D01*
X187116600Y-72357328D01*
X186903330Y-72357328D01*
X186472211Y-71926209D01*
X186538958Y-71912932D01*
X186809211Y-71800990D01*
X187052432Y-71638475D01*
X187259275Y-71431632D01*
X187421790Y-71188411D01*
X187533732Y-70918158D01*
X187590800Y-70631260D01*
X187590800Y-70504802D01*
X188571600Y-71485602D01*
G37*
G04 #@! TD.AperFunction*
D21*
X185303948Y-61548965D02*
X185097105Y-61755808D01*
X184934590Y-61999029D01*
X184822648Y-62269282D01*
X184765580Y-62556180D01*
X184765580Y-62848700D01*
X184822648Y-63135598D01*
X184934590Y-63405851D01*
X185097105Y-63649072D01*
X185303948Y-63855915D01*
X185547169Y-64018430D01*
X185817422Y-64130372D01*
X186104320Y-64187440D01*
X186396840Y-64187440D01*
X186683738Y-64130372D01*
X186953991Y-64018430D01*
X187197212Y-63855915D01*
X187404055Y-63649072D01*
X187566570Y-63405851D01*
X187678512Y-63135598D01*
X187735580Y-62848700D01*
X187735580Y-62556180D01*
X187678512Y-62269282D01*
X187566570Y-61999029D01*
X187404055Y-61755808D01*
X187197212Y-61548965D01*
X187113454Y-61493000D01*
X189324720Y-61493000D01*
X189476102Y-61507843D01*
X189590659Y-61542430D01*
X189696321Y-61598611D01*
X189789060Y-61674248D01*
X189865339Y-61766454D01*
X189922259Y-61871724D01*
X189962203Y-62000764D01*
X189967001Y-62032284D01*
X189967001Y-70747322D01*
X189966574Y-70746524D01*
X189895399Y-70659797D01*
X189871601Y-70630799D01*
X189842604Y-70607002D01*
X185208514Y-65972912D01*
X185234125Y-65911081D01*
X185300800Y-65575883D01*
X185300800Y-65234117D01*
X185234125Y-64898919D01*
X185103337Y-64583169D01*
X184913463Y-64299002D01*
X184671798Y-64057337D01*
X184387631Y-63867463D01*
X184071881Y-63736675D01*
X183736683Y-63670000D01*
X183394917Y-63670000D01*
X183059719Y-63736675D01*
X182743969Y-63867463D01*
X182459802Y-64057337D01*
X182218137Y-64299002D01*
X182028263Y-64583169D01*
X181897475Y-64898919D01*
X181830800Y-65234117D01*
X181830800Y-65575883D01*
X181897475Y-65911081D01*
X182028263Y-66226831D01*
X182218137Y-66510998D01*
X182459802Y-66752663D01*
X182743969Y-66942537D01*
X183059719Y-67073325D01*
X183394917Y-67140000D01*
X183736683Y-67140000D01*
X184071881Y-67073325D01*
X184133712Y-67047714D01*
X186085998Y-69000000D01*
X185959540Y-69000000D01*
X185672642Y-69057068D01*
X185402389Y-69169010D01*
X185159168Y-69331525D01*
X184952325Y-69538368D01*
X184789810Y-69781589D01*
X184677868Y-70051842D01*
X184664591Y-70118590D01*
X184110801Y-69564800D01*
X184110801Y-69406322D01*
X184114477Y-69368999D01*
X184110801Y-69331676D01*
X184110801Y-69331666D01*
X184099804Y-69220013D01*
X184056347Y-69076752D01*
X184015322Y-69000000D01*
X183985775Y-68944722D01*
X183914600Y-68857996D01*
X183890802Y-68828998D01*
X183861804Y-68805200D01*
X178395107Y-63338504D01*
X178371304Y-63309500D01*
X178255579Y-63214527D01*
X178123550Y-63143955D01*
X177980289Y-63100498D01*
X177868636Y-63089501D01*
X177868625Y-63089501D01*
X177831303Y-63085825D01*
X177793981Y-63089501D01*
X177280663Y-63089501D01*
X177232070Y-63040908D01*
X177275860Y-62820760D01*
X177275860Y-62528240D01*
X177218792Y-62241342D01*
X177106850Y-61971089D01*
X176944335Y-61727868D01*
X176737492Y-61521025D01*
X176695550Y-61493000D01*
X185387706Y-61493000D01*
X185303948Y-61548965D01*
G04 #@! TA.AperFunction,Conductor*
D22*
G36*
X185303948Y-61548965D02*
G01*
X185097105Y-61755808D01*
X184934590Y-61999029D01*
X184822648Y-62269282D01*
X184765580Y-62556180D01*
X184765580Y-62848700D01*
X184822648Y-63135598D01*
X184934590Y-63405851D01*
X185097105Y-63649072D01*
X185303948Y-63855915D01*
X185547169Y-64018430D01*
X185817422Y-64130372D01*
X186104320Y-64187440D01*
X186396840Y-64187440D01*
X186683738Y-64130372D01*
X186953991Y-64018430D01*
X187197212Y-63855915D01*
X187404055Y-63649072D01*
X187566570Y-63405851D01*
X187678512Y-63135598D01*
X187735580Y-62848700D01*
X187735580Y-62556180D01*
X187678512Y-62269282D01*
X187566570Y-61999029D01*
X187404055Y-61755808D01*
X187197212Y-61548965D01*
X187113454Y-61493000D01*
X189324720Y-61493000D01*
X189476102Y-61507843D01*
X189590659Y-61542430D01*
X189696321Y-61598611D01*
X189789060Y-61674248D01*
X189865339Y-61766454D01*
X189922259Y-61871724D01*
X189962203Y-62000764D01*
X189967001Y-62032284D01*
X189967001Y-70747322D01*
X189966574Y-70746524D01*
X189895399Y-70659797D01*
X189871601Y-70630799D01*
X189842604Y-70607002D01*
X185208514Y-65972912D01*
X185234125Y-65911081D01*
X185300800Y-65575883D01*
X185300800Y-65234117D01*
X185234125Y-64898919D01*
X185103337Y-64583169D01*
X184913463Y-64299002D01*
X184671798Y-64057337D01*
X184387631Y-63867463D01*
X184071881Y-63736675D01*
X183736683Y-63670000D01*
X183394917Y-63670000D01*
X183059719Y-63736675D01*
X182743969Y-63867463D01*
X182459802Y-64057337D01*
X182218137Y-64299002D01*
X182028263Y-64583169D01*
X181897475Y-64898919D01*
X181830800Y-65234117D01*
X181830800Y-65575883D01*
X181897475Y-65911081D01*
X182028263Y-66226831D01*
X182218137Y-66510998D01*
X182459802Y-66752663D01*
X182743969Y-66942537D01*
X183059719Y-67073325D01*
X183394917Y-67140000D01*
X183736683Y-67140000D01*
X184071881Y-67073325D01*
X184133712Y-67047714D01*
X186085998Y-69000000D01*
X185959540Y-69000000D01*
X185672642Y-69057068D01*
X185402389Y-69169010D01*
X185159168Y-69331525D01*
X184952325Y-69538368D01*
X184789810Y-69781589D01*
X184677868Y-70051842D01*
X184664591Y-70118590D01*
X184110801Y-69564800D01*
X184110801Y-69406322D01*
X184114477Y-69368999D01*
X184110801Y-69331676D01*
X184110801Y-69331666D01*
X184099804Y-69220013D01*
X184056347Y-69076752D01*
X184015322Y-69000000D01*
X183985775Y-68944722D01*
X183914600Y-68857996D01*
X183890802Y-68828998D01*
X183861804Y-68805200D01*
X178395107Y-63338504D01*
X178371304Y-63309500D01*
X178255579Y-63214527D01*
X178123550Y-63143955D01*
X177980289Y-63100498D01*
X177868636Y-63089501D01*
X177868625Y-63089501D01*
X177831303Y-63085825D01*
X177793981Y-63089501D01*
X177280663Y-63089501D01*
X177232070Y-63040908D01*
X177275860Y-62820760D01*
X177275860Y-62528240D01*
X177218792Y-62241342D01*
X177106850Y-61971089D01*
X176944335Y-61727868D01*
X176737492Y-61521025D01*
X176695550Y-61493000D01*
X185387706Y-61493000D01*
X185303948Y-61548965D01*
G37*
G04 #@! TD.AperFunction*
D21*
X174637385Y-63621132D02*
X174844228Y-63827975D01*
X175087449Y-63990490D01*
X175357702Y-64102432D01*
X175644600Y-64159500D01*
X175937120Y-64159500D01*
X176157268Y-64115710D01*
X176402061Y-64360503D01*
X176425860Y-64389502D01*
X176541585Y-64484475D01*
X176673614Y-64555047D01*
X176816875Y-64598504D01*
X176928528Y-64609501D01*
X176928537Y-64609501D01*
X176965860Y-64613177D01*
X177003183Y-64609501D01*
X177516502Y-64609501D01*
X180758539Y-67851539D01*
X180257199Y-67951261D01*
X179777659Y-68149893D01*
X179346085Y-68438262D01*
X178979062Y-68805285D01*
X178690693Y-69236859D01*
X178492061Y-69716399D01*
X178403410Y-70162082D01*
X178377043Y-70140443D01*
X174010860Y-65774261D01*
X174010860Y-63952678D01*
X174197492Y-63827975D01*
X174404335Y-63621132D01*
X174520860Y-63446740D01*
X174637385Y-63621132D01*
G04 #@! TA.AperFunction,Conductor*
D22*
G36*
X174637385Y-63621132D02*
G01*
X174844228Y-63827975D01*
X175087449Y-63990490D01*
X175357702Y-64102432D01*
X175644600Y-64159500D01*
X175937120Y-64159500D01*
X176157268Y-64115710D01*
X176402061Y-64360503D01*
X176425860Y-64389502D01*
X176541585Y-64484475D01*
X176673614Y-64555047D01*
X176816875Y-64598504D01*
X176928528Y-64609501D01*
X176928537Y-64609501D01*
X176965860Y-64613177D01*
X177003183Y-64609501D01*
X177516502Y-64609501D01*
X180758539Y-67851539D01*
X180257199Y-67951261D01*
X179777659Y-68149893D01*
X179346085Y-68438262D01*
X178979062Y-68805285D01*
X178690693Y-69236859D01*
X178492061Y-69716399D01*
X178403410Y-70162082D01*
X178377043Y-70140443D01*
X174010860Y-65774261D01*
X174010860Y-63952678D01*
X174197492Y-63827975D01*
X174404335Y-63621132D01*
X174520860Y-63446740D01*
X174637385Y-63621132D01*
G37*
G04 #@! TD.AperFunction*
M02*
