M48
; DRILL file {KiCad (5.1.10)-1} date 10/19/21 23:48:19
; FORMAT={-:-/ absolute / metric / decimal}
; #@! TF.CreationDate,2021-10-19T23:48:19-04:00
; #@! TF.GenerationSoftware,Kicad,Pcbnew,(5.1.10)-1
; #@! TF.FileFunction,Plated,1,2,PTH
FMAT,2
METRIC
T1C0.400
T2C0.600
T3C0.700
T4C0.800
T5C1.300
T6C1.500
%
G90
G05
T1
X197.048Y-61.432
X197.759Y-70.645
X199.045Y-86.048
X200.426Y-63.409
X202.197Y-80.734
X202.565Y-66.02
X206.781Y-97.78
X208.239Y-62.654
X208.252Y-93.276
X209.903Y-88.613
X211.038Y-77.902
X212.687Y-81.171
X212.72Y-76.827
X213.55Y-66.98
X214.892Y-71.084
X216.548Y-95.461
T3
X197.985Y-58.989
X200.525Y-58.989
X203.065Y-58.989
T4
X208.265Y-75.176
X208.265Y-77.716
X208.265Y-80.256
X208.265Y-82.796
X215.885Y-75.176
X215.885Y-77.716
X215.885Y-80.256
X215.885Y-82.796
T5
X208.625Y-59.406
X215.125Y-59.406
T6
X204.163Y-63.52
X204.173Y-82.568
X210.513Y-66.06
X210.523Y-85.108
T2
G00X202.085Y-92.054
M15
G01X202.085Y-93.054
M16
G05
G00X202.085Y-96.554
M15
G01X202.085Y-97.554
M16
G05
G00X211.305Y-92.054
M15
G01X211.305Y-93.054
M16
G05
G00X211.305Y-96.554
M15
G01X211.305Y-97.554
M16
G05
T0
M30
