G04 #@! TF.GenerationSoftware,KiCad,Pcbnew,(5.1.10)-1*
G04 #@! TF.CreationDate,2021-08-28T06:12:41-04:00*
G04 #@! TF.ProjectId,milk,6d696c6b-2e6b-4696-9361-645f70636258,rev?*
G04 #@! TF.SameCoordinates,Original*
G04 #@! TF.FileFunction,Paste,Top*
G04 #@! TF.FilePolarity,Positive*
%FSLAX46Y46*%
G04 Gerber Fmt 4.6, Leading zero omitted, Abs format (unit mm)*
G04 Created by KiCad (PCBNEW (5.1.10)-1) date 2021-08-28 06:12:41*
%MOMM*%
%LPD*%
G01*
G04 APERTURE LIST*
%ADD10R,0.650000X1.700000*%
%ADD11R,0.300000X1.300000*%
%ADD12R,0.600000X1.300000*%
%ADD13R,1.200000X0.900000*%
G04 APERTURE END LIST*
D10*
X185521600Y-73845400D03*
X186791600Y-73845400D03*
X188061600Y-73845400D03*
X189331600Y-73845400D03*
X189331600Y-81145400D03*
X188061600Y-81145400D03*
X186791600Y-81145400D03*
X185521600Y-81145400D03*
G36*
G01*
X186950300Y-87508501D02*
X186950300Y-86608499D01*
G75*
G02*
X187200299Y-86358500I249999J0D01*
G01*
X187900301Y-86358500D01*
G75*
G02*
X188150300Y-86608499I0J-249999D01*
G01*
X188150300Y-87508501D01*
G75*
G02*
X187900301Y-87758500I-249999J0D01*
G01*
X187200299Y-87758500D01*
G75*
G02*
X186950300Y-87508501I0J249999D01*
G01*
G37*
G36*
G01*
X184950300Y-87508501D02*
X184950300Y-86608499D01*
G75*
G02*
X185200299Y-86358500I249999J0D01*
G01*
X185900301Y-86358500D01*
G75*
G02*
X186150300Y-86608499I0J-249999D01*
G01*
X186150300Y-87508501D01*
G75*
G02*
X185900301Y-87758500I-249999J0D01*
G01*
X185200299Y-87758500D01*
G75*
G02*
X184950300Y-87508501I0J249999D01*
G01*
G37*
G36*
G01*
X188957799Y-84601000D02*
X189857801Y-84601000D01*
G75*
G02*
X190107800Y-84850999I0J-249999D01*
G01*
X190107800Y-85551001D01*
G75*
G02*
X189857801Y-85801000I-249999J0D01*
G01*
X188957799Y-85801000D01*
G75*
G02*
X188707800Y-85551001I0J249999D01*
G01*
X188707800Y-84850999D01*
G75*
G02*
X188957799Y-84601000I249999J0D01*
G01*
G37*
G36*
G01*
X188957400Y-82601000D02*
X189858200Y-82601000D01*
G75*
G02*
X190107800Y-82850600I0J-249600D01*
G01*
X190107800Y-83551400D01*
G75*
G02*
X189858200Y-83801000I-249600J0D01*
G01*
X188957400Y-83801000D01*
G75*
G02*
X188707800Y-83551400I0J249600D01*
G01*
X188707800Y-82850600D01*
G75*
G02*
X188957400Y-82601000I249600J0D01*
G01*
G37*
G36*
G01*
X187001999Y-84601000D02*
X187902001Y-84601000D01*
G75*
G02*
X188152000Y-84850999I0J-249999D01*
G01*
X188152000Y-85551001D01*
G75*
G02*
X187902001Y-85801000I-249999J0D01*
G01*
X187001999Y-85801000D01*
G75*
G02*
X186752000Y-85551001I0J249999D01*
G01*
X186752000Y-84850999D01*
G75*
G02*
X187001999Y-84601000I249999J0D01*
G01*
G37*
G36*
G01*
X187001600Y-82601000D02*
X187902400Y-82601000D01*
G75*
G02*
X188152000Y-82850600I0J-249600D01*
G01*
X188152000Y-83551400D01*
G75*
G02*
X187902400Y-83801000I-249600J0D01*
G01*
X187001600Y-83801000D01*
G75*
G02*
X186752000Y-83551400I0J249600D01*
G01*
X186752000Y-82850600D01*
G75*
G02*
X187001600Y-82601000I249600J0D01*
G01*
G37*
G36*
G01*
X180296399Y-85490000D02*
X181196401Y-85490000D01*
G75*
G02*
X181446400Y-85739999I0J-249999D01*
G01*
X181446400Y-86440001D01*
G75*
G02*
X181196401Y-86690000I-249999J0D01*
G01*
X180296399Y-86690000D01*
G75*
G02*
X180046400Y-86440001I0J249999D01*
G01*
X180046400Y-85739999D01*
G75*
G02*
X180296399Y-85490000I249999J0D01*
G01*
G37*
G36*
G01*
X180296399Y-83490000D02*
X181196401Y-83490000D01*
G75*
G02*
X181446400Y-83739999I0J-249999D01*
G01*
X181446400Y-84440001D01*
G75*
G02*
X181196401Y-84690000I-249999J0D01*
G01*
X180296399Y-84690000D01*
G75*
G02*
X180046400Y-84440001I0J249999D01*
G01*
X180046400Y-83739999D01*
G75*
G02*
X180296399Y-83490000I249999J0D01*
G01*
G37*
G36*
G01*
X175189301Y-93808600D02*
X174289299Y-93808600D01*
G75*
G02*
X174039300Y-93558601I0J249999D01*
G01*
X174039300Y-92858599D01*
G75*
G02*
X174289299Y-92608600I249999J0D01*
G01*
X175189301Y-92608600D01*
G75*
G02*
X175439300Y-92858599I0J-249999D01*
G01*
X175439300Y-93558601D01*
G75*
G02*
X175189301Y-93808600I-249999J0D01*
G01*
G37*
G36*
G01*
X175189301Y-95808600D02*
X174289299Y-95808600D01*
G75*
G02*
X174039300Y-95558601I0J249999D01*
G01*
X174039300Y-94858599D01*
G75*
G02*
X174289299Y-94608600I249999J0D01*
G01*
X175189301Y-94608600D01*
G75*
G02*
X175439300Y-94858599I0J-249999D01*
G01*
X175439300Y-95558601D01*
G75*
G02*
X175189301Y-95808600I-249999J0D01*
G01*
G37*
D11*
X182813900Y-93043100D03*
X182313900Y-93043100D03*
X181813900Y-93043100D03*
X181313900Y-93043100D03*
X180813900Y-93043100D03*
X180313900Y-93043100D03*
X179813900Y-93043100D03*
X179313900Y-93043100D03*
D12*
X183463900Y-93043100D03*
X184263900Y-93043100D03*
X178663900Y-93043100D03*
X177863900Y-93043100D03*
G36*
G01*
X188706599Y-91412300D02*
X189956601Y-91412300D01*
G75*
G02*
X190206600Y-91662299I0J-249999D01*
G01*
X190206600Y-92462301D01*
G75*
G02*
X189956601Y-92712300I-249999J0D01*
G01*
X188706599Y-92712300D01*
G75*
G02*
X188456600Y-92462301I0J249999D01*
G01*
X188456600Y-91662299D01*
G75*
G02*
X188706599Y-91412300I249999J0D01*
G01*
G37*
G36*
G01*
X188706599Y-88312300D02*
X189956601Y-88312300D01*
G75*
G02*
X190206600Y-88562299I0J-249999D01*
G01*
X190206600Y-89362301D01*
G75*
G02*
X189956601Y-89612300I-249999J0D01*
G01*
X188706599Y-89612300D01*
G75*
G02*
X188456600Y-89362301I0J249999D01*
G01*
X188456600Y-88562299D01*
G75*
G02*
X188706599Y-88312300I249999J0D01*
G01*
G37*
D13*
X189255400Y-97852500D03*
X189255400Y-94552500D03*
X173710600Y-88075500D03*
X173710600Y-91375500D03*
G36*
G01*
X182099800Y-73235800D02*
X182099800Y-74185800D01*
G75*
G02*
X181849800Y-74435800I-250000J0D01*
G01*
X181174800Y-74435800D01*
G75*
G02*
X180924800Y-74185800I0J250000D01*
G01*
X180924800Y-73235800D01*
G75*
G02*
X181174800Y-72985800I250000J0D01*
G01*
X181849800Y-72985800D01*
G75*
G02*
X182099800Y-73235800I0J-250000D01*
G01*
G37*
G36*
G01*
X184174800Y-73235800D02*
X184174800Y-74185800D01*
G75*
G02*
X183924800Y-74435800I-250000J0D01*
G01*
X183249800Y-74435800D01*
G75*
G02*
X182999800Y-74185800I0J250000D01*
G01*
X182999800Y-73235800D01*
G75*
G02*
X183249800Y-72985800I250000J0D01*
G01*
X183924800Y-72985800D01*
G75*
G02*
X184174800Y-73235800I0J-250000D01*
G01*
G37*
M02*
