M48
; DRILL file {KiCad (5.1.10)-1} date 10/19/21 16:21:39
; FORMAT={-:-/ absolute / metric / decimal}
; #@! TF.CreationDate,2021-10-19T16:21:39-04:00
; #@! TF.GenerationSoftware,Kicad,Pcbnew,(5.1.10)-1
; #@! TF.FileFunction,Plated,1,2,PTH
FMAT,2
METRIC
T1C0.400
T2C0.600
T3C0.700
T4C0.800
T5C1.300
T6C1.500
%
G90
G05
T1
X197.94Y-65.905
X198.999Y-90.47
X200.64Y-85.822
X201.612Y-75.202
X201.912Y-65.829
X202.131Y-80.554
X202.169Y-62.057
X203.683Y-69.853
X203.982Y-74.625
X206.11Y-74.343
X206.456Y-97.889
X208.252Y-93.276
X209.215Y-61.879
X209.934Y-88.798
X210.411Y-77.409
X212.527Y-95.28
X212.687Y-81.171
X212.72Y-76.827
X213.159Y-89.207
X213.718Y-67.295
X215.108Y-71.752
X216.548Y-95.461
X217.114Y-76.474
T3
X197.95Y-58.75
X200.49Y-58.75
X203.03Y-58.75
T4
X208.265Y-75.176
X208.265Y-77.716
X208.265Y-80.256
X208.265Y-82.796
X215.885Y-75.176
X215.885Y-77.716
X215.885Y-80.256
X215.885Y-82.796
T5
X208.625Y-59.406
X215.125Y-59.406
T6
X204.163Y-63.52
X204.173Y-82.568
X210.513Y-66.06
X210.523Y-85.108
T2
G00X202.085Y-92.054
M15
G01X202.085Y-93.054
M16
G05
G00X202.085Y-96.554
M15
G01X202.085Y-97.554
M16
G05
G00X211.305Y-92.054
M15
G01X211.305Y-93.054
M16
G05
G00X211.305Y-96.554
M15
G01X211.305Y-97.554
M16
G05
T0
M30
