%TF.GenerationSoftware,KiCad,Pcbnew,(5.1.10)-1*%
%TF.CreationDate,2021-10-19T19:02:52-04:00*%
%TF.ProjectId,milk,6d696c6b-2e6b-4696-9361-645f70636258,rev?*%
%TF.SameCoordinates,Original*%
%TF.FileFunction,Legend,Bot*%
%TF.FilePolarity,Positive*%
%FSLAX46Y46*%
G04 Gerber Fmt 4.6, Leading zero omitted, Abs format (unit mm)*
G04 Created by KiCad (PCBNEW (5.1.10)-1) date 2021-10-19 19:02:52*
%MOMM*%
%LPD*%
G01*
G04 APERTURE LIST*
%ADD10C,0.010000*%
%ADD11C,0.100000*%
%ADD12C,0.150000*%
%ADD13C,0.075000*%
%ADD14R,0.500000X0.500000*%
%ADD15O,1.600000X1.600000*%
%ADD16R,1.600000X1.600000*%
%ADD17C,1.700000*%
%ADD18C,4.000000*%
%ADD19C,2.200000*%
%ADD20C,0.800000*%
%ADD21O,1.000000X2.000000*%
%ADD22C,2.000000*%
%ADD23R,1.500000X1.500000*%
%ADD24C,1.500000*%
G04 APERTURE END LIST*
D10*
%TO.C,G\u002A\u002A\u002A*%
G36*
X201785454Y-74183494D02*
G01*
X201752743Y-74206645D01*
X201736886Y-74229852D01*
X201725579Y-74267894D01*
X201718112Y-74328515D01*
X201713772Y-74419457D01*
X201711850Y-74548462D01*
X201711560Y-74655131D01*
X201710947Y-74809372D01*
X201708704Y-74919338D01*
X201704227Y-74991542D01*
X201696910Y-75032498D01*
X201686149Y-75048721D01*
X201675049Y-75048424D01*
X201541962Y-75011180D01*
X201373424Y-74984626D01*
X201183741Y-74969209D01*
X200987220Y-74965378D01*
X200798167Y-74973582D01*
X200630887Y-74994267D01*
X200546234Y-75013046D01*
X200304786Y-75089263D01*
X200096565Y-75178783D01*
X199907624Y-75289767D01*
X199724015Y-75430372D01*
X199537491Y-75603100D01*
X199429312Y-75712284D01*
X199349026Y-75800102D01*
X199287024Y-75879459D01*
X199233699Y-75963257D01*
X199179443Y-76064402D01*
X199149806Y-76123800D01*
X199077215Y-76284869D01*
X199013815Y-76451551D01*
X198963488Y-76611467D01*
X198930114Y-76752242D01*
X198917574Y-76861498D01*
X198917560Y-76864463D01*
X198917560Y-76936600D01*
X198515097Y-76936600D01*
X198362154Y-76937088D01*
X198251798Y-76939160D01*
X198175825Y-76943730D01*
X198126025Y-76951707D01*
X198094193Y-76964005D01*
X198072122Y-76981535D01*
X198067638Y-76986319D01*
X198056145Y-76997198D01*
X198046461Y-77006309D01*
X198040642Y-77017184D01*
X198040746Y-77033359D01*
X198048829Y-77058367D01*
X198066947Y-77095741D01*
X198097158Y-77149016D01*
X198141518Y-77221725D01*
X198202085Y-77317402D01*
X198280914Y-77439580D01*
X198380063Y-77591795D01*
X198501588Y-77777579D01*
X198647546Y-78000466D01*
X198740914Y-78143100D01*
X198873842Y-78346338D01*
X199011683Y-78557270D01*
X199148602Y-78766956D01*
X199278769Y-78966459D01*
X199396349Y-79146840D01*
X199495509Y-79299160D01*
X199544800Y-79375000D01*
X199633973Y-79510435D01*
X199716684Y-79632527D01*
X199788038Y-79734323D01*
X199843135Y-79808871D01*
X199877078Y-79849219D01*
X199881633Y-79853111D01*
X199921794Y-79871937D01*
X199958192Y-79856507D01*
X199983081Y-79833479D01*
X200001398Y-79816142D01*
X200014534Y-79800821D01*
X200019926Y-79782387D01*
X200015010Y-79755713D01*
X199997225Y-79715672D01*
X199964008Y-79657135D01*
X199912796Y-79574976D01*
X199841026Y-79464067D01*
X199746136Y-79319279D01*
X199662113Y-79191257D01*
X199583696Y-79071484D01*
X199489668Y-78927558D01*
X199383344Y-78764579D01*
X199268038Y-78587647D01*
X199147064Y-78401860D01*
X199023738Y-78212317D01*
X198901372Y-78024119D01*
X198783281Y-77842364D01*
X198672780Y-77672151D01*
X198573182Y-77518580D01*
X198487802Y-77386750D01*
X198419954Y-77281760D01*
X198372952Y-77208709D01*
X198350111Y-77172698D01*
X198349415Y-77171550D01*
X198351943Y-77157158D01*
X198384216Y-77147603D01*
X198452540Y-77142115D01*
X198563224Y-77139928D01*
X198610111Y-77139800D01*
X198889859Y-77139800D01*
X198903495Y-77235050D01*
X198956331Y-77534560D01*
X199025187Y-77793920D01*
X199114179Y-78022362D01*
X199227420Y-78229121D01*
X199369025Y-78423429D01*
X199497103Y-78567369D01*
X199748242Y-78797689D01*
X200015873Y-78979991D01*
X200300444Y-79114459D01*
X200602405Y-79201274D01*
X200922205Y-79240619D01*
X201151276Y-79240295D01*
X201284196Y-79231069D01*
X201413062Y-79217335D01*
X201520864Y-79201154D01*
X201577491Y-79188698D01*
X201710121Y-79151377D01*
X201717191Y-79482717D01*
X201721025Y-79621403D01*
X201726403Y-79717825D01*
X201734548Y-79780514D01*
X201746682Y-79818004D01*
X201764031Y-79838829D01*
X201768710Y-79842048D01*
X201823402Y-79856450D01*
X201857610Y-79842041D01*
X201875308Y-79824973D01*
X201888060Y-79794261D01*
X201896901Y-79741869D01*
X201902866Y-79659765D01*
X201906988Y-79539915D01*
X201909089Y-79442291D01*
X201916117Y-79070540D01*
X202023389Y-79015995D01*
X202281888Y-78858135D01*
X202520340Y-78660548D01*
X202731036Y-78431527D01*
X202906267Y-78179364D01*
X203029833Y-77933328D01*
X203092722Y-77754091D01*
X203147429Y-77547291D01*
X203188138Y-77336109D01*
X203198617Y-77260450D01*
X203213273Y-77139800D01*
X203011004Y-77139800D01*
X202993778Y-77311250D01*
X202970298Y-77452673D01*
X202928660Y-77617265D01*
X202874833Y-77786098D01*
X202814788Y-77940243D01*
X202760702Y-78050186D01*
X202672053Y-78187966D01*
X202563326Y-78331841D01*
X202448008Y-78465264D01*
X202339587Y-78571688D01*
X202326597Y-78582765D01*
X202247027Y-78645438D01*
X202157932Y-78709852D01*
X202070573Y-78768559D01*
X201996215Y-78814109D01*
X201946119Y-78839056D01*
X201935188Y-78841600D01*
X201930335Y-78817179D01*
X201925894Y-78747835D01*
X201922006Y-78639441D01*
X201918813Y-78497874D01*
X201916454Y-78329008D01*
X201915072Y-78138719D01*
X201914760Y-77990700D01*
X201914760Y-77139800D01*
X201711560Y-77139800D01*
X201711560Y-78941780D01*
X201578210Y-78979228D01*
X201486957Y-79003984D01*
X201411630Y-79020884D01*
X201339233Y-79031115D01*
X201256768Y-79035864D01*
X201151237Y-79036318D01*
X201009644Y-79033662D01*
X200987660Y-79033145D01*
X200821253Y-79026718D01*
X200691140Y-79015236D01*
X200582919Y-78996881D01*
X200482190Y-78969836D01*
X200479660Y-78969038D01*
X200187501Y-78850981D01*
X199923160Y-78692405D01*
X199689815Y-78497216D01*
X199490645Y-78269320D01*
X199328828Y-78012623D01*
X199207540Y-77731028D01*
X199129960Y-77428443D01*
X199110090Y-77285850D01*
X199094917Y-77139800D01*
X201711560Y-77139800D01*
X201914760Y-77139800D01*
X203011004Y-77139800D01*
X203213273Y-77139800D01*
X203627707Y-77139800D01*
X203798078Y-77138601D01*
X203923691Y-77134047D01*
X204010550Y-77124700D01*
X204064661Y-77109119D01*
X204092029Y-77085867D01*
X204098658Y-77053506D01*
X204094908Y-77027879D01*
X204077363Y-76998013D01*
X204032548Y-76934363D01*
X204023568Y-76922217D01*
X203768960Y-76922217D01*
X203745233Y-76927880D01*
X203680736Y-76932492D01*
X203585495Y-76935562D01*
X203476860Y-76936600D01*
X203184760Y-76936600D01*
X202999270Y-76936600D01*
X201914760Y-76936600D01*
X201914760Y-76149200D01*
X201915393Y-75955032D01*
X201917185Y-75778261D01*
X201919978Y-75624993D01*
X201923613Y-75501336D01*
X201927933Y-75413398D01*
X201932778Y-75367286D01*
X201935188Y-75361800D01*
X201973410Y-75376402D01*
X202040496Y-75415343D01*
X202125565Y-75471326D01*
X202217736Y-75537051D01*
X202306126Y-75605222D01*
X202340288Y-75633493D01*
X202532579Y-75827669D01*
X202699244Y-76057790D01*
X202834279Y-76312940D01*
X202931677Y-76582206D01*
X202976982Y-76790550D01*
X202999270Y-76936600D01*
X203184760Y-76936600D01*
X203184760Y-76852483D01*
X203175480Y-76763174D01*
X203150403Y-76642476D01*
X203113677Y-76505722D01*
X203069448Y-76368246D01*
X203021864Y-76245380D01*
X203018444Y-76237562D01*
X202878211Y-75977742D01*
X202696247Y-75731738D01*
X202481423Y-75508910D01*
X202242613Y-75318620D01*
X202147338Y-75261619D01*
X201711560Y-75261619D01*
X201711560Y-76936600D01*
X199120760Y-76936600D01*
X199120760Y-76853036D01*
X199134498Y-76728888D01*
X199173166Y-76575737D01*
X199232944Y-76406461D01*
X199295588Y-76263500D01*
X199453263Y-75987915D01*
X199644764Y-75749781D01*
X199871051Y-75548253D01*
X200133084Y-75382486D01*
X200431823Y-75251636D01*
X200454260Y-75243718D01*
X200538380Y-75215846D01*
X200611582Y-75196379D01*
X200686279Y-75183799D01*
X200774885Y-75176584D01*
X200889811Y-75173216D01*
X201038460Y-75172186D01*
X201208571Y-75173410D01*
X201338728Y-75178587D01*
X201439688Y-75188620D01*
X201522207Y-75204412D01*
X201565510Y-75216459D01*
X201711560Y-75261619D01*
X202147338Y-75261619D01*
X202022710Y-75187058D01*
X201914760Y-75132167D01*
X201914760Y-74847840D01*
X201915582Y-74724563D01*
X201918681Y-74645248D01*
X201925007Y-74603076D01*
X201935510Y-74591227D01*
X201949183Y-74600707D01*
X201974094Y-74630531D01*
X202025561Y-74694308D01*
X202098789Y-74786020D01*
X202188983Y-74899647D01*
X202291349Y-75029171D01*
X202363294Y-75120500D01*
X202608473Y-75432165D01*
X202824044Y-75706280D01*
X203011842Y-75945194D01*
X203173699Y-76151258D01*
X203311450Y-76326821D01*
X203426928Y-76474234D01*
X203521967Y-76595847D01*
X203598400Y-76694011D01*
X203658061Y-76771075D01*
X203702783Y-76829390D01*
X203734401Y-76871305D01*
X203754747Y-76899172D01*
X203765655Y-76915341D01*
X203768959Y-76922161D01*
X203768960Y-76922217D01*
X204023568Y-76922217D01*
X203964886Y-76842848D01*
X203878799Y-76729385D01*
X203778710Y-76599892D01*
X203700107Y-76499609D01*
X203598994Y-76371319D01*
X203472231Y-76210450D01*
X203325595Y-76024336D01*
X203164864Y-75820309D01*
X202995814Y-75605703D01*
X202824222Y-75387851D01*
X202655866Y-75174087D01*
X202593708Y-75095159D01*
X202445393Y-74907734D01*
X202305662Y-74732909D01*
X202177824Y-74574698D01*
X202065190Y-74437117D01*
X201971066Y-74324180D01*
X201898764Y-74239903D01*
X201851593Y-74188301D01*
X201833794Y-74173140D01*
X201785454Y-74183494D01*
G37*
X201785454Y-74183494D02*
X201752743Y-74206645D01*
X201736886Y-74229852D01*
X201725579Y-74267894D01*
X201718112Y-74328515D01*
X201713772Y-74419457D01*
X201711850Y-74548462D01*
X201711560Y-74655131D01*
X201710947Y-74809372D01*
X201708704Y-74919338D01*
X201704227Y-74991542D01*
X201696910Y-75032498D01*
X201686149Y-75048721D01*
X201675049Y-75048424D01*
X201541962Y-75011180D01*
X201373424Y-74984626D01*
X201183741Y-74969209D01*
X200987220Y-74965378D01*
X200798167Y-74973582D01*
X200630887Y-74994267D01*
X200546234Y-75013046D01*
X200304786Y-75089263D01*
X200096565Y-75178783D01*
X199907624Y-75289767D01*
X199724015Y-75430372D01*
X199537491Y-75603100D01*
X199429312Y-75712284D01*
X199349026Y-75800102D01*
X199287024Y-75879459D01*
X199233699Y-75963257D01*
X199179443Y-76064402D01*
X199149806Y-76123800D01*
X199077215Y-76284869D01*
X199013815Y-76451551D01*
X198963488Y-76611467D01*
X198930114Y-76752242D01*
X198917574Y-76861498D01*
X198917560Y-76864463D01*
X198917560Y-76936600D01*
X198515097Y-76936600D01*
X198362154Y-76937088D01*
X198251798Y-76939160D01*
X198175825Y-76943730D01*
X198126025Y-76951707D01*
X198094193Y-76964005D01*
X198072122Y-76981535D01*
X198067638Y-76986319D01*
X198056145Y-76997198D01*
X198046461Y-77006309D01*
X198040642Y-77017184D01*
X198040746Y-77033359D01*
X198048829Y-77058367D01*
X198066947Y-77095741D01*
X198097158Y-77149016D01*
X198141518Y-77221725D01*
X198202085Y-77317402D01*
X198280914Y-77439580D01*
X198380063Y-77591795D01*
X198501588Y-77777579D01*
X198647546Y-78000466D01*
X198740914Y-78143100D01*
X198873842Y-78346338D01*
X199011683Y-78557270D01*
X199148602Y-78766956D01*
X199278769Y-78966459D01*
X199396349Y-79146840D01*
X199495509Y-79299160D01*
X199544800Y-79375000D01*
X199633973Y-79510435D01*
X199716684Y-79632527D01*
X199788038Y-79734323D01*
X199843135Y-79808871D01*
X199877078Y-79849219D01*
X199881633Y-79853111D01*
X199921794Y-79871937D01*
X199958192Y-79856507D01*
X199983081Y-79833479D01*
X200001398Y-79816142D01*
X200014534Y-79800821D01*
X200019926Y-79782387D01*
X200015010Y-79755713D01*
X199997225Y-79715672D01*
X199964008Y-79657135D01*
X199912796Y-79574976D01*
X199841026Y-79464067D01*
X199746136Y-79319279D01*
X199662113Y-79191257D01*
X199583696Y-79071484D01*
X199489668Y-78927558D01*
X199383344Y-78764579D01*
X199268038Y-78587647D01*
X199147064Y-78401860D01*
X199023738Y-78212317D01*
X198901372Y-78024119D01*
X198783281Y-77842364D01*
X198672780Y-77672151D01*
X198573182Y-77518580D01*
X198487802Y-77386750D01*
X198419954Y-77281760D01*
X198372952Y-77208709D01*
X198350111Y-77172698D01*
X198349415Y-77171550D01*
X198351943Y-77157158D01*
X198384216Y-77147603D01*
X198452540Y-77142115D01*
X198563224Y-77139928D01*
X198610111Y-77139800D01*
X198889859Y-77139800D01*
X198903495Y-77235050D01*
X198956331Y-77534560D01*
X199025187Y-77793920D01*
X199114179Y-78022362D01*
X199227420Y-78229121D01*
X199369025Y-78423429D01*
X199497103Y-78567369D01*
X199748242Y-78797689D01*
X200015873Y-78979991D01*
X200300444Y-79114459D01*
X200602405Y-79201274D01*
X200922205Y-79240619D01*
X201151276Y-79240295D01*
X201284196Y-79231069D01*
X201413062Y-79217335D01*
X201520864Y-79201154D01*
X201577491Y-79188698D01*
X201710121Y-79151377D01*
X201717191Y-79482717D01*
X201721025Y-79621403D01*
X201726403Y-79717825D01*
X201734548Y-79780514D01*
X201746682Y-79818004D01*
X201764031Y-79838829D01*
X201768710Y-79842048D01*
X201823402Y-79856450D01*
X201857610Y-79842041D01*
X201875308Y-79824973D01*
X201888060Y-79794261D01*
X201896901Y-79741869D01*
X201902866Y-79659765D01*
X201906988Y-79539915D01*
X201909089Y-79442291D01*
X201916117Y-79070540D01*
X202023389Y-79015995D01*
X202281888Y-78858135D01*
X202520340Y-78660548D01*
X202731036Y-78431527D01*
X202906267Y-78179364D01*
X203029833Y-77933328D01*
X203092722Y-77754091D01*
X203147429Y-77547291D01*
X203188138Y-77336109D01*
X203198617Y-77260450D01*
X203213273Y-77139800D01*
X203011004Y-77139800D01*
X202993778Y-77311250D01*
X202970298Y-77452673D01*
X202928660Y-77617265D01*
X202874833Y-77786098D01*
X202814788Y-77940243D01*
X202760702Y-78050186D01*
X202672053Y-78187966D01*
X202563326Y-78331841D01*
X202448008Y-78465264D01*
X202339587Y-78571688D01*
X202326597Y-78582765D01*
X202247027Y-78645438D01*
X202157932Y-78709852D01*
X202070573Y-78768559D01*
X201996215Y-78814109D01*
X201946119Y-78839056D01*
X201935188Y-78841600D01*
X201930335Y-78817179D01*
X201925894Y-78747835D01*
X201922006Y-78639441D01*
X201918813Y-78497874D01*
X201916454Y-78329008D01*
X201915072Y-78138719D01*
X201914760Y-77990700D01*
X201914760Y-77139800D01*
X201711560Y-77139800D01*
X201711560Y-78941780D01*
X201578210Y-78979228D01*
X201486957Y-79003984D01*
X201411630Y-79020884D01*
X201339233Y-79031115D01*
X201256768Y-79035864D01*
X201151237Y-79036318D01*
X201009644Y-79033662D01*
X200987660Y-79033145D01*
X200821253Y-79026718D01*
X200691140Y-79015236D01*
X200582919Y-78996881D01*
X200482190Y-78969836D01*
X200479660Y-78969038D01*
X200187501Y-78850981D01*
X199923160Y-78692405D01*
X199689815Y-78497216D01*
X199490645Y-78269320D01*
X199328828Y-78012623D01*
X199207540Y-77731028D01*
X199129960Y-77428443D01*
X199110090Y-77285850D01*
X199094917Y-77139800D01*
X201711560Y-77139800D01*
X201914760Y-77139800D01*
X203011004Y-77139800D01*
X203213273Y-77139800D01*
X203627707Y-77139800D01*
X203798078Y-77138601D01*
X203923691Y-77134047D01*
X204010550Y-77124700D01*
X204064661Y-77109119D01*
X204092029Y-77085867D01*
X204098658Y-77053506D01*
X204094908Y-77027879D01*
X204077363Y-76998013D01*
X204032548Y-76934363D01*
X204023568Y-76922217D01*
X203768960Y-76922217D01*
X203745233Y-76927880D01*
X203680736Y-76932492D01*
X203585495Y-76935562D01*
X203476860Y-76936600D01*
X203184760Y-76936600D01*
X202999270Y-76936600D01*
X201914760Y-76936600D01*
X201914760Y-76149200D01*
X201915393Y-75955032D01*
X201917185Y-75778261D01*
X201919978Y-75624993D01*
X201923613Y-75501336D01*
X201927933Y-75413398D01*
X201932778Y-75367286D01*
X201935188Y-75361800D01*
X201973410Y-75376402D01*
X202040496Y-75415343D01*
X202125565Y-75471326D01*
X202217736Y-75537051D01*
X202306126Y-75605222D01*
X202340288Y-75633493D01*
X202532579Y-75827669D01*
X202699244Y-76057790D01*
X202834279Y-76312940D01*
X202931677Y-76582206D01*
X202976982Y-76790550D01*
X202999270Y-76936600D01*
X203184760Y-76936600D01*
X203184760Y-76852483D01*
X203175480Y-76763174D01*
X203150403Y-76642476D01*
X203113677Y-76505722D01*
X203069448Y-76368246D01*
X203021864Y-76245380D01*
X203018444Y-76237562D01*
X202878211Y-75977742D01*
X202696247Y-75731738D01*
X202481423Y-75508910D01*
X202242613Y-75318620D01*
X202147338Y-75261619D01*
X201711560Y-75261619D01*
X201711560Y-76936600D01*
X199120760Y-76936600D01*
X199120760Y-76853036D01*
X199134498Y-76728888D01*
X199173166Y-76575737D01*
X199232944Y-76406461D01*
X199295588Y-76263500D01*
X199453263Y-75987915D01*
X199644764Y-75749781D01*
X199871051Y-75548253D01*
X200133084Y-75382486D01*
X200431823Y-75251636D01*
X200454260Y-75243718D01*
X200538380Y-75215846D01*
X200611582Y-75196379D01*
X200686279Y-75183799D01*
X200774885Y-75176584D01*
X200889811Y-75173216D01*
X201038460Y-75172186D01*
X201208571Y-75173410D01*
X201338728Y-75178587D01*
X201439688Y-75188620D01*
X201522207Y-75204412D01*
X201565510Y-75216459D01*
X201711560Y-75261619D01*
X202147338Y-75261619D01*
X202022710Y-75187058D01*
X201914760Y-75132167D01*
X201914760Y-74847840D01*
X201915582Y-74724563D01*
X201918681Y-74645248D01*
X201925007Y-74603076D01*
X201935510Y-74591227D01*
X201949183Y-74600707D01*
X201974094Y-74630531D01*
X202025561Y-74694308D01*
X202098789Y-74786020D01*
X202188983Y-74899647D01*
X202291349Y-75029171D01*
X202363294Y-75120500D01*
X202608473Y-75432165D01*
X202824044Y-75706280D01*
X203011842Y-75945194D01*
X203173699Y-76151258D01*
X203311450Y-76326821D01*
X203426928Y-76474234D01*
X203521967Y-76595847D01*
X203598400Y-76694011D01*
X203658061Y-76771075D01*
X203702783Y-76829390D01*
X203734401Y-76871305D01*
X203754747Y-76899172D01*
X203765655Y-76915341D01*
X203768959Y-76922161D01*
X203768960Y-76922217D01*
X204023568Y-76922217D01*
X203964886Y-76842848D01*
X203878799Y-76729385D01*
X203778710Y-76599892D01*
X203700107Y-76499609D01*
X203598994Y-76371319D01*
X203472231Y-76210450D01*
X203325595Y-76024336D01*
X203164864Y-75820309D01*
X202995814Y-75605703D01*
X202824222Y-75387851D01*
X202655866Y-75174087D01*
X202593708Y-75095159D01*
X202445393Y-74907734D01*
X202305662Y-74732909D01*
X202177824Y-74574698D01*
X202065190Y-74437117D01*
X201971066Y-74324180D01*
X201898764Y-74239903D01*
X201851593Y-74188301D01*
X201833794Y-74173140D01*
X201785454Y-74183494D01*
G36*
X199666405Y-77259746D02*
G01*
X199564361Y-77307351D01*
X199470500Y-77373060D01*
X199406716Y-77442006D01*
X199359787Y-77553689D01*
X199347924Y-77681553D01*
X199371133Y-77805808D01*
X199406597Y-77877620D01*
X199496193Y-77972459D01*
X199610261Y-78037918D01*
X199734309Y-78068285D01*
X199853843Y-78057848D01*
X199859556Y-78056117D01*
X199987281Y-77992876D01*
X200083662Y-77891270D01*
X200106556Y-77854118D01*
X200154012Y-77727641D01*
X200153196Y-77660500D01*
X199984360Y-77660500D01*
X199963094Y-77759822D01*
X199907087Y-77834136D01*
X199828030Y-77879026D01*
X199737612Y-77890082D01*
X199647523Y-77862891D01*
X199584310Y-77811510D01*
X199535117Y-77724757D01*
X199527582Y-77635069D01*
X199554710Y-77551642D01*
X199609507Y-77483671D01*
X199684979Y-77440351D01*
X199774132Y-77430879D01*
X199854754Y-77455951D01*
X199939496Y-77521281D01*
X199979799Y-77609055D01*
X199984360Y-77660500D01*
X200153196Y-77660500D01*
X200152461Y-77600160D01*
X200103671Y-77468984D01*
X200033080Y-77376180D01*
X199935773Y-77300226D01*
X199828762Y-77252295D01*
X199757147Y-77241400D01*
X199666405Y-77259746D01*
G37*
X199666405Y-77259746D02*
X199564361Y-77307351D01*
X199470500Y-77373060D01*
X199406716Y-77442006D01*
X199359787Y-77553689D01*
X199347924Y-77681553D01*
X199371133Y-77805808D01*
X199406597Y-77877620D01*
X199496193Y-77972459D01*
X199610261Y-78037918D01*
X199734309Y-78068285D01*
X199853843Y-78057848D01*
X199859556Y-78056117D01*
X199987281Y-77992876D01*
X200083662Y-77891270D01*
X200106556Y-77854118D01*
X200154012Y-77727641D01*
X200153196Y-77660500D01*
X199984360Y-77660500D01*
X199963094Y-77759822D01*
X199907087Y-77834136D01*
X199828030Y-77879026D01*
X199737612Y-77890082D01*
X199647523Y-77862891D01*
X199584310Y-77811510D01*
X199535117Y-77724757D01*
X199527582Y-77635069D01*
X199554710Y-77551642D01*
X199609507Y-77483671D01*
X199684979Y-77440351D01*
X199774132Y-77430879D01*
X199854754Y-77455951D01*
X199939496Y-77521281D01*
X199979799Y-77609055D01*
X199984360Y-77660500D01*
X200153196Y-77660500D01*
X200152461Y-77600160D01*
X200103671Y-77468984D01*
X200033080Y-77376180D01*
X199935773Y-77300226D01*
X199828762Y-77252295D01*
X199757147Y-77241400D01*
X199666405Y-77259746D01*
D11*
%TO.C,D4*%
X205837840Y-71829980D02*
X206487840Y-71829980D01*
X205837840Y-72479980D02*
X205837840Y-71829980D01*
%TO.C,D3*%
X205855620Y-90877440D02*
X206505620Y-90877440D01*
X205855620Y-91527440D02*
X205855620Y-90877440D01*
%TO.C,D4*%
D12*
X209968055Y-72977000D02*
X209968055Y-71977000D01*
X209729960Y-71977000D01*
X209587102Y-72024620D01*
X209491864Y-72119858D01*
X209444245Y-72215096D01*
X209396626Y-72405572D01*
X209396626Y-72548429D01*
X209444245Y-72738905D01*
X209491864Y-72834143D01*
X209587102Y-72929381D01*
X209729960Y-72977000D01*
X209968055Y-72977000D01*
X208539483Y-72310334D02*
X208539483Y-72977000D01*
X208777579Y-71929381D02*
X209015674Y-72643667D01*
X208396626Y-72643667D01*
D13*
X207527125Y-72365694D02*
X207698554Y-72365694D01*
X207612840Y-72365694D02*
X207612840Y-72065694D01*
X207641411Y-72108551D01*
X207669982Y-72137122D01*
X207698554Y-72151408D01*
%TO.C,D3*%
D12*
X210224595Y-92402920D02*
X210224595Y-91402920D01*
X209986500Y-91402920D01*
X209843642Y-91450540D01*
X209748404Y-91545778D01*
X209700785Y-91641016D01*
X209653166Y-91831492D01*
X209653166Y-91974349D01*
X209700785Y-92164825D01*
X209748404Y-92260063D01*
X209843642Y-92355301D01*
X209986500Y-92402920D01*
X210224595Y-92402920D01*
X209319833Y-91402920D02*
X208700785Y-91402920D01*
X209034119Y-91783873D01*
X208891261Y-91783873D01*
X208796023Y-91831492D01*
X208748404Y-91879111D01*
X208700785Y-91974349D01*
X208700785Y-92212444D01*
X208748404Y-92307682D01*
X208796023Y-92355301D01*
X208891261Y-92402920D01*
X209176976Y-92402920D01*
X209272214Y-92355301D01*
X209319833Y-92307682D01*
D13*
X207544905Y-91413154D02*
X207716334Y-91413154D01*
X207630620Y-91413154D02*
X207630620Y-91113154D01*
X207659191Y-91156011D01*
X207687762Y-91184582D01*
X207716334Y-91198868D01*
%TO.C,SW2*%
D12*
X205493453Y-66223781D02*
X205350596Y-66271400D01*
X205112500Y-66271400D01*
X205017262Y-66223781D01*
X204969643Y-66176162D01*
X204922024Y-66080924D01*
X204922024Y-65985686D01*
X204969643Y-65890448D01*
X205017262Y-65842829D01*
X205112500Y-65795210D01*
X205302977Y-65747591D01*
X205398215Y-65699972D01*
X205445834Y-65652353D01*
X205493453Y-65557115D01*
X205493453Y-65461877D01*
X205445834Y-65366639D01*
X205398215Y-65319020D01*
X205302977Y-65271400D01*
X205064881Y-65271400D01*
X204922024Y-65319020D01*
X204588691Y-65271400D02*
X204350596Y-66271400D01*
X204160120Y-65557115D01*
X203969643Y-66271400D01*
X203731548Y-65271400D01*
X203398215Y-65366639D02*
X203350596Y-65319020D01*
X203255358Y-65271400D01*
X203017262Y-65271400D01*
X202922024Y-65319020D01*
X202874405Y-65366639D01*
X202826786Y-65461877D01*
X202826786Y-65557115D01*
X202874405Y-65699972D01*
X203445834Y-66271400D01*
X202826786Y-66271400D01*
%TO.C,SW1*%
X205374073Y-85309341D02*
X205231216Y-85356960D01*
X204993120Y-85356960D01*
X204897882Y-85309341D01*
X204850263Y-85261722D01*
X204802644Y-85166484D01*
X204802644Y-85071246D01*
X204850263Y-84976008D01*
X204897882Y-84928389D01*
X204993120Y-84880770D01*
X205183597Y-84833151D01*
X205278835Y-84785532D01*
X205326454Y-84737913D01*
X205374073Y-84642675D01*
X205374073Y-84547437D01*
X205326454Y-84452199D01*
X205278835Y-84404580D01*
X205183597Y-84356960D01*
X204945501Y-84356960D01*
X204802644Y-84404580D01*
X204469311Y-84356960D02*
X204231216Y-85356960D01*
X204040740Y-84642675D01*
X203850263Y-85356960D01*
X203612168Y-84356960D01*
X202707406Y-85356960D02*
X203278835Y-85356960D01*
X202993120Y-85356960D02*
X202993120Y-84356960D01*
X203088359Y-84499818D01*
X203183597Y-84595056D01*
X203278835Y-84642675D01*
%TD*%
%LPC*%
D14*
%TO.C,D4*%
X207137840Y-72229980D03*
X207137840Y-73129980D03*
X206237840Y-73129980D03*
X206237840Y-72229980D03*
%TD*%
%TO.C,D3*%
X207155620Y-91277440D03*
X207155620Y-92177440D03*
X206255620Y-92177440D03*
X206255620Y-91277440D03*
%TD*%
D15*
%TO.C,J3*%
X215884760Y-75176380D03*
X208264760Y-82796380D03*
X215884760Y-77716380D03*
X208264760Y-80256380D03*
X215884760Y-80256380D03*
X208264760Y-77716380D03*
X215884760Y-82796380D03*
D16*
X208264760Y-75176380D03*
%TD*%
D17*
%TO.C,SW2*%
X201622660Y-68600320D03*
X211782660Y-68600320D03*
D18*
X206702660Y-68600320D03*
D19*
X210512660Y-66060320D03*
X204162660Y-63520320D03*
%TD*%
D17*
%TO.C,SW1*%
X201632820Y-87647780D03*
X211792820Y-87647780D03*
D18*
X206712820Y-87647780D03*
D19*
X210522820Y-85107780D03*
X204172820Y-82567780D03*
%TD*%
D20*
%TO.C,J1*%
X209995040Y-93114080D03*
X203395040Y-93114080D03*
D21*
X211305040Y-92554080D03*
X202085040Y-92554080D03*
X202085040Y-97054080D03*
X211305040Y-97054080D03*
%TD*%
D22*
%TO.C,SW3*%
X208625440Y-59405520D03*
X215125440Y-59405520D03*
%TD*%
D23*
%TO.C,J2*%
X203065380Y-58988960D03*
D24*
X200525380Y-58988960D03*
X197985380Y-58988960D03*
%TD*%
M02*
