M48
; DRILL file {KiCad (5.1.10)-1} date 08/29/21 23:35:32
; FORMAT={-:-/ absolute / metric / decimal}
; #@! TF.CreationDate,2021-08-29T23:35:32-04:00
; #@! TF.GenerationSoftware,Kicad,Pcbnew,(5.1.10)-1
; #@! TF.FileFunction,Plated,1,2,PTH
FMAT,2
METRIC
T1C0.400
T2C0.600
T3C0.700
T4C0.800
T5C1.300
T6C1.500
%
G90
G05
T1
X172.669Y-68.428
X173.787Y-77.699
X176.479Y-66.269
X178.918Y-85.928
X182.194Y-94.336
X183.921Y-90.424
X183.998Y-81.051
X183.998Y-86.766
X184.506Y-67.945
X185.433Y-78.819
X185.826Y-65.964
X185.953Y-83.541
X186.906Y-78.831
X187.655Y-71.704
X187.79Y-90.084
X188.003Y-76.106
X188.798Y-87.554
X189.255Y-93.383
X189.967Y-86.487
T3
X172.72Y-63.5
X175.26Y-63.5
X177.8Y-63.5
T4
X172.949Y-74.219
X172.949Y-81.839
X175.489Y-74.219
X175.489Y-81.839
X178.029Y-74.219
X178.029Y-81.839
X180.569Y-74.219
X180.569Y-81.839
T5
X182.856Y-62.56
X189.356Y-62.56
T6
X177.216Y-67.945
X177.216Y-86.995
X183.566Y-65.405
X183.566Y-84.455
T2
G00X176.454Y-93.103
M15
G01X176.454Y-94.103
M16
G05
G00X176.454Y-97.603
M15
G01X176.454Y-98.603
M16
G05
G00X185.674Y-93.103
M15
G01X185.674Y-94.103
M16
G05
G00X185.674Y-97.603
M15
G01X185.674Y-98.603
M16
G05
T0
M30
