%FSLAX45Y45*%
G04 Gerber Fmt 4.5, Leading zero omitted, Abs format (unit mm)*
G04 Created by KiCad (PCBNEW (5.1.10)-1) date 2021-08-29 12:19:48*
%MOMM*%
%LPD*%
G01*
G04 APERTURE LIST*
%TA.AperFunction,Profile*%
%ADD10C,0.050000*%
%TD*%
%ADD11C,0.200000*%
%ADD12C,0.300000*%
G04 APERTURE END LIST*
D10*
X19062700Y-9893300D02*
G75*
G02*
X18935700Y-10020300I-127000J0D01*
G01*
X18935700Y-6083300D02*
G75*
G02*
X19062700Y-6198233I0J-127633D01*
G01*
X17145000Y-6146800D02*
G75*
G02*
X17208500Y-6083300I63500J0D01*
G01*
X17272000Y-10020300D02*
G75*
G02*
X17145000Y-9893300I0J127000D01*
G01*
X17327880Y-10020300D02*
X17272000Y-10020300D01*
X17145000Y-6146800D02*
X17145000Y-9893300D01*
X18935700Y-6083300D02*
X17208500Y-6083300D01*
X19062700Y-9893300D02*
X19062700Y-6198233D01*
X17327880Y-10020300D02*
X18935700Y-10020300D01*
D11*
X17233966Y-6158804D02*
X17273966Y-6198804D01*
X17273966Y-6158804D02*
X17233966Y-6198804D01*
X17302800Y-6888800D02*
X17342800Y-6928800D01*
X17342800Y-6888800D02*
X17302800Y-6928800D01*
X17853980Y-6677980D02*
X17893980Y-6717980D01*
X17893980Y-6677980D02*
X17853980Y-6717980D01*
X17871760Y-8572820D02*
X17911760Y-8612820D01*
X17911760Y-8572820D02*
X17871760Y-8612820D01*
X17887000Y-6431600D02*
X17927000Y-6471600D01*
X17927000Y-6431600D02*
X17887000Y-6471600D01*
X18001300Y-7594920D02*
X18041300Y-7634920D01*
X18041300Y-7594920D02*
X18001300Y-7634920D01*
X18069880Y-7970840D02*
X18109880Y-8010840D01*
X18109880Y-7970840D02*
X18069880Y-8010840D01*
X18163860Y-6406200D02*
X18203860Y-6446200D01*
X18203860Y-6406200D02*
X18163860Y-6446200D01*
X18199420Y-9413560D02*
X18239420Y-9453560D01*
X18239420Y-9413560D02*
X18199420Y-9453560D01*
X18344200Y-7168200D02*
X18384200Y-7208200D01*
X18384200Y-7168200D02*
X18344200Y-7208200D01*
X18372140Y-9022400D02*
X18412140Y-9062400D01*
X18412140Y-9022400D02*
X18372140Y-9062400D01*
X18379760Y-8656640D02*
X18419760Y-8696640D01*
X18419760Y-8656640D02*
X18379760Y-8696640D01*
X18405160Y-8120700D02*
X18445160Y-8160700D01*
X18445160Y-8120700D02*
X18405160Y-8160700D01*
X18469168Y-6812600D02*
X18509168Y-6852600D01*
X18509168Y-6812600D02*
X18469168Y-6852600D01*
X18523270Y-7861874D02*
X18563270Y-7901874D01*
X18563270Y-7861874D02*
X18523270Y-7901874D01*
X18575340Y-8334060D02*
X18615340Y-8374060D01*
X18615340Y-8334060D02*
X18575340Y-8374060D01*
X18600740Y-7605080D02*
X18640740Y-7645080D01*
X18640740Y-7605080D02*
X18600740Y-7645080D01*
X18670590Y-7863144D02*
X18710590Y-7903144D01*
X18710590Y-7863144D02*
X18670590Y-7903144D01*
X18745520Y-7150420D02*
X18785520Y-7190420D01*
X18785520Y-7150420D02*
X18745520Y-7190420D01*
X18758982Y-8988364D02*
X18798982Y-9028364D01*
X18798982Y-8988364D02*
X18758982Y-9028364D01*
X18780318Y-7590602D02*
X18820318Y-7630602D01*
X18820318Y-7590602D02*
X18780318Y-7630602D01*
X18859820Y-8735380D02*
X18899820Y-8775380D01*
X18899820Y-8735380D02*
X18859820Y-8775380D01*
X18905540Y-9318310D02*
X18945540Y-9358310D01*
X18945540Y-9318310D02*
X18905540Y-9358310D01*
X18941100Y-6413820D02*
X18981100Y-6453820D01*
X18981100Y-6413820D02*
X18941100Y-6453820D01*
X18953800Y-7541580D02*
X18993800Y-7581580D01*
X18993800Y-7541580D02*
X18953800Y-7581580D01*
X18976660Y-8628700D02*
X19016660Y-8668700D01*
X19016660Y-8628700D02*
X18976660Y-8668700D01*
X17675390Y-9360310D02*
G75*
G03*
X17675390Y-9360310I-30000J0D01*
G01*
X17625390Y-9310310D02*
X17625390Y-9410310D01*
X17665390Y-9310310D02*
X17665390Y-9410310D01*
X17625390Y-9410310D02*
G75*
G03*
X17665390Y-9410310I20000J0D01*
G01*
X17665390Y-9310310D02*
G75*
G03*
X17625390Y-9310310I-20000J0D01*
G01*
X17675390Y-9810310D02*
G75*
G03*
X17675390Y-9810310I-30000J0D01*
G01*
X17625390Y-9760310D02*
X17625390Y-9860310D01*
X17665390Y-9760310D02*
X17665390Y-9860310D01*
X17625390Y-9860310D02*
G75*
G03*
X17665390Y-9860310I20000J0D01*
G01*
X17665390Y-9760310D02*
G75*
G03*
X17625390Y-9760310I-20000J0D01*
G01*
X18597390Y-9360310D02*
G75*
G03*
X18597390Y-9360310I-30000J0D01*
G01*
X18547390Y-9310310D02*
X18547390Y-9410310D01*
X18587390Y-9310310D02*
X18587390Y-9410310D01*
X18547390Y-9410310D02*
G75*
G03*
X18587390Y-9410310I20000J0D01*
G01*
X18587390Y-9310310D02*
G75*
G03*
X18547390Y-9310310I-20000J0D01*
G01*
X18597390Y-9810310D02*
G75*
G03*
X18597390Y-9810310I-30000J0D01*
G01*
X18547390Y-9760310D02*
X18547390Y-9860310D01*
X18587390Y-9760310D02*
X18587390Y-9860310D01*
X18547390Y-9860310D02*
G75*
G03*
X18587390Y-9860310I20000J0D01*
G01*
X18587390Y-9760310D02*
G75*
G03*
X18547390Y-9760310I-20000J0D01*
G01*
X17272000Y-6315000D02*
X17272000Y-6385000D01*
X17237000Y-6350000D02*
X17307000Y-6350000D01*
X17272000Y-7331000D02*
X17272000Y-7401000D01*
X17237000Y-7366000D02*
X17307000Y-7366000D01*
X17526000Y-6315000D02*
X17526000Y-6385000D01*
X17491000Y-6350000D02*
X17561000Y-6350000D01*
X17526000Y-7331000D02*
X17526000Y-7401000D01*
X17491000Y-7366000D02*
X17561000Y-7366000D01*
X17780000Y-6315000D02*
X17780000Y-6385000D01*
X17745000Y-6350000D02*
X17815000Y-6350000D01*
X17780000Y-7331000D02*
X17780000Y-7401000D01*
X17745000Y-7366000D02*
X17815000Y-7366000D01*
X18034000Y-6315000D02*
X18034000Y-6385000D01*
X17999000Y-6350000D02*
X18069000Y-6350000D01*
X18034000Y-7331000D02*
X18034000Y-7401000D01*
X17999000Y-7366000D02*
X18069000Y-7366000D01*
X18331542Y-6301982D02*
X18331542Y-6210058D01*
X18239618Y-6210058D01*
X18239618Y-6301982D01*
X18331542Y-6301982D01*
X18981542Y-6301982D02*
X18981542Y-6210058D01*
X18889618Y-6210058D01*
X18889618Y-6301982D01*
X18981542Y-6301982D01*
X17721580Y-6869500D02*
X17796580Y-6794500D01*
X17721580Y-6719500D01*
X17646580Y-6794500D01*
X17721580Y-6869500D01*
X17721580Y-8774500D02*
X17796580Y-8699500D01*
X17721580Y-8624500D01*
X17646580Y-8699500D01*
X17721580Y-8774500D01*
X18356580Y-6615500D02*
X18431580Y-6540500D01*
X18356580Y-6465500D01*
X18281580Y-6540500D01*
X18356580Y-6615500D01*
X18356580Y-8520500D02*
X18431580Y-8445500D01*
X18356580Y-8370500D01*
X18281580Y-8445500D01*
X18356580Y-8520500D01*
D12*
X17428928Y-10488514D02*
X17428928Y-10188514D01*
X17500357Y-10188514D01*
X17543214Y-10202800D01*
X17571786Y-10231372D01*
X17586071Y-10259943D01*
X17600357Y-10317086D01*
X17600357Y-10359943D01*
X17586071Y-10417086D01*
X17571786Y-10445657D01*
X17543214Y-10474229D01*
X17500357Y-10488514D01*
X17428928Y-10488514D01*
X17728928Y-10488514D02*
X17728928Y-10288514D01*
X17728928Y-10345657D02*
X17743214Y-10317086D01*
X17757500Y-10302800D01*
X17786071Y-10288514D01*
X17814643Y-10288514D01*
X17914643Y-10488514D02*
X17914643Y-10288514D01*
X17914643Y-10188514D02*
X17900357Y-10202800D01*
X17914643Y-10217086D01*
X17928928Y-10202800D01*
X17914643Y-10188514D01*
X17914643Y-10217086D01*
X18100357Y-10488514D02*
X18071786Y-10474229D01*
X18057500Y-10445657D01*
X18057500Y-10188514D01*
X18257500Y-10488514D02*
X18228928Y-10474229D01*
X18214643Y-10445657D01*
X18214643Y-10188514D01*
X18600357Y-10488514D02*
X18600357Y-10188514D01*
X18700357Y-10402800D01*
X18800357Y-10188514D01*
X18800357Y-10488514D01*
X19071786Y-10488514D02*
X19071786Y-10331372D01*
X19057500Y-10302800D01*
X19028928Y-10288514D01*
X18971786Y-10288514D01*
X18943214Y-10302800D01*
X19071786Y-10474229D02*
X19043214Y-10488514D01*
X18971786Y-10488514D01*
X18943214Y-10474229D01*
X18928928Y-10445657D01*
X18928928Y-10417086D01*
X18943214Y-10388514D01*
X18971786Y-10374229D01*
X19043214Y-10374229D01*
X19071786Y-10359943D01*
X19214643Y-10288514D02*
X19214643Y-10588514D01*
X19214643Y-10302800D02*
X19243214Y-10288514D01*
X19300357Y-10288514D01*
X19328928Y-10302800D01*
X19343214Y-10317086D01*
X19357500Y-10345657D01*
X19357500Y-10431372D01*
X19343214Y-10459943D01*
X19328928Y-10474229D01*
X19300357Y-10488514D01*
X19243214Y-10488514D01*
X19214643Y-10474229D01*
X19486071Y-10459943D02*
X19500357Y-10474229D01*
X19486071Y-10488514D01*
X19471786Y-10474229D01*
X19486071Y-10459943D01*
X19486071Y-10488514D01*
X19486071Y-10302800D02*
X19500357Y-10317086D01*
X19486071Y-10331372D01*
X19471786Y-10317086D01*
X19486071Y-10302800D01*
X19486071Y-10331372D01*
X17102500Y-10962800D02*
X17142500Y-11002800D01*
X17142500Y-10962800D02*
X17102500Y-11002800D01*
X17486071Y-10818514D02*
X17514643Y-10818514D01*
X17543214Y-10832800D01*
X17557500Y-10847086D01*
X17571786Y-10875657D01*
X17586071Y-10932800D01*
X17586071Y-11004229D01*
X17571786Y-11061372D01*
X17557500Y-11089943D01*
X17543214Y-11104229D01*
X17514643Y-11118514D01*
X17486071Y-11118514D01*
X17457500Y-11104229D01*
X17443214Y-11089943D01*
X17428928Y-11061372D01*
X17414643Y-11004229D01*
X17414643Y-10932800D01*
X17428928Y-10875657D01*
X17443214Y-10847086D01*
X17457500Y-10832800D01*
X17486071Y-10818514D01*
X17714643Y-11089943D02*
X17728928Y-11104229D01*
X17714643Y-11118514D01*
X17700357Y-11104229D01*
X17714643Y-11089943D01*
X17714643Y-11118514D01*
X17986071Y-10918514D02*
X17986071Y-11118514D01*
X17914643Y-10804229D02*
X17843214Y-11018514D01*
X18028928Y-11018514D01*
X18200357Y-10818514D02*
X18228928Y-10818514D01*
X18257500Y-10832800D01*
X18271786Y-10847086D01*
X18286071Y-10875657D01*
X18300357Y-10932800D01*
X18300357Y-11004229D01*
X18286071Y-11061372D01*
X18271786Y-11089943D01*
X18257500Y-11104229D01*
X18228928Y-11118514D01*
X18200357Y-11118514D01*
X18171786Y-11104229D01*
X18157500Y-11089943D01*
X18143214Y-11061372D01*
X18128928Y-11004229D01*
X18128928Y-10932800D01*
X18143214Y-10875657D01*
X18157500Y-10847086D01*
X18171786Y-10832800D01*
X18200357Y-10818514D01*
X18486071Y-10818514D02*
X18514643Y-10818514D01*
X18543214Y-10832800D01*
X18557500Y-10847086D01*
X18571786Y-10875657D01*
X18586071Y-10932800D01*
X18586071Y-11004229D01*
X18571786Y-11061372D01*
X18557500Y-11089943D01*
X18543214Y-11104229D01*
X18514643Y-11118514D01*
X18486071Y-11118514D01*
X18457500Y-11104229D01*
X18443214Y-11089943D01*
X18428928Y-11061372D01*
X18414643Y-11004229D01*
X18414643Y-10932800D01*
X18428928Y-10875657D01*
X18443214Y-10847086D01*
X18457500Y-10832800D01*
X18486071Y-10818514D01*
X18714643Y-11118514D02*
X18714643Y-10918514D01*
X18714643Y-10947086D02*
X18728928Y-10932800D01*
X18757500Y-10918514D01*
X18800357Y-10918514D01*
X18828928Y-10932800D01*
X18843214Y-10961372D01*
X18843214Y-11118514D01*
X18843214Y-10961372D02*
X18857500Y-10932800D01*
X18886071Y-10918514D01*
X18928928Y-10918514D01*
X18957500Y-10932800D01*
X18971786Y-10961372D01*
X18971786Y-11118514D01*
X19114643Y-11118514D02*
X19114643Y-10918514D01*
X19114643Y-10947086D02*
X19128928Y-10932800D01*
X19157500Y-10918514D01*
X19200357Y-10918514D01*
X19228928Y-10932800D01*
X19243214Y-10961372D01*
X19243214Y-11118514D01*
X19243214Y-10961372D02*
X19257500Y-10932800D01*
X19286071Y-10918514D01*
X19328928Y-10918514D01*
X19357500Y-10932800D01*
X19371786Y-10961372D01*
X19371786Y-11118514D01*
X19957500Y-10804229D02*
X19700357Y-11189943D01*
X20343214Y-10818514D02*
X20371786Y-10818514D01*
X20400357Y-10832800D01*
X20414643Y-10847086D01*
X20428928Y-10875657D01*
X20443214Y-10932800D01*
X20443214Y-11004229D01*
X20428928Y-11061372D01*
X20414643Y-11089943D01*
X20400357Y-11104229D01*
X20371786Y-11118514D01*
X20343214Y-11118514D01*
X20314643Y-11104229D01*
X20300357Y-11089943D01*
X20286071Y-11061372D01*
X20271786Y-11004229D01*
X20271786Y-10932800D01*
X20286071Y-10875657D01*
X20300357Y-10847086D01*
X20314643Y-10832800D01*
X20343214Y-10818514D01*
X20571786Y-11089943D02*
X20586071Y-11104229D01*
X20571786Y-11118514D01*
X20557500Y-11104229D01*
X20571786Y-11089943D01*
X20571786Y-11118514D01*
X20771786Y-10818514D02*
X20800357Y-10818514D01*
X20828928Y-10832800D01*
X20843214Y-10847086D01*
X20857500Y-10875657D01*
X20871786Y-10932800D01*
X20871786Y-11004229D01*
X20857500Y-11061372D01*
X20843214Y-11089943D01*
X20828928Y-11104229D01*
X20800357Y-11118514D01*
X20771786Y-11118514D01*
X20743214Y-11104229D01*
X20728928Y-11089943D01*
X20714643Y-11061372D01*
X20700357Y-11004229D01*
X20700357Y-10932800D01*
X20714643Y-10875657D01*
X20728928Y-10847086D01*
X20743214Y-10832800D01*
X20771786Y-10818514D01*
X21157500Y-11118514D02*
X20986071Y-11118514D01*
X21071786Y-11118514D02*
X21071786Y-10818514D01*
X21043214Y-10861372D01*
X21014643Y-10889943D01*
X20986071Y-10904229D01*
X21428928Y-10818514D02*
X21286071Y-10818514D01*
X21271786Y-10961372D01*
X21286071Y-10947086D01*
X21314643Y-10932800D01*
X21386071Y-10932800D01*
X21414643Y-10947086D01*
X21428928Y-10961372D01*
X21443214Y-10989943D01*
X21443214Y-11061372D01*
X21428928Y-11089943D01*
X21414643Y-11104229D01*
X21386071Y-11118514D01*
X21314643Y-11118514D01*
X21286071Y-11104229D01*
X21271786Y-11089943D01*
X21543214Y-10818514D02*
X21743214Y-10818514D01*
X21614643Y-11118514D01*
X21843214Y-10818514D02*
X21843214Y-10875657D01*
X21957500Y-10818514D02*
X21957500Y-10875657D01*
X22400357Y-11232800D02*
X22386071Y-11218514D01*
X22357500Y-11175657D01*
X22343214Y-11147086D01*
X22328928Y-11104229D01*
X22314643Y-11032800D01*
X22314643Y-10975657D01*
X22328928Y-10904229D01*
X22343214Y-10861372D01*
X22357500Y-10832800D01*
X22386071Y-10789943D01*
X22400357Y-10775657D01*
X22500357Y-10847086D02*
X22514643Y-10832800D01*
X22543214Y-10818514D01*
X22614643Y-10818514D01*
X22643214Y-10832800D01*
X22657500Y-10847086D01*
X22671786Y-10875657D01*
X22671786Y-10904229D01*
X22657500Y-10947086D01*
X22486071Y-11118514D01*
X22671786Y-11118514D01*
X22928928Y-10818514D02*
X22871786Y-10818514D01*
X22843214Y-10832800D01*
X22828928Y-10847086D01*
X22800357Y-10889943D01*
X22786071Y-10947086D01*
X22786071Y-11061372D01*
X22800357Y-11089943D01*
X22814643Y-11104229D01*
X22843214Y-11118514D01*
X22900357Y-11118514D01*
X22928928Y-11104229D01*
X22943214Y-11089943D01*
X22957500Y-11061372D01*
X22957500Y-10989943D01*
X22943214Y-10961372D01*
X22928928Y-10947086D01*
X22900357Y-10932800D01*
X22843214Y-10932800D01*
X22814643Y-10947086D01*
X22800357Y-10961372D01*
X22786071Y-10989943D01*
X23314643Y-11118514D02*
X23314643Y-10818514D01*
X23443214Y-11118514D02*
X23443214Y-10961372D01*
X23428928Y-10932800D01*
X23400357Y-10918514D01*
X23357500Y-10918514D01*
X23328928Y-10932800D01*
X23314643Y-10947086D01*
X23628928Y-11118514D02*
X23600357Y-11104229D01*
X23586071Y-11089943D01*
X23571786Y-11061372D01*
X23571786Y-10975657D01*
X23586071Y-10947086D01*
X23600357Y-10932800D01*
X23628928Y-10918514D01*
X23671786Y-10918514D01*
X23700357Y-10932800D01*
X23714643Y-10947086D01*
X23728928Y-10975657D01*
X23728928Y-11061372D01*
X23714643Y-11089943D01*
X23700357Y-11104229D01*
X23671786Y-11118514D01*
X23628928Y-11118514D01*
X23900357Y-11118514D02*
X23871786Y-11104229D01*
X23857500Y-11075657D01*
X23857500Y-10818514D01*
X24128928Y-11104229D02*
X24100357Y-11118514D01*
X24043214Y-11118514D01*
X24014643Y-11104229D01*
X24000357Y-11075657D01*
X24000357Y-10961372D01*
X24014643Y-10932800D01*
X24043214Y-10918514D01*
X24100357Y-10918514D01*
X24128928Y-10932800D01*
X24143214Y-10961372D01*
X24143214Y-10989943D01*
X24000357Y-11018514D01*
X24257500Y-11104229D02*
X24286071Y-11118514D01*
X24343214Y-11118514D01*
X24371786Y-11104229D01*
X24386071Y-11075657D01*
X24386071Y-11061372D01*
X24371786Y-11032800D01*
X24343214Y-11018514D01*
X24300357Y-11018514D01*
X24271786Y-11004229D01*
X24257500Y-10975657D01*
X24257500Y-10961372D01*
X24271786Y-10932800D01*
X24300357Y-10918514D01*
X24343214Y-10918514D01*
X24371786Y-10932800D01*
X24486071Y-11232800D02*
X24500357Y-11218514D01*
X24528928Y-11175657D01*
X24543214Y-11147086D01*
X24557500Y-11104229D01*
X24571786Y-11032800D01*
X24571786Y-10975657D01*
X24557500Y-10904229D01*
X24543214Y-10861372D01*
X24528928Y-10832800D01*
X24500357Y-10789943D01*
X24486071Y-10775657D01*
X17142500Y-11378800D02*
G75*
G03*
X17142500Y-11378800I-30000J0D01*
G01*
X17486071Y-11214514D02*
X17514643Y-11214514D01*
X17543214Y-11228800D01*
X17557500Y-11243086D01*
X17571786Y-11271657D01*
X17586071Y-11328800D01*
X17586071Y-11400229D01*
X17571786Y-11457371D01*
X17557500Y-11485943D01*
X17543214Y-11500229D01*
X17514643Y-11514514D01*
X17486071Y-11514514D01*
X17457500Y-11500229D01*
X17443214Y-11485943D01*
X17428928Y-11457371D01*
X17414643Y-11400229D01*
X17414643Y-11328800D01*
X17428928Y-11271657D01*
X17443214Y-11243086D01*
X17457500Y-11228800D01*
X17486071Y-11214514D01*
X17714643Y-11485943D02*
X17728928Y-11500229D01*
X17714643Y-11514514D01*
X17700357Y-11500229D01*
X17714643Y-11485943D01*
X17714643Y-11514514D01*
X17986071Y-11214514D02*
X17928928Y-11214514D01*
X17900357Y-11228800D01*
X17886071Y-11243086D01*
X17857500Y-11285943D01*
X17843214Y-11343086D01*
X17843214Y-11457371D01*
X17857500Y-11485943D01*
X17871786Y-11500229D01*
X17900357Y-11514514D01*
X17957500Y-11514514D01*
X17986071Y-11500229D01*
X18000357Y-11485943D01*
X18014643Y-11457371D01*
X18014643Y-11385943D01*
X18000357Y-11357371D01*
X17986071Y-11343086D01*
X17957500Y-11328800D01*
X17900357Y-11328800D01*
X17871786Y-11343086D01*
X17857500Y-11357371D01*
X17843214Y-11385943D01*
X18200357Y-11214514D02*
X18228928Y-11214514D01*
X18257500Y-11228800D01*
X18271786Y-11243086D01*
X18286071Y-11271657D01*
X18300357Y-11328800D01*
X18300357Y-11400229D01*
X18286071Y-11457371D01*
X18271786Y-11485943D01*
X18257500Y-11500229D01*
X18228928Y-11514514D01*
X18200357Y-11514514D01*
X18171786Y-11500229D01*
X18157500Y-11485943D01*
X18143214Y-11457371D01*
X18128928Y-11400229D01*
X18128928Y-11328800D01*
X18143214Y-11271657D01*
X18157500Y-11243086D01*
X18171786Y-11228800D01*
X18200357Y-11214514D01*
X18486071Y-11214514D02*
X18514643Y-11214514D01*
X18543214Y-11228800D01*
X18557500Y-11243086D01*
X18571786Y-11271657D01*
X18586071Y-11328800D01*
X18586071Y-11400229D01*
X18571786Y-11457371D01*
X18557500Y-11485943D01*
X18543214Y-11500229D01*
X18514643Y-11514514D01*
X18486071Y-11514514D01*
X18457500Y-11500229D01*
X18443214Y-11485943D01*
X18428928Y-11457371D01*
X18414643Y-11400229D01*
X18414643Y-11328800D01*
X18428928Y-11271657D01*
X18443214Y-11243086D01*
X18457500Y-11228800D01*
X18486071Y-11214514D01*
X18714643Y-11514514D02*
X18714643Y-11314514D01*
X18714643Y-11343086D02*
X18728928Y-11328800D01*
X18757500Y-11314514D01*
X18800357Y-11314514D01*
X18828928Y-11328800D01*
X18843214Y-11357371D01*
X18843214Y-11514514D01*
X18843214Y-11357371D02*
X18857500Y-11328800D01*
X18886071Y-11314514D01*
X18928928Y-11314514D01*
X18957500Y-11328800D01*
X18971786Y-11357371D01*
X18971786Y-11514514D01*
X19114643Y-11514514D02*
X19114643Y-11314514D01*
X19114643Y-11343086D02*
X19128928Y-11328800D01*
X19157500Y-11314514D01*
X19200357Y-11314514D01*
X19228928Y-11328800D01*
X19243214Y-11357371D01*
X19243214Y-11514514D01*
X19243214Y-11357371D02*
X19257500Y-11328800D01*
X19286071Y-11314514D01*
X19328928Y-11314514D01*
X19357500Y-11328800D01*
X19371786Y-11357371D01*
X19371786Y-11514514D01*
X19957500Y-11200229D02*
X19700357Y-11585943D01*
X20343214Y-11214514D02*
X20371786Y-11214514D01*
X20400357Y-11228800D01*
X20414643Y-11243086D01*
X20428928Y-11271657D01*
X20443214Y-11328800D01*
X20443214Y-11400229D01*
X20428928Y-11457371D01*
X20414643Y-11485943D01*
X20400357Y-11500229D01*
X20371786Y-11514514D01*
X20343214Y-11514514D01*
X20314643Y-11500229D01*
X20300357Y-11485943D01*
X20286071Y-11457371D01*
X20271786Y-11400229D01*
X20271786Y-11328800D01*
X20286071Y-11271657D01*
X20300357Y-11243086D01*
X20314643Y-11228800D01*
X20343214Y-11214514D01*
X20571786Y-11485943D02*
X20586071Y-11500229D01*
X20571786Y-11514514D01*
X20557500Y-11500229D01*
X20571786Y-11485943D01*
X20571786Y-11514514D01*
X20771786Y-11214514D02*
X20800357Y-11214514D01*
X20828928Y-11228800D01*
X20843214Y-11243086D01*
X20857500Y-11271657D01*
X20871786Y-11328800D01*
X20871786Y-11400229D01*
X20857500Y-11457371D01*
X20843214Y-11485943D01*
X20828928Y-11500229D01*
X20800357Y-11514514D01*
X20771786Y-11514514D01*
X20743214Y-11500229D01*
X20728928Y-11485943D01*
X20714643Y-11457371D01*
X20700357Y-11400229D01*
X20700357Y-11328800D01*
X20714643Y-11271657D01*
X20728928Y-11243086D01*
X20743214Y-11228800D01*
X20771786Y-11214514D01*
X20986071Y-11243086D02*
X21000357Y-11228800D01*
X21028928Y-11214514D01*
X21100357Y-11214514D01*
X21128928Y-11228800D01*
X21143214Y-11243086D01*
X21157500Y-11271657D01*
X21157500Y-11300229D01*
X21143214Y-11343086D01*
X20971786Y-11514514D01*
X21157500Y-11514514D01*
X21257500Y-11214514D02*
X21443214Y-11214514D01*
X21343214Y-11328800D01*
X21386071Y-11328800D01*
X21414643Y-11343086D01*
X21428928Y-11357371D01*
X21443214Y-11385943D01*
X21443214Y-11457371D01*
X21428928Y-11485943D01*
X21414643Y-11500229D01*
X21386071Y-11514514D01*
X21300357Y-11514514D01*
X21271786Y-11500229D01*
X21257500Y-11485943D01*
X21700357Y-11214514D02*
X21643214Y-11214514D01*
X21614643Y-11228800D01*
X21600357Y-11243086D01*
X21571786Y-11285943D01*
X21557500Y-11343086D01*
X21557500Y-11457371D01*
X21571786Y-11485943D01*
X21586071Y-11500229D01*
X21614643Y-11514514D01*
X21671786Y-11514514D01*
X21700357Y-11500229D01*
X21714643Y-11485943D01*
X21728928Y-11457371D01*
X21728928Y-11385943D01*
X21714643Y-11357371D01*
X21700357Y-11343086D01*
X21671786Y-11328800D01*
X21614643Y-11328800D01*
X21586071Y-11343086D01*
X21571786Y-11357371D01*
X21557500Y-11385943D01*
X21843214Y-11214514D02*
X21843214Y-11271657D01*
X21957500Y-11214514D02*
X21957500Y-11271657D01*
X22400357Y-11628800D02*
X22386071Y-11614514D01*
X22357500Y-11571657D01*
X22343214Y-11543086D01*
X22328928Y-11500229D01*
X22314643Y-11428800D01*
X22314643Y-11371657D01*
X22328928Y-11300229D01*
X22343214Y-11257371D01*
X22357500Y-11228800D01*
X22386071Y-11185943D01*
X22400357Y-11171657D01*
X22571786Y-11214514D02*
X22600357Y-11214514D01*
X22628928Y-11228800D01*
X22643214Y-11243086D01*
X22657500Y-11271657D01*
X22671786Y-11328800D01*
X22671786Y-11400229D01*
X22657500Y-11457371D01*
X22643214Y-11485943D01*
X22628928Y-11500229D01*
X22600357Y-11514514D01*
X22571786Y-11514514D01*
X22543214Y-11500229D01*
X22528928Y-11485943D01*
X22514643Y-11457371D01*
X22500357Y-11400229D01*
X22500357Y-11328800D01*
X22514643Y-11271657D01*
X22528928Y-11243086D01*
X22543214Y-11228800D01*
X22571786Y-11214514D01*
X23028928Y-11514514D02*
X23028928Y-11214514D01*
X23157500Y-11514514D02*
X23157500Y-11357371D01*
X23143214Y-11328800D01*
X23114643Y-11314514D01*
X23071786Y-11314514D01*
X23043214Y-11328800D01*
X23028928Y-11343086D01*
X23343214Y-11514514D02*
X23314643Y-11500229D01*
X23300357Y-11485943D01*
X23286071Y-11457371D01*
X23286071Y-11371657D01*
X23300357Y-11343086D01*
X23314643Y-11328800D01*
X23343214Y-11314514D01*
X23386071Y-11314514D01*
X23414643Y-11328800D01*
X23428928Y-11343086D01*
X23443214Y-11371657D01*
X23443214Y-11457371D01*
X23428928Y-11485943D01*
X23414643Y-11500229D01*
X23386071Y-11514514D01*
X23343214Y-11514514D01*
X23614643Y-11514514D02*
X23586071Y-11500229D01*
X23571786Y-11471657D01*
X23571786Y-11214514D01*
X23843214Y-11500229D02*
X23814643Y-11514514D01*
X23757500Y-11514514D01*
X23728928Y-11500229D01*
X23714643Y-11471657D01*
X23714643Y-11357371D01*
X23728928Y-11328800D01*
X23757500Y-11314514D01*
X23814643Y-11314514D01*
X23843214Y-11328800D01*
X23857500Y-11357371D01*
X23857500Y-11385943D01*
X23714643Y-11414514D01*
X23971786Y-11500229D02*
X24000357Y-11514514D01*
X24057500Y-11514514D01*
X24086071Y-11500229D01*
X24100357Y-11471657D01*
X24100357Y-11457371D01*
X24086071Y-11428800D01*
X24057500Y-11414514D01*
X24014643Y-11414514D01*
X23986071Y-11400229D01*
X23971786Y-11371657D01*
X23971786Y-11357371D01*
X23986071Y-11328800D01*
X24014643Y-11314514D01*
X24057500Y-11314514D01*
X24086071Y-11328800D01*
X24457500Y-11400229D02*
X24686071Y-11400229D01*
X24571786Y-11514514D02*
X24571786Y-11285943D01*
X25186071Y-11314514D02*
X25186071Y-11514514D01*
X25114643Y-11200229D02*
X25043214Y-11414514D01*
X25228928Y-11414514D01*
X25557500Y-11500229D02*
X25586071Y-11514514D01*
X25643214Y-11514514D01*
X25671786Y-11500229D01*
X25686071Y-11471657D01*
X25686071Y-11457371D01*
X25671786Y-11428800D01*
X25643214Y-11414514D01*
X25600357Y-11414514D01*
X25571786Y-11400229D01*
X25557500Y-11371657D01*
X25557500Y-11357371D01*
X25571786Y-11328800D01*
X25600357Y-11314514D01*
X25643214Y-11314514D01*
X25671786Y-11328800D01*
X25857500Y-11514514D02*
X25828928Y-11500229D01*
X25814643Y-11471657D01*
X25814643Y-11214514D01*
X26014643Y-11514514D02*
X25986071Y-11500229D01*
X25971786Y-11485943D01*
X25957500Y-11457371D01*
X25957500Y-11371657D01*
X25971786Y-11343086D01*
X25986071Y-11328800D01*
X26014643Y-11314514D01*
X26057500Y-11314514D01*
X26086071Y-11328800D01*
X26100357Y-11343086D01*
X26114643Y-11371657D01*
X26114643Y-11457371D01*
X26100357Y-11485943D01*
X26086071Y-11500229D01*
X26057500Y-11514514D01*
X26014643Y-11514514D01*
X26200357Y-11314514D02*
X26314643Y-11314514D01*
X26243214Y-11214514D02*
X26243214Y-11471657D01*
X26257500Y-11500229D01*
X26286071Y-11514514D01*
X26314643Y-11514514D01*
X26400357Y-11500229D02*
X26428928Y-11514514D01*
X26486071Y-11514514D01*
X26514643Y-11500229D01*
X26528928Y-11471657D01*
X26528928Y-11457371D01*
X26514643Y-11428800D01*
X26486071Y-11414514D01*
X26443214Y-11414514D01*
X26414643Y-11400229D01*
X26400357Y-11371657D01*
X26400357Y-11357371D01*
X26414643Y-11328800D01*
X26443214Y-11314514D01*
X26486071Y-11314514D01*
X26514643Y-11328800D01*
X26628928Y-11628800D02*
X26643214Y-11614514D01*
X26671786Y-11571657D01*
X26686071Y-11543086D01*
X26700357Y-11500229D01*
X26714643Y-11428800D01*
X26714643Y-11371657D01*
X26700357Y-11300229D01*
X26686071Y-11257371D01*
X26671786Y-11228800D01*
X26643214Y-11185943D01*
X26628928Y-11171657D01*
X17107500Y-11739800D02*
X17107500Y-11809800D01*
X17072500Y-11774800D02*
X17142500Y-11774800D01*
X17486071Y-11610514D02*
X17514643Y-11610514D01*
X17543214Y-11624800D01*
X17557500Y-11639086D01*
X17571786Y-11667657D01*
X17586071Y-11724800D01*
X17586071Y-11796229D01*
X17571786Y-11853371D01*
X17557500Y-11881943D01*
X17543214Y-11896229D01*
X17514643Y-11910514D01*
X17486071Y-11910514D01*
X17457500Y-11896229D01*
X17443214Y-11881943D01*
X17428928Y-11853371D01*
X17414643Y-11796229D01*
X17414643Y-11724800D01*
X17428928Y-11667657D01*
X17443214Y-11639086D01*
X17457500Y-11624800D01*
X17486071Y-11610514D01*
X17714643Y-11881943D02*
X17728928Y-11896229D01*
X17714643Y-11910514D01*
X17700357Y-11896229D01*
X17714643Y-11881943D01*
X17714643Y-11910514D01*
X17828928Y-11610514D02*
X18028928Y-11610514D01*
X17900357Y-11910514D01*
X18200357Y-11610514D02*
X18228928Y-11610514D01*
X18257500Y-11624800D01*
X18271786Y-11639086D01*
X18286071Y-11667657D01*
X18300357Y-11724800D01*
X18300357Y-11796229D01*
X18286071Y-11853371D01*
X18271786Y-11881943D01*
X18257500Y-11896229D01*
X18228928Y-11910514D01*
X18200357Y-11910514D01*
X18171786Y-11896229D01*
X18157500Y-11881943D01*
X18143214Y-11853371D01*
X18128928Y-11796229D01*
X18128928Y-11724800D01*
X18143214Y-11667657D01*
X18157500Y-11639086D01*
X18171786Y-11624800D01*
X18200357Y-11610514D01*
X18486071Y-11610514D02*
X18514643Y-11610514D01*
X18543214Y-11624800D01*
X18557500Y-11639086D01*
X18571786Y-11667657D01*
X18586071Y-11724800D01*
X18586071Y-11796229D01*
X18571786Y-11853371D01*
X18557500Y-11881943D01*
X18543214Y-11896229D01*
X18514643Y-11910514D01*
X18486071Y-11910514D01*
X18457500Y-11896229D01*
X18443214Y-11881943D01*
X18428928Y-11853371D01*
X18414643Y-11796229D01*
X18414643Y-11724800D01*
X18428928Y-11667657D01*
X18443214Y-11639086D01*
X18457500Y-11624800D01*
X18486071Y-11610514D01*
X18714643Y-11910514D02*
X18714643Y-11710514D01*
X18714643Y-11739086D02*
X18728928Y-11724800D01*
X18757500Y-11710514D01*
X18800357Y-11710514D01*
X18828928Y-11724800D01*
X18843214Y-11753371D01*
X18843214Y-11910514D01*
X18843214Y-11753371D02*
X18857500Y-11724800D01*
X18886071Y-11710514D01*
X18928928Y-11710514D01*
X18957500Y-11724800D01*
X18971786Y-11753371D01*
X18971786Y-11910514D01*
X19114643Y-11910514D02*
X19114643Y-11710514D01*
X19114643Y-11739086D02*
X19128928Y-11724800D01*
X19157500Y-11710514D01*
X19200357Y-11710514D01*
X19228928Y-11724800D01*
X19243214Y-11753371D01*
X19243214Y-11910514D01*
X19243214Y-11753371D02*
X19257500Y-11724800D01*
X19286071Y-11710514D01*
X19328928Y-11710514D01*
X19357500Y-11724800D01*
X19371786Y-11753371D01*
X19371786Y-11910514D01*
X19957500Y-11596229D02*
X19700357Y-11981943D01*
X20343214Y-11610514D02*
X20371786Y-11610514D01*
X20400357Y-11624800D01*
X20414643Y-11639086D01*
X20428928Y-11667657D01*
X20443214Y-11724800D01*
X20443214Y-11796229D01*
X20428928Y-11853371D01*
X20414643Y-11881943D01*
X20400357Y-11896229D01*
X20371786Y-11910514D01*
X20343214Y-11910514D01*
X20314643Y-11896229D01*
X20300357Y-11881943D01*
X20286071Y-11853371D01*
X20271786Y-11796229D01*
X20271786Y-11724800D01*
X20286071Y-11667657D01*
X20300357Y-11639086D01*
X20314643Y-11624800D01*
X20343214Y-11610514D01*
X20571786Y-11881943D02*
X20586071Y-11896229D01*
X20571786Y-11910514D01*
X20557500Y-11896229D01*
X20571786Y-11881943D01*
X20571786Y-11910514D01*
X20771786Y-11610514D02*
X20800357Y-11610514D01*
X20828928Y-11624800D01*
X20843214Y-11639086D01*
X20857500Y-11667657D01*
X20871786Y-11724800D01*
X20871786Y-11796229D01*
X20857500Y-11853371D01*
X20843214Y-11881943D01*
X20828928Y-11896229D01*
X20800357Y-11910514D01*
X20771786Y-11910514D01*
X20743214Y-11896229D01*
X20728928Y-11881943D01*
X20714643Y-11853371D01*
X20700357Y-11796229D01*
X20700357Y-11724800D01*
X20714643Y-11667657D01*
X20728928Y-11639086D01*
X20743214Y-11624800D01*
X20771786Y-11610514D01*
X20986071Y-11639086D02*
X21000357Y-11624800D01*
X21028928Y-11610514D01*
X21100357Y-11610514D01*
X21128928Y-11624800D01*
X21143214Y-11639086D01*
X21157500Y-11667657D01*
X21157500Y-11696229D01*
X21143214Y-11739086D01*
X20971786Y-11910514D01*
X21157500Y-11910514D01*
X21257500Y-11610514D02*
X21457500Y-11610514D01*
X21328928Y-11910514D01*
X21700357Y-11610514D02*
X21643214Y-11610514D01*
X21614643Y-11624800D01*
X21600357Y-11639086D01*
X21571786Y-11681943D01*
X21557500Y-11739086D01*
X21557500Y-11853371D01*
X21571786Y-11881943D01*
X21586071Y-11896229D01*
X21614643Y-11910514D01*
X21671786Y-11910514D01*
X21700357Y-11896229D01*
X21714643Y-11881943D01*
X21728928Y-11853371D01*
X21728928Y-11781943D01*
X21714643Y-11753371D01*
X21700357Y-11739086D01*
X21671786Y-11724800D01*
X21614643Y-11724800D01*
X21586071Y-11739086D01*
X21571786Y-11753371D01*
X21557500Y-11781943D01*
X21843214Y-11610514D02*
X21843214Y-11667657D01*
X21957500Y-11610514D02*
X21957500Y-11667657D01*
X22400357Y-12024800D02*
X22386071Y-12010514D01*
X22357500Y-11967657D01*
X22343214Y-11939086D01*
X22328928Y-11896229D01*
X22314643Y-11824800D01*
X22314643Y-11767657D01*
X22328928Y-11696229D01*
X22343214Y-11653371D01*
X22357500Y-11624800D01*
X22386071Y-11581943D01*
X22400357Y-11567657D01*
X22557500Y-11739086D02*
X22528928Y-11724800D01*
X22514643Y-11710514D01*
X22500357Y-11681943D01*
X22500357Y-11667657D01*
X22514643Y-11639086D01*
X22528928Y-11624800D01*
X22557500Y-11610514D01*
X22614643Y-11610514D01*
X22643214Y-11624800D01*
X22657500Y-11639086D01*
X22671786Y-11667657D01*
X22671786Y-11681943D01*
X22657500Y-11710514D01*
X22643214Y-11724800D01*
X22614643Y-11739086D01*
X22557500Y-11739086D01*
X22528928Y-11753371D01*
X22514643Y-11767657D01*
X22500357Y-11796229D01*
X22500357Y-11853371D01*
X22514643Y-11881943D01*
X22528928Y-11896229D01*
X22557500Y-11910514D01*
X22614643Y-11910514D01*
X22643214Y-11896229D01*
X22657500Y-11881943D01*
X22671786Y-11853371D01*
X22671786Y-11796229D01*
X22657500Y-11767657D01*
X22643214Y-11753371D01*
X22614643Y-11739086D01*
X23028928Y-11910514D02*
X23028928Y-11610514D01*
X23157500Y-11910514D02*
X23157500Y-11753371D01*
X23143214Y-11724800D01*
X23114643Y-11710514D01*
X23071786Y-11710514D01*
X23043214Y-11724800D01*
X23028928Y-11739086D01*
X23343214Y-11910514D02*
X23314643Y-11896229D01*
X23300357Y-11881943D01*
X23286071Y-11853371D01*
X23286071Y-11767657D01*
X23300357Y-11739086D01*
X23314643Y-11724800D01*
X23343214Y-11710514D01*
X23386071Y-11710514D01*
X23414643Y-11724800D01*
X23428928Y-11739086D01*
X23443214Y-11767657D01*
X23443214Y-11853371D01*
X23428928Y-11881943D01*
X23414643Y-11896229D01*
X23386071Y-11910514D01*
X23343214Y-11910514D01*
X23614643Y-11910514D02*
X23586071Y-11896229D01*
X23571786Y-11867657D01*
X23571786Y-11610514D01*
X23843214Y-11896229D02*
X23814643Y-11910514D01*
X23757500Y-11910514D01*
X23728928Y-11896229D01*
X23714643Y-11867657D01*
X23714643Y-11753371D01*
X23728928Y-11724800D01*
X23757500Y-11710514D01*
X23814643Y-11710514D01*
X23843214Y-11724800D01*
X23857500Y-11753371D01*
X23857500Y-11781943D01*
X23714643Y-11810514D01*
X23971786Y-11896229D02*
X24000357Y-11910514D01*
X24057500Y-11910514D01*
X24086071Y-11896229D01*
X24100357Y-11867657D01*
X24100357Y-11853371D01*
X24086071Y-11824800D01*
X24057500Y-11810514D01*
X24014643Y-11810514D01*
X23986071Y-11796229D01*
X23971786Y-11767657D01*
X23971786Y-11753371D01*
X23986071Y-11724800D01*
X24014643Y-11710514D01*
X24057500Y-11710514D01*
X24086071Y-11724800D01*
X24200357Y-12024800D02*
X24214643Y-12010514D01*
X24243214Y-11967657D01*
X24257500Y-11939086D01*
X24271786Y-11896229D01*
X24286071Y-11824800D01*
X24286071Y-11767657D01*
X24271786Y-11696229D01*
X24257500Y-11653371D01*
X24243214Y-11624800D01*
X24214643Y-11581943D01*
X24200357Y-11567657D01*
X17123462Y-12216762D02*
X17123462Y-12124838D01*
X17031538Y-12124838D01*
X17031538Y-12216762D01*
X17123462Y-12216762D01*
X17586071Y-12306514D02*
X17414643Y-12306514D01*
X17500357Y-12306514D02*
X17500357Y-12006514D01*
X17471786Y-12049371D01*
X17443214Y-12077943D01*
X17414643Y-12092229D01*
X17714643Y-12277943D02*
X17728928Y-12292229D01*
X17714643Y-12306514D01*
X17700357Y-12292229D01*
X17714643Y-12277943D01*
X17714643Y-12306514D01*
X17828928Y-12006514D02*
X18014643Y-12006514D01*
X17914643Y-12120800D01*
X17957500Y-12120800D01*
X17986071Y-12135086D01*
X18000357Y-12149371D01*
X18014643Y-12177943D01*
X18014643Y-12249371D01*
X18000357Y-12277943D01*
X17986071Y-12292229D01*
X17957500Y-12306514D01*
X17871786Y-12306514D01*
X17843214Y-12292229D01*
X17828928Y-12277943D01*
X18200357Y-12006514D02*
X18228928Y-12006514D01*
X18257500Y-12020800D01*
X18271786Y-12035086D01*
X18286071Y-12063657D01*
X18300357Y-12120800D01*
X18300357Y-12192229D01*
X18286071Y-12249371D01*
X18271786Y-12277943D01*
X18257500Y-12292229D01*
X18228928Y-12306514D01*
X18200357Y-12306514D01*
X18171786Y-12292229D01*
X18157500Y-12277943D01*
X18143214Y-12249371D01*
X18128928Y-12192229D01*
X18128928Y-12120800D01*
X18143214Y-12063657D01*
X18157500Y-12035086D01*
X18171786Y-12020800D01*
X18200357Y-12006514D01*
X18486071Y-12006514D02*
X18514643Y-12006514D01*
X18543214Y-12020800D01*
X18557500Y-12035086D01*
X18571786Y-12063657D01*
X18586071Y-12120800D01*
X18586071Y-12192229D01*
X18571786Y-12249371D01*
X18557500Y-12277943D01*
X18543214Y-12292229D01*
X18514643Y-12306514D01*
X18486071Y-12306514D01*
X18457500Y-12292229D01*
X18443214Y-12277943D01*
X18428928Y-12249371D01*
X18414643Y-12192229D01*
X18414643Y-12120800D01*
X18428928Y-12063657D01*
X18443214Y-12035086D01*
X18457500Y-12020800D01*
X18486071Y-12006514D01*
X18714643Y-12306514D02*
X18714643Y-12106514D01*
X18714643Y-12135086D02*
X18728928Y-12120800D01*
X18757500Y-12106514D01*
X18800357Y-12106514D01*
X18828928Y-12120800D01*
X18843214Y-12149371D01*
X18843214Y-12306514D01*
X18843214Y-12149371D02*
X18857500Y-12120800D01*
X18886071Y-12106514D01*
X18928928Y-12106514D01*
X18957500Y-12120800D01*
X18971786Y-12149371D01*
X18971786Y-12306514D01*
X19114643Y-12306514D02*
X19114643Y-12106514D01*
X19114643Y-12135086D02*
X19128928Y-12120800D01*
X19157500Y-12106514D01*
X19200357Y-12106514D01*
X19228928Y-12120800D01*
X19243214Y-12149371D01*
X19243214Y-12306514D01*
X19243214Y-12149371D02*
X19257500Y-12120800D01*
X19286071Y-12106514D01*
X19328928Y-12106514D01*
X19357500Y-12120800D01*
X19371786Y-12149371D01*
X19371786Y-12306514D01*
X19957500Y-11992229D02*
X19700357Y-12377943D01*
X20343214Y-12006514D02*
X20371786Y-12006514D01*
X20400357Y-12020800D01*
X20414643Y-12035086D01*
X20428928Y-12063657D01*
X20443214Y-12120800D01*
X20443214Y-12192229D01*
X20428928Y-12249371D01*
X20414643Y-12277943D01*
X20400357Y-12292229D01*
X20371786Y-12306514D01*
X20343214Y-12306514D01*
X20314643Y-12292229D01*
X20300357Y-12277943D01*
X20286071Y-12249371D01*
X20271786Y-12192229D01*
X20271786Y-12120800D01*
X20286071Y-12063657D01*
X20300357Y-12035086D01*
X20314643Y-12020800D01*
X20343214Y-12006514D01*
X20571786Y-12277943D02*
X20586071Y-12292229D01*
X20571786Y-12306514D01*
X20557500Y-12292229D01*
X20571786Y-12277943D01*
X20571786Y-12306514D01*
X20771786Y-12006514D02*
X20800357Y-12006514D01*
X20828928Y-12020800D01*
X20843214Y-12035086D01*
X20857500Y-12063657D01*
X20871786Y-12120800D01*
X20871786Y-12192229D01*
X20857500Y-12249371D01*
X20843214Y-12277943D01*
X20828928Y-12292229D01*
X20800357Y-12306514D01*
X20771786Y-12306514D01*
X20743214Y-12292229D01*
X20728928Y-12277943D01*
X20714643Y-12249371D01*
X20700357Y-12192229D01*
X20700357Y-12120800D01*
X20714643Y-12063657D01*
X20728928Y-12035086D01*
X20743214Y-12020800D01*
X20771786Y-12006514D01*
X21143214Y-12006514D02*
X21000357Y-12006514D01*
X20986071Y-12149371D01*
X21000357Y-12135086D01*
X21028928Y-12120800D01*
X21100357Y-12120800D01*
X21128928Y-12135086D01*
X21143214Y-12149371D01*
X21157500Y-12177943D01*
X21157500Y-12249371D01*
X21143214Y-12277943D01*
X21128928Y-12292229D01*
X21100357Y-12306514D01*
X21028928Y-12306514D01*
X21000357Y-12292229D01*
X20986071Y-12277943D01*
X21443214Y-12306514D02*
X21271786Y-12306514D01*
X21357500Y-12306514D02*
X21357500Y-12006514D01*
X21328928Y-12049371D01*
X21300357Y-12077943D01*
X21271786Y-12092229D01*
X21557500Y-12035086D02*
X21571786Y-12020800D01*
X21600357Y-12006514D01*
X21671786Y-12006514D01*
X21700357Y-12020800D01*
X21714643Y-12035086D01*
X21728928Y-12063657D01*
X21728928Y-12092229D01*
X21714643Y-12135086D01*
X21543214Y-12306514D01*
X21728928Y-12306514D01*
X21843214Y-12006514D02*
X21843214Y-12063657D01*
X21957500Y-12006514D02*
X21957500Y-12063657D01*
X22400357Y-12420800D02*
X22386071Y-12406514D01*
X22357500Y-12363657D01*
X22343214Y-12335086D01*
X22328928Y-12292229D01*
X22314643Y-12220800D01*
X22314643Y-12163657D01*
X22328928Y-12092229D01*
X22343214Y-12049371D01*
X22357500Y-12020800D01*
X22386071Y-11977943D01*
X22400357Y-11963657D01*
X22500357Y-12035086D02*
X22514643Y-12020800D01*
X22543214Y-12006514D01*
X22614643Y-12006514D01*
X22643214Y-12020800D01*
X22657500Y-12035086D01*
X22671786Y-12063657D01*
X22671786Y-12092229D01*
X22657500Y-12135086D01*
X22486071Y-12306514D01*
X22671786Y-12306514D01*
X23028928Y-12306514D02*
X23028928Y-12006514D01*
X23157500Y-12306514D02*
X23157500Y-12149371D01*
X23143214Y-12120800D01*
X23114643Y-12106514D01*
X23071786Y-12106514D01*
X23043214Y-12120800D01*
X23028928Y-12135086D01*
X23343214Y-12306514D02*
X23314643Y-12292229D01*
X23300357Y-12277943D01*
X23286071Y-12249371D01*
X23286071Y-12163657D01*
X23300357Y-12135086D01*
X23314643Y-12120800D01*
X23343214Y-12106514D01*
X23386071Y-12106514D01*
X23414643Y-12120800D01*
X23428928Y-12135086D01*
X23443214Y-12163657D01*
X23443214Y-12249371D01*
X23428928Y-12277943D01*
X23414643Y-12292229D01*
X23386071Y-12306514D01*
X23343214Y-12306514D01*
X23614643Y-12306514D02*
X23586071Y-12292229D01*
X23571786Y-12263657D01*
X23571786Y-12006514D01*
X23843214Y-12292229D02*
X23814643Y-12306514D01*
X23757500Y-12306514D01*
X23728928Y-12292229D01*
X23714643Y-12263657D01*
X23714643Y-12149371D01*
X23728928Y-12120800D01*
X23757500Y-12106514D01*
X23814643Y-12106514D01*
X23843214Y-12120800D01*
X23857500Y-12149371D01*
X23857500Y-12177943D01*
X23714643Y-12206514D01*
X23971786Y-12292229D02*
X24000357Y-12306514D01*
X24057500Y-12306514D01*
X24086071Y-12292229D01*
X24100357Y-12263657D01*
X24100357Y-12249371D01*
X24086071Y-12220800D01*
X24057500Y-12206514D01*
X24014643Y-12206514D01*
X23986071Y-12192229D01*
X23971786Y-12163657D01*
X23971786Y-12149371D01*
X23986071Y-12120800D01*
X24014643Y-12106514D01*
X24057500Y-12106514D01*
X24086071Y-12120800D01*
X24200357Y-12420800D02*
X24214643Y-12406514D01*
X24243214Y-12363657D01*
X24257500Y-12335086D01*
X24271786Y-12292229D01*
X24286071Y-12220800D01*
X24286071Y-12163657D01*
X24271786Y-12092229D01*
X24257500Y-12049371D01*
X24243214Y-12020800D01*
X24214643Y-11977943D01*
X24200357Y-11963657D01*
X17067500Y-12641800D02*
X17142500Y-12566800D01*
X17067500Y-12491800D01*
X16992500Y-12566800D01*
X17067500Y-12641800D01*
X17586071Y-12702514D02*
X17414643Y-12702514D01*
X17500357Y-12702514D02*
X17500357Y-12402514D01*
X17471786Y-12445371D01*
X17443214Y-12473943D01*
X17414643Y-12488229D01*
X17714643Y-12673943D02*
X17728928Y-12688229D01*
X17714643Y-12702514D01*
X17700357Y-12688229D01*
X17714643Y-12673943D01*
X17714643Y-12702514D01*
X18000357Y-12402514D02*
X17857500Y-12402514D01*
X17843214Y-12545371D01*
X17857500Y-12531086D01*
X17886071Y-12516800D01*
X17957500Y-12516800D01*
X17986071Y-12531086D01*
X18000357Y-12545371D01*
X18014643Y-12573943D01*
X18014643Y-12645371D01*
X18000357Y-12673943D01*
X17986071Y-12688229D01*
X17957500Y-12702514D01*
X17886071Y-12702514D01*
X17857500Y-12688229D01*
X17843214Y-12673943D01*
X18200357Y-12402514D02*
X18228928Y-12402514D01*
X18257500Y-12416800D01*
X18271786Y-12431086D01*
X18286071Y-12459657D01*
X18300357Y-12516800D01*
X18300357Y-12588229D01*
X18286071Y-12645371D01*
X18271786Y-12673943D01*
X18257500Y-12688229D01*
X18228928Y-12702514D01*
X18200357Y-12702514D01*
X18171786Y-12688229D01*
X18157500Y-12673943D01*
X18143214Y-12645371D01*
X18128928Y-12588229D01*
X18128928Y-12516800D01*
X18143214Y-12459657D01*
X18157500Y-12431086D01*
X18171786Y-12416800D01*
X18200357Y-12402514D01*
X18486071Y-12402514D02*
X18514643Y-12402514D01*
X18543214Y-12416800D01*
X18557500Y-12431086D01*
X18571786Y-12459657D01*
X18586071Y-12516800D01*
X18586071Y-12588229D01*
X18571786Y-12645371D01*
X18557500Y-12673943D01*
X18543214Y-12688229D01*
X18514643Y-12702514D01*
X18486071Y-12702514D01*
X18457500Y-12688229D01*
X18443214Y-12673943D01*
X18428928Y-12645371D01*
X18414643Y-12588229D01*
X18414643Y-12516800D01*
X18428928Y-12459657D01*
X18443214Y-12431086D01*
X18457500Y-12416800D01*
X18486071Y-12402514D01*
X18714643Y-12702514D02*
X18714643Y-12502514D01*
X18714643Y-12531086D02*
X18728928Y-12516800D01*
X18757500Y-12502514D01*
X18800357Y-12502514D01*
X18828928Y-12516800D01*
X18843214Y-12545371D01*
X18843214Y-12702514D01*
X18843214Y-12545371D02*
X18857500Y-12516800D01*
X18886071Y-12502514D01*
X18928928Y-12502514D01*
X18957500Y-12516800D01*
X18971786Y-12545371D01*
X18971786Y-12702514D01*
X19114643Y-12702514D02*
X19114643Y-12502514D01*
X19114643Y-12531086D02*
X19128928Y-12516800D01*
X19157500Y-12502514D01*
X19200357Y-12502514D01*
X19228928Y-12516800D01*
X19243214Y-12545371D01*
X19243214Y-12702514D01*
X19243214Y-12545371D02*
X19257500Y-12516800D01*
X19286071Y-12502514D01*
X19328928Y-12502514D01*
X19357500Y-12516800D01*
X19371786Y-12545371D01*
X19371786Y-12702514D01*
X19957500Y-12388229D02*
X19700357Y-12773943D01*
X20343214Y-12402514D02*
X20371786Y-12402514D01*
X20400357Y-12416800D01*
X20414643Y-12431086D01*
X20428928Y-12459657D01*
X20443214Y-12516800D01*
X20443214Y-12588229D01*
X20428928Y-12645371D01*
X20414643Y-12673943D01*
X20400357Y-12688229D01*
X20371786Y-12702514D01*
X20343214Y-12702514D01*
X20314643Y-12688229D01*
X20300357Y-12673943D01*
X20286071Y-12645371D01*
X20271786Y-12588229D01*
X20271786Y-12516800D01*
X20286071Y-12459657D01*
X20300357Y-12431086D01*
X20314643Y-12416800D01*
X20343214Y-12402514D01*
X20571786Y-12673943D02*
X20586071Y-12688229D01*
X20571786Y-12702514D01*
X20557500Y-12688229D01*
X20571786Y-12673943D01*
X20571786Y-12702514D01*
X20771786Y-12402514D02*
X20800357Y-12402514D01*
X20828928Y-12416800D01*
X20843214Y-12431086D01*
X20857500Y-12459657D01*
X20871786Y-12516800D01*
X20871786Y-12588229D01*
X20857500Y-12645371D01*
X20843214Y-12673943D01*
X20828928Y-12688229D01*
X20800357Y-12702514D01*
X20771786Y-12702514D01*
X20743214Y-12688229D01*
X20728928Y-12673943D01*
X20714643Y-12645371D01*
X20700357Y-12588229D01*
X20700357Y-12516800D01*
X20714643Y-12459657D01*
X20728928Y-12431086D01*
X20743214Y-12416800D01*
X20771786Y-12402514D01*
X21143214Y-12402514D02*
X21000357Y-12402514D01*
X20986071Y-12545371D01*
X21000357Y-12531086D01*
X21028928Y-12516800D01*
X21100357Y-12516800D01*
X21128928Y-12531086D01*
X21143214Y-12545371D01*
X21157500Y-12573943D01*
X21157500Y-12645371D01*
X21143214Y-12673943D01*
X21128928Y-12688229D01*
X21100357Y-12702514D01*
X21028928Y-12702514D01*
X21000357Y-12688229D01*
X20986071Y-12673943D01*
X21300357Y-12702514D02*
X21357500Y-12702514D01*
X21386071Y-12688229D01*
X21400357Y-12673943D01*
X21428928Y-12631086D01*
X21443214Y-12573943D01*
X21443214Y-12459657D01*
X21428928Y-12431086D01*
X21414643Y-12416800D01*
X21386071Y-12402514D01*
X21328928Y-12402514D01*
X21300357Y-12416800D01*
X21286071Y-12431086D01*
X21271786Y-12459657D01*
X21271786Y-12531086D01*
X21286071Y-12559657D01*
X21300357Y-12573943D01*
X21328928Y-12588229D01*
X21386071Y-12588229D01*
X21414643Y-12573943D01*
X21428928Y-12559657D01*
X21443214Y-12531086D01*
X21728928Y-12702514D02*
X21557500Y-12702514D01*
X21643214Y-12702514D02*
X21643214Y-12402514D01*
X21614643Y-12445371D01*
X21586071Y-12473943D01*
X21557500Y-12488229D01*
X21843214Y-12402514D02*
X21843214Y-12459657D01*
X21957500Y-12402514D02*
X21957500Y-12459657D01*
X22400357Y-12816800D02*
X22386071Y-12802514D01*
X22357500Y-12759657D01*
X22343214Y-12731086D01*
X22328928Y-12688229D01*
X22314643Y-12616800D01*
X22314643Y-12559657D01*
X22328928Y-12488229D01*
X22343214Y-12445371D01*
X22357500Y-12416800D01*
X22386071Y-12373943D01*
X22400357Y-12359657D01*
X22643214Y-12502514D02*
X22643214Y-12702514D01*
X22571786Y-12388229D02*
X22500357Y-12602514D01*
X22686071Y-12602514D01*
X23028928Y-12702514D02*
X23028928Y-12402514D01*
X23157500Y-12702514D02*
X23157500Y-12545371D01*
X23143214Y-12516800D01*
X23114643Y-12502514D01*
X23071786Y-12502514D01*
X23043214Y-12516800D01*
X23028928Y-12531086D01*
X23343214Y-12702514D02*
X23314643Y-12688229D01*
X23300357Y-12673943D01*
X23286071Y-12645371D01*
X23286071Y-12559657D01*
X23300357Y-12531086D01*
X23314643Y-12516800D01*
X23343214Y-12502514D01*
X23386071Y-12502514D01*
X23414643Y-12516800D01*
X23428928Y-12531086D01*
X23443214Y-12559657D01*
X23443214Y-12645371D01*
X23428928Y-12673943D01*
X23414643Y-12688229D01*
X23386071Y-12702514D01*
X23343214Y-12702514D01*
X23614643Y-12702514D02*
X23586071Y-12688229D01*
X23571786Y-12659657D01*
X23571786Y-12402514D01*
X23843214Y-12688229D02*
X23814643Y-12702514D01*
X23757500Y-12702514D01*
X23728928Y-12688229D01*
X23714643Y-12659657D01*
X23714643Y-12545371D01*
X23728928Y-12516800D01*
X23757500Y-12502514D01*
X23814643Y-12502514D01*
X23843214Y-12516800D01*
X23857500Y-12545371D01*
X23857500Y-12573943D01*
X23714643Y-12602514D01*
X23971786Y-12688229D02*
X24000357Y-12702514D01*
X24057500Y-12702514D01*
X24086071Y-12688229D01*
X24100357Y-12659657D01*
X24100357Y-12645371D01*
X24086071Y-12616800D01*
X24057500Y-12602514D01*
X24014643Y-12602514D01*
X23986071Y-12588229D01*
X23971786Y-12559657D01*
X23971786Y-12545371D01*
X23986071Y-12516800D01*
X24014643Y-12502514D01*
X24057500Y-12502514D01*
X24086071Y-12516800D01*
X24200357Y-12816800D02*
X24214643Y-12802514D01*
X24243214Y-12759657D01*
X24257500Y-12731086D01*
X24271786Y-12688229D01*
X24286071Y-12616800D01*
X24286071Y-12559657D01*
X24271786Y-12488229D01*
X24257500Y-12445371D01*
X24243214Y-12416800D01*
X24214643Y-12373943D01*
X24200357Y-12359657D01*
M02*
