G04 #@! TF.GenerationSoftware,KiCad,Pcbnew,(5.1.10)-1*
G04 #@! TF.CreationDate,2021-08-29T06:08:18-04:00*
G04 #@! TF.ProjectId,milk,6d696c6b-2e6b-4696-9361-645f70636258,rev?*
G04 #@! TF.SameCoordinates,Original*
G04 #@! TF.FileFunction,Legend,Top*
G04 #@! TF.FilePolarity,Positive*
%FSLAX46Y46*%
G04 Gerber Fmt 4.6, Leading zero omitted, Abs format (unit mm)*
G04 Created by KiCad (PCBNEW (5.1.10)-1) date 2021-08-29 06:08:18*
%MOMM*%
%LPD*%
G01*
G04 APERTURE LIST*
%ADD10C,0.125000*%
%ADD11C,0.100000*%
%ADD12C,0.150000*%
%ADD13C,0.250000*%
%ADD14C,0.120000*%
%ADD15C,1.500000*%
%ADD16C,2.000000*%
%ADD17C,1.700000*%
%ADD18C,4.000000*%
%ADD19C,2.200000*%
%ADD20R,0.650000X1.700000*%
%ADD21R,0.300000X1.300000*%
%ADD22R,0.600000X1.300000*%
%ADD23C,0.800000*%
%ADD24O,1.000000X2.000000*%
%ADD25R,1.200000X0.900000*%
%ADD26R,1.500000X1.500000*%
G04 APERTURE END LIST*
D10*
X172563797Y-65791590D02*
X172667963Y-66291590D01*
X172897130Y-65791590D01*
X173292963Y-66243971D02*
X173266178Y-66267780D01*
X173191773Y-66291590D01*
X173144154Y-66291590D01*
X173075702Y-66267780D01*
X173034035Y-66220161D01*
X173016178Y-66172542D01*
X173004273Y-66077304D01*
X173013202Y-66005876D01*
X173048916Y-65910638D01*
X173078678Y-65863019D01*
X173132249Y-65815400D01*
X173206654Y-65791590D01*
X173254273Y-65791590D01*
X173322725Y-65815400D01*
X173343559Y-65839209D01*
X173792963Y-66243971D02*
X173766178Y-66267780D01*
X173691773Y-66291590D01*
X173644154Y-66291590D01*
X173575702Y-66267780D01*
X173534035Y-66220161D01*
X173516178Y-66172542D01*
X173504273Y-66077304D01*
X173513202Y-66005876D01*
X173548916Y-65910638D01*
X173578678Y-65863019D01*
X173632249Y-65815400D01*
X173706654Y-65791590D01*
X173754273Y-65791590D01*
X173822725Y-65815400D01*
X173843559Y-65839209D01*
X174099511Y-66458257D02*
X174188797Y-65743971D01*
X174477487Y-66291590D02*
X174539987Y-65791590D01*
X174730463Y-65791590D01*
X174775106Y-65815400D01*
X174795940Y-65839209D01*
X174813797Y-65886828D01*
X174804868Y-65958257D01*
X174775106Y-66005876D01*
X174748321Y-66029685D01*
X174697725Y-66053495D01*
X174507249Y-66053495D01*
X175176892Y-66029685D02*
X175245344Y-66053495D01*
X175266178Y-66077304D01*
X175284035Y-66124923D01*
X175275106Y-66196352D01*
X175245344Y-66243971D01*
X175218559Y-66267780D01*
X175167963Y-66291590D01*
X174977487Y-66291590D01*
X175039987Y-65791590D01*
X175206654Y-65791590D01*
X175251297Y-65815400D01*
X175272130Y-65839209D01*
X175289987Y-65886828D01*
X175284035Y-65934447D01*
X175254273Y-65982066D01*
X175227487Y-66005876D01*
X175176892Y-66029685D01*
X175010225Y-66029685D01*
X175510225Y-65839209D02*
X175537011Y-65815400D01*
X175587606Y-65791590D01*
X175706654Y-65791590D01*
X175751297Y-65815400D01*
X175772130Y-65839209D01*
X175789987Y-65886828D01*
X175784035Y-65934447D01*
X175751297Y-66005876D01*
X175429868Y-66291590D01*
X175739392Y-66291590D01*
X176051892Y-66458257D02*
X176141178Y-65743971D01*
X176751297Y-65815400D02*
X176706654Y-65791590D01*
X176635225Y-65791590D01*
X176560821Y-65815400D01*
X176507249Y-65863019D01*
X176477487Y-65910638D01*
X176441773Y-66005876D01*
X176432844Y-66077304D01*
X176444749Y-66172542D01*
X176462606Y-66220161D01*
X176504273Y-66267780D01*
X176572725Y-66291590D01*
X176620344Y-66291590D01*
X176694749Y-66267780D01*
X176721535Y-66243971D01*
X176742368Y-66077304D01*
X176647130Y-66077304D01*
X176929868Y-66291590D02*
X176992368Y-65791590D01*
X177215583Y-66291590D01*
X177278083Y-65791590D01*
X177453678Y-66291590D02*
X177516178Y-65791590D01*
X177635225Y-65791590D01*
X177703678Y-65815400D01*
X177745344Y-65863019D01*
X177763202Y-65910638D01*
X177775106Y-66005876D01*
X177766178Y-66077304D01*
X177730463Y-66172542D01*
X177700702Y-66220161D01*
X177647130Y-66267780D01*
X177572725Y-66291590D01*
X177453678Y-66291590D01*
X178051892Y-66458257D02*
X178141178Y-65743971D01*
X178429868Y-66291590D02*
X178492368Y-65791590D01*
X178682844Y-65791590D01*
X178727487Y-65815400D01*
X178748321Y-65839209D01*
X178766178Y-65886828D01*
X178757249Y-65958257D01*
X178727487Y-66005876D01*
X178700702Y-66029685D01*
X178650106Y-66053495D01*
X178459630Y-66053495D01*
X179129273Y-66029685D02*
X179197725Y-66053495D01*
X179218559Y-66077304D01*
X179236416Y-66124923D01*
X179227487Y-66196352D01*
X179197725Y-66243971D01*
X179170940Y-66267780D01*
X179120344Y-66291590D01*
X178929868Y-66291590D01*
X178992368Y-65791590D01*
X179159035Y-65791590D01*
X179203678Y-65815400D01*
X179224511Y-65839209D01*
X179242368Y-65886828D01*
X179236416Y-65934447D01*
X179206654Y-65982066D01*
X179179868Y-66005876D01*
X179129273Y-66029685D01*
X178962606Y-66029685D01*
X179730463Y-65791590D02*
X179492368Y-65791590D01*
X179438797Y-66029685D01*
X179465583Y-66005876D01*
X179516178Y-65982066D01*
X179635225Y-65982066D01*
X179679868Y-66005876D01*
X179700702Y-66029685D01*
X179718559Y-66077304D01*
X179703678Y-66196352D01*
X179673916Y-66243971D01*
X179647130Y-66267780D01*
X179596535Y-66291590D01*
X179477487Y-66291590D01*
X179432844Y-66267780D01*
X179412011Y-66243971D01*
X189311716Y-64291400D02*
X189267073Y-64267590D01*
X189195644Y-64267590D01*
X189121240Y-64291400D01*
X189067668Y-64339019D01*
X189037906Y-64386638D01*
X189002192Y-64481876D01*
X188993263Y-64553304D01*
X189005168Y-64648542D01*
X189023025Y-64696161D01*
X189064692Y-64743780D01*
X189133144Y-64767590D01*
X189180763Y-64767590D01*
X189255168Y-64743780D01*
X189281954Y-64719971D01*
X189302787Y-64553304D01*
X189207549Y-64553304D01*
X189490287Y-64767590D02*
X189552787Y-64267590D01*
X189776002Y-64767590D01*
X189838502Y-64267590D01*
X190014097Y-64767590D02*
X190076597Y-64267590D01*
X190195644Y-64267590D01*
X190264097Y-64291400D01*
X190305763Y-64339019D01*
X190323621Y-64386638D01*
X190335525Y-64481876D01*
X190326597Y-64553304D01*
X190290883Y-64648542D01*
X190261121Y-64696161D01*
X190207549Y-64743780D01*
X190133144Y-64767590D01*
X190014097Y-64767590D01*
X172039325Y-72438390D02*
X172101825Y-71938390D01*
X172292302Y-71938390D01*
X172336944Y-71962200D01*
X172357778Y-71986009D01*
X172375635Y-72033628D01*
X172366706Y-72105057D01*
X172336944Y-72152676D01*
X172310159Y-72176485D01*
X172259563Y-72200295D01*
X172069087Y-72200295D01*
X172738730Y-72176485D02*
X172807183Y-72200295D01*
X172828016Y-72224104D01*
X172845873Y-72271723D01*
X172836944Y-72343152D01*
X172807183Y-72390771D01*
X172780397Y-72414580D01*
X172729802Y-72438390D01*
X172539325Y-72438390D01*
X172601825Y-71938390D01*
X172768492Y-71938390D01*
X172813135Y-71962200D01*
X172833968Y-71986009D01*
X172851825Y-72033628D01*
X172845873Y-72081247D01*
X172816111Y-72128866D01*
X172789325Y-72152676D01*
X172738730Y-72176485D01*
X172572063Y-72176485D01*
X173054206Y-71938390D02*
X173363730Y-71938390D01*
X173173254Y-72128866D01*
X173244683Y-72128866D01*
X173289325Y-72152676D01*
X173310159Y-72176485D01*
X173328016Y-72224104D01*
X173313135Y-72343152D01*
X173283373Y-72390771D01*
X173256587Y-72414580D01*
X173205992Y-72438390D01*
X173063135Y-72438390D01*
X173018492Y-72414580D01*
X172997659Y-72390771D01*
X173613730Y-72605057D02*
X173703016Y-71890771D01*
X173991706Y-72438390D02*
X174054206Y-71938390D01*
X174244683Y-71938390D01*
X174289325Y-71962200D01*
X174310159Y-71986009D01*
X174328016Y-72033628D01*
X174319087Y-72105057D01*
X174289325Y-72152676D01*
X174262540Y-72176485D01*
X174211944Y-72200295D01*
X174021468Y-72200295D01*
X174691111Y-72176485D02*
X174759563Y-72200295D01*
X174780397Y-72224104D01*
X174798254Y-72271723D01*
X174789325Y-72343152D01*
X174759563Y-72390771D01*
X174732778Y-72414580D01*
X174682183Y-72438390D01*
X174491706Y-72438390D01*
X174554206Y-71938390D01*
X174720873Y-71938390D01*
X174765516Y-71962200D01*
X174786349Y-71986009D01*
X174804206Y-72033628D01*
X174798254Y-72081247D01*
X174768492Y-72128866D01*
X174741706Y-72152676D01*
X174691111Y-72176485D01*
X174524444Y-72176485D01*
X175247659Y-72105057D02*
X175205992Y-72438390D01*
X175152421Y-71914580D02*
X174988730Y-72271723D01*
X175298254Y-72271723D01*
X175566111Y-72605057D02*
X175655397Y-71890771D01*
X175944087Y-72438390D02*
X176006587Y-71938390D01*
X176197063Y-71938390D01*
X176241706Y-71962200D01*
X176262540Y-71986009D01*
X176280397Y-72033628D01*
X176271468Y-72105057D01*
X176241706Y-72152676D01*
X176214921Y-72176485D01*
X176164325Y-72200295D01*
X175973849Y-72200295D01*
X176643492Y-72176485D02*
X176711944Y-72200295D01*
X176732778Y-72224104D01*
X176750635Y-72271723D01*
X176741706Y-72343152D01*
X176711944Y-72390771D01*
X176685159Y-72414580D01*
X176634563Y-72438390D01*
X176444087Y-72438390D01*
X176506587Y-71938390D01*
X176673254Y-71938390D01*
X176717897Y-71962200D01*
X176738730Y-71986009D01*
X176756587Y-72033628D01*
X176750635Y-72081247D01*
X176720873Y-72128866D01*
X176694087Y-72152676D01*
X176643492Y-72176485D01*
X176476825Y-72176485D01*
X177205992Y-72438390D02*
X176920278Y-72438390D01*
X177063135Y-72438390D02*
X177125635Y-71938390D01*
X177069087Y-72009819D01*
X177015516Y-72057438D01*
X176964921Y-72081247D01*
X177518492Y-72605057D02*
X177607778Y-71890771D01*
X177896468Y-72438390D02*
X177958968Y-71938390D01*
X178149444Y-71938390D01*
X178194087Y-71962200D01*
X178214921Y-71986009D01*
X178232778Y-72033628D01*
X178223849Y-72105057D01*
X178194087Y-72152676D01*
X178167302Y-72176485D01*
X178116706Y-72200295D01*
X177926230Y-72200295D01*
X178595873Y-72176485D02*
X178664325Y-72200295D01*
X178685159Y-72224104D01*
X178703016Y-72271723D01*
X178694087Y-72343152D01*
X178664325Y-72390771D01*
X178637540Y-72414580D01*
X178586944Y-72438390D01*
X178396468Y-72438390D01*
X178458968Y-71938390D01*
X178625635Y-71938390D01*
X178670278Y-71962200D01*
X178691111Y-71986009D01*
X178708968Y-72033628D01*
X178703016Y-72081247D01*
X178673254Y-72128866D01*
X178646468Y-72152676D01*
X178595873Y-72176485D01*
X178429206Y-72176485D01*
X179054206Y-71938390D02*
X179101825Y-71938390D01*
X179146468Y-71962200D01*
X179167302Y-71986009D01*
X179185159Y-72033628D01*
X179197063Y-72128866D01*
X179182183Y-72247914D01*
X179146468Y-72343152D01*
X179116706Y-72390771D01*
X179089921Y-72414580D01*
X179039325Y-72438390D01*
X178991706Y-72438390D01*
X178947063Y-72414580D01*
X178926230Y-72390771D01*
X178908373Y-72343152D01*
X178896468Y-72247914D01*
X178911349Y-72128866D01*
X178947063Y-72033628D01*
X178976825Y-71986009D01*
X179003611Y-71962200D01*
X179054206Y-71938390D01*
D11*
X174875071Y-82776190D02*
X174738166Y-82538095D01*
X174589357Y-82776190D02*
X174651857Y-82276190D01*
X174842333Y-82276190D01*
X174886976Y-82300000D01*
X174907809Y-82323809D01*
X174925666Y-82371428D01*
X174916738Y-82442857D01*
X174886976Y-82490476D01*
X174860190Y-82514285D01*
X174809595Y-82538095D01*
X174619119Y-82538095D01*
X175282809Y-82752380D02*
X175232214Y-82776190D01*
X175136976Y-82776190D01*
X175092333Y-82752380D01*
X175074476Y-82704761D01*
X175098285Y-82514285D01*
X175128047Y-82466666D01*
X175178642Y-82442857D01*
X175273880Y-82442857D01*
X175318523Y-82466666D01*
X175336380Y-82514285D01*
X175330428Y-82561904D01*
X175086380Y-82609523D01*
X175517928Y-82776190D02*
X175559595Y-82442857D01*
X175553642Y-82490476D02*
X175580428Y-82466666D01*
X175631023Y-82442857D01*
X175702452Y-82442857D01*
X175747095Y-82466666D01*
X175764952Y-82514285D01*
X175732214Y-82776190D01*
X175764952Y-82514285D02*
X175794714Y-82466666D01*
X175845309Y-82442857D01*
X175916738Y-82442857D01*
X175961380Y-82466666D01*
X175979238Y-82514285D01*
X175946500Y-82776190D01*
X176184595Y-82776190D02*
X176226261Y-82442857D01*
X176247095Y-82276190D02*
X176220309Y-82300000D01*
X176241142Y-82323809D01*
X176267928Y-82300000D01*
X176247095Y-82276190D01*
X176241142Y-82323809D01*
X176375071Y-82776190D02*
X176678642Y-82442857D01*
X176416738Y-82442857D02*
X176636976Y-82776190D01*
X177020904Y-82752380D02*
X176970309Y-82776190D01*
X176875071Y-82776190D01*
X176830428Y-82752380D01*
X176812571Y-82704761D01*
X176836380Y-82514285D01*
X176866142Y-82466666D01*
X176916738Y-82442857D01*
X177011976Y-82442857D01*
X177056619Y-82466666D01*
X177074476Y-82514285D01*
X177068523Y-82561904D01*
X176824476Y-82609523D01*
X177470309Y-82776190D02*
X177532809Y-82276190D01*
X177473285Y-82752380D02*
X177422690Y-82776190D01*
X177327452Y-82776190D01*
X177282809Y-82752380D01*
X177261976Y-82728571D01*
X177244119Y-82680952D01*
X177261976Y-82538095D01*
X177291738Y-82490476D01*
X177318523Y-82466666D01*
X177369119Y-82442857D01*
X177464357Y-82442857D01*
X177509000Y-82466666D01*
X178089357Y-82776190D02*
X178151857Y-82276190D01*
X178128047Y-82466666D02*
X178178642Y-82442857D01*
X178273880Y-82442857D01*
X178318523Y-82466666D01*
X178339357Y-82490476D01*
X178357214Y-82538095D01*
X178339357Y-82680952D01*
X178309595Y-82728571D01*
X178282809Y-82752380D01*
X178232214Y-82776190D01*
X178136976Y-82776190D01*
X178092333Y-82752380D01*
X178535785Y-82442857D02*
X178613166Y-82776190D01*
X178773880Y-82442857D02*
X178613166Y-82776190D01*
X178550666Y-82895238D01*
X178523880Y-82919047D01*
X178473285Y-82942857D01*
X179625071Y-82300000D02*
X179580428Y-82276190D01*
X179509000Y-82276190D01*
X179434595Y-82300000D01*
X179381023Y-82347619D01*
X179351261Y-82395238D01*
X179315547Y-82490476D01*
X179306619Y-82561904D01*
X179318523Y-82657142D01*
X179336380Y-82704761D01*
X179378047Y-82752380D01*
X179446500Y-82776190D01*
X179494119Y-82776190D01*
X179568523Y-82752380D01*
X179595309Y-82728571D01*
X179616142Y-82561904D01*
X179520904Y-82561904D01*
X179997095Y-82752380D02*
X179946500Y-82776190D01*
X179851261Y-82776190D01*
X179806619Y-82752380D01*
X179788761Y-82704761D01*
X179812571Y-82514285D01*
X179842333Y-82466666D01*
X179892928Y-82442857D01*
X179988166Y-82442857D01*
X180032809Y-82466666D01*
X180050666Y-82514285D01*
X180044714Y-82561904D01*
X179800666Y-82609523D01*
X180232214Y-82776190D02*
X180273880Y-82442857D01*
X180261976Y-82538095D02*
X180291738Y-82490476D01*
X180318523Y-82466666D01*
X180369119Y-82442857D01*
X180416738Y-82442857D01*
X180541738Y-82776190D02*
X180583404Y-82442857D01*
X180571500Y-82538095D02*
X180601261Y-82490476D01*
X180628047Y-82466666D01*
X180678642Y-82442857D01*
X180726261Y-82442857D01*
X180845309Y-82442857D02*
X180922690Y-82776190D01*
X181083404Y-82442857D02*
X180922690Y-82776190D01*
X180860190Y-82895238D01*
X180833404Y-82919047D01*
X180782809Y-82942857D01*
X181449476Y-82752380D02*
X181398880Y-82776190D01*
X181303642Y-82776190D01*
X181259000Y-82752380D01*
X181238166Y-82728571D01*
X181220309Y-82680952D01*
X181238166Y-82538095D01*
X181267928Y-82490476D01*
X181294714Y-82466666D01*
X181345309Y-82442857D01*
X181440547Y-82442857D01*
X181485190Y-82466666D01*
X181875071Y-82776190D02*
X181907809Y-82514285D01*
X181889952Y-82466666D01*
X181845309Y-82442857D01*
X181750071Y-82442857D01*
X181699476Y-82466666D01*
X181878047Y-82752380D02*
X181827452Y-82776190D01*
X181708404Y-82776190D01*
X181663761Y-82752380D01*
X181645904Y-82704761D01*
X181651857Y-82657142D01*
X181681619Y-82609523D01*
X181732214Y-82585714D01*
X181851261Y-82585714D01*
X181901857Y-82561904D01*
X182107214Y-82442857D02*
X182184595Y-82776190D01*
X182345309Y-82442857D01*
X182687571Y-82752380D02*
X182636976Y-82776190D01*
X182541738Y-82776190D01*
X182497095Y-82752380D01*
X182479238Y-82704761D01*
X182503047Y-82514285D01*
X182532809Y-82466666D01*
X182583404Y-82442857D01*
X182678642Y-82442857D01*
X182723285Y-82466666D01*
X182741142Y-82514285D01*
X182735190Y-82561904D01*
X182491142Y-82609523D01*
D12*
X179691285Y-96782380D02*
X179691285Y-95782380D01*
X179941285Y-96496666D01*
X180191285Y-95782380D01*
X180191285Y-96782380D01*
X180655571Y-96782380D02*
X180584142Y-96734761D01*
X180548428Y-96687142D01*
X180512714Y-96591904D01*
X180512714Y-96306190D01*
X180548428Y-96210952D01*
X180584142Y-96163333D01*
X180655571Y-96115714D01*
X180762714Y-96115714D01*
X180834142Y-96163333D01*
X180869857Y-96210952D01*
X180905571Y-96306190D01*
X180905571Y-96591904D01*
X180869857Y-96687142D01*
X180834142Y-96734761D01*
X180762714Y-96782380D01*
X180655571Y-96782380D01*
X181334142Y-96782380D02*
X181262714Y-96734761D01*
X181227000Y-96639523D01*
X181227000Y-95782380D01*
X181905571Y-96734761D02*
X181834142Y-96782380D01*
X181691285Y-96782380D01*
X181619857Y-96734761D01*
X181584142Y-96639523D01*
X181584142Y-96258571D01*
X181619857Y-96163333D01*
X181691285Y-96115714D01*
X181834142Y-96115714D01*
X181905571Y-96163333D01*
X181941285Y-96258571D01*
X181941285Y-96353809D01*
X181584142Y-96449047D01*
X182191285Y-96782380D02*
X182584142Y-96115714D01*
X182191285Y-96115714D02*
X182584142Y-96782380D01*
X177673428Y-97527619D02*
X177709142Y-97480000D01*
X177780571Y-97432380D01*
X177959142Y-97432380D01*
X178030571Y-97480000D01*
X178066285Y-97527619D01*
X178102000Y-97622857D01*
X178102000Y-97718095D01*
X178066285Y-97860952D01*
X177637714Y-98432380D01*
X178102000Y-98432380D01*
X178816285Y-98432380D02*
X178387714Y-98432380D01*
X178602000Y-98432380D02*
X178602000Y-97432380D01*
X178530571Y-97575238D01*
X178459142Y-97670476D01*
X178387714Y-97718095D01*
X179066285Y-97432380D02*
X179566285Y-97432380D01*
X179244857Y-98432380D01*
X180244857Y-98432380D02*
X179816285Y-98432380D01*
X180030571Y-98432380D02*
X180030571Y-97432380D01*
X179959142Y-97575238D01*
X179887714Y-97670476D01*
X179816285Y-97718095D01*
X180673428Y-97860952D02*
X180602000Y-97813333D01*
X180566285Y-97765714D01*
X180530571Y-97670476D01*
X180530571Y-97622857D01*
X180566285Y-97527619D01*
X180602000Y-97480000D01*
X180673428Y-97432380D01*
X180816285Y-97432380D01*
X180887714Y-97480000D01*
X180923428Y-97527619D01*
X180959142Y-97622857D01*
X180959142Y-97670476D01*
X180923428Y-97765714D01*
X180887714Y-97813333D01*
X180816285Y-97860952D01*
X180673428Y-97860952D01*
X180602000Y-97908571D01*
X180566285Y-97956190D01*
X180530571Y-98051428D01*
X180530571Y-98241904D01*
X180566285Y-98337142D01*
X180602000Y-98384761D01*
X180673428Y-98432380D01*
X180816285Y-98432380D01*
X180887714Y-98384761D01*
X180923428Y-98337142D01*
X180959142Y-98241904D01*
X180959142Y-98051428D01*
X180923428Y-97956190D01*
X180887714Y-97908571D01*
X180816285Y-97860952D01*
X181423428Y-97432380D02*
X181494857Y-97432380D01*
X181566285Y-97480000D01*
X181602000Y-97527619D01*
X181637714Y-97622857D01*
X181673428Y-97813333D01*
X181673428Y-98051428D01*
X181637714Y-98241904D01*
X181602000Y-98337142D01*
X181566285Y-98384761D01*
X181494857Y-98432380D01*
X181423428Y-98432380D01*
X181352000Y-98384761D01*
X181316285Y-98337142D01*
X181280571Y-98241904D01*
X181244857Y-98051428D01*
X181244857Y-97813333D01*
X181280571Y-97622857D01*
X181316285Y-97527619D01*
X181352000Y-97480000D01*
X181423428Y-97432380D01*
X182137714Y-97432380D02*
X182209142Y-97432380D01*
X182280571Y-97480000D01*
X182316285Y-97527619D01*
X182352000Y-97622857D01*
X182387714Y-97813333D01*
X182387714Y-98051428D01*
X182352000Y-98241904D01*
X182316285Y-98337142D01*
X182280571Y-98384761D01*
X182209142Y-98432380D01*
X182137714Y-98432380D01*
X182066285Y-98384761D01*
X182030571Y-98337142D01*
X181994857Y-98241904D01*
X181959142Y-98051428D01*
X181959142Y-97813333D01*
X181994857Y-97622857D01*
X182030571Y-97527619D01*
X182066285Y-97480000D01*
X182137714Y-97432380D01*
X182852000Y-97432380D02*
X182923428Y-97432380D01*
X182994857Y-97480000D01*
X183030571Y-97527619D01*
X183066285Y-97622857D01*
X183102000Y-97813333D01*
X183102000Y-98051428D01*
X183066285Y-98241904D01*
X183030571Y-98337142D01*
X182994857Y-98384761D01*
X182923428Y-98432380D01*
X182852000Y-98432380D01*
X182780571Y-98384761D01*
X182744857Y-98337142D01*
X182709142Y-98241904D01*
X182673428Y-98051428D01*
X182673428Y-97813333D01*
X182709142Y-97622857D01*
X182744857Y-97527619D01*
X182780571Y-97480000D01*
X182852000Y-97432380D01*
X183566285Y-97432380D02*
X183637714Y-97432380D01*
X183709142Y-97480000D01*
X183744857Y-97527619D01*
X183780571Y-97622857D01*
X183816285Y-97813333D01*
X183816285Y-98051428D01*
X183780571Y-98241904D01*
X183744857Y-98337142D01*
X183709142Y-98384761D01*
X183637714Y-98432380D01*
X183566285Y-98432380D01*
X183494857Y-98384761D01*
X183459142Y-98337142D01*
X183423428Y-98241904D01*
X183387714Y-98051428D01*
X183387714Y-97813333D01*
X183423428Y-97622857D01*
X183459142Y-97527619D01*
X183494857Y-97480000D01*
X183566285Y-97432380D01*
X184530571Y-98432380D02*
X184102000Y-98432380D01*
X184316285Y-98432380D02*
X184316285Y-97432380D01*
X184244857Y-97575238D01*
X184173428Y-97670476D01*
X184102000Y-97718095D01*
D10*
X174517904Y-93960190D02*
X174279809Y-93960190D01*
X174256000Y-94198285D01*
X174279809Y-94174476D01*
X174327428Y-94150666D01*
X174446476Y-94150666D01*
X174494095Y-94174476D01*
X174517904Y-94198285D01*
X174541714Y-94245904D01*
X174541714Y-94364952D01*
X174517904Y-94412571D01*
X174494095Y-94436380D01*
X174446476Y-94460190D01*
X174327428Y-94460190D01*
X174279809Y-94436380D01*
X174256000Y-94412571D01*
X174756000Y-94412571D02*
X174779809Y-94436380D01*
X174756000Y-94460190D01*
X174732190Y-94436380D01*
X174756000Y-94412571D01*
X174756000Y-94460190D01*
X175256000Y-94460190D02*
X174970285Y-94460190D01*
X175113142Y-94460190D02*
X175113142Y-93960190D01*
X175065523Y-94031619D01*
X175017904Y-94079238D01*
X174970285Y-94103047D01*
X175470285Y-94460190D02*
X175470285Y-93960190D01*
X175756000Y-94460190D02*
X175541714Y-94174476D01*
X175756000Y-93960190D02*
X175470285Y-94245904D01*
X180867904Y-84816190D02*
X180629809Y-84816190D01*
X180606000Y-85054285D01*
X180629809Y-85030476D01*
X180677428Y-85006666D01*
X180796476Y-85006666D01*
X180844095Y-85030476D01*
X180867904Y-85054285D01*
X180891714Y-85101904D01*
X180891714Y-85220952D01*
X180867904Y-85268571D01*
X180844095Y-85292380D01*
X180796476Y-85316190D01*
X180677428Y-85316190D01*
X180629809Y-85292380D01*
X180606000Y-85268571D01*
X181106000Y-85268571D02*
X181129809Y-85292380D01*
X181106000Y-85316190D01*
X181082190Y-85292380D01*
X181106000Y-85268571D01*
X181106000Y-85316190D01*
X181606000Y-85316190D02*
X181320285Y-85316190D01*
X181463142Y-85316190D02*
X181463142Y-84816190D01*
X181415523Y-84887619D01*
X181367904Y-84935238D01*
X181320285Y-84959047D01*
X181820285Y-85316190D02*
X181820285Y-84816190D01*
X182106000Y-85316190D02*
X181891714Y-85030476D01*
X182106000Y-84816190D02*
X181820285Y-85101904D01*
X186789190Y-87713285D02*
X186789190Y-87999000D01*
X186789190Y-87856142D02*
X186289190Y-87856142D01*
X186360619Y-87903761D01*
X186408238Y-87951380D01*
X186432047Y-87999000D01*
X186741571Y-87499000D02*
X186765380Y-87475190D01*
X186789190Y-87499000D01*
X186765380Y-87522809D01*
X186741571Y-87499000D01*
X186789190Y-87499000D01*
X186289190Y-87022809D02*
X186289190Y-87260904D01*
X186527285Y-87284714D01*
X186503476Y-87260904D01*
X186479666Y-87213285D01*
X186479666Y-87094238D01*
X186503476Y-87046619D01*
X186527285Y-87022809D01*
X186574904Y-86999000D01*
X186693952Y-86999000D01*
X186741571Y-87022809D01*
X186765380Y-87046619D01*
X186789190Y-87094238D01*
X186789190Y-87213285D01*
X186765380Y-87260904D01*
X186741571Y-87284714D01*
X186789190Y-86784714D02*
X186289190Y-86784714D01*
X186789190Y-86499000D02*
X186503476Y-86713285D01*
X186289190Y-86499000D02*
X186574904Y-86784714D01*
X189214142Y-83927190D02*
X189118904Y-83927190D01*
X189071285Y-83951000D01*
X189047476Y-83974809D01*
X188999857Y-84046238D01*
X188976047Y-84141476D01*
X188976047Y-84331952D01*
X188999857Y-84379571D01*
X189023666Y-84403380D01*
X189071285Y-84427190D01*
X189166523Y-84427190D01*
X189214142Y-84403380D01*
X189237952Y-84379571D01*
X189261761Y-84331952D01*
X189261761Y-84212904D01*
X189237952Y-84165285D01*
X189214142Y-84141476D01*
X189166523Y-84117666D01*
X189071285Y-84117666D01*
X189023666Y-84141476D01*
X188999857Y-84165285D01*
X188976047Y-84212904D01*
X189547476Y-84141476D02*
X189499857Y-84117666D01*
X189476047Y-84093857D01*
X189452238Y-84046238D01*
X189452238Y-84022428D01*
X189476047Y-83974809D01*
X189499857Y-83951000D01*
X189547476Y-83927190D01*
X189642714Y-83927190D01*
X189690333Y-83951000D01*
X189714142Y-83974809D01*
X189737952Y-84022428D01*
X189737952Y-84046238D01*
X189714142Y-84093857D01*
X189690333Y-84117666D01*
X189642714Y-84141476D01*
X189547476Y-84141476D01*
X189499857Y-84165285D01*
X189476047Y-84189095D01*
X189452238Y-84236714D01*
X189452238Y-84331952D01*
X189476047Y-84379571D01*
X189499857Y-84403380D01*
X189547476Y-84427190D01*
X189642714Y-84427190D01*
X189690333Y-84403380D01*
X189714142Y-84379571D01*
X189737952Y-84331952D01*
X189737952Y-84236714D01*
X189714142Y-84189095D01*
X189690333Y-84165285D01*
X189642714Y-84141476D01*
X187309142Y-83927190D02*
X187213904Y-83927190D01*
X187166285Y-83951000D01*
X187142476Y-83974809D01*
X187094857Y-84046238D01*
X187071047Y-84141476D01*
X187071047Y-84331952D01*
X187094857Y-84379571D01*
X187118666Y-84403380D01*
X187166285Y-84427190D01*
X187261523Y-84427190D01*
X187309142Y-84403380D01*
X187332952Y-84379571D01*
X187356761Y-84331952D01*
X187356761Y-84212904D01*
X187332952Y-84165285D01*
X187309142Y-84141476D01*
X187261523Y-84117666D01*
X187166285Y-84117666D01*
X187118666Y-84141476D01*
X187094857Y-84165285D01*
X187071047Y-84212904D01*
X187642476Y-84141476D02*
X187594857Y-84117666D01*
X187571047Y-84093857D01*
X187547238Y-84046238D01*
X187547238Y-84022428D01*
X187571047Y-83974809D01*
X187594857Y-83951000D01*
X187642476Y-83927190D01*
X187737714Y-83927190D01*
X187785333Y-83951000D01*
X187809142Y-83974809D01*
X187832952Y-84022428D01*
X187832952Y-84046238D01*
X187809142Y-84093857D01*
X187785333Y-84117666D01*
X187737714Y-84141476D01*
X187642476Y-84141476D01*
X187594857Y-84165285D01*
X187571047Y-84189095D01*
X187547238Y-84236714D01*
X187547238Y-84331952D01*
X187571047Y-84379571D01*
X187594857Y-84403380D01*
X187642476Y-84427190D01*
X187737714Y-84427190D01*
X187785333Y-84403380D01*
X187809142Y-84379571D01*
X187832952Y-84331952D01*
X187832952Y-84236714D01*
X187809142Y-84189095D01*
X187785333Y-84165285D01*
X187737714Y-84141476D01*
X187494693Y-80365417D02*
X187494693Y-80127322D01*
X187637550Y-80430894D02*
X187137550Y-80201727D01*
X187637550Y-80097560D01*
X187137550Y-79939822D02*
X187137550Y-79654108D01*
X187637550Y-79859465D02*
X187137550Y-79796965D01*
X187304217Y-79579703D02*
X187304217Y-79389227D01*
X187137550Y-79487441D02*
X187566121Y-79541013D01*
X187613740Y-79523156D01*
X187637550Y-79478513D01*
X187637550Y-79430894D01*
X187637550Y-79264227D02*
X187304217Y-79222560D01*
X187137550Y-79201727D02*
X187161360Y-79228513D01*
X187185169Y-79207679D01*
X187161360Y-79180894D01*
X187137550Y-79201727D01*
X187185169Y-79207679D01*
X187304217Y-78984465D02*
X187637550Y-79026132D01*
X187351836Y-78990417D02*
X187328026Y-78963632D01*
X187304217Y-78913036D01*
X187304217Y-78841608D01*
X187328026Y-78796965D01*
X187375645Y-78779108D01*
X187637550Y-78811846D01*
X187304217Y-78579703D02*
X187637550Y-78502322D01*
X187304217Y-78341608D02*
X187637550Y-78502322D01*
X187756598Y-78564822D01*
X187780407Y-78591608D01*
X187804217Y-78642203D01*
X187351836Y-78085656D02*
X187328026Y-78130298D01*
X187304217Y-78151132D01*
X187256598Y-78168989D01*
X187232788Y-78166013D01*
X187185169Y-78136251D01*
X187161360Y-78109465D01*
X187137550Y-78058870D01*
X187137550Y-77963632D01*
X187161360Y-77918989D01*
X187185169Y-77898156D01*
X187232788Y-77880298D01*
X187256598Y-77883275D01*
X187304217Y-77913036D01*
X187328026Y-77939822D01*
X187351836Y-77990417D01*
X187351836Y-78085656D01*
X187375645Y-78136251D01*
X187399455Y-78163036D01*
X187447074Y-78192798D01*
X187542312Y-78204703D01*
X187589931Y-78186846D01*
X187613740Y-78166013D01*
X187637550Y-78121370D01*
X187637550Y-78026132D01*
X187613740Y-77975536D01*
X187589931Y-77948751D01*
X187542312Y-77918989D01*
X187447074Y-77907084D01*
X187399455Y-77924941D01*
X187375645Y-77945775D01*
X187351836Y-77990417D01*
X187137550Y-77416013D02*
X187137550Y-77654108D01*
X187375645Y-77707679D01*
X187351836Y-77680894D01*
X187328026Y-77630298D01*
X187328026Y-77511251D01*
X187351836Y-77466608D01*
X187375645Y-77445775D01*
X187423264Y-77427917D01*
X187542312Y-77442798D01*
X187589931Y-77472560D01*
X187613740Y-77499346D01*
X187637550Y-77549941D01*
X187637550Y-77668989D01*
X187613740Y-77713632D01*
X187589931Y-77734465D01*
X187447074Y-77216608D02*
X187447074Y-76835656D01*
X187185169Y-76588632D02*
X187161360Y-76561846D01*
X187137550Y-76511251D01*
X187137550Y-76392203D01*
X187161360Y-76347560D01*
X187185169Y-76326727D01*
X187232788Y-76308870D01*
X187280407Y-76314822D01*
X187351836Y-76347560D01*
X187637550Y-76668989D01*
X187637550Y-76359465D01*
X187137550Y-75987441D02*
X187137550Y-75939822D01*
X187161360Y-75895179D01*
X187185169Y-75874346D01*
X187232788Y-75856489D01*
X187328026Y-75844584D01*
X187447074Y-75859465D01*
X187542312Y-75895179D01*
X187589931Y-75924941D01*
X187613740Y-75951727D01*
X187637550Y-76002322D01*
X187637550Y-76049941D01*
X187613740Y-76094584D01*
X187589931Y-76115417D01*
X187542312Y-76133275D01*
X187447074Y-76145179D01*
X187328026Y-76130298D01*
X187232788Y-76094584D01*
X187185169Y-76064822D01*
X187161360Y-76038036D01*
X187137550Y-75987441D01*
X187613740Y-75689822D02*
X187637550Y-75621370D01*
X187637550Y-75502322D01*
X187613740Y-75451727D01*
X187589931Y-75424941D01*
X187542312Y-75395179D01*
X187494693Y-75389227D01*
X187447074Y-75407084D01*
X187423264Y-75427917D01*
X187399455Y-75472560D01*
X187375645Y-75564822D01*
X187351836Y-75609465D01*
X187328026Y-75630298D01*
X187280407Y-75648156D01*
X187232788Y-75642203D01*
X187185169Y-75612441D01*
X187161360Y-75585656D01*
X187137550Y-75535060D01*
X187137550Y-75416013D01*
X187161360Y-75347560D01*
X187137550Y-75130298D02*
X187542312Y-75180894D01*
X187589931Y-75163036D01*
X187613740Y-75142203D01*
X187637550Y-75097560D01*
X187637550Y-75002322D01*
X187613740Y-74951727D01*
X187589931Y-74924941D01*
X187542312Y-74895179D01*
X187137550Y-74844584D01*
X181844190Y-76238800D02*
X181844190Y-76191180D01*
X181868000Y-76143561D01*
X181891809Y-76119752D01*
X181939428Y-76095942D01*
X182034666Y-76072133D01*
X182153714Y-76072133D01*
X182248952Y-76095942D01*
X182296571Y-76119752D01*
X182320380Y-76143561D01*
X182344190Y-76191180D01*
X182344190Y-76238800D01*
X182320380Y-76286419D01*
X182296571Y-76310228D01*
X182248952Y-76334038D01*
X182153714Y-76357847D01*
X182034666Y-76357847D01*
X181939428Y-76334038D01*
X181891809Y-76310228D01*
X181868000Y-76286419D01*
X181844190Y-76238800D01*
X182296571Y-75857847D02*
X182320380Y-75834038D01*
X182344190Y-75857847D01*
X182320380Y-75881657D01*
X182296571Y-75857847D01*
X182344190Y-75857847D01*
X182344190Y-75357847D02*
X182344190Y-75643561D01*
X182344190Y-75500704D02*
X181844190Y-75500704D01*
X181915619Y-75548323D01*
X181963238Y-75595942D01*
X181987047Y-75643561D01*
X182010857Y-74929276D02*
X182344190Y-74929276D01*
X182010857Y-75143561D02*
X182272761Y-75143561D01*
X182320380Y-75119752D01*
X182344190Y-75072133D01*
X182344190Y-75000704D01*
X182320380Y-74953085D01*
X182296571Y-74929276D01*
X182010857Y-74762609D02*
X182010857Y-74572133D01*
X182344190Y-74691180D02*
X181915619Y-74691180D01*
X181868000Y-74667371D01*
X181844190Y-74619752D01*
X181844190Y-74572133D01*
D11*
X174014380Y-81252190D02*
X174014380Y-80752190D01*
X174204857Y-80752190D01*
X174252476Y-80776000D01*
X174276285Y-80799809D01*
X174300095Y-80847428D01*
X174300095Y-80918857D01*
X174276285Y-80966476D01*
X174252476Y-80990285D01*
X174204857Y-81014095D01*
X174014380Y-81014095D01*
X174466761Y-80918857D02*
X174585809Y-81252190D01*
X174704857Y-80918857D02*
X174585809Y-81252190D01*
X174538190Y-81371238D01*
X174514380Y-81395047D01*
X174466761Y-81418857D01*
X174895333Y-81252190D02*
X174895333Y-80918857D01*
X174895333Y-81014095D02*
X174919142Y-80966476D01*
X174942952Y-80942666D01*
X174990571Y-80918857D01*
X175038190Y-80918857D01*
X175276285Y-81252190D02*
X175228666Y-81228380D01*
X175204857Y-81204571D01*
X175181047Y-81156952D01*
X175181047Y-81014095D01*
X175204857Y-80966476D01*
X175228666Y-80942666D01*
X175276285Y-80918857D01*
X175347714Y-80918857D01*
X175395333Y-80942666D01*
X175419142Y-80966476D01*
X175442952Y-81014095D01*
X175442952Y-81156952D01*
X175419142Y-81204571D01*
X175395333Y-81228380D01*
X175347714Y-81252190D01*
X175276285Y-81252190D01*
X175895333Y-81252190D02*
X175657238Y-81252190D01*
X175657238Y-80752190D01*
X176657238Y-81252190D02*
X176657238Y-80990285D01*
X176633428Y-80942666D01*
X176585809Y-80918857D01*
X176490571Y-80918857D01*
X176442952Y-80942666D01*
X176657238Y-81228380D02*
X176609619Y-81252190D01*
X176490571Y-81252190D01*
X176442952Y-81228380D01*
X176419142Y-81180761D01*
X176419142Y-81133142D01*
X176442952Y-81085523D01*
X176490571Y-81061714D01*
X176609619Y-81061714D01*
X176657238Y-81037904D01*
X176895333Y-80918857D02*
X176895333Y-81252190D01*
X176895333Y-80966476D02*
X176919142Y-80942666D01*
X176966761Y-80918857D01*
X177038190Y-80918857D01*
X177085809Y-80942666D01*
X177109619Y-80990285D01*
X177109619Y-81252190D01*
X177562000Y-81252190D02*
X177562000Y-80752190D01*
X177562000Y-81228380D02*
X177514380Y-81252190D01*
X177419142Y-81252190D01*
X177371523Y-81228380D01*
X177347714Y-81204571D01*
X177323904Y-81156952D01*
X177323904Y-81014095D01*
X177347714Y-80966476D01*
X177371523Y-80942666D01*
X177419142Y-80918857D01*
X177514380Y-80918857D01*
X177562000Y-80942666D01*
X178181047Y-80918857D02*
X178181047Y-81347428D01*
X178157238Y-81395047D01*
X178109619Y-81418857D01*
X178085809Y-81418857D01*
X178181047Y-80752190D02*
X178157238Y-80776000D01*
X178181047Y-80799809D01*
X178204857Y-80776000D01*
X178181047Y-80752190D01*
X178181047Y-80799809D01*
X178609619Y-81228380D02*
X178562000Y-81252190D01*
X178466761Y-81252190D01*
X178419142Y-81228380D01*
X178395333Y-81180761D01*
X178395333Y-80990285D01*
X178419142Y-80942666D01*
X178466761Y-80918857D01*
X178562000Y-80918857D01*
X178609619Y-80942666D01*
X178633428Y-80990285D01*
X178633428Y-81037904D01*
X178395333Y-81085523D01*
X178776285Y-80918857D02*
X178966761Y-80918857D01*
X178847714Y-80752190D02*
X178847714Y-81180761D01*
X178871523Y-81228380D01*
X178919142Y-81252190D01*
X178966761Y-81252190D01*
X179133428Y-80918857D02*
X179133428Y-81418857D01*
X179133428Y-80942666D02*
X179181047Y-80918857D01*
X179276285Y-80918857D01*
X179323904Y-80942666D01*
X179347714Y-80966476D01*
X179371523Y-81014095D01*
X179371523Y-81156952D01*
X179347714Y-81204571D01*
X179323904Y-81228380D01*
X179276285Y-81252190D01*
X179181047Y-81252190D01*
X179133428Y-81228380D01*
X179800095Y-81252190D02*
X179800095Y-80990285D01*
X179776285Y-80942666D01*
X179728666Y-80918857D01*
X179633428Y-80918857D01*
X179585809Y-80942666D01*
X179800095Y-81228380D02*
X179752476Y-81252190D01*
X179633428Y-81252190D01*
X179585809Y-81228380D01*
X179562000Y-81180761D01*
X179562000Y-81133142D01*
X179585809Y-81085523D01*
X179633428Y-81061714D01*
X179752476Y-81061714D01*
X179800095Y-81037904D01*
X180252476Y-81228380D02*
X180204857Y-81252190D01*
X180109619Y-81252190D01*
X180062000Y-81228380D01*
X180038190Y-81204571D01*
X180014380Y-81156952D01*
X180014380Y-81014095D01*
X180038190Y-80966476D01*
X180062000Y-80942666D01*
X180109619Y-80918857D01*
X180204857Y-80918857D01*
X180252476Y-80942666D01*
X180466761Y-81252190D02*
X180466761Y-80752190D01*
X180514380Y-81061714D02*
X180657238Y-81252190D01*
X180657238Y-80918857D02*
X180466761Y-81109333D01*
X180800095Y-80918857D02*
X180990571Y-80918857D01*
X180871523Y-80752190D02*
X180871523Y-81180761D01*
X180895333Y-81228380D01*
X180942952Y-81252190D01*
X180990571Y-81252190D01*
X181371523Y-80918857D02*
X181371523Y-81252190D01*
X181157238Y-80918857D02*
X181157238Y-81180761D01*
X181181047Y-81228380D01*
X181228666Y-81252190D01*
X181300095Y-81252190D01*
X181347714Y-81228380D01*
X181371523Y-81204571D01*
X181562000Y-81252190D02*
X181823904Y-80918857D01*
X181562000Y-80918857D02*
X181823904Y-81252190D01*
X182204857Y-81228380D02*
X182157238Y-81252190D01*
X182062000Y-81252190D01*
X182014380Y-81228380D01*
X181990571Y-81180761D01*
X181990571Y-80990285D01*
X182014380Y-80942666D01*
X182062000Y-80918857D01*
X182157238Y-80918857D01*
X182204857Y-80942666D01*
X182228666Y-80990285D01*
X182228666Y-81037904D01*
X181990571Y-81085523D01*
X182657238Y-81252190D02*
X182657238Y-80752190D01*
X182657238Y-81228380D02*
X182609619Y-81252190D01*
X182514380Y-81252190D01*
X182466761Y-81228380D01*
X182442952Y-81204571D01*
X182419142Y-81156952D01*
X182419142Y-81014095D01*
X182442952Y-80966476D01*
X182466761Y-80942666D01*
X182514380Y-80918857D01*
X182609619Y-80918857D01*
X182657238Y-80942666D01*
X182966761Y-81252190D02*
X182919142Y-81228380D01*
X182895333Y-81204571D01*
X182871523Y-81156952D01*
X182871523Y-81014095D01*
X182895333Y-80966476D01*
X182919142Y-80942666D01*
X182966761Y-80918857D01*
X183038190Y-80918857D01*
X183085809Y-80942666D01*
X183109619Y-80966476D01*
X183133428Y-81014095D01*
X183133428Y-81156952D01*
X183109619Y-81204571D01*
X183085809Y-81228380D01*
X183038190Y-81252190D01*
X182966761Y-81252190D01*
D12*
X172919142Y-80349285D02*
X172919142Y-79599285D01*
X172919142Y-79885000D02*
X172990571Y-79849285D01*
X173133428Y-79849285D01*
X173204857Y-79885000D01*
X173240571Y-79920714D01*
X173276285Y-79992142D01*
X173276285Y-80206428D01*
X173240571Y-80277857D01*
X173204857Y-80313571D01*
X173133428Y-80349285D01*
X172990571Y-80349285D01*
X172919142Y-80313571D01*
X173526285Y-79849285D02*
X173704857Y-80349285D01*
X173883428Y-79849285D02*
X173704857Y-80349285D01*
X173633428Y-80527857D01*
X173597714Y-80563571D01*
X173526285Y-80599285D01*
X174704857Y-80313571D02*
X174812000Y-80349285D01*
X174990571Y-80349285D01*
X175062000Y-80313571D01*
X175097714Y-80277857D01*
X175133428Y-80206428D01*
X175133428Y-80135000D01*
X175097714Y-80063571D01*
X175062000Y-80027857D01*
X174990571Y-79992142D01*
X174847714Y-79956428D01*
X174776285Y-79920714D01*
X174740571Y-79885000D01*
X174704857Y-79813571D01*
X174704857Y-79742142D01*
X174740571Y-79670714D01*
X174776285Y-79635000D01*
X174847714Y-79599285D01*
X175026285Y-79599285D01*
X175133428Y-79635000D01*
X175454857Y-79849285D02*
X175454857Y-80599285D01*
X175454857Y-79885000D02*
X175526285Y-79849285D01*
X175669142Y-79849285D01*
X175740571Y-79885000D01*
X175776285Y-79920714D01*
X175812000Y-79992142D01*
X175812000Y-80206428D01*
X175776285Y-80277857D01*
X175740571Y-80313571D01*
X175669142Y-80349285D01*
X175526285Y-80349285D01*
X175454857Y-80313571D01*
X176454857Y-80349285D02*
X176454857Y-79956428D01*
X176419142Y-79885000D01*
X176347714Y-79849285D01*
X176204857Y-79849285D01*
X176133428Y-79885000D01*
X176454857Y-80313571D02*
X176383428Y-80349285D01*
X176204857Y-80349285D01*
X176133428Y-80313571D01*
X176097714Y-80242142D01*
X176097714Y-80170714D01*
X176133428Y-80099285D01*
X176204857Y-80063571D01*
X176383428Y-80063571D01*
X176454857Y-80027857D01*
X177133428Y-80313571D02*
X177062000Y-80349285D01*
X176919142Y-80349285D01*
X176847714Y-80313571D01*
X176812000Y-80277857D01*
X176776285Y-80206428D01*
X176776285Y-79992142D01*
X176812000Y-79920714D01*
X176847714Y-79885000D01*
X176919142Y-79849285D01*
X177062000Y-79849285D01*
X177133428Y-79885000D01*
X177740571Y-80313571D02*
X177669142Y-80349285D01*
X177526285Y-80349285D01*
X177454857Y-80313571D01*
X177419142Y-80242142D01*
X177419142Y-79956428D01*
X177454857Y-79885000D01*
X177526285Y-79849285D01*
X177669142Y-79849285D01*
X177740571Y-79885000D01*
X177776285Y-79956428D01*
X177776285Y-80027857D01*
X177419142Y-80099285D01*
X178097714Y-80349285D02*
X178097714Y-79849285D01*
X178097714Y-79920714D02*
X178133428Y-79885000D01*
X178204857Y-79849285D01*
X178312000Y-79849285D01*
X178383428Y-79885000D01*
X178419142Y-79956428D01*
X178419142Y-80349285D01*
X178419142Y-79956428D02*
X178454857Y-79885000D01*
X178526285Y-79849285D01*
X178633428Y-79849285D01*
X178704857Y-79885000D01*
X178740571Y-79956428D01*
X178740571Y-80349285D01*
X179419142Y-80349285D02*
X179419142Y-79956428D01*
X179383428Y-79885000D01*
X179312000Y-79849285D01*
X179169142Y-79849285D01*
X179097714Y-79885000D01*
X179419142Y-80313571D02*
X179347714Y-80349285D01*
X179169142Y-80349285D01*
X179097714Y-80313571D01*
X179062000Y-80242142D01*
X179062000Y-80170714D01*
X179097714Y-80099285D01*
X179169142Y-80063571D01*
X179347714Y-80063571D01*
X179419142Y-80027857D01*
X179776285Y-79849285D02*
X179776285Y-80349285D01*
X179776285Y-79920714D02*
X179812000Y-79885000D01*
X179883428Y-79849285D01*
X179990571Y-79849285D01*
X180062000Y-79885000D01*
X180097714Y-79956428D01*
X180097714Y-80349285D01*
X180490571Y-80313571D02*
X180490571Y-80349285D01*
X180454857Y-80420714D01*
X180419142Y-80456428D01*
X181347714Y-80313571D02*
X181454857Y-80349285D01*
X181633428Y-80349285D01*
X181704857Y-80313571D01*
X181740571Y-80277857D01*
X181776285Y-80206428D01*
X181776285Y-80135000D01*
X181740571Y-80063571D01*
X181704857Y-80027857D01*
X181633428Y-79992142D01*
X181490571Y-79956428D01*
X181419142Y-79920714D01*
X181383428Y-79885000D01*
X181347714Y-79813571D01*
X181347714Y-79742142D01*
X181383428Y-79670714D01*
X181419142Y-79635000D01*
X181490571Y-79599285D01*
X181669142Y-79599285D01*
X181776285Y-79635000D01*
X182204857Y-80349285D02*
X182133428Y-80313571D01*
X182097714Y-80277857D01*
X182062000Y-80206428D01*
X182062000Y-79992142D01*
X182097714Y-79920714D01*
X182133428Y-79885000D01*
X182204857Y-79849285D01*
X182312000Y-79849285D01*
X182383428Y-79885000D01*
X182419142Y-79920714D01*
X182454857Y-79992142D01*
X182454857Y-80206428D01*
X182419142Y-80277857D01*
X182383428Y-80313571D01*
X182312000Y-80349285D01*
X182204857Y-80349285D01*
X182669142Y-79849285D02*
X182954857Y-79849285D01*
X182776285Y-80349285D02*
X182776285Y-79706428D01*
X182812000Y-79635000D01*
X182883428Y-79599285D01*
X182954857Y-79599285D01*
X183097714Y-79849285D02*
X183383428Y-79849285D01*
X183204857Y-79599285D02*
X183204857Y-80242142D01*
X183240571Y-80313571D01*
X183312000Y-80349285D01*
X183383428Y-80349285D01*
X183669142Y-80313571D02*
X183669142Y-80349285D01*
X183633428Y-80420714D01*
X183597714Y-80456428D01*
D13*
X172276238Y-77327238D02*
X172371476Y-77232000D01*
X172561952Y-77136761D01*
X173038142Y-77136761D01*
X173228619Y-77232000D01*
X173323857Y-77327238D01*
X173419095Y-77517714D01*
X173419095Y-77708190D01*
X173323857Y-77993904D01*
X172181000Y-79136761D01*
X173419095Y-79136761D01*
X174181000Y-79136761D02*
X175704809Y-77136761D01*
X174466714Y-77136761D02*
X174657190Y-77232000D01*
X174752428Y-77422476D01*
X174657190Y-77612952D01*
X174466714Y-77708190D01*
X174276238Y-77612952D01*
X174181000Y-77422476D01*
X174276238Y-77232000D01*
X174466714Y-77136761D01*
X175609571Y-79041523D02*
X175704809Y-78851047D01*
X175609571Y-78660571D01*
X175419095Y-78565333D01*
X175228619Y-78660571D01*
X175133380Y-78851047D01*
X175228619Y-79041523D01*
X175419095Y-79136761D01*
X175609571Y-79041523D01*
X178085761Y-79136761D02*
X178085761Y-77136761D01*
X178752428Y-78565333D01*
X179419095Y-77136761D01*
X179419095Y-79136761D01*
X180371476Y-79136761D02*
X180371476Y-77136761D01*
X182276238Y-79136761D02*
X181323857Y-79136761D01*
X181323857Y-77136761D01*
X182942904Y-79136761D02*
X182942904Y-77136761D01*
X184085761Y-79136761D02*
X183228619Y-77993904D01*
X184085761Y-77136761D02*
X182942904Y-78279619D01*
D10*
X172733923Y-64851790D02*
X172495828Y-64851790D01*
X172472019Y-65089885D01*
X172495828Y-65066076D01*
X172543447Y-65042266D01*
X172662495Y-65042266D01*
X172710114Y-65066076D01*
X172733923Y-65089885D01*
X172757733Y-65137504D01*
X172757733Y-65256552D01*
X172733923Y-65304171D01*
X172710114Y-65327980D01*
X172662495Y-65351790D01*
X172543447Y-65351790D01*
X172495828Y-65327980D01*
X172472019Y-65304171D01*
X172972019Y-65161314D02*
X173352971Y-65161314D01*
X173162495Y-65351790D02*
X173162495Y-64970838D01*
X173710114Y-65518457D02*
X173710114Y-64804171D01*
X174352971Y-65351790D02*
X174186304Y-65113695D01*
X174067257Y-65351790D02*
X174067257Y-64851790D01*
X174257733Y-64851790D01*
X174305352Y-64875600D01*
X174329161Y-64899409D01*
X174352971Y-64947028D01*
X174352971Y-65018457D01*
X174329161Y-65066076D01*
X174305352Y-65089885D01*
X174257733Y-65113695D01*
X174067257Y-65113695D01*
X174829161Y-64875600D02*
X174781542Y-64851790D01*
X174710114Y-64851790D01*
X174638685Y-64875600D01*
X174591066Y-64923219D01*
X174567257Y-64970838D01*
X174543447Y-65066076D01*
X174543447Y-65137504D01*
X174567257Y-65232742D01*
X174591066Y-65280361D01*
X174638685Y-65327980D01*
X174710114Y-65351790D01*
X174757733Y-65351790D01*
X174829161Y-65327980D01*
X174852971Y-65304171D01*
X174852971Y-65137504D01*
X174757733Y-65137504D01*
X175233923Y-65089885D02*
X175305352Y-65113695D01*
X175329161Y-65137504D01*
X175352971Y-65185123D01*
X175352971Y-65256552D01*
X175329161Y-65304171D01*
X175305352Y-65327980D01*
X175257733Y-65351790D01*
X175067257Y-65351790D01*
X175067257Y-64851790D01*
X175233923Y-64851790D01*
X175281542Y-64875600D01*
X175305352Y-64899409D01*
X175329161Y-64947028D01*
X175329161Y-64994647D01*
X175305352Y-65042266D01*
X175281542Y-65066076D01*
X175233923Y-65089885D01*
X175067257Y-65089885D01*
X175686304Y-65518457D02*
X175686304Y-64804171D01*
X176305352Y-64875600D02*
X176257733Y-64851790D01*
X176186304Y-64851790D01*
X176114876Y-64875600D01*
X176067257Y-64923219D01*
X176043447Y-64970838D01*
X176019638Y-65066076D01*
X176019638Y-65137504D01*
X176043447Y-65232742D01*
X176067257Y-65280361D01*
X176114876Y-65327980D01*
X176186304Y-65351790D01*
X176233923Y-65351790D01*
X176305352Y-65327980D01*
X176329161Y-65304171D01*
X176329161Y-65137504D01*
X176233923Y-65137504D01*
X176543447Y-65351790D02*
X176543447Y-64851790D01*
X176829161Y-65351790D01*
X176829161Y-64851790D01*
X177067257Y-65351790D02*
X177067257Y-64851790D01*
X177186304Y-64851790D01*
X177257733Y-64875600D01*
X177305352Y-64923219D01*
X177329161Y-64970838D01*
X177352971Y-65066076D01*
X177352971Y-65137504D01*
X177329161Y-65232742D01*
X177305352Y-65280361D01*
X177257733Y-65327980D01*
X177186304Y-65351790D01*
X177067257Y-65351790D01*
X177686304Y-65518457D02*
X177686304Y-64804171D01*
X178329161Y-65351790D02*
X178162495Y-65113695D01*
X178043447Y-65351790D02*
X178043447Y-64851790D01*
X178233923Y-64851790D01*
X178281542Y-64875600D01*
X178305352Y-64899409D01*
X178329161Y-64947028D01*
X178329161Y-65018457D01*
X178305352Y-65066076D01*
X178281542Y-65089885D01*
X178233923Y-65113695D01*
X178043447Y-65113695D01*
X178733923Y-65327980D02*
X178686304Y-65351790D01*
X178591066Y-65351790D01*
X178543447Y-65327980D01*
X178519638Y-65280361D01*
X178519638Y-65089885D01*
X178543447Y-65042266D01*
X178591066Y-65018457D01*
X178686304Y-65018457D01*
X178733923Y-65042266D01*
X178757733Y-65089885D01*
X178757733Y-65137504D01*
X178519638Y-65185123D01*
X178948209Y-65327980D02*
X178995828Y-65351790D01*
X179091066Y-65351790D01*
X179138685Y-65327980D01*
X179162495Y-65280361D01*
X179162495Y-65256552D01*
X179138685Y-65208933D01*
X179091066Y-65185123D01*
X179019638Y-65185123D01*
X178972019Y-65161314D01*
X178948209Y-65113695D01*
X178948209Y-65089885D01*
X178972019Y-65042266D01*
X179019638Y-65018457D01*
X179091066Y-65018457D01*
X179138685Y-65042266D01*
X179567257Y-65327980D02*
X179519638Y-65351790D01*
X179424400Y-65351790D01*
X179376780Y-65327980D01*
X179352971Y-65280361D01*
X179352971Y-65089885D01*
X179376780Y-65042266D01*
X179424400Y-65018457D01*
X179519638Y-65018457D01*
X179567257Y-65042266D01*
X179591066Y-65089885D01*
X179591066Y-65137504D01*
X179352971Y-65185123D01*
X179733923Y-65018457D02*
X179924400Y-65018457D01*
X179805352Y-64851790D02*
X179805352Y-65280361D01*
X179829161Y-65327980D01*
X179876780Y-65351790D01*
X179924400Y-65351790D01*
D12*
X183255800Y-64160200D02*
X183255800Y-63910200D01*
X188955800Y-64160200D02*
X183255800Y-64160200D01*
X188955800Y-64160200D02*
X188955800Y-63910200D01*
X188955800Y-60960200D02*
X188955800Y-61210200D01*
X183255800Y-60960200D02*
X183255800Y-61210200D01*
X188955800Y-60960200D02*
X183255800Y-60960200D01*
X184671600Y-80245400D02*
X184876600Y-80245400D01*
X184671600Y-74745400D02*
X184971600Y-74745400D01*
X190181600Y-74745400D02*
X189881600Y-74745400D01*
X190181600Y-80245400D02*
X189881600Y-80245400D01*
X184671600Y-80245400D02*
X184671600Y-74745400D01*
X190181600Y-80245400D02*
X190181600Y-74745400D01*
X184876600Y-80245400D02*
X184876600Y-81995400D01*
D14*
X186323236Y-86323500D02*
X186777364Y-86323500D01*
X186323236Y-87793500D02*
X186777364Y-87793500D01*
X190142800Y-83973936D02*
X190142800Y-84428064D01*
X188672800Y-83973936D02*
X188672800Y-84428064D01*
X188187000Y-83973936D02*
X188187000Y-84428064D01*
X186717000Y-83973936D02*
X186717000Y-84428064D01*
X181481400Y-84862936D02*
X181481400Y-85317064D01*
X180011400Y-84862936D02*
X180011400Y-85317064D01*
X174004300Y-94435664D02*
X174004300Y-93981536D01*
X175474300Y-94435664D02*
X175474300Y-93981536D01*
X190241600Y-89785236D02*
X190241600Y-91239364D01*
X188421600Y-89785236D02*
X188421600Y-91239364D01*
X190255400Y-93952500D02*
X188255400Y-93952500D01*
X188255400Y-93952500D02*
X188255400Y-97852500D01*
X190255400Y-93952500D02*
X190255400Y-97852500D01*
X172710600Y-91975500D02*
X174710600Y-91975500D01*
X174710600Y-91975500D02*
X174710600Y-88075500D01*
X172710600Y-91975500D02*
X172710600Y-88075500D01*
X184173800Y-74363948D02*
X184173800Y-74886452D01*
X182703800Y-74363948D02*
X182703800Y-74886452D01*
D12*
X184653419Y-63012580D02*
X184320085Y-62536390D01*
X184081990Y-63012580D02*
X184081990Y-62012580D01*
X184462942Y-62012580D01*
X184558180Y-62060200D01*
X184605800Y-62107819D01*
X184653419Y-62203057D01*
X184653419Y-62345914D01*
X184605800Y-62441152D01*
X184558180Y-62488771D01*
X184462942Y-62536390D01*
X184081990Y-62536390D01*
X185081990Y-62488771D02*
X185415323Y-62488771D01*
X185558180Y-63012580D02*
X185081990Y-63012580D01*
X185081990Y-62012580D01*
X185558180Y-62012580D01*
X185939133Y-62964961D02*
X186081990Y-63012580D01*
X186320085Y-63012580D01*
X186415323Y-62964961D01*
X186462942Y-62917342D01*
X186510561Y-62822104D01*
X186510561Y-62726866D01*
X186462942Y-62631628D01*
X186415323Y-62584009D01*
X186320085Y-62536390D01*
X186129609Y-62488771D01*
X186034371Y-62441152D01*
X185986752Y-62393533D01*
X185939133Y-62298295D01*
X185939133Y-62203057D01*
X185986752Y-62107819D01*
X186034371Y-62060200D01*
X186129609Y-62012580D01*
X186367704Y-62012580D01*
X186510561Y-62060200D01*
X186939133Y-62488771D02*
X187272466Y-62488771D01*
X187415323Y-63012580D02*
X186939133Y-63012580D01*
X186939133Y-62012580D01*
X187415323Y-62012580D01*
X187701038Y-62012580D02*
X188272466Y-62012580D01*
X187986752Y-63012580D02*
X187986752Y-62012580D01*
X176593666Y-85113761D02*
X176736523Y-85161380D01*
X176974619Y-85161380D01*
X177069857Y-85113761D01*
X177117476Y-85066142D01*
X177165095Y-84970904D01*
X177165095Y-84875666D01*
X177117476Y-84780428D01*
X177069857Y-84732809D01*
X176974619Y-84685190D01*
X176784142Y-84637571D01*
X176688904Y-84589952D01*
X176641285Y-84542333D01*
X176593666Y-84447095D01*
X176593666Y-84351857D01*
X176641285Y-84256619D01*
X176688904Y-84209000D01*
X176784142Y-84161380D01*
X177022238Y-84161380D01*
X177165095Y-84209000D01*
X177498428Y-84161380D02*
X177736523Y-85161380D01*
X177927000Y-84447095D01*
X178117476Y-85161380D01*
X178355571Y-84161380D01*
X178688904Y-84256619D02*
X178736523Y-84209000D01*
X178831761Y-84161380D01*
X179069857Y-84161380D01*
X179165095Y-84209000D01*
X179212714Y-84256619D01*
X179260333Y-84351857D01*
X179260333Y-84447095D01*
X179212714Y-84589952D01*
X178641285Y-85161380D01*
X179260333Y-85161380D01*
X179692466Y-67587761D02*
X179835323Y-67635380D01*
X180073419Y-67635380D01*
X180168657Y-67587761D01*
X180216276Y-67540142D01*
X180263895Y-67444904D01*
X180263895Y-67349666D01*
X180216276Y-67254428D01*
X180168657Y-67206809D01*
X180073419Y-67159190D01*
X179882942Y-67111571D01*
X179787704Y-67063952D01*
X179740085Y-67016333D01*
X179692466Y-66921095D01*
X179692466Y-66825857D01*
X179740085Y-66730619D01*
X179787704Y-66683000D01*
X179882942Y-66635380D01*
X180121038Y-66635380D01*
X180263895Y-66683000D01*
X180597228Y-66635380D02*
X180835323Y-67635380D01*
X181025800Y-66921095D01*
X181216276Y-67635380D01*
X181454371Y-66635380D01*
X182359133Y-67635380D02*
X181787704Y-67635380D01*
X182073419Y-67635380D02*
X182073419Y-66635380D01*
X181978180Y-66778238D01*
X181882942Y-66873476D01*
X181787704Y-66921095D01*
X189285571Y-90845633D02*
X189285571Y-91178966D01*
X189809380Y-91178966D02*
X188809380Y-91178966D01*
X188809380Y-90702776D01*
X189809380Y-89798014D02*
X189809380Y-90369442D01*
X189809380Y-90083728D02*
X188809380Y-90083728D01*
X188952238Y-90178966D01*
X189047476Y-90274204D01*
X189095095Y-90369442D01*
X189809380Y-96940595D02*
X188809380Y-96940595D01*
X188809380Y-96702500D01*
X188857000Y-96559642D01*
X188952238Y-96464404D01*
X189047476Y-96416785D01*
X189237952Y-96369166D01*
X189380809Y-96369166D01*
X189571285Y-96416785D01*
X189666523Y-96464404D01*
X189761761Y-96559642D01*
X189809380Y-96702500D01*
X189809380Y-96940595D01*
X188904619Y-95988214D02*
X188857000Y-95940595D01*
X188809380Y-95845357D01*
X188809380Y-95607261D01*
X188857000Y-95512023D01*
X188904619Y-95464404D01*
X188999857Y-95416785D01*
X189095095Y-95416785D01*
X189237952Y-95464404D01*
X189809380Y-96035833D01*
X189809380Y-95416785D01*
X174188380Y-90463595D02*
X173188380Y-90463595D01*
X173188380Y-90225500D01*
X173236000Y-90082642D01*
X173331238Y-89987404D01*
X173426476Y-89939785D01*
X173616952Y-89892166D01*
X173759809Y-89892166D01*
X173950285Y-89939785D01*
X174045523Y-89987404D01*
X174140761Y-90082642D01*
X174188380Y-90225500D01*
X174188380Y-90463595D01*
X174188380Y-88939785D02*
X174188380Y-89511214D01*
X174188380Y-89225500D02*
X173188380Y-89225500D01*
X173331238Y-89320738D01*
X173426476Y-89415976D01*
X173474095Y-89511214D01*
%LPC*%
D15*
X180340000Y-63500000D03*
D16*
X189355800Y-62560200D03*
X182855800Y-62560200D03*
D15*
X180340000Y-73660000D03*
X177800000Y-73660000D03*
X175260000Y-73660000D03*
X172720000Y-73660000D03*
D17*
X186105800Y-89535000D03*
X175945800Y-89535000D03*
D18*
X181025800Y-89535000D03*
D19*
X177215800Y-86995000D03*
X183565800Y-84455000D03*
D17*
X186105800Y-70485000D03*
X175945800Y-70485000D03*
D18*
X181025800Y-70485000D03*
D19*
X177215800Y-67945000D03*
X183565800Y-65405000D03*
D20*
X185521600Y-73845400D03*
X186791600Y-73845400D03*
X188061600Y-73845400D03*
X189331600Y-73845400D03*
X189331600Y-81145400D03*
X188061600Y-81145400D03*
X186791600Y-81145400D03*
X185521600Y-81145400D03*
G36*
G01*
X186950300Y-87508501D02*
X186950300Y-86608499D01*
G75*
G02*
X187200299Y-86358500I249999J0D01*
G01*
X187900301Y-86358500D01*
G75*
G02*
X188150300Y-86608499I0J-249999D01*
G01*
X188150300Y-87508501D01*
G75*
G02*
X187900301Y-87758500I-249999J0D01*
G01*
X187200299Y-87758500D01*
G75*
G02*
X186950300Y-87508501I0J249999D01*
G01*
G37*
G36*
G01*
X184950300Y-87508501D02*
X184950300Y-86608499D01*
G75*
G02*
X185200299Y-86358500I249999J0D01*
G01*
X185900301Y-86358500D01*
G75*
G02*
X186150300Y-86608499I0J-249999D01*
G01*
X186150300Y-87508501D01*
G75*
G02*
X185900301Y-87758500I-249999J0D01*
G01*
X185200299Y-87758500D01*
G75*
G02*
X184950300Y-87508501I0J249999D01*
G01*
G37*
G36*
G01*
X188957799Y-84601000D02*
X189857801Y-84601000D01*
G75*
G02*
X190107800Y-84850999I0J-249999D01*
G01*
X190107800Y-85551001D01*
G75*
G02*
X189857801Y-85801000I-249999J0D01*
G01*
X188957799Y-85801000D01*
G75*
G02*
X188707800Y-85551001I0J249999D01*
G01*
X188707800Y-84850999D01*
G75*
G02*
X188957799Y-84601000I249999J0D01*
G01*
G37*
G36*
G01*
X188957400Y-82601000D02*
X189858200Y-82601000D01*
G75*
G02*
X190107800Y-82850600I0J-249600D01*
G01*
X190107800Y-83551400D01*
G75*
G02*
X189858200Y-83801000I-249600J0D01*
G01*
X188957400Y-83801000D01*
G75*
G02*
X188707800Y-83551400I0J249600D01*
G01*
X188707800Y-82850600D01*
G75*
G02*
X188957400Y-82601000I249600J0D01*
G01*
G37*
G36*
G01*
X187001999Y-84601000D02*
X187902001Y-84601000D01*
G75*
G02*
X188152000Y-84850999I0J-249999D01*
G01*
X188152000Y-85551001D01*
G75*
G02*
X187902001Y-85801000I-249999J0D01*
G01*
X187001999Y-85801000D01*
G75*
G02*
X186752000Y-85551001I0J249999D01*
G01*
X186752000Y-84850999D01*
G75*
G02*
X187001999Y-84601000I249999J0D01*
G01*
G37*
G36*
G01*
X187001600Y-82601000D02*
X187902400Y-82601000D01*
G75*
G02*
X188152000Y-82850600I0J-249600D01*
G01*
X188152000Y-83551400D01*
G75*
G02*
X187902400Y-83801000I-249600J0D01*
G01*
X187001600Y-83801000D01*
G75*
G02*
X186752000Y-83551400I0J249600D01*
G01*
X186752000Y-82850600D01*
G75*
G02*
X187001600Y-82601000I249600J0D01*
G01*
G37*
G36*
G01*
X180296399Y-85490000D02*
X181196401Y-85490000D01*
G75*
G02*
X181446400Y-85739999I0J-249999D01*
G01*
X181446400Y-86440001D01*
G75*
G02*
X181196401Y-86690000I-249999J0D01*
G01*
X180296399Y-86690000D01*
G75*
G02*
X180046400Y-86440001I0J249999D01*
G01*
X180046400Y-85739999D01*
G75*
G02*
X180296399Y-85490000I249999J0D01*
G01*
G37*
G36*
G01*
X180296399Y-83490000D02*
X181196401Y-83490000D01*
G75*
G02*
X181446400Y-83739999I0J-249999D01*
G01*
X181446400Y-84440001D01*
G75*
G02*
X181196401Y-84690000I-249999J0D01*
G01*
X180296399Y-84690000D01*
G75*
G02*
X180046400Y-84440001I0J249999D01*
G01*
X180046400Y-83739999D01*
G75*
G02*
X180296399Y-83490000I249999J0D01*
G01*
G37*
G36*
G01*
X175189301Y-93808600D02*
X174289299Y-93808600D01*
G75*
G02*
X174039300Y-93558601I0J249999D01*
G01*
X174039300Y-92858599D01*
G75*
G02*
X174289299Y-92608600I249999J0D01*
G01*
X175189301Y-92608600D01*
G75*
G02*
X175439300Y-92858599I0J-249999D01*
G01*
X175439300Y-93558601D01*
G75*
G02*
X175189301Y-93808600I-249999J0D01*
G01*
G37*
G36*
G01*
X175189301Y-95808600D02*
X174289299Y-95808600D01*
G75*
G02*
X174039300Y-95558601I0J249999D01*
G01*
X174039300Y-94858599D01*
G75*
G02*
X174289299Y-94608600I249999J0D01*
G01*
X175189301Y-94608600D01*
G75*
G02*
X175439300Y-94858599I0J-249999D01*
G01*
X175439300Y-95558601D01*
G75*
G02*
X175189301Y-95808600I-249999J0D01*
G01*
G37*
D21*
X182813900Y-93043100D03*
X182313900Y-93043100D03*
X181813900Y-93043100D03*
X181313900Y-93043100D03*
X180813900Y-93043100D03*
X180313900Y-93043100D03*
X179813900Y-93043100D03*
X179313900Y-93043100D03*
D22*
X183463900Y-93043100D03*
X184263900Y-93043100D03*
X178663900Y-93043100D03*
X177863900Y-93043100D03*
D23*
X184363900Y-94163100D03*
X177763900Y-94163100D03*
D24*
X185673900Y-93603100D03*
X176453900Y-93603100D03*
X176453900Y-98103100D03*
X185673900Y-98103100D03*
G36*
G01*
X188706599Y-91412300D02*
X189956601Y-91412300D01*
G75*
G02*
X190206600Y-91662299I0J-249999D01*
G01*
X190206600Y-92462301D01*
G75*
G02*
X189956601Y-92712300I-249999J0D01*
G01*
X188706599Y-92712300D01*
G75*
G02*
X188456600Y-92462301I0J249999D01*
G01*
X188456600Y-91662299D01*
G75*
G02*
X188706599Y-91412300I249999J0D01*
G01*
G37*
G36*
G01*
X188706599Y-88312300D02*
X189956601Y-88312300D01*
G75*
G02*
X190206600Y-88562299I0J-249999D01*
G01*
X190206600Y-89362301D01*
G75*
G02*
X189956601Y-89612300I-249999J0D01*
G01*
X188706599Y-89612300D01*
G75*
G02*
X188456600Y-89362301I0J249999D01*
G01*
X188456600Y-88562299D01*
G75*
G02*
X188706599Y-88312300I249999J0D01*
G01*
G37*
D25*
X189255400Y-97852500D03*
X189255400Y-94552500D03*
X173710600Y-88075500D03*
X173710600Y-91375500D03*
G36*
G01*
X182963800Y-75075200D02*
X183913800Y-75075200D01*
G75*
G02*
X184163800Y-75325200I0J-250000D01*
G01*
X184163800Y-76000200D01*
G75*
G02*
X183913800Y-76250200I-250000J0D01*
G01*
X182963800Y-76250200D01*
G75*
G02*
X182713800Y-76000200I0J250000D01*
G01*
X182713800Y-75325200D01*
G75*
G02*
X182963800Y-75075200I250000J0D01*
G01*
G37*
G36*
G01*
X182963800Y-73000200D02*
X183913800Y-73000200D01*
G75*
G02*
X184163800Y-73250200I0J-250000D01*
G01*
X184163800Y-73925200D01*
G75*
G02*
X183913800Y-74175200I-250000J0D01*
G01*
X182963800Y-74175200D01*
G75*
G02*
X182713800Y-73925200I0J250000D01*
G01*
X182713800Y-73250200D01*
G75*
G02*
X182963800Y-73000200I250000J0D01*
G01*
G37*
D26*
X177800000Y-63500000D03*
D15*
X175260000Y-63500000D03*
X172720000Y-63500000D03*
M02*
