M48
; DRILL file {KiCad (5.1.10)-1} date 08/28/21 06:12:43
; FORMAT={-:-/ absolute / metric / decimal}
; #@! TF.CreationDate,2021-08-28T06:12:43-04:00
; #@! TF.GenerationSoftware,Kicad,Pcbnew,(5.1.10)-1
; #@! TF.FileFunction,Plated,1,2,PTH
FMAT,2
METRIC
T1C0.400
T2C0.600
T3C1.000
T4C1.500
%
G90
G05
T1
X182.194Y-94.336
X183.921Y-90.424
X183.998Y-86.766
X184.892Y-68.326
X185.433Y-78.819
X185.953Y-83.541
X186.207Y-76.251
X186.695Y-72.151
X186.906Y-78.831
X187.79Y-90.084
X187.843Y-70.8
X188.003Y-76.106
X188.798Y-87.554
X189.255Y-93.383
X189.967Y-86.487
T3
X173.251Y-62.674
X173.314Y-73.741
X175.791Y-62.674
X175.854Y-73.741
X178.331Y-62.674
X186.251Y-62.702
X188.791Y-62.702
T4
X177.216Y-67.945
X177.216Y-86.995
X183.566Y-65.405
X183.566Y-84.455
T2
G00X176.454Y-93.103
M15
G01X176.454Y-94.103
M16
G05
G00X176.454Y-97.603
M15
G01X176.454Y-98.603
M16
G05
G00X185.674Y-93.103
M15
G01X185.674Y-94.103
M16
G05
G00X185.674Y-97.603
M15
G01X185.674Y-98.603
M16
G05
T0
M30
