%TF.GenerationSoftware,KiCad,Pcbnew,(5.1.10)-1*%
%TF.CreationDate,2021-10-19T16:21:33-04:00*%
%TF.ProjectId,milk,6d696c6b-2e6b-4696-9361-645f70636258,rev?*%
%TF.SameCoordinates,Original*%
%TF.FileFunction,Copper,L1,Top*%
%TF.FilePolarity,Positive*%
%FSLAX46Y46*%
G04 Gerber Fmt 4.6, Leading zero omitted, Abs format (unit mm)*
G04 Created by KiCad (PCBNEW (5.1.10)-1) date 2021-10-19 16:21:33*
%MOMM*%
%LPD*%
G01*
G04 APERTURE LIST*
%TA.AperFunction,ComponentPad*%
%ADD10O,1.600000X1.600000*%
%TD*%
%TA.AperFunction,ComponentPad*%
%ADD11R,1.600000X1.600000*%
%TD*%
%TA.AperFunction,ComponentPad*%
%ADD12C,2.200000*%
%TD*%
%TA.AperFunction,SMDPad,CuDef*%
%ADD13R,0.300000X1.300000*%
%TD*%
%TA.AperFunction,SMDPad,CuDef*%
%ADD14R,0.600000X1.300000*%
%TD*%
%TA.AperFunction,ComponentPad*%
%ADD15O,1.000000X2.000000*%
%TD*%
%TA.AperFunction,ComponentPad*%
%ADD16C,2.000000*%
%TD*%
%TA.AperFunction,SMDPad,CuDef*%
%ADD17R,0.650000X1.700000*%
%TD*%
%TA.AperFunction,SMDPad,CuDef*%
%ADD18R,1.200000X0.900000*%
%TD*%
%TA.AperFunction,ComponentPad*%
%ADD19R,1.500000X1.500000*%
%TD*%
%TA.AperFunction,ComponentPad*%
%ADD20C,1.500000*%
%TD*%
%TA.AperFunction,ViaPad*%
%ADD21C,0.800000*%
%TD*%
%TA.AperFunction,Conductor*%
%ADD22C,0.250000*%
%TD*%
%TA.AperFunction,Conductor*%
%ADD23C,0.254000*%
%TD*%
%TA.AperFunction,Conductor*%
%ADD24C,0.100000*%
%TD*%
G04 APERTURE END LIST*
%TO.P,C2,2*%
%TO.N,+5V*%
%TA.AperFunction,SMDPad,CuDef*%
G36*
G01*
X198069220Y-89810080D02*
X197119220Y-89810080D01*
G75*
G02*
X196869220Y-89560080I0J250000D01*
G01*
X196869220Y-88885080D01*
G75*
G02*
X197119220Y-88635080I250000J0D01*
G01*
X198069220Y-88635080D01*
G75*
G02*
X198319220Y-88885080I0J-250000D01*
G01*
X198319220Y-89560080D01*
G75*
G02*
X198069220Y-89810080I-250000J0D01*
G01*
G37*
%TD.AperFunction*%
%TO.P,C2,1*%
%TO.N,GND*%
%TA.AperFunction,SMDPad,CuDef*%
G36*
G01*
X198069220Y-91885080D02*
X197119220Y-91885080D01*
G75*
G02*
X196869220Y-91635080I0J250000D01*
G01*
X196869220Y-90960080D01*
G75*
G02*
X197119220Y-90710080I250000J0D01*
G01*
X198069220Y-90710080D01*
G75*
G02*
X198319220Y-90960080I0J-250000D01*
G01*
X198319220Y-91635080D01*
G75*
G02*
X198069220Y-91885080I-250000J0D01*
G01*
G37*
%TD.AperFunction*%
%TD*%
D10*
%TO.P,J3,8*%
%TO.N,+5V*%
X215884760Y-75176380D03*
%TO.P,J3,4*%
%TO.N,GND*%
X208264760Y-82796380D03*
%TO.P,J3,7*%
%TO.N,RGB*%
X215884760Y-77716380D03*
%TO.P,J3,3*%
%TO.N,PB4*%
X208264760Y-80256380D03*
%TO.P,J3,6*%
%TO.N,PB1*%
X215884760Y-80256380D03*
%TO.P,J3,2*%
%TO.N,PB3*%
X208264760Y-77716380D03*
%TO.P,J3,5*%
%TO.N,PB0*%
X215884760Y-82796380D03*
D11*
%TO.P,J3,1*%
%TO.N,RST*%
X208264760Y-75176380D03*
%TD*%
D12*
%TO.P,SW2,2*%
%TO.N,GND*%
X210512660Y-66060320D03*
%TO.P,SW2,1*%
%TO.N,PB1*%
X204162660Y-63520320D03*
%TD*%
%TO.P,SW1,2*%
%TO.N,GND*%
X210522820Y-85107780D03*
%TO.P,SW1,1*%
%TO.N,PB0*%
X204172820Y-82567780D03*
%TD*%
D13*
%TO.P,J1,B5*%
%TO.N,Net-(J1-PadB5)*%
X208445040Y-91994080D03*
%TO.P,J1,A8*%
%TO.N,N/C*%
X207945040Y-91994080D03*
%TO.P,J1,B6*%
%TO.N,D+*%
X207445040Y-91994080D03*
%TO.P,J1,A7*%
%TO.N,D-*%
X206945040Y-91994080D03*
%TO.P,J1,A6*%
%TO.N,D+*%
X206445040Y-91994080D03*
%TO.P,J1,B7*%
%TO.N,D-*%
X205945040Y-91994080D03*
%TO.P,J1,A5*%
%TO.N,Net-(J1-PadA5)*%
X205445040Y-91994080D03*
%TO.P,J1,B8*%
%TO.N,N/C*%
X204945040Y-91994080D03*
D14*
%TO.P,J1,B4*%
%TO.N,VCC*%
X209095040Y-91994080D03*
%TO.P,J1,B1*%
%TO.N,GND*%
X209895040Y-91994080D03*
%TO.P,J1,A4*%
%TO.N,VCC*%
X204295040Y-91994080D03*
%TO.P,J1,A1*%
%TO.N,GND*%
X203495040Y-91994080D03*
D15*
%TO.P,J1,S1*%
X211305040Y-92554080D03*
X202085040Y-92554080D03*
X202085040Y-97054080D03*
X211305040Y-97054080D03*
%TD*%
%TO.P,R6,2*%
%TO.N,+5V*%
%TA.AperFunction,SMDPad,CuDef*%
G36*
G01*
X212397900Y-63184619D02*
X212397900Y-64084621D01*
G75*
G02*
X212147901Y-64334620I-249999J0D01*
G01*
X211447899Y-64334620D01*
G75*
G02*
X211197900Y-64084621I0J249999D01*
G01*
X211197900Y-63184619D01*
G75*
G02*
X211447899Y-62934620I249999J0D01*
G01*
X212147901Y-62934620D01*
G75*
G02*
X212397900Y-63184619I0J-249999D01*
G01*
G37*
%TD.AperFunction*%
%TO.P,R6,1*%
%TO.N,RST*%
%TA.AperFunction,SMDPad,CuDef*%
G36*
G01*
X214397900Y-63184619D02*
X214397900Y-64084621D01*
G75*
G02*
X214147901Y-64334620I-249999J0D01*
G01*
X213447899Y-64334620D01*
G75*
G02*
X213197900Y-64084621I0J249999D01*
G01*
X213197900Y-63184619D01*
G75*
G02*
X213447899Y-62934620I249999J0D01*
G01*
X214147901Y-62934620D01*
G75*
G02*
X214397900Y-63184619I0J-249999D01*
G01*
G37*
%TD.AperFunction*%
%TD*%
D16*
%TO.P,SW3,2*%
%TO.N,GND*%
X208625440Y-59405520D03*
%TO.P,SW3,1*%
%TO.N,RST*%
X215125440Y-59405520D03*
%TD*%
D17*
%TO.P,U1,8*%
%TO.N,+5V*%
X210151980Y-75364320D03*
%TO.P,U1,7*%
%TO.N,RGB*%
X211421980Y-75364320D03*
%TO.P,U1,6*%
%TO.N,PB1*%
X212691980Y-75364320D03*
%TO.P,U1,5*%
%TO.N,PB0*%
X213961980Y-75364320D03*
%TO.P,U1,4*%
%TO.N,GND*%
X213961980Y-82664320D03*
%TO.P,U1,3*%
%TO.N,PB4*%
X212691980Y-82664320D03*
%TO.P,U1,2*%
%TO.N,PB3*%
X211421980Y-82664320D03*
%TO.P,U1,1*%
%TO.N,RST*%
X210151980Y-82664320D03*
%TD*%
%TO.P,R5,2*%
%TO.N,D-*%
%TA.AperFunction,SMDPad,CuDef*%
G36*
G01*
X215184141Y-87885320D02*
X214284139Y-87885320D01*
G75*
G02*
X214034140Y-87635321I0J249999D01*
G01*
X214034140Y-86935319D01*
G75*
G02*
X214284139Y-86685320I249999J0D01*
G01*
X215184141Y-86685320D01*
G75*
G02*
X215434140Y-86935319I0J-249999D01*
G01*
X215434140Y-87635321D01*
G75*
G02*
X215184141Y-87885320I-249999J0D01*
G01*
G37*
%TD.AperFunction*%
%TO.P,R5,1*%
%TO.N,+5V*%
%TA.AperFunction,SMDPad,CuDef*%
G36*
G01*
X215184141Y-89885320D02*
X214284139Y-89885320D01*
G75*
G02*
X214034140Y-89635321I0J249999D01*
G01*
X214034140Y-88935319D01*
G75*
G02*
X214284139Y-88685320I249999J0D01*
G01*
X215184141Y-88685320D01*
G75*
G02*
X215434140Y-88935319I0J-249999D01*
G01*
X215434140Y-89635321D01*
G75*
G02*
X215184141Y-89885320I-249999J0D01*
G01*
G37*
%TD.AperFunction*%
%TD*%
%TO.P,R4,2*%
%TO.N,D+*%
%TA.AperFunction,SMDPad,CuDef*%
G36*
G01*
X216224699Y-86695740D02*
X217124701Y-86695740D01*
G75*
G02*
X217374700Y-86945739I0J-249999D01*
G01*
X217374700Y-87645741D01*
G75*
G02*
X217124701Y-87895740I-249999J0D01*
G01*
X216224699Y-87895740D01*
G75*
G02*
X215974700Y-87645741I0J249999D01*
G01*
X215974700Y-86945739D01*
G75*
G02*
X216224699Y-86695740I249999J0D01*
G01*
G37*
%TD.AperFunction*%
%TO.P,R4,1*%
%TO.N,PB4*%
%TA.AperFunction,SMDPad,CuDef*%
G36*
G01*
X216224300Y-84695740D02*
X217125100Y-84695740D01*
G75*
G02*
X217374700Y-84945340I0J-249600D01*
G01*
X217374700Y-85646140D01*
G75*
G02*
X217125100Y-85895740I-249600J0D01*
G01*
X216224300Y-85895740D01*
G75*
G02*
X215974700Y-85646140I0J249600D01*
G01*
X215974700Y-84945340D01*
G75*
G02*
X216224300Y-84695740I249600J0D01*
G01*
G37*
%TD.AperFunction*%
%TD*%
%TO.P,R3,2*%
%TO.N,D-*%
%TA.AperFunction,SMDPad,CuDef*%
G36*
G01*
X214184940Y-85847341D02*
X214184940Y-84947339D01*
G75*
G02*
X214434939Y-84697340I249999J0D01*
G01*
X215134941Y-84697340D01*
G75*
G02*
X215384940Y-84947339I0J-249999D01*
G01*
X215384940Y-85847341D01*
G75*
G02*
X215134941Y-86097340I-249999J0D01*
G01*
X214434939Y-86097340D01*
G75*
G02*
X214184940Y-85847341I0J249999D01*
G01*
G37*
%TD.AperFunction*%
%TO.P,R3,1*%
%TO.N,PB3*%
%TA.AperFunction,SMDPad,CuDef*%
G36*
G01*
X212184940Y-85847740D02*
X212184940Y-84946940D01*
G75*
G02*
X212434540Y-84697340I249600J0D01*
G01*
X213135340Y-84697340D01*
G75*
G02*
X213384940Y-84946940I0J-249600D01*
G01*
X213384940Y-85847740D01*
G75*
G02*
X213135340Y-86097340I-249600J0D01*
G01*
X212434540Y-86097340D01*
G75*
G02*
X212184940Y-85847740I0J249600D01*
G01*
G37*
%TD.AperFunction*%
%TD*%
%TO.P,R2,2*%
%TO.N,Net-(J1-PadB5)*%
%TA.AperFunction,SMDPad,CuDef*%
G36*
G01*
X214201200Y-92250681D02*
X214201200Y-91350679D01*
G75*
G02*
X214451199Y-91100680I249999J0D01*
G01*
X215151201Y-91100680D01*
G75*
G02*
X215401200Y-91350679I0J-249999D01*
G01*
X215401200Y-92250681D01*
G75*
G02*
X215151201Y-92500680I-249999J0D01*
G01*
X214451199Y-92500680D01*
G75*
G02*
X214201200Y-92250681I0J249999D01*
G01*
G37*
%TD.AperFunction*%
%TO.P,R2,1*%
%TO.N,GND*%
%TA.AperFunction,SMDPad,CuDef*%
G36*
G01*
X212201200Y-92250681D02*
X212201200Y-91350679D01*
G75*
G02*
X212451199Y-91100680I249999J0D01*
G01*
X213151201Y-91100680D01*
G75*
G02*
X213401200Y-91350679I0J-249999D01*
G01*
X213401200Y-92250681D01*
G75*
G02*
X213151201Y-92500680I-249999J0D01*
G01*
X212451199Y-92500680D01*
G75*
G02*
X212201200Y-92250681I0J249999D01*
G01*
G37*
%TD.AperFunction*%
%TD*%
%TO.P,R1,2*%
%TO.N,Net-(J1-PadA5)*%
%TA.AperFunction,SMDPad,CuDef*%
G36*
G01*
X200053361Y-92477640D02*
X199153359Y-92477640D01*
G75*
G02*
X198903360Y-92227641I0J249999D01*
G01*
X198903360Y-91527639D01*
G75*
G02*
X199153359Y-91277640I249999J0D01*
G01*
X200053361Y-91277640D01*
G75*
G02*
X200303360Y-91527639I0J-249999D01*
G01*
X200303360Y-92227641D01*
G75*
G02*
X200053361Y-92477640I-249999J0D01*
G01*
G37*
%TD.AperFunction*%
%TO.P,R1,1*%
%TO.N,GND*%
%TA.AperFunction,SMDPad,CuDef*%
G36*
G01*
X200053361Y-94477640D02*
X199153359Y-94477640D01*
G75*
G02*
X198903360Y-94227641I0J249999D01*
G01*
X198903360Y-93527639D01*
G75*
G02*
X199153359Y-93277640I249999J0D01*
G01*
X200053361Y-93277640D01*
G75*
G02*
X200303360Y-93527639I0J-249999D01*
G01*
X200303360Y-94227641D01*
G75*
G02*
X200053361Y-94477640I-249999J0D01*
G01*
G37*
%TD.AperFunction*%
%TD*%
%TO.P,F1,2*%
%TO.N,VCC*%
%TA.AperFunction,SMDPad,CuDef*%
G36*
G01*
X196857459Y-96485880D02*
X198107461Y-96485880D01*
G75*
G02*
X198357460Y-96735879I0J-249999D01*
G01*
X198357460Y-97535881D01*
G75*
G02*
X198107461Y-97785880I-249999J0D01*
G01*
X196857459Y-97785880D01*
G75*
G02*
X196607460Y-97535881I0J249999D01*
G01*
X196607460Y-96735879D01*
G75*
G02*
X196857459Y-96485880I249999J0D01*
G01*
G37*
%TD.AperFunction*%
%TO.P,F1,1*%
%TO.N,+5V*%
%TA.AperFunction,SMDPad,CuDef*%
G36*
G01*
X196857459Y-93385880D02*
X198107461Y-93385880D01*
G75*
G02*
X198357460Y-93635879I0J-249999D01*
G01*
X198357460Y-94435881D01*
G75*
G02*
X198107461Y-94685880I-249999J0D01*
G01*
X196857459Y-94685880D01*
G75*
G02*
X196607460Y-94435881I0J249999D01*
G01*
X196607460Y-93635879D01*
G75*
G02*
X196857459Y-93385880I249999J0D01*
G01*
G37*
%TD.AperFunction*%
%TD*%
D18*
%TO.P,D2,2*%
%TO.N,GND*%
X216568020Y-97379060D03*
%TO.P,D2,1*%
%TO.N,D+*%
X216568020Y-94079060D03*
%TD*%
%TO.P,D1,2*%
%TO.N,GND*%
X214215980Y-97379060D03*
%TO.P,D1,1*%
%TO.N,D-*%
X214215980Y-94079060D03*
%TD*%
%TO.P,C1,2*%
%TO.N,GND*%
%TA.AperFunction,SMDPad,CuDef*%
G36*
G01*
X211017360Y-71755020D02*
X211017360Y-70805020D01*
G75*
G02*
X211267360Y-70555020I250000J0D01*
G01*
X211942360Y-70555020D01*
G75*
G02*
X212192360Y-70805020I0J-250000D01*
G01*
X212192360Y-71755020D01*
G75*
G02*
X211942360Y-72005020I-250000J0D01*
G01*
X211267360Y-72005020D01*
G75*
G02*
X211017360Y-71755020I0J250000D01*
G01*
G37*
%TD.AperFunction*%
%TO.P,C1,1*%
%TO.N,+5V*%
%TA.AperFunction,SMDPad,CuDef*%
G36*
G01*
X208942360Y-71755020D02*
X208942360Y-70805020D01*
G75*
G02*
X209192360Y-70555020I250000J0D01*
G01*
X209867360Y-70555020D01*
G75*
G02*
X210117360Y-70805020I0J-250000D01*
G01*
X210117360Y-71755020D01*
G75*
G02*
X209867360Y-72005020I-250000J0D01*
G01*
X209192360Y-72005020D01*
G75*
G02*
X208942360Y-71755020I0J250000D01*
G01*
G37*
%TD.AperFunction*%
%TD*%
D19*
%TO.P,J2,1*%
%TO.N,GND*%
X197949820Y-58750200D03*
D20*
%TO.P,J2,2*%
%TO.N,RGB*%
X200489820Y-58750200D03*
%TO.P,J2,3*%
%TO.N,+5V*%
X203029820Y-58750200D03*
%TD*%
D21*
%TO.N,D+*%
X216547700Y-95460820D03*
%TO.N,+5V*%
X217114120Y-76474320D03*
%TO.N,GND*%
X198998840Y-90469720D03*
X210411060Y-77409040D03*
X206109562Y-74343260D03*
X202130660Y-80553560D03*
X213718140Y-67294760D03*
X201912220Y-65829180D03*
X197939660Y-65905380D03*
X201612500Y-75201780D03*
X200639680Y-85821520D03*
X215107520Y-71752460D03*
X209214720Y-61879480D03*
X202168760Y-62057280D03*
X203682600Y-69852540D03*
X203982320Y-74625200D03*
X206456280Y-97889060D03*
X209933540Y-88798400D03*
X212526880Y-95280480D03*
%TO.N,+5V*%
X213159340Y-89207340D03*
%TO.N,D+*%
X208252060Y-93276420D03*
%TO.N,PB4*%
X212686900Y-81170780D03*
%TO.N,PB1*%
X212719920Y-76827380D03*
%TD*%
D22*
%TO.N,GND*%
X202645040Y-91994080D02*
X202085040Y-92554080D01*
X203495040Y-91994080D02*
X202645040Y-91994080D01*
X210745040Y-91994080D02*
X211305040Y-92554080D01*
X209895040Y-91994080D02*
X210745040Y-91994080D01*
X212058440Y-91800680D02*
X211305040Y-92554080D01*
X212801200Y-91800680D02*
X212058440Y-91800680D01*
X198204000Y-91297580D02*
X198879460Y-90622120D01*
X197594220Y-91297580D02*
X198204000Y-91297580D01*
X213961980Y-80959960D02*
X210411060Y-77409040D01*
X213961980Y-82664320D02*
X213961980Y-80959960D01*
X209501979Y-76499959D02*
X210411060Y-77409040D01*
X209501979Y-74300319D02*
X209501979Y-76499959D01*
X209144921Y-73943261D02*
X209501979Y-74300319D01*
X206509561Y-73943261D02*
X209144921Y-73943261D01*
X206109562Y-74343260D02*
X206509561Y-73943261D01*
X213718140Y-69166740D02*
X211604860Y-71280020D01*
X213718140Y-67294760D02*
X213718140Y-69166740D01*
X211747100Y-67294760D02*
X210512660Y-66060320D01*
X213718140Y-67294760D02*
X211747100Y-67294760D01*
X210512660Y-66060320D02*
X210512660Y-65618360D01*
X210512660Y-65618360D02*
X210952080Y-65178940D01*
X210952080Y-65178940D02*
X213067900Y-65178940D01*
%TO.N,VCC*%
X204295040Y-93637080D02*
X204295040Y-91994080D01*
X208600061Y-94001421D02*
X204659381Y-94001421D01*
X204659381Y-94001421D02*
X204295040Y-93637080D01*
X209095040Y-93506442D02*
X208600061Y-94001421D01*
X209095040Y-91994080D02*
X209095040Y-93506442D01*
X201498200Y-95056960D02*
X203603842Y-95056960D01*
X203603842Y-95056960D02*
X204659381Y-94001421D01*
X199419280Y-97135880D02*
X201498200Y-95056960D01*
X197482460Y-97135880D02*
X199419280Y-97135880D01*
%TO.N,+5V*%
X215884760Y-74890688D02*
X215884760Y-75176380D01*
X214733382Y-73739310D02*
X215884760Y-74890688D01*
X210676990Y-73739310D02*
X214733382Y-73739310D01*
X210151980Y-74264320D02*
X210676990Y-73739310D01*
X210151980Y-75364320D02*
X210151980Y-74264320D01*
X196544210Y-93097630D02*
X197482460Y-94035880D01*
X196544210Y-90272590D02*
X196544210Y-93097630D01*
X197594220Y-89222580D02*
X196544210Y-90272590D01*
X209529860Y-72592180D02*
X210676990Y-73739310D01*
X209529860Y-71280020D02*
X209529860Y-72592180D01*
X209027661Y-70777821D02*
X209529860Y-71280020D01*
X209027661Y-64748041D02*
X209027661Y-70777821D01*
X203029820Y-58750200D02*
X209027661Y-64748041D01*
X209529860Y-71280020D02*
X202646280Y-71280020D01*
X197594220Y-76332080D02*
X197594220Y-89222580D01*
X202646280Y-71280020D02*
X197594220Y-76332080D01*
X210141082Y-63634620D02*
X209027661Y-64748041D01*
X211797900Y-63634620D02*
X210141082Y-63634620D01*
X215884760Y-75244960D02*
X217114120Y-76474320D01*
X215884760Y-75176380D02*
X215884760Y-75244960D01*
X214656160Y-89207340D02*
X214734140Y-89285320D01*
X213159340Y-89207340D02*
X214656160Y-89207340D01*
X211840219Y-89875651D02*
X211596811Y-90119059D01*
X213056713Y-89875651D02*
X211840219Y-89875651D01*
X213159340Y-89773025D02*
X213056713Y-89875651D01*
X213159340Y-89207340D02*
X213159340Y-89773025D01*
X205116429Y-90119059D02*
X204917011Y-89919641D01*
X211596811Y-90119059D02*
X205116429Y-90119059D01*
X204917011Y-89919641D02*
X201665840Y-89919641D01*
X200968779Y-89222580D02*
X201665840Y-89919641D01*
X197594220Y-89222580D02*
X200968779Y-89222580D01*
%TO.N,D-*%
X214784940Y-87234520D02*
X214734140Y-87285320D01*
X214784940Y-85397340D02*
X214784940Y-87234520D01*
X215759150Y-92535890D02*
X214215980Y-94079060D01*
X214734140Y-87672130D02*
X215759150Y-88697140D01*
X214734140Y-87285320D02*
X214734140Y-87672130D01*
X205945040Y-91109078D02*
X205945040Y-91994080D01*
X206035039Y-91019079D02*
X205945040Y-91109078D01*
X206855041Y-91019079D02*
X206035039Y-91019079D01*
X206945040Y-91109078D02*
X206855041Y-91019079D01*
X215759150Y-91145440D02*
X215759150Y-91779210D01*
X206945040Y-91994080D02*
X206945040Y-91109078D01*
X215759150Y-91779210D02*
X215759150Y-92535890D01*
X215759150Y-90582870D02*
X215759150Y-91779210D01*
X215759150Y-89873500D02*
X215759150Y-89185870D01*
X215306989Y-90325661D02*
X215759150Y-89873500D01*
X212026620Y-90325660D02*
X215306989Y-90325661D01*
X211783211Y-90569069D02*
X212026620Y-90325660D01*
X207485049Y-90569069D02*
X211783211Y-90569069D01*
X206945040Y-91109078D02*
X207485049Y-90569069D01*
X215759150Y-89185870D02*
X215759150Y-90582870D01*
X215759150Y-88697140D02*
X215759150Y-89185870D01*
%TO.N,D+*%
X216568020Y-87402420D02*
X216674700Y-87295740D01*
X216568020Y-94079060D02*
X216568020Y-87402420D01*
X207445040Y-92879082D02*
X207445040Y-91994080D01*
X207355041Y-92969081D02*
X207445040Y-92879082D01*
X206535039Y-92969081D02*
X207355041Y-92969081D01*
X206445040Y-92879082D02*
X206535039Y-92969081D01*
X206445040Y-91994080D02*
X206445040Y-92879082D01*
X207662380Y-93276420D02*
X207355041Y-92969081D01*
X208252060Y-93276420D02*
X207662380Y-93276420D01*
X216547700Y-94099380D02*
X216568020Y-94079060D01*
X216547700Y-95460820D02*
X216547700Y-94099380D01*
%TO.N,Net-(J1-PadB5)*%
X208445040Y-91127640D02*
X208445040Y-91994080D01*
X208553601Y-91019079D02*
X208445040Y-91127640D01*
X211962855Y-91025835D02*
X211956099Y-91019079D01*
X211956099Y-91019079D02*
X208553601Y-91019079D01*
X212213020Y-90775670D02*
X211962855Y-91025835D01*
X213389380Y-90775670D02*
X212213020Y-90775670D01*
X214414390Y-91800680D02*
X213389380Y-90775670D01*
X214801200Y-91800680D02*
X214414390Y-91800680D01*
%TO.N,Net-(J1-PadA5)*%
X205445040Y-91084080D02*
X205445040Y-91994080D01*
X204730611Y-90369651D02*
X205445040Y-91084080D01*
X201811349Y-90369651D02*
X204730611Y-90369651D01*
X200303360Y-91877640D02*
X201811349Y-90369651D01*
X199603360Y-91877640D02*
X200303360Y-91877640D01*
%TO.N,RST*%
X207139759Y-78256381D02*
X207139759Y-76301381D01*
X207724759Y-78841381D02*
X207139759Y-78256381D01*
X208514763Y-78841381D02*
X207724759Y-78841381D01*
X207139759Y-76301381D02*
X208264760Y-75176380D01*
X210151980Y-80478598D02*
X208514763Y-78841381D01*
X210151980Y-82664320D02*
X210151980Y-80478598D01*
X215125440Y-62307080D02*
X213797900Y-63634620D01*
X215125440Y-59405520D02*
X215125440Y-62307080D01*
%TO.N,RGB*%
X211421980Y-74874318D02*
X211421980Y-75364320D01*
X212106979Y-74189319D02*
X211421980Y-74874318D01*
X214546981Y-74189319D02*
X212106979Y-74189319D01*
X214611981Y-74254319D02*
X214546981Y-74189319D01*
X214611981Y-76443601D02*
X214611981Y-74254319D01*
X215884760Y-77716380D02*
X214611981Y-76443601D01*
%TO.N,PB3*%
X211421980Y-80873600D02*
X211421980Y-82664320D01*
X208264760Y-77716380D02*
X211421980Y-80873600D01*
X211421980Y-83334380D02*
X211421980Y-82664320D01*
X212784940Y-84697340D02*
X211421980Y-83334380D01*
X212784940Y-85397340D02*
X212784940Y-84697340D01*
%TO.N,PB4*%
X212691980Y-81175860D02*
X212686900Y-81170780D01*
X212691980Y-82664320D02*
X212691980Y-81175860D01*
X212691980Y-83764320D02*
X212691980Y-82664320D01*
X215751290Y-84372330D02*
X213299990Y-84372330D01*
X213299990Y-84372330D02*
X212691980Y-83764320D01*
X216674700Y-85295740D02*
X215751290Y-84372330D01*
%TO.N,PB0*%
X214759759Y-81671379D02*
X214759759Y-78793559D01*
X215884760Y-82796380D02*
X214759759Y-81671379D01*
X213961980Y-76430010D02*
X213961980Y-75364320D01*
X214731600Y-77199630D02*
X213961980Y-76430010D01*
X214731600Y-78765400D02*
X214731600Y-77199630D01*
X214759759Y-78793559D02*
X214731600Y-78765400D01*
%TO.N,PB1*%
X212719920Y-75392260D02*
X212691980Y-75364320D01*
X212719920Y-76827380D02*
X212719920Y-75392260D01*
%TD*%
D23*
%TO.N,GND*%
X212928200Y-91673680D02*
X212948200Y-91673680D01*
X212948200Y-91927680D01*
X212928200Y-91927680D01*
X212928200Y-92976930D01*
X213086950Y-93135680D01*
X213214688Y-93136929D01*
X213164795Y-93177875D01*
X213085443Y-93274566D01*
X213026478Y-93384880D01*
X212990168Y-93504578D01*
X212977908Y-93629060D01*
X212977908Y-94529060D01*
X212990168Y-94653542D01*
X213026478Y-94773240D01*
X213085443Y-94883554D01*
X213164795Y-94980245D01*
X213261486Y-95059597D01*
X213371800Y-95118562D01*
X213491498Y-95154872D01*
X213615980Y-95167132D01*
X214815980Y-95167132D01*
X214940462Y-95154872D01*
X215060160Y-95118562D01*
X215170474Y-95059597D01*
X215267165Y-94980245D01*
X215346517Y-94883554D01*
X215392000Y-94798463D01*
X215437483Y-94883554D01*
X215516835Y-94980245D01*
X215598667Y-95047403D01*
X215552474Y-95158922D01*
X215512700Y-95358881D01*
X215512700Y-95562759D01*
X215552474Y-95762718D01*
X215630495Y-95951076D01*
X215743763Y-96120594D01*
X215887926Y-96264757D01*
X215932430Y-96294493D01*
X215843538Y-96303248D01*
X215723840Y-96339558D01*
X215613526Y-96398523D01*
X215516835Y-96477875D01*
X215437483Y-96574566D01*
X215392000Y-96659657D01*
X215346517Y-96574566D01*
X215267165Y-96477875D01*
X215170474Y-96398523D01*
X215060160Y-96339558D01*
X214940462Y-96303248D01*
X214815980Y-96290988D01*
X214501730Y-96294060D01*
X214342980Y-96452810D01*
X214342980Y-97252060D01*
X215292230Y-97252060D01*
X215392000Y-97152290D01*
X215491770Y-97252060D01*
X216441020Y-97252060D01*
X216441020Y-97232060D01*
X216695020Y-97232060D01*
X216695020Y-97252060D01*
X216715020Y-97252060D01*
X216715020Y-97506060D01*
X216695020Y-97506060D01*
X216695020Y-98305310D01*
X216807049Y-98417339D01*
X216744760Y-98451019D01*
X216631624Y-98486040D01*
X216483579Y-98501600D01*
X211932848Y-98501600D01*
X212017804Y-98446449D01*
X212178201Y-98290249D01*
X212305043Y-98105758D01*
X212393455Y-97900067D01*
X212408560Y-97829060D01*
X212977908Y-97829060D01*
X212990168Y-97953542D01*
X213026478Y-98073240D01*
X213085443Y-98183554D01*
X213164795Y-98280245D01*
X213261486Y-98359597D01*
X213371800Y-98418562D01*
X213491498Y-98454872D01*
X213615980Y-98467132D01*
X213930230Y-98464060D01*
X214088980Y-98305310D01*
X214088980Y-97506060D01*
X214342980Y-97506060D01*
X214342980Y-98305310D01*
X214501730Y-98464060D01*
X214815980Y-98467132D01*
X214940462Y-98454872D01*
X215060160Y-98418562D01*
X215170474Y-98359597D01*
X215267165Y-98280245D01*
X215346517Y-98183554D01*
X215392000Y-98098463D01*
X215437483Y-98183554D01*
X215516835Y-98280245D01*
X215613526Y-98359597D01*
X215723840Y-98418562D01*
X215843538Y-98454872D01*
X215968020Y-98467132D01*
X216282270Y-98464060D01*
X216441020Y-98305310D01*
X216441020Y-97506060D01*
X215491770Y-97506060D01*
X215392000Y-97605830D01*
X215292230Y-97506060D01*
X214342980Y-97506060D01*
X214088980Y-97506060D01*
X213139730Y-97506060D01*
X212980980Y-97664810D01*
X212977908Y-97829060D01*
X212408560Y-97829060D01*
X212440040Y-97681080D01*
X212440040Y-97181080D01*
X211432040Y-97181080D01*
X211432040Y-97201080D01*
X211178040Y-97201080D01*
X211178040Y-97181080D01*
X210170040Y-97181080D01*
X210170040Y-97681080D01*
X210216625Y-97900067D01*
X210305037Y-98105758D01*
X210431879Y-98290249D01*
X210592276Y-98446449D01*
X210677232Y-98501600D01*
X202712848Y-98501600D01*
X202797804Y-98446449D01*
X202958201Y-98290249D01*
X203085043Y-98105758D01*
X203173455Y-97900067D01*
X203220040Y-97681080D01*
X203220040Y-97181080D01*
X202212040Y-97181080D01*
X202212040Y-97201080D01*
X201958040Y-97201080D01*
X201958040Y-97181080D01*
X200950040Y-97181080D01*
X200950040Y-97681080D01*
X200996625Y-97900067D01*
X201085037Y-98105758D01*
X201211879Y-98290249D01*
X201372276Y-98446449D01*
X201457232Y-98501600D01*
X197110879Y-98501600D01*
X196960731Y-98486878D01*
X196847354Y-98452647D01*
X196778820Y-98416207D01*
X196857459Y-98423952D01*
X198107461Y-98423952D01*
X198280715Y-98406888D01*
X198447311Y-98356352D01*
X198600847Y-98274285D01*
X198735422Y-98163842D01*
X198845865Y-98029267D01*
X198917162Y-97895880D01*
X199381958Y-97895880D01*
X199419280Y-97899556D01*
X199456602Y-97895880D01*
X199456613Y-97895880D01*
X199568266Y-97884883D01*
X199711527Y-97841426D01*
X199843556Y-97770854D01*
X199959281Y-97675881D01*
X199983084Y-97646877D01*
X200700901Y-96929060D01*
X212977908Y-96929060D01*
X212980980Y-97093310D01*
X213139730Y-97252060D01*
X214088980Y-97252060D01*
X214088980Y-96452810D01*
X213930230Y-96294060D01*
X213615980Y-96290988D01*
X213491498Y-96303248D01*
X213371800Y-96339558D01*
X213261486Y-96398523D01*
X213164795Y-96477875D01*
X213085443Y-96574566D01*
X213026478Y-96684880D01*
X212990168Y-96804578D01*
X212977908Y-96929060D01*
X200700901Y-96929060D01*
X200950040Y-96679921D01*
X200950040Y-96927080D01*
X201958040Y-96927080D01*
X201958040Y-96907080D01*
X202212040Y-96907080D01*
X202212040Y-96927080D01*
X203220040Y-96927080D01*
X203220040Y-96427080D01*
X210170040Y-96427080D01*
X210170040Y-96927080D01*
X211178040Y-96927080D01*
X211178040Y-95586126D01*
X211432040Y-95586126D01*
X211432040Y-96927080D01*
X212440040Y-96927080D01*
X212440040Y-96427080D01*
X212393455Y-96208093D01*
X212305043Y-96002402D01*
X212178201Y-95817911D01*
X212017804Y-95661711D01*
X211830016Y-95539804D01*
X211606914Y-95459961D01*
X211432040Y-95586126D01*
X211178040Y-95586126D01*
X211003166Y-95459961D01*
X210780064Y-95539804D01*
X210592276Y-95661711D01*
X210431879Y-95817911D01*
X210305037Y-96002402D01*
X210216625Y-96208093D01*
X210170040Y-96427080D01*
X203220040Y-96427080D01*
X203173455Y-96208093D01*
X203085043Y-96002402D01*
X202958201Y-95817911D01*
X202957224Y-95816960D01*
X203566520Y-95816960D01*
X203603842Y-95820636D01*
X203641164Y-95816960D01*
X203641175Y-95816960D01*
X203752828Y-95805963D01*
X203896089Y-95762506D01*
X204028118Y-95691934D01*
X204143843Y-95596961D01*
X204167646Y-95567958D01*
X204974183Y-94761421D01*
X208562739Y-94761421D01*
X208600061Y-94765097D01*
X208637383Y-94761421D01*
X208637394Y-94761421D01*
X208749047Y-94750424D01*
X208892308Y-94706967D01*
X209024337Y-94636395D01*
X209140062Y-94541422D01*
X209163865Y-94512418D01*
X209603930Y-94072353D01*
X209693142Y-94109306D01*
X209893101Y-94149080D01*
X210096979Y-94149080D01*
X210296938Y-94109306D01*
X210485296Y-94031285D01*
X210602413Y-93953030D01*
X210780064Y-94068356D01*
X211003166Y-94148199D01*
X211178040Y-94022034D01*
X211178040Y-92681080D01*
X211158040Y-92681080D01*
X211158040Y-92427080D01*
X211178040Y-92427080D01*
X211178040Y-92407080D01*
X211432040Y-92407080D01*
X211432040Y-92427080D01*
X211452040Y-92427080D01*
X211452040Y-92681080D01*
X211432040Y-92681080D01*
X211432040Y-94022034D01*
X211606914Y-94148199D01*
X211830016Y-94068356D01*
X212017804Y-93946449D01*
X212178201Y-93790249D01*
X212305043Y-93605758D01*
X212393455Y-93400067D01*
X212440040Y-93181080D01*
X212440040Y-93136417D01*
X212515450Y-93135680D01*
X212674200Y-92976930D01*
X212674200Y-91927680D01*
X212654200Y-91927680D01*
X212654200Y-91673680D01*
X212674200Y-91673680D01*
X212674200Y-91653680D01*
X212928200Y-91653680D01*
X212928200Y-91673680D01*
%TA.AperFunction,Conductor*%
D24*
G36*
X212928200Y-91673680D02*
G01*
X212948200Y-91673680D01*
X212948200Y-91927680D01*
X212928200Y-91927680D01*
X212928200Y-92976930D01*
X213086950Y-93135680D01*
X213214688Y-93136929D01*
X213164795Y-93177875D01*
X213085443Y-93274566D01*
X213026478Y-93384880D01*
X212990168Y-93504578D01*
X212977908Y-93629060D01*
X212977908Y-94529060D01*
X212990168Y-94653542D01*
X213026478Y-94773240D01*
X213085443Y-94883554D01*
X213164795Y-94980245D01*
X213261486Y-95059597D01*
X213371800Y-95118562D01*
X213491498Y-95154872D01*
X213615980Y-95167132D01*
X214815980Y-95167132D01*
X214940462Y-95154872D01*
X215060160Y-95118562D01*
X215170474Y-95059597D01*
X215267165Y-94980245D01*
X215346517Y-94883554D01*
X215392000Y-94798463D01*
X215437483Y-94883554D01*
X215516835Y-94980245D01*
X215598667Y-95047403D01*
X215552474Y-95158922D01*
X215512700Y-95358881D01*
X215512700Y-95562759D01*
X215552474Y-95762718D01*
X215630495Y-95951076D01*
X215743763Y-96120594D01*
X215887926Y-96264757D01*
X215932430Y-96294493D01*
X215843538Y-96303248D01*
X215723840Y-96339558D01*
X215613526Y-96398523D01*
X215516835Y-96477875D01*
X215437483Y-96574566D01*
X215392000Y-96659657D01*
X215346517Y-96574566D01*
X215267165Y-96477875D01*
X215170474Y-96398523D01*
X215060160Y-96339558D01*
X214940462Y-96303248D01*
X214815980Y-96290988D01*
X214501730Y-96294060D01*
X214342980Y-96452810D01*
X214342980Y-97252060D01*
X215292230Y-97252060D01*
X215392000Y-97152290D01*
X215491770Y-97252060D01*
X216441020Y-97252060D01*
X216441020Y-97232060D01*
X216695020Y-97232060D01*
X216695020Y-97252060D01*
X216715020Y-97252060D01*
X216715020Y-97506060D01*
X216695020Y-97506060D01*
X216695020Y-98305310D01*
X216807049Y-98417339D01*
X216744760Y-98451019D01*
X216631624Y-98486040D01*
X216483579Y-98501600D01*
X211932848Y-98501600D01*
X212017804Y-98446449D01*
X212178201Y-98290249D01*
X212305043Y-98105758D01*
X212393455Y-97900067D01*
X212408560Y-97829060D01*
X212977908Y-97829060D01*
X212990168Y-97953542D01*
X213026478Y-98073240D01*
X213085443Y-98183554D01*
X213164795Y-98280245D01*
X213261486Y-98359597D01*
X213371800Y-98418562D01*
X213491498Y-98454872D01*
X213615980Y-98467132D01*
X213930230Y-98464060D01*
X214088980Y-98305310D01*
X214088980Y-97506060D01*
X214342980Y-97506060D01*
X214342980Y-98305310D01*
X214501730Y-98464060D01*
X214815980Y-98467132D01*
X214940462Y-98454872D01*
X215060160Y-98418562D01*
X215170474Y-98359597D01*
X215267165Y-98280245D01*
X215346517Y-98183554D01*
X215392000Y-98098463D01*
X215437483Y-98183554D01*
X215516835Y-98280245D01*
X215613526Y-98359597D01*
X215723840Y-98418562D01*
X215843538Y-98454872D01*
X215968020Y-98467132D01*
X216282270Y-98464060D01*
X216441020Y-98305310D01*
X216441020Y-97506060D01*
X215491770Y-97506060D01*
X215392000Y-97605830D01*
X215292230Y-97506060D01*
X214342980Y-97506060D01*
X214088980Y-97506060D01*
X213139730Y-97506060D01*
X212980980Y-97664810D01*
X212977908Y-97829060D01*
X212408560Y-97829060D01*
X212440040Y-97681080D01*
X212440040Y-97181080D01*
X211432040Y-97181080D01*
X211432040Y-97201080D01*
X211178040Y-97201080D01*
X211178040Y-97181080D01*
X210170040Y-97181080D01*
X210170040Y-97681080D01*
X210216625Y-97900067D01*
X210305037Y-98105758D01*
X210431879Y-98290249D01*
X210592276Y-98446449D01*
X210677232Y-98501600D01*
X202712848Y-98501600D01*
X202797804Y-98446449D01*
X202958201Y-98290249D01*
X203085043Y-98105758D01*
X203173455Y-97900067D01*
X203220040Y-97681080D01*
X203220040Y-97181080D01*
X202212040Y-97181080D01*
X202212040Y-97201080D01*
X201958040Y-97201080D01*
X201958040Y-97181080D01*
X200950040Y-97181080D01*
X200950040Y-97681080D01*
X200996625Y-97900067D01*
X201085037Y-98105758D01*
X201211879Y-98290249D01*
X201372276Y-98446449D01*
X201457232Y-98501600D01*
X197110879Y-98501600D01*
X196960731Y-98486878D01*
X196847354Y-98452647D01*
X196778820Y-98416207D01*
X196857459Y-98423952D01*
X198107461Y-98423952D01*
X198280715Y-98406888D01*
X198447311Y-98356352D01*
X198600847Y-98274285D01*
X198735422Y-98163842D01*
X198845865Y-98029267D01*
X198917162Y-97895880D01*
X199381958Y-97895880D01*
X199419280Y-97899556D01*
X199456602Y-97895880D01*
X199456613Y-97895880D01*
X199568266Y-97884883D01*
X199711527Y-97841426D01*
X199843556Y-97770854D01*
X199959281Y-97675881D01*
X199983084Y-97646877D01*
X200700901Y-96929060D01*
X212977908Y-96929060D01*
X212980980Y-97093310D01*
X213139730Y-97252060D01*
X214088980Y-97252060D01*
X214088980Y-96452810D01*
X213930230Y-96294060D01*
X213615980Y-96290988D01*
X213491498Y-96303248D01*
X213371800Y-96339558D01*
X213261486Y-96398523D01*
X213164795Y-96477875D01*
X213085443Y-96574566D01*
X213026478Y-96684880D01*
X212990168Y-96804578D01*
X212977908Y-96929060D01*
X200700901Y-96929060D01*
X200950040Y-96679921D01*
X200950040Y-96927080D01*
X201958040Y-96927080D01*
X201958040Y-96907080D01*
X202212040Y-96907080D01*
X202212040Y-96927080D01*
X203220040Y-96927080D01*
X203220040Y-96427080D01*
X210170040Y-96427080D01*
X210170040Y-96927080D01*
X211178040Y-96927080D01*
X211178040Y-95586126D01*
X211432040Y-95586126D01*
X211432040Y-96927080D01*
X212440040Y-96927080D01*
X212440040Y-96427080D01*
X212393455Y-96208093D01*
X212305043Y-96002402D01*
X212178201Y-95817911D01*
X212017804Y-95661711D01*
X211830016Y-95539804D01*
X211606914Y-95459961D01*
X211432040Y-95586126D01*
X211178040Y-95586126D01*
X211003166Y-95459961D01*
X210780064Y-95539804D01*
X210592276Y-95661711D01*
X210431879Y-95817911D01*
X210305037Y-96002402D01*
X210216625Y-96208093D01*
X210170040Y-96427080D01*
X203220040Y-96427080D01*
X203173455Y-96208093D01*
X203085043Y-96002402D01*
X202958201Y-95817911D01*
X202957224Y-95816960D01*
X203566520Y-95816960D01*
X203603842Y-95820636D01*
X203641164Y-95816960D01*
X203641175Y-95816960D01*
X203752828Y-95805963D01*
X203896089Y-95762506D01*
X204028118Y-95691934D01*
X204143843Y-95596961D01*
X204167646Y-95567958D01*
X204974183Y-94761421D01*
X208562739Y-94761421D01*
X208600061Y-94765097D01*
X208637383Y-94761421D01*
X208637394Y-94761421D01*
X208749047Y-94750424D01*
X208892308Y-94706967D01*
X209024337Y-94636395D01*
X209140062Y-94541422D01*
X209163865Y-94512418D01*
X209603930Y-94072353D01*
X209693142Y-94109306D01*
X209893101Y-94149080D01*
X210096979Y-94149080D01*
X210296938Y-94109306D01*
X210485296Y-94031285D01*
X210602413Y-93953030D01*
X210780064Y-94068356D01*
X211003166Y-94148199D01*
X211178040Y-94022034D01*
X211178040Y-92681080D01*
X211158040Y-92681080D01*
X211158040Y-92427080D01*
X211178040Y-92427080D01*
X211178040Y-92407080D01*
X211432040Y-92407080D01*
X211432040Y-92427080D01*
X211452040Y-92427080D01*
X211452040Y-92681080D01*
X211432040Y-92681080D01*
X211432040Y-94022034D01*
X211606914Y-94148199D01*
X211830016Y-94068356D01*
X212017804Y-93946449D01*
X212178201Y-93790249D01*
X212305043Y-93605758D01*
X212393455Y-93400067D01*
X212440040Y-93181080D01*
X212440040Y-93136417D01*
X212515450Y-93135680D01*
X212674200Y-92976930D01*
X212674200Y-91927680D01*
X212654200Y-91927680D01*
X212654200Y-91673680D01*
X212674200Y-91673680D01*
X212674200Y-91653680D01*
X212928200Y-91653680D01*
X212928200Y-91673680D01*
G37*
%TD.AperFunction*%
D23*
X200950040Y-92427080D02*
X201958040Y-92427080D01*
X201958040Y-92407080D01*
X202212040Y-92407080D01*
X202212040Y-92427080D01*
X202232040Y-92427080D01*
X202232040Y-92681080D01*
X202212040Y-92681080D01*
X202212040Y-94022034D01*
X202386914Y-94148199D01*
X202610016Y-94068356D01*
X202787667Y-93953030D01*
X202904784Y-94031285D01*
X203093142Y-94109306D01*
X203293101Y-94149080D01*
X203436921Y-94149080D01*
X203289041Y-94296960D01*
X201535523Y-94296960D01*
X201498200Y-94293284D01*
X201460877Y-94296960D01*
X201460867Y-94296960D01*
X201349214Y-94307957D01*
X201205953Y-94351414D01*
X201073924Y-94421986D01*
X200958199Y-94516959D01*
X200934745Y-94545538D01*
X200941432Y-94477640D01*
X200938360Y-94163390D01*
X200779610Y-94004640D01*
X199730360Y-94004640D01*
X199730360Y-94953890D01*
X199889110Y-95112640D01*
X200303360Y-95115712D01*
X200371342Y-95109017D01*
X199104479Y-96375880D01*
X198917162Y-96375880D01*
X198845865Y-96242493D01*
X198735422Y-96107918D01*
X198600847Y-95997475D01*
X198447311Y-95915408D01*
X198280715Y-95864872D01*
X198107461Y-95847808D01*
X196857459Y-95847808D01*
X196684205Y-95864872D01*
X196517609Y-95915408D01*
X196468600Y-95941604D01*
X196468600Y-95230156D01*
X196517609Y-95256352D01*
X196684205Y-95306888D01*
X196857459Y-95323952D01*
X198107461Y-95323952D01*
X198280715Y-95306888D01*
X198447311Y-95256352D01*
X198600847Y-95174285D01*
X198711910Y-95083138D01*
X198778878Y-95103452D01*
X198903360Y-95115712D01*
X199317610Y-95112640D01*
X199476360Y-94953890D01*
X199476360Y-94004640D01*
X199456360Y-94004640D01*
X199456360Y-93750640D01*
X199476360Y-93750640D01*
X199476360Y-93730640D01*
X199730360Y-93730640D01*
X199730360Y-93750640D01*
X200779610Y-93750640D01*
X200938360Y-93591890D01*
X200941432Y-93277640D01*
X200929172Y-93153158D01*
X200892862Y-93033460D01*
X200833897Y-92923146D01*
X200754545Y-92826455D01*
X200725084Y-92802277D01*
X200791765Y-92721027D01*
X200813117Y-92681080D01*
X200950040Y-92681080D01*
X200950040Y-93181080D01*
X200996625Y-93400067D01*
X201085037Y-93605758D01*
X201211879Y-93790249D01*
X201372276Y-93946449D01*
X201560064Y-94068356D01*
X201783166Y-94148199D01*
X201958040Y-94022034D01*
X201958040Y-92681080D01*
X200950040Y-92681080D01*
X200813117Y-92681080D01*
X200873832Y-92567491D01*
X200924368Y-92400895D01*
X200931957Y-92323844D01*
X200950040Y-92305761D01*
X200950040Y-92427080D01*
%TA.AperFunction,Conductor*%
D24*
G36*
X200950040Y-92427080D02*
G01*
X201958040Y-92427080D01*
X201958040Y-92407080D01*
X202212040Y-92407080D01*
X202212040Y-92427080D01*
X202232040Y-92427080D01*
X202232040Y-92681080D01*
X202212040Y-92681080D01*
X202212040Y-94022034D01*
X202386914Y-94148199D01*
X202610016Y-94068356D01*
X202787667Y-93953030D01*
X202904784Y-94031285D01*
X203093142Y-94109306D01*
X203293101Y-94149080D01*
X203436921Y-94149080D01*
X203289041Y-94296960D01*
X201535523Y-94296960D01*
X201498200Y-94293284D01*
X201460877Y-94296960D01*
X201460867Y-94296960D01*
X201349214Y-94307957D01*
X201205953Y-94351414D01*
X201073924Y-94421986D01*
X200958199Y-94516959D01*
X200934745Y-94545538D01*
X200941432Y-94477640D01*
X200938360Y-94163390D01*
X200779610Y-94004640D01*
X199730360Y-94004640D01*
X199730360Y-94953890D01*
X199889110Y-95112640D01*
X200303360Y-95115712D01*
X200371342Y-95109017D01*
X199104479Y-96375880D01*
X198917162Y-96375880D01*
X198845865Y-96242493D01*
X198735422Y-96107918D01*
X198600847Y-95997475D01*
X198447311Y-95915408D01*
X198280715Y-95864872D01*
X198107461Y-95847808D01*
X196857459Y-95847808D01*
X196684205Y-95864872D01*
X196517609Y-95915408D01*
X196468600Y-95941604D01*
X196468600Y-95230156D01*
X196517609Y-95256352D01*
X196684205Y-95306888D01*
X196857459Y-95323952D01*
X198107461Y-95323952D01*
X198280715Y-95306888D01*
X198447311Y-95256352D01*
X198600847Y-95174285D01*
X198711910Y-95083138D01*
X198778878Y-95103452D01*
X198903360Y-95115712D01*
X199317610Y-95112640D01*
X199476360Y-94953890D01*
X199476360Y-94004640D01*
X199456360Y-94004640D01*
X199456360Y-93750640D01*
X199476360Y-93750640D01*
X199476360Y-93730640D01*
X199730360Y-93730640D01*
X199730360Y-93750640D01*
X200779610Y-93750640D01*
X200938360Y-93591890D01*
X200941432Y-93277640D01*
X200929172Y-93153158D01*
X200892862Y-93033460D01*
X200833897Y-92923146D01*
X200754545Y-92826455D01*
X200725084Y-92802277D01*
X200791765Y-92721027D01*
X200813117Y-92681080D01*
X200950040Y-92681080D01*
X200950040Y-93181080D01*
X200996625Y-93400067D01*
X201085037Y-93605758D01*
X201211879Y-93790249D01*
X201372276Y-93946449D01*
X201560064Y-94068356D01*
X201783166Y-94148199D01*
X201958040Y-94022034D01*
X201958040Y-92681080D01*
X200950040Y-92681080D01*
X200813117Y-92681080D01*
X200873832Y-92567491D01*
X200924368Y-92400895D01*
X200931957Y-92323844D01*
X200950040Y-92305761D01*
X200950040Y-92427080D01*
G37*
%TD.AperFunction*%
D23*
X197721220Y-91170580D02*
X197741220Y-91170580D01*
X197741220Y-91424580D01*
X197721220Y-91424580D01*
X197721220Y-92361330D01*
X197879970Y-92520080D01*
X198319220Y-92523152D01*
X198319432Y-92523131D01*
X198332888Y-92567491D01*
X198414955Y-92721027D01*
X198481636Y-92802277D01*
X198458408Y-92821340D01*
X198447311Y-92815408D01*
X198280715Y-92764872D01*
X198107461Y-92747808D01*
X197304210Y-92747808D01*
X197304210Y-92520110D01*
X197308470Y-92520080D01*
X197467220Y-92361330D01*
X197467220Y-91424580D01*
X197447220Y-91424580D01*
X197447220Y-91170580D01*
X197467220Y-91170580D01*
X197467220Y-91150580D01*
X197721220Y-91150580D01*
X197721220Y-91170580D01*
%TA.AperFunction,Conductor*%
D24*
G36*
X197721220Y-91170580D02*
G01*
X197741220Y-91170580D01*
X197741220Y-91424580D01*
X197721220Y-91424580D01*
X197721220Y-92361330D01*
X197879970Y-92520080D01*
X198319220Y-92523152D01*
X198319432Y-92523131D01*
X198332888Y-92567491D01*
X198414955Y-92721027D01*
X198481636Y-92802277D01*
X198458408Y-92821340D01*
X198447311Y-92815408D01*
X198280715Y-92764872D01*
X198107461Y-92747808D01*
X197304210Y-92747808D01*
X197304210Y-92520110D01*
X197308470Y-92520080D01*
X197467220Y-92361330D01*
X197467220Y-91424580D01*
X197447220Y-91424580D01*
X197447220Y-91170580D01*
X197467220Y-91170580D01*
X197467220Y-91150580D01*
X197721220Y-91150580D01*
X197721220Y-91170580D01*
G37*
%TD.AperFunction*%
D23*
X200888797Y-90217400D02*
X200397003Y-90709195D01*
X200393211Y-90707168D01*
X200226615Y-90656632D01*
X200053361Y-90639568D01*
X199153359Y-90639568D01*
X198980105Y-90656632D01*
X198952842Y-90664902D01*
X198945032Y-90585598D01*
X198908722Y-90465900D01*
X198849757Y-90355586D01*
X198770405Y-90258895D01*
X198690626Y-90193422D01*
X198697182Y-90188042D01*
X198807625Y-90053466D01*
X198845514Y-89982580D01*
X200653978Y-89982580D01*
X200888797Y-90217400D01*
%TA.AperFunction,Conductor*%
D24*
G36*
X200888797Y-90217400D02*
G01*
X200397003Y-90709195D01*
X200393211Y-90707168D01*
X200226615Y-90656632D01*
X200053361Y-90639568D01*
X199153359Y-90639568D01*
X198980105Y-90656632D01*
X198952842Y-90664902D01*
X198945032Y-90585598D01*
X198908722Y-90465900D01*
X198849757Y-90355586D01*
X198770405Y-90258895D01*
X198690626Y-90193422D01*
X198697182Y-90188042D01*
X198807625Y-90053466D01*
X198845514Y-89982580D01*
X200653978Y-89982580D01*
X200888797Y-90217400D01*
G37*
%TD.AperFunction*%
D23*
X208371888Y-72094870D02*
X208453955Y-72248406D01*
X208564398Y-72382982D01*
X208698974Y-72493425D01*
X208769861Y-72531315D01*
X208769861Y-72554848D01*
X208766184Y-72592180D01*
X208780858Y-72741165D01*
X208824314Y-72884426D01*
X208894886Y-73016456D01*
X208966061Y-73103182D01*
X208989860Y-73132181D01*
X209018858Y-73155979D01*
X209600809Y-73737931D01*
X209588182Y-73753317D01*
X209588181Y-73753318D01*
X209517006Y-73840044D01*
X209485046Y-73899837D01*
X209419254Y-73845843D01*
X209308940Y-73786878D01*
X209189242Y-73750568D01*
X209064760Y-73738308D01*
X207464760Y-73738308D01*
X207340278Y-73750568D01*
X207220580Y-73786878D01*
X207110266Y-73845843D01*
X207013575Y-73925195D01*
X206934223Y-74021886D01*
X206875258Y-74132200D01*
X206838948Y-74251898D01*
X206826688Y-74376380D01*
X206826688Y-75539651D01*
X206628757Y-75737582D01*
X206599759Y-75761380D01*
X206575961Y-75790378D01*
X206575960Y-75790379D01*
X206504785Y-75877105D01*
X206434213Y-76009135D01*
X206424901Y-76039834D01*
X206390757Y-76152395D01*
X206387834Y-76182073D01*
X206376083Y-76301381D01*
X206379760Y-76338713D01*
X206379759Y-78219058D01*
X206376083Y-78256381D01*
X206379759Y-78293703D01*
X206379759Y-78293713D01*
X206390756Y-78405366D01*
X206419861Y-78501313D01*
X206434213Y-78548627D01*
X206504785Y-78680657D01*
X206544630Y-78729207D01*
X206599758Y-78796382D01*
X206628761Y-78820184D01*
X207150160Y-79341584D01*
X207150123Y-79341621D01*
X206993080Y-79576653D01*
X206884907Y-79837806D01*
X206829760Y-80115045D01*
X206829760Y-80397715D01*
X206884907Y-80674954D01*
X206993080Y-80936107D01*
X207150123Y-81171139D01*
X207350001Y-81371017D01*
X207585033Y-81528060D01*
X207595625Y-81532447D01*
X207409629Y-81643995D01*
X207201241Y-81832966D01*
X207033723Y-82058960D01*
X206913514Y-82313293D01*
X206872856Y-82447341D01*
X206994845Y-82669380D01*
X208137760Y-82669380D01*
X208137760Y-82649380D01*
X208391760Y-82649380D01*
X208391760Y-82669380D01*
X208411760Y-82669380D01*
X208411760Y-82923380D01*
X208391760Y-82923380D01*
X208391760Y-84067004D01*
X208613800Y-84188289D01*
X208878641Y-84093450D01*
X209119891Y-83948765D01*
X209267588Y-83814830D01*
X209296443Y-83868814D01*
X209375795Y-83965505D01*
X209472486Y-84044857D01*
X209582800Y-84103822D01*
X209702498Y-84140132D01*
X209738303Y-84143658D01*
X210522820Y-84928175D01*
X210536963Y-84914033D01*
X210716568Y-85093638D01*
X210702425Y-85107780D01*
X210716568Y-85121923D01*
X210536963Y-85301528D01*
X210522820Y-85287385D01*
X209495713Y-86314492D01*
X209603546Y-86589118D01*
X209910204Y-86739996D01*
X210240405Y-86828149D01*
X210541485Y-86847606D01*
X210476830Y-86944369D01*
X210364888Y-87214622D01*
X210307820Y-87501520D01*
X210307820Y-87794040D01*
X210364888Y-88080938D01*
X210476830Y-88351191D01*
X210639345Y-88594412D01*
X210846188Y-88801255D01*
X211089409Y-88963770D01*
X211359662Y-89075712D01*
X211646560Y-89132780D01*
X211671018Y-89132780D01*
X211547972Y-89170105D01*
X211415943Y-89240677D01*
X211300218Y-89335650D01*
X211281007Y-89359059D01*
X208727994Y-89359059D01*
X208759558Y-89327495D01*
X209047927Y-88895921D01*
X209246559Y-88416381D01*
X209347820Y-87907305D01*
X209347820Y-87388255D01*
X209246559Y-86879179D01*
X209047927Y-86399639D01*
X208759558Y-85968065D01*
X208392535Y-85601042D01*
X207960961Y-85312673D01*
X207607873Y-85166419D01*
X208780411Y-85166419D01*
X208825331Y-85505219D01*
X208935484Y-85828746D01*
X209041482Y-86027054D01*
X209316108Y-86134887D01*
X210343215Y-85107780D01*
X209316108Y-84080673D01*
X209041482Y-84188506D01*
X208890604Y-84495164D01*
X208802451Y-84825365D01*
X208780411Y-85166419D01*
X207607873Y-85166419D01*
X207481421Y-85114041D01*
X206972345Y-85012780D01*
X206453295Y-85012780D01*
X205944219Y-85114041D01*
X205464679Y-85312673D01*
X205033105Y-85601042D01*
X204666082Y-85968065D01*
X204377713Y-86399639D01*
X204179081Y-86879179D01*
X204077820Y-87388255D01*
X204077820Y-87907305D01*
X204179081Y-88416381D01*
X204377713Y-88895921D01*
X204553925Y-89159641D01*
X201980642Y-89159641D01*
X201924796Y-89103795D01*
X202065978Y-89075712D01*
X202336231Y-88963770D01*
X202579452Y-88801255D01*
X202786295Y-88594412D01*
X202948810Y-88351191D01*
X203060752Y-88080938D01*
X203117820Y-87794040D01*
X203117820Y-87501520D01*
X203060752Y-87214622D01*
X202948810Y-86944369D01*
X202786295Y-86701148D01*
X202579452Y-86494305D01*
X202336231Y-86331790D01*
X202065978Y-86219848D01*
X201779080Y-86162780D01*
X201486560Y-86162780D01*
X201199662Y-86219848D01*
X200929409Y-86331790D01*
X200686188Y-86494305D01*
X200479345Y-86701148D01*
X200316830Y-86944369D01*
X200204888Y-87214622D01*
X200147820Y-87501520D01*
X200147820Y-87794040D01*
X200204888Y-88080938D01*
X200316830Y-88351191D01*
X200391258Y-88462580D01*
X198845514Y-88462580D01*
X198807625Y-88391694D01*
X198697182Y-88257118D01*
X198562606Y-88146675D01*
X198409070Y-88064608D01*
X198354220Y-88047970D01*
X198354220Y-82396897D01*
X202437820Y-82396897D01*
X202437820Y-82738663D01*
X202504495Y-83073861D01*
X202635283Y-83389611D01*
X202825157Y-83673778D01*
X203066822Y-83915443D01*
X203350989Y-84105317D01*
X203666739Y-84236105D01*
X204001937Y-84302780D01*
X204343703Y-84302780D01*
X204678901Y-84236105D01*
X204994651Y-84105317D01*
X205278818Y-83915443D01*
X205520483Y-83673778D01*
X205710357Y-83389611D01*
X205811504Y-83145419D01*
X206872856Y-83145419D01*
X206913514Y-83279467D01*
X207033723Y-83533800D01*
X207201241Y-83759794D01*
X207409629Y-83948765D01*
X207650879Y-84093450D01*
X207915720Y-84188289D01*
X208137760Y-84067004D01*
X208137760Y-82923380D01*
X206994845Y-82923380D01*
X206872856Y-83145419D01*
X205811504Y-83145419D01*
X205841145Y-83073861D01*
X205907820Y-82738663D01*
X205907820Y-82396897D01*
X205841145Y-82061699D01*
X205710357Y-81745949D01*
X205520483Y-81461782D01*
X205278818Y-81220117D01*
X204994651Y-81030243D01*
X204678901Y-80899455D01*
X204343703Y-80832780D01*
X204001937Y-80832780D01*
X203666739Y-80899455D01*
X203350989Y-81030243D01*
X203066822Y-81220117D01*
X202825157Y-81461782D01*
X202635283Y-81745949D01*
X202504495Y-82061699D01*
X202437820Y-82396897D01*
X198354220Y-82396897D01*
X198354220Y-76646881D01*
X202961082Y-72040020D01*
X208355250Y-72040020D01*
X208371888Y-72094870D01*
%TA.AperFunction,Conductor*%
D24*
G36*
X208371888Y-72094870D02*
G01*
X208453955Y-72248406D01*
X208564398Y-72382982D01*
X208698974Y-72493425D01*
X208769861Y-72531315D01*
X208769861Y-72554848D01*
X208766184Y-72592180D01*
X208780858Y-72741165D01*
X208824314Y-72884426D01*
X208894886Y-73016456D01*
X208966061Y-73103182D01*
X208989860Y-73132181D01*
X209018858Y-73155979D01*
X209600809Y-73737931D01*
X209588182Y-73753317D01*
X209588181Y-73753318D01*
X209517006Y-73840044D01*
X209485046Y-73899837D01*
X209419254Y-73845843D01*
X209308940Y-73786878D01*
X209189242Y-73750568D01*
X209064760Y-73738308D01*
X207464760Y-73738308D01*
X207340278Y-73750568D01*
X207220580Y-73786878D01*
X207110266Y-73845843D01*
X207013575Y-73925195D01*
X206934223Y-74021886D01*
X206875258Y-74132200D01*
X206838948Y-74251898D01*
X206826688Y-74376380D01*
X206826688Y-75539651D01*
X206628757Y-75737582D01*
X206599759Y-75761380D01*
X206575961Y-75790378D01*
X206575960Y-75790379D01*
X206504785Y-75877105D01*
X206434213Y-76009135D01*
X206424901Y-76039834D01*
X206390757Y-76152395D01*
X206387834Y-76182073D01*
X206376083Y-76301381D01*
X206379760Y-76338713D01*
X206379759Y-78219058D01*
X206376083Y-78256381D01*
X206379759Y-78293703D01*
X206379759Y-78293713D01*
X206390756Y-78405366D01*
X206419861Y-78501313D01*
X206434213Y-78548627D01*
X206504785Y-78680657D01*
X206544630Y-78729207D01*
X206599758Y-78796382D01*
X206628761Y-78820184D01*
X207150160Y-79341584D01*
X207150123Y-79341621D01*
X206993080Y-79576653D01*
X206884907Y-79837806D01*
X206829760Y-80115045D01*
X206829760Y-80397715D01*
X206884907Y-80674954D01*
X206993080Y-80936107D01*
X207150123Y-81171139D01*
X207350001Y-81371017D01*
X207585033Y-81528060D01*
X207595625Y-81532447D01*
X207409629Y-81643995D01*
X207201241Y-81832966D01*
X207033723Y-82058960D01*
X206913514Y-82313293D01*
X206872856Y-82447341D01*
X206994845Y-82669380D01*
X208137760Y-82669380D01*
X208137760Y-82649380D01*
X208391760Y-82649380D01*
X208391760Y-82669380D01*
X208411760Y-82669380D01*
X208411760Y-82923380D01*
X208391760Y-82923380D01*
X208391760Y-84067004D01*
X208613800Y-84188289D01*
X208878641Y-84093450D01*
X209119891Y-83948765D01*
X209267588Y-83814830D01*
X209296443Y-83868814D01*
X209375795Y-83965505D01*
X209472486Y-84044857D01*
X209582800Y-84103822D01*
X209702498Y-84140132D01*
X209738303Y-84143658D01*
X210522820Y-84928175D01*
X210536963Y-84914033D01*
X210716568Y-85093638D01*
X210702425Y-85107780D01*
X210716568Y-85121923D01*
X210536963Y-85301528D01*
X210522820Y-85287385D01*
X209495713Y-86314492D01*
X209603546Y-86589118D01*
X209910204Y-86739996D01*
X210240405Y-86828149D01*
X210541485Y-86847606D01*
X210476830Y-86944369D01*
X210364888Y-87214622D01*
X210307820Y-87501520D01*
X210307820Y-87794040D01*
X210364888Y-88080938D01*
X210476830Y-88351191D01*
X210639345Y-88594412D01*
X210846188Y-88801255D01*
X211089409Y-88963770D01*
X211359662Y-89075712D01*
X211646560Y-89132780D01*
X211671018Y-89132780D01*
X211547972Y-89170105D01*
X211415943Y-89240677D01*
X211300218Y-89335650D01*
X211281007Y-89359059D01*
X208727994Y-89359059D01*
X208759558Y-89327495D01*
X209047927Y-88895921D01*
X209246559Y-88416381D01*
X209347820Y-87907305D01*
X209347820Y-87388255D01*
X209246559Y-86879179D01*
X209047927Y-86399639D01*
X208759558Y-85968065D01*
X208392535Y-85601042D01*
X207960961Y-85312673D01*
X207607873Y-85166419D01*
X208780411Y-85166419D01*
X208825331Y-85505219D01*
X208935484Y-85828746D01*
X209041482Y-86027054D01*
X209316108Y-86134887D01*
X210343215Y-85107780D01*
X209316108Y-84080673D01*
X209041482Y-84188506D01*
X208890604Y-84495164D01*
X208802451Y-84825365D01*
X208780411Y-85166419D01*
X207607873Y-85166419D01*
X207481421Y-85114041D01*
X206972345Y-85012780D01*
X206453295Y-85012780D01*
X205944219Y-85114041D01*
X205464679Y-85312673D01*
X205033105Y-85601042D01*
X204666082Y-85968065D01*
X204377713Y-86399639D01*
X204179081Y-86879179D01*
X204077820Y-87388255D01*
X204077820Y-87907305D01*
X204179081Y-88416381D01*
X204377713Y-88895921D01*
X204553925Y-89159641D01*
X201980642Y-89159641D01*
X201924796Y-89103795D01*
X202065978Y-89075712D01*
X202336231Y-88963770D01*
X202579452Y-88801255D01*
X202786295Y-88594412D01*
X202948810Y-88351191D01*
X203060752Y-88080938D01*
X203117820Y-87794040D01*
X203117820Y-87501520D01*
X203060752Y-87214622D01*
X202948810Y-86944369D01*
X202786295Y-86701148D01*
X202579452Y-86494305D01*
X202336231Y-86331790D01*
X202065978Y-86219848D01*
X201779080Y-86162780D01*
X201486560Y-86162780D01*
X201199662Y-86219848D01*
X200929409Y-86331790D01*
X200686188Y-86494305D01*
X200479345Y-86701148D01*
X200316830Y-86944369D01*
X200204888Y-87214622D01*
X200147820Y-87501520D01*
X200147820Y-87794040D01*
X200204888Y-88080938D01*
X200316830Y-88351191D01*
X200391258Y-88462580D01*
X198845514Y-88462580D01*
X198807625Y-88391694D01*
X198697182Y-88257118D01*
X198562606Y-88146675D01*
X198409070Y-88064608D01*
X198354220Y-88047970D01*
X198354220Y-82396897D01*
X202437820Y-82396897D01*
X202437820Y-82738663D01*
X202504495Y-83073861D01*
X202635283Y-83389611D01*
X202825157Y-83673778D01*
X203066822Y-83915443D01*
X203350989Y-84105317D01*
X203666739Y-84236105D01*
X204001937Y-84302780D01*
X204343703Y-84302780D01*
X204678901Y-84236105D01*
X204994651Y-84105317D01*
X205278818Y-83915443D01*
X205520483Y-83673778D01*
X205710357Y-83389611D01*
X205811504Y-83145419D01*
X206872856Y-83145419D01*
X206913514Y-83279467D01*
X207033723Y-83533800D01*
X207201241Y-83759794D01*
X207409629Y-83948765D01*
X207650879Y-84093450D01*
X207915720Y-84188289D01*
X208137760Y-84067004D01*
X208137760Y-82923380D01*
X206994845Y-82923380D01*
X206872856Y-83145419D01*
X205811504Y-83145419D01*
X205841145Y-83073861D01*
X205907820Y-82738663D01*
X205907820Y-82396897D01*
X205841145Y-82061699D01*
X205710357Y-81745949D01*
X205520483Y-81461782D01*
X205278818Y-81220117D01*
X204994651Y-81030243D01*
X204678901Y-80899455D01*
X204343703Y-80832780D01*
X204001937Y-80832780D01*
X203666739Y-80899455D01*
X203350989Y-81030243D01*
X203066822Y-81220117D01*
X202825157Y-81461782D01*
X202635283Y-81745949D01*
X202504495Y-82061699D01*
X202437820Y-82396897D01*
X198354220Y-82396897D01*
X198354220Y-76646881D01*
X202961082Y-72040020D01*
X208355250Y-72040020D01*
X208371888Y-72094870D01*
G37*
%TD.AperFunction*%
D23*
X196610318Y-57756020D02*
X196574008Y-57875718D01*
X196561748Y-58000200D01*
X196564820Y-58464450D01*
X196723570Y-58623200D01*
X197822820Y-58623200D01*
X197822820Y-58603200D01*
X198076820Y-58603200D01*
X198076820Y-58623200D01*
X198096820Y-58623200D01*
X198096820Y-58877200D01*
X198076820Y-58877200D01*
X198076820Y-59976450D01*
X198235570Y-60135200D01*
X198699820Y-60138272D01*
X198824302Y-60126012D01*
X198944000Y-60089702D01*
X199054314Y-60030737D01*
X199151005Y-59951385D01*
X199230357Y-59854694D01*
X199289322Y-59744380D01*
X199325632Y-59624682D01*
X199336265Y-59516717D01*
X199414021Y-59633086D01*
X199606934Y-59825999D01*
X199833777Y-59977571D01*
X200085831Y-60081975D01*
X200353409Y-60135200D01*
X200626231Y-60135200D01*
X200893809Y-60081975D01*
X201145863Y-59977571D01*
X201372706Y-59825999D01*
X201565619Y-59633086D01*
X201717191Y-59406243D01*
X201759820Y-59303327D01*
X201802449Y-59406243D01*
X201954021Y-59633086D01*
X202146934Y-59825999D01*
X202373777Y-59977571D01*
X202625831Y-60081975D01*
X202893409Y-60135200D01*
X203166231Y-60135200D01*
X203311185Y-60106367D01*
X208267661Y-65062843D01*
X208267661Y-66476933D01*
X207950801Y-66265213D01*
X207471261Y-66066581D01*
X206962185Y-65965320D01*
X206443135Y-65965320D01*
X205934059Y-66066581D01*
X205454519Y-66265213D01*
X205022945Y-66553582D01*
X204655922Y-66920605D01*
X204367553Y-67352179D01*
X204168921Y-67831719D01*
X204067660Y-68340795D01*
X204067660Y-68859845D01*
X204168921Y-69368921D01*
X204367553Y-69848461D01*
X204655922Y-70280035D01*
X204895907Y-70520020D01*
X202683605Y-70520020D01*
X202646280Y-70516344D01*
X202608955Y-70520020D01*
X202608947Y-70520020D01*
X202497294Y-70531017D01*
X202354033Y-70574474D01*
X202222004Y-70645046D01*
X202106279Y-70740019D01*
X202082481Y-70769017D01*
X197083223Y-75768276D01*
X197054219Y-75792079D01*
X197021331Y-75832154D01*
X196959246Y-75907804D01*
X196922591Y-75976380D01*
X196888674Y-76039834D01*
X196845217Y-76183095D01*
X196834220Y-76294748D01*
X196834220Y-76294758D01*
X196830544Y-76332080D01*
X196834220Y-76369402D01*
X196834221Y-88047969D01*
X196779370Y-88064608D01*
X196625834Y-88146675D01*
X196491258Y-88257118D01*
X196468600Y-88284727D01*
X196468600Y-68454060D01*
X200137660Y-68454060D01*
X200137660Y-68746580D01*
X200194728Y-69033478D01*
X200306670Y-69303731D01*
X200469185Y-69546952D01*
X200676028Y-69753795D01*
X200919249Y-69916310D01*
X201189502Y-70028252D01*
X201476400Y-70085320D01*
X201768920Y-70085320D01*
X202055818Y-70028252D01*
X202326071Y-69916310D01*
X202569292Y-69753795D01*
X202776135Y-69546952D01*
X202938650Y-69303731D01*
X203050592Y-69033478D01*
X203107660Y-68746580D01*
X203107660Y-68454060D01*
X203050592Y-68167162D01*
X202938650Y-67896909D01*
X202776135Y-67653688D01*
X202569292Y-67446845D01*
X202326071Y-67284330D01*
X202055818Y-67172388D01*
X201768920Y-67115320D01*
X201476400Y-67115320D01*
X201189502Y-67172388D01*
X200919249Y-67284330D01*
X200676028Y-67446845D01*
X200469185Y-67653688D01*
X200306670Y-67896909D01*
X200194728Y-68167162D01*
X200137660Y-68454060D01*
X196468600Y-68454060D01*
X196468600Y-63349437D01*
X202427660Y-63349437D01*
X202427660Y-63691203D01*
X202494335Y-64026401D01*
X202625123Y-64342151D01*
X202814997Y-64626318D01*
X203056662Y-64867983D01*
X203340829Y-65057857D01*
X203656579Y-65188645D01*
X203991777Y-65255320D01*
X204333543Y-65255320D01*
X204668741Y-65188645D01*
X204984491Y-65057857D01*
X205268658Y-64867983D01*
X205510323Y-64626318D01*
X205700197Y-64342151D01*
X205830985Y-64026401D01*
X205897660Y-63691203D01*
X205897660Y-63349437D01*
X205830985Y-63014239D01*
X205700197Y-62698489D01*
X205510323Y-62414322D01*
X205268658Y-62172657D01*
X204984491Y-61982783D01*
X204668741Y-61851995D01*
X204333543Y-61785320D01*
X203991777Y-61785320D01*
X203656579Y-61851995D01*
X203340829Y-61982783D01*
X203056662Y-62172657D01*
X202814997Y-62414322D01*
X202625123Y-62698489D01*
X202494335Y-63014239D01*
X202427660Y-63349437D01*
X196468600Y-63349437D01*
X196468600Y-59500200D01*
X196561748Y-59500200D01*
X196574008Y-59624682D01*
X196610318Y-59744380D01*
X196669283Y-59854694D01*
X196748635Y-59951385D01*
X196845326Y-60030737D01*
X196955640Y-60089702D01*
X197075338Y-60126012D01*
X197199820Y-60138272D01*
X197664070Y-60135200D01*
X197822820Y-59976450D01*
X197822820Y-58877200D01*
X196723570Y-58877200D01*
X196564820Y-59035950D01*
X196561748Y-59500200D01*
X196468600Y-59500200D01*
X196468600Y-57715675D01*
X196469266Y-57708887D01*
X196473901Y-57708400D01*
X196635772Y-57708400D01*
X196610318Y-57756020D01*
%TA.AperFunction,Conductor*%
D24*
G36*
X196610318Y-57756020D02*
G01*
X196574008Y-57875718D01*
X196561748Y-58000200D01*
X196564820Y-58464450D01*
X196723570Y-58623200D01*
X197822820Y-58623200D01*
X197822820Y-58603200D01*
X198076820Y-58603200D01*
X198076820Y-58623200D01*
X198096820Y-58623200D01*
X198096820Y-58877200D01*
X198076820Y-58877200D01*
X198076820Y-59976450D01*
X198235570Y-60135200D01*
X198699820Y-60138272D01*
X198824302Y-60126012D01*
X198944000Y-60089702D01*
X199054314Y-60030737D01*
X199151005Y-59951385D01*
X199230357Y-59854694D01*
X199289322Y-59744380D01*
X199325632Y-59624682D01*
X199336265Y-59516717D01*
X199414021Y-59633086D01*
X199606934Y-59825999D01*
X199833777Y-59977571D01*
X200085831Y-60081975D01*
X200353409Y-60135200D01*
X200626231Y-60135200D01*
X200893809Y-60081975D01*
X201145863Y-59977571D01*
X201372706Y-59825999D01*
X201565619Y-59633086D01*
X201717191Y-59406243D01*
X201759820Y-59303327D01*
X201802449Y-59406243D01*
X201954021Y-59633086D01*
X202146934Y-59825999D01*
X202373777Y-59977571D01*
X202625831Y-60081975D01*
X202893409Y-60135200D01*
X203166231Y-60135200D01*
X203311185Y-60106367D01*
X208267661Y-65062843D01*
X208267661Y-66476933D01*
X207950801Y-66265213D01*
X207471261Y-66066581D01*
X206962185Y-65965320D01*
X206443135Y-65965320D01*
X205934059Y-66066581D01*
X205454519Y-66265213D01*
X205022945Y-66553582D01*
X204655922Y-66920605D01*
X204367553Y-67352179D01*
X204168921Y-67831719D01*
X204067660Y-68340795D01*
X204067660Y-68859845D01*
X204168921Y-69368921D01*
X204367553Y-69848461D01*
X204655922Y-70280035D01*
X204895907Y-70520020D01*
X202683605Y-70520020D01*
X202646280Y-70516344D01*
X202608955Y-70520020D01*
X202608947Y-70520020D01*
X202497294Y-70531017D01*
X202354033Y-70574474D01*
X202222004Y-70645046D01*
X202106279Y-70740019D01*
X202082481Y-70769017D01*
X197083223Y-75768276D01*
X197054219Y-75792079D01*
X197021331Y-75832154D01*
X196959246Y-75907804D01*
X196922591Y-75976380D01*
X196888674Y-76039834D01*
X196845217Y-76183095D01*
X196834220Y-76294748D01*
X196834220Y-76294758D01*
X196830544Y-76332080D01*
X196834220Y-76369402D01*
X196834221Y-88047969D01*
X196779370Y-88064608D01*
X196625834Y-88146675D01*
X196491258Y-88257118D01*
X196468600Y-88284727D01*
X196468600Y-68454060D01*
X200137660Y-68454060D01*
X200137660Y-68746580D01*
X200194728Y-69033478D01*
X200306670Y-69303731D01*
X200469185Y-69546952D01*
X200676028Y-69753795D01*
X200919249Y-69916310D01*
X201189502Y-70028252D01*
X201476400Y-70085320D01*
X201768920Y-70085320D01*
X202055818Y-70028252D01*
X202326071Y-69916310D01*
X202569292Y-69753795D01*
X202776135Y-69546952D01*
X202938650Y-69303731D01*
X203050592Y-69033478D01*
X203107660Y-68746580D01*
X203107660Y-68454060D01*
X203050592Y-68167162D01*
X202938650Y-67896909D01*
X202776135Y-67653688D01*
X202569292Y-67446845D01*
X202326071Y-67284330D01*
X202055818Y-67172388D01*
X201768920Y-67115320D01*
X201476400Y-67115320D01*
X201189502Y-67172388D01*
X200919249Y-67284330D01*
X200676028Y-67446845D01*
X200469185Y-67653688D01*
X200306670Y-67896909D01*
X200194728Y-68167162D01*
X200137660Y-68454060D01*
X196468600Y-68454060D01*
X196468600Y-63349437D01*
X202427660Y-63349437D01*
X202427660Y-63691203D01*
X202494335Y-64026401D01*
X202625123Y-64342151D01*
X202814997Y-64626318D01*
X203056662Y-64867983D01*
X203340829Y-65057857D01*
X203656579Y-65188645D01*
X203991777Y-65255320D01*
X204333543Y-65255320D01*
X204668741Y-65188645D01*
X204984491Y-65057857D01*
X205268658Y-64867983D01*
X205510323Y-64626318D01*
X205700197Y-64342151D01*
X205830985Y-64026401D01*
X205897660Y-63691203D01*
X205897660Y-63349437D01*
X205830985Y-63014239D01*
X205700197Y-62698489D01*
X205510323Y-62414322D01*
X205268658Y-62172657D01*
X204984491Y-61982783D01*
X204668741Y-61851995D01*
X204333543Y-61785320D01*
X203991777Y-61785320D01*
X203656579Y-61851995D01*
X203340829Y-61982783D01*
X203056662Y-62172657D01*
X202814997Y-62414322D01*
X202625123Y-62698489D01*
X202494335Y-63014239D01*
X202427660Y-63349437D01*
X196468600Y-63349437D01*
X196468600Y-59500200D01*
X196561748Y-59500200D01*
X196574008Y-59624682D01*
X196610318Y-59744380D01*
X196669283Y-59854694D01*
X196748635Y-59951385D01*
X196845326Y-60030737D01*
X196955640Y-60089702D01*
X197075338Y-60126012D01*
X197199820Y-60138272D01*
X197664070Y-60135200D01*
X197822820Y-59976450D01*
X197822820Y-58877200D01*
X196723570Y-58877200D01*
X196564820Y-59035950D01*
X196561748Y-59500200D01*
X196468600Y-59500200D01*
X196468600Y-57715675D01*
X196469266Y-57708887D01*
X196473901Y-57708400D01*
X196635772Y-57708400D01*
X196610318Y-57756020D01*
G37*
%TD.AperFunction*%
D23*
X209375795Y-76665505D02*
X209472486Y-76744857D01*
X209582800Y-76803822D01*
X209702498Y-76840132D01*
X209826980Y-76852392D01*
X210476980Y-76852392D01*
X210601462Y-76840132D01*
X210721160Y-76803822D01*
X210786980Y-76768640D01*
X210852800Y-76803822D01*
X210972498Y-76840132D01*
X211096980Y-76852392D01*
X211684920Y-76852392D01*
X211684920Y-76929319D01*
X211724694Y-77129278D01*
X211802715Y-77317636D01*
X211915983Y-77487154D01*
X212060146Y-77631317D01*
X212229664Y-77744585D01*
X212418022Y-77822606D01*
X212617981Y-77862380D01*
X212821859Y-77862380D01*
X213021818Y-77822606D01*
X213210176Y-77744585D01*
X213379694Y-77631317D01*
X213523857Y-77487154D01*
X213637125Y-77317636D01*
X213677451Y-77220282D01*
X213971601Y-77514432D01*
X213971600Y-78728077D01*
X213967924Y-78765400D01*
X213971600Y-78802722D01*
X213971600Y-78802732D01*
X213982597Y-78914385D01*
X213999760Y-78970965D01*
X213999759Y-81634056D01*
X213996083Y-81671379D01*
X213999759Y-81708701D01*
X213999759Y-81708711D01*
X214010756Y-81820364D01*
X214054213Y-81963625D01*
X214088980Y-82028669D01*
X214088980Y-82537320D01*
X214108980Y-82537320D01*
X214108980Y-82791320D01*
X214088980Y-82791320D01*
X214088980Y-82811320D01*
X213834980Y-82811320D01*
X213834980Y-82791320D01*
X213814980Y-82791320D01*
X213814980Y-82537320D01*
X213834980Y-82537320D01*
X213834980Y-81338070D01*
X213721900Y-81224990D01*
X213721900Y-81068841D01*
X213682126Y-80868882D01*
X213604105Y-80680524D01*
X213490837Y-80511006D01*
X213346674Y-80366843D01*
X213177156Y-80253575D01*
X212988798Y-80175554D01*
X212788839Y-80135780D01*
X212584961Y-80135780D01*
X212385002Y-80175554D01*
X212196644Y-80253575D01*
X212027126Y-80366843D01*
X212006330Y-80387639D01*
X211961981Y-80333599D01*
X211932984Y-80309802D01*
X209663448Y-78040266D01*
X209699760Y-77857715D01*
X209699760Y-77575045D01*
X209644613Y-77297806D01*
X209536440Y-77036653D01*
X209379397Y-76801621D01*
X209180799Y-76603023D01*
X209189242Y-76602192D01*
X209297007Y-76569502D01*
X209375795Y-76665505D01*
%TA.AperFunction,Conductor*%
D24*
G36*
X209375795Y-76665505D02*
G01*
X209472486Y-76744857D01*
X209582800Y-76803822D01*
X209702498Y-76840132D01*
X209826980Y-76852392D01*
X210476980Y-76852392D01*
X210601462Y-76840132D01*
X210721160Y-76803822D01*
X210786980Y-76768640D01*
X210852800Y-76803822D01*
X210972498Y-76840132D01*
X211096980Y-76852392D01*
X211684920Y-76852392D01*
X211684920Y-76929319D01*
X211724694Y-77129278D01*
X211802715Y-77317636D01*
X211915983Y-77487154D01*
X212060146Y-77631317D01*
X212229664Y-77744585D01*
X212418022Y-77822606D01*
X212617981Y-77862380D01*
X212821859Y-77862380D01*
X213021818Y-77822606D01*
X213210176Y-77744585D01*
X213379694Y-77631317D01*
X213523857Y-77487154D01*
X213637125Y-77317636D01*
X213677451Y-77220282D01*
X213971601Y-77514432D01*
X213971600Y-78728077D01*
X213967924Y-78765400D01*
X213971600Y-78802722D01*
X213971600Y-78802732D01*
X213982597Y-78914385D01*
X213999760Y-78970965D01*
X213999759Y-81634056D01*
X213996083Y-81671379D01*
X213999759Y-81708701D01*
X213999759Y-81708711D01*
X214010756Y-81820364D01*
X214054213Y-81963625D01*
X214088980Y-82028669D01*
X214088980Y-82537320D01*
X214108980Y-82537320D01*
X214108980Y-82791320D01*
X214088980Y-82791320D01*
X214088980Y-82811320D01*
X213834980Y-82811320D01*
X213834980Y-82791320D01*
X213814980Y-82791320D01*
X213814980Y-82537320D01*
X213834980Y-82537320D01*
X213834980Y-81338070D01*
X213721900Y-81224990D01*
X213721900Y-81068841D01*
X213682126Y-80868882D01*
X213604105Y-80680524D01*
X213490837Y-80511006D01*
X213346674Y-80366843D01*
X213177156Y-80253575D01*
X212988798Y-80175554D01*
X212788839Y-80135780D01*
X212584961Y-80135780D01*
X212385002Y-80175554D01*
X212196644Y-80253575D01*
X212027126Y-80366843D01*
X212006330Y-80387639D01*
X211961981Y-80333599D01*
X211932984Y-80309802D01*
X209663448Y-78040266D01*
X209699760Y-77857715D01*
X209699760Y-77575045D01*
X209644613Y-77297806D01*
X209536440Y-77036653D01*
X209379397Y-76801621D01*
X209180799Y-76603023D01*
X209189242Y-76602192D01*
X209297007Y-76569502D01*
X209375795Y-76665505D01*
G37*
%TD.AperFunction*%
D23*
X216628702Y-57723243D02*
X216743259Y-57757830D01*
X216848921Y-57814011D01*
X216941660Y-57889648D01*
X217017939Y-57981854D01*
X217074859Y-58087124D01*
X217114803Y-58216164D01*
X217119601Y-58247684D01*
X217119601Y-74441519D01*
X216999397Y-74261621D01*
X216799519Y-74061743D01*
X216564487Y-73904700D01*
X216303334Y-73796527D01*
X216026095Y-73741380D01*
X215810254Y-73741380D01*
X215297185Y-73228312D01*
X215273383Y-73199309D01*
X215157658Y-73104336D01*
X215025629Y-73033764D01*
X214882368Y-72990307D01*
X214770715Y-72979310D01*
X214770704Y-72979310D01*
X214733382Y-72975634D01*
X214696060Y-72979310D01*
X210991792Y-72979310D01*
X210440475Y-72427994D01*
X210495322Y-72382982D01*
X210500702Y-72376426D01*
X210566175Y-72456205D01*
X210662866Y-72535557D01*
X210773180Y-72594522D01*
X210892878Y-72630832D01*
X211017360Y-72643092D01*
X211319110Y-72640020D01*
X211477860Y-72481270D01*
X211477860Y-71407020D01*
X211731860Y-71407020D01*
X211731860Y-72481270D01*
X211890610Y-72640020D01*
X212192360Y-72643092D01*
X212316842Y-72630832D01*
X212436540Y-72594522D01*
X212546854Y-72535557D01*
X212643545Y-72456205D01*
X212722897Y-72359514D01*
X212781862Y-72249200D01*
X212818172Y-72129502D01*
X212830432Y-72005020D01*
X212827360Y-71565770D01*
X212668610Y-71407020D01*
X211731860Y-71407020D01*
X211477860Y-71407020D01*
X211457860Y-71407020D01*
X211457860Y-71153020D01*
X211477860Y-71153020D01*
X211477860Y-71133020D01*
X211731860Y-71133020D01*
X211731860Y-71153020D01*
X212668610Y-71153020D01*
X212827360Y-70994270D01*
X212830432Y-70555020D01*
X212818172Y-70430538D01*
X212781862Y-70310840D01*
X212722897Y-70200526D01*
X212643545Y-70103835D01*
X212546854Y-70024483D01*
X212436540Y-69965518D01*
X212396555Y-69953389D01*
X212486071Y-69916310D01*
X212729292Y-69753795D01*
X212936135Y-69546952D01*
X213098650Y-69303731D01*
X213210592Y-69033478D01*
X213267660Y-68746580D01*
X213267660Y-68454060D01*
X213210592Y-68167162D01*
X213098650Y-67896909D01*
X212936135Y-67653688D01*
X212729292Y-67446845D01*
X212486071Y-67284330D01*
X212215818Y-67172388D01*
X211928920Y-67115320D01*
X211747268Y-67115320D01*
X211719374Y-67087426D01*
X211993998Y-66979594D01*
X212144876Y-66672936D01*
X212233029Y-66342735D01*
X212255069Y-66001681D01*
X212210149Y-65662881D01*
X212099996Y-65339354D01*
X211993998Y-65141046D01*
X211719374Y-65033214D01*
X211779896Y-64972692D01*
X212147901Y-64972692D01*
X212321155Y-64955628D01*
X212487751Y-64905092D01*
X212641287Y-64823025D01*
X212775862Y-64712582D01*
X212797900Y-64685729D01*
X212819938Y-64712582D01*
X212954513Y-64823025D01*
X213108049Y-64905092D01*
X213274645Y-64955628D01*
X213447899Y-64972692D01*
X214147901Y-64972692D01*
X214321155Y-64955628D01*
X214487751Y-64905092D01*
X214641287Y-64823025D01*
X214775862Y-64712582D01*
X214886305Y-64578007D01*
X214968372Y-64424471D01*
X215018908Y-64257875D01*
X215035972Y-64084621D01*
X215035972Y-63471350D01*
X215636443Y-62870879D01*
X215665441Y-62847081D01*
X215691772Y-62814997D01*
X215760414Y-62731357D01*
X215830986Y-62599327D01*
X215843929Y-62556658D01*
X215874443Y-62456066D01*
X215885440Y-62344413D01*
X215885440Y-62344404D01*
X215889116Y-62307081D01*
X215885440Y-62269758D01*
X215885440Y-60860429D01*
X215899903Y-60854438D01*
X216167692Y-60675507D01*
X216395427Y-60447772D01*
X216574358Y-60179983D01*
X216697608Y-59882432D01*
X216760440Y-59566553D01*
X216760440Y-59244487D01*
X216697608Y-58928608D01*
X216574358Y-58631057D01*
X216395427Y-58363268D01*
X216167692Y-58135533D01*
X215899903Y-57956602D01*
X215602352Y-57833352D01*
X215286473Y-57770520D01*
X214964407Y-57770520D01*
X214648528Y-57833352D01*
X214350977Y-57956602D01*
X214083188Y-58135533D01*
X213855453Y-58363268D01*
X213676522Y-58631057D01*
X213553272Y-58928608D01*
X213490440Y-59244487D01*
X213490440Y-59566553D01*
X213553272Y-59882432D01*
X213676522Y-60179983D01*
X213855453Y-60447772D01*
X214083188Y-60675507D01*
X214350977Y-60854438D01*
X214365441Y-60860429D01*
X214365441Y-61992277D01*
X214061170Y-62296548D01*
X213447899Y-62296548D01*
X213274645Y-62313612D01*
X213108049Y-62364148D01*
X212954513Y-62446215D01*
X212819938Y-62556658D01*
X212797900Y-62583511D01*
X212775862Y-62556658D01*
X212641287Y-62446215D01*
X212487751Y-62364148D01*
X212321155Y-62313612D01*
X212147901Y-62296548D01*
X211447899Y-62296548D01*
X211274645Y-62313612D01*
X211108049Y-62364148D01*
X210954513Y-62446215D01*
X210819938Y-62556658D01*
X210709495Y-62691233D01*
X210627428Y-62844769D01*
X210618373Y-62874620D01*
X210178404Y-62874620D01*
X210141081Y-62870944D01*
X210103758Y-62874620D01*
X210103749Y-62874620D01*
X209992096Y-62885617D01*
X209848835Y-62929074D01*
X209716805Y-62999646D01*
X209699024Y-63014239D01*
X209601081Y-63094619D01*
X209577283Y-63123617D01*
X209027661Y-63673239D01*
X205895355Y-60540933D01*
X207669632Y-60540933D01*
X207765396Y-60805334D01*
X208055011Y-60946224D01*
X208366548Y-61027904D01*
X208688035Y-61047238D01*
X209007115Y-61003481D01*
X209311528Y-60898315D01*
X209485484Y-60805334D01*
X209581248Y-60540933D01*
X208625440Y-59585125D01*
X207669632Y-60540933D01*
X205895355Y-60540933D01*
X204822537Y-59468115D01*
X206983722Y-59468115D01*
X207027479Y-59787195D01*
X207132645Y-60091608D01*
X207225626Y-60265564D01*
X207490027Y-60361328D01*
X208445835Y-59405520D01*
X208805045Y-59405520D01*
X209760853Y-60361328D01*
X210025254Y-60265564D01*
X210166144Y-59975949D01*
X210247824Y-59664412D01*
X210267158Y-59342925D01*
X210223401Y-59023845D01*
X210118235Y-58719432D01*
X210025254Y-58545476D01*
X209760853Y-58449712D01*
X208805045Y-59405520D01*
X208445835Y-59405520D01*
X207490027Y-58449712D01*
X207225626Y-58545476D01*
X207084736Y-58835091D01*
X207003056Y-59146628D01*
X206983722Y-59468115D01*
X204822537Y-59468115D01*
X204385987Y-59031565D01*
X204414820Y-58886611D01*
X204414820Y-58613789D01*
X204361595Y-58346211D01*
X204330072Y-58270107D01*
X207669632Y-58270107D01*
X208625440Y-59225915D01*
X209581248Y-58270107D01*
X209485484Y-58005706D01*
X209195869Y-57864816D01*
X208884332Y-57783136D01*
X208562845Y-57763802D01*
X208243765Y-57807559D01*
X207939352Y-57912725D01*
X207765396Y-58005706D01*
X207669632Y-58270107D01*
X204330072Y-58270107D01*
X204257191Y-58094157D01*
X204105619Y-57867314D01*
X203946705Y-57708400D01*
X216477320Y-57708400D01*
X216628702Y-57723243D01*
%TA.AperFunction,Conductor*%
D24*
G36*
X216628702Y-57723243D02*
G01*
X216743259Y-57757830D01*
X216848921Y-57814011D01*
X216941660Y-57889648D01*
X217017939Y-57981854D01*
X217074859Y-58087124D01*
X217114803Y-58216164D01*
X217119601Y-58247684D01*
X217119601Y-74441519D01*
X216999397Y-74261621D01*
X216799519Y-74061743D01*
X216564487Y-73904700D01*
X216303334Y-73796527D01*
X216026095Y-73741380D01*
X215810254Y-73741380D01*
X215297185Y-73228312D01*
X215273383Y-73199309D01*
X215157658Y-73104336D01*
X215025629Y-73033764D01*
X214882368Y-72990307D01*
X214770715Y-72979310D01*
X214770704Y-72979310D01*
X214733382Y-72975634D01*
X214696060Y-72979310D01*
X210991792Y-72979310D01*
X210440475Y-72427994D01*
X210495322Y-72382982D01*
X210500702Y-72376426D01*
X210566175Y-72456205D01*
X210662866Y-72535557D01*
X210773180Y-72594522D01*
X210892878Y-72630832D01*
X211017360Y-72643092D01*
X211319110Y-72640020D01*
X211477860Y-72481270D01*
X211477860Y-71407020D01*
X211731860Y-71407020D01*
X211731860Y-72481270D01*
X211890610Y-72640020D01*
X212192360Y-72643092D01*
X212316842Y-72630832D01*
X212436540Y-72594522D01*
X212546854Y-72535557D01*
X212643545Y-72456205D01*
X212722897Y-72359514D01*
X212781862Y-72249200D01*
X212818172Y-72129502D01*
X212830432Y-72005020D01*
X212827360Y-71565770D01*
X212668610Y-71407020D01*
X211731860Y-71407020D01*
X211477860Y-71407020D01*
X211457860Y-71407020D01*
X211457860Y-71153020D01*
X211477860Y-71153020D01*
X211477860Y-71133020D01*
X211731860Y-71133020D01*
X211731860Y-71153020D01*
X212668610Y-71153020D01*
X212827360Y-70994270D01*
X212830432Y-70555020D01*
X212818172Y-70430538D01*
X212781862Y-70310840D01*
X212722897Y-70200526D01*
X212643545Y-70103835D01*
X212546854Y-70024483D01*
X212436540Y-69965518D01*
X212396555Y-69953389D01*
X212486071Y-69916310D01*
X212729292Y-69753795D01*
X212936135Y-69546952D01*
X213098650Y-69303731D01*
X213210592Y-69033478D01*
X213267660Y-68746580D01*
X213267660Y-68454060D01*
X213210592Y-68167162D01*
X213098650Y-67896909D01*
X212936135Y-67653688D01*
X212729292Y-67446845D01*
X212486071Y-67284330D01*
X212215818Y-67172388D01*
X211928920Y-67115320D01*
X211747268Y-67115320D01*
X211719374Y-67087426D01*
X211993998Y-66979594D01*
X212144876Y-66672936D01*
X212233029Y-66342735D01*
X212255069Y-66001681D01*
X212210149Y-65662881D01*
X212099996Y-65339354D01*
X211993998Y-65141046D01*
X211719374Y-65033214D01*
X211779896Y-64972692D01*
X212147901Y-64972692D01*
X212321155Y-64955628D01*
X212487751Y-64905092D01*
X212641287Y-64823025D01*
X212775862Y-64712582D01*
X212797900Y-64685729D01*
X212819938Y-64712582D01*
X212954513Y-64823025D01*
X213108049Y-64905092D01*
X213274645Y-64955628D01*
X213447899Y-64972692D01*
X214147901Y-64972692D01*
X214321155Y-64955628D01*
X214487751Y-64905092D01*
X214641287Y-64823025D01*
X214775862Y-64712582D01*
X214886305Y-64578007D01*
X214968372Y-64424471D01*
X215018908Y-64257875D01*
X215035972Y-64084621D01*
X215035972Y-63471350D01*
X215636443Y-62870879D01*
X215665441Y-62847081D01*
X215691772Y-62814997D01*
X215760414Y-62731357D01*
X215830986Y-62599327D01*
X215843929Y-62556658D01*
X215874443Y-62456066D01*
X215885440Y-62344413D01*
X215885440Y-62344404D01*
X215889116Y-62307081D01*
X215885440Y-62269758D01*
X215885440Y-60860429D01*
X215899903Y-60854438D01*
X216167692Y-60675507D01*
X216395427Y-60447772D01*
X216574358Y-60179983D01*
X216697608Y-59882432D01*
X216760440Y-59566553D01*
X216760440Y-59244487D01*
X216697608Y-58928608D01*
X216574358Y-58631057D01*
X216395427Y-58363268D01*
X216167692Y-58135533D01*
X215899903Y-57956602D01*
X215602352Y-57833352D01*
X215286473Y-57770520D01*
X214964407Y-57770520D01*
X214648528Y-57833352D01*
X214350977Y-57956602D01*
X214083188Y-58135533D01*
X213855453Y-58363268D01*
X213676522Y-58631057D01*
X213553272Y-58928608D01*
X213490440Y-59244487D01*
X213490440Y-59566553D01*
X213553272Y-59882432D01*
X213676522Y-60179983D01*
X213855453Y-60447772D01*
X214083188Y-60675507D01*
X214350977Y-60854438D01*
X214365441Y-60860429D01*
X214365441Y-61992277D01*
X214061170Y-62296548D01*
X213447899Y-62296548D01*
X213274645Y-62313612D01*
X213108049Y-62364148D01*
X212954513Y-62446215D01*
X212819938Y-62556658D01*
X212797900Y-62583511D01*
X212775862Y-62556658D01*
X212641287Y-62446215D01*
X212487751Y-62364148D01*
X212321155Y-62313612D01*
X212147901Y-62296548D01*
X211447899Y-62296548D01*
X211274645Y-62313612D01*
X211108049Y-62364148D01*
X210954513Y-62446215D01*
X210819938Y-62556658D01*
X210709495Y-62691233D01*
X210627428Y-62844769D01*
X210618373Y-62874620D01*
X210178404Y-62874620D01*
X210141081Y-62870944D01*
X210103758Y-62874620D01*
X210103749Y-62874620D01*
X209992096Y-62885617D01*
X209848835Y-62929074D01*
X209716805Y-62999646D01*
X209699024Y-63014239D01*
X209601081Y-63094619D01*
X209577283Y-63123617D01*
X209027661Y-63673239D01*
X205895355Y-60540933D01*
X207669632Y-60540933D01*
X207765396Y-60805334D01*
X208055011Y-60946224D01*
X208366548Y-61027904D01*
X208688035Y-61047238D01*
X209007115Y-61003481D01*
X209311528Y-60898315D01*
X209485484Y-60805334D01*
X209581248Y-60540933D01*
X208625440Y-59585125D01*
X207669632Y-60540933D01*
X205895355Y-60540933D01*
X204822537Y-59468115D01*
X206983722Y-59468115D01*
X207027479Y-59787195D01*
X207132645Y-60091608D01*
X207225626Y-60265564D01*
X207490027Y-60361328D01*
X208445835Y-59405520D01*
X208805045Y-59405520D01*
X209760853Y-60361328D01*
X210025254Y-60265564D01*
X210166144Y-59975949D01*
X210247824Y-59664412D01*
X210267158Y-59342925D01*
X210223401Y-59023845D01*
X210118235Y-58719432D01*
X210025254Y-58545476D01*
X209760853Y-58449712D01*
X208805045Y-59405520D01*
X208445835Y-59405520D01*
X207490027Y-58449712D01*
X207225626Y-58545476D01*
X207084736Y-58835091D01*
X207003056Y-59146628D01*
X206983722Y-59468115D01*
X204822537Y-59468115D01*
X204385987Y-59031565D01*
X204414820Y-58886611D01*
X204414820Y-58613789D01*
X204361595Y-58346211D01*
X204330072Y-58270107D01*
X207669632Y-58270107D01*
X208625440Y-59225915D01*
X209581248Y-58270107D01*
X209485484Y-58005706D01*
X209195869Y-57864816D01*
X208884332Y-57783136D01*
X208562845Y-57763802D01*
X208243765Y-57807559D01*
X207939352Y-57912725D01*
X207765396Y-58005706D01*
X207669632Y-58270107D01*
X204330072Y-58270107D01*
X204257191Y-58094157D01*
X204105619Y-57867314D01*
X203946705Y-57708400D01*
X216477320Y-57708400D01*
X216628702Y-57723243D01*
G37*
%TD.AperFunction*%
D23*
X210706408Y-66046178D02*
X210692265Y-66060320D01*
X210706408Y-66074463D01*
X210526803Y-66254068D01*
X210512660Y-66239925D01*
X210498518Y-66254068D01*
X210318913Y-66074463D01*
X210333055Y-66060320D01*
X210318913Y-66046178D01*
X210498518Y-65866573D01*
X210512660Y-65880715D01*
X210526803Y-65866573D01*
X210706408Y-66046178D01*
%TA.AperFunction,Conductor*%
D24*
G36*
X210706408Y-66046178D02*
G01*
X210692265Y-66060320D01*
X210706408Y-66074463D01*
X210526803Y-66254068D01*
X210512660Y-66239925D01*
X210498518Y-66254068D01*
X210318913Y-66074463D01*
X210333055Y-66060320D01*
X210318913Y-66046178D01*
X210498518Y-65866573D01*
X210512660Y-65880715D01*
X210526803Y-65866573D01*
X210706408Y-66046178D01*
G37*
%TD.AperFunction*%
%TD*%
M02*
