G04 #@! TF.GenerationSoftware,KiCad,Pcbnew,(5.1.10)-1*
G04 #@! TF.CreationDate,2021-08-29T23:35:30-04:00*
G04 #@! TF.ProjectId,milk,6d696c6b-2e6b-4696-9361-645f70636258,rev?*
G04 #@! TF.SameCoordinates,Original*
G04 #@! TF.FileFunction,Copper,L2,Bot*
G04 #@! TF.FilePolarity,Positive*
%FSLAX46Y46*%
G04 Gerber Fmt 4.6, Leading zero omitted, Abs format (unit mm)*
G04 Created by KiCad (PCBNEW (5.1.10)-1) date 2021-08-29 23:35:30*
%MOMM*%
%LPD*%
G01*
G04 APERTURE LIST*
G04 #@! TA.AperFunction,ComponentPad*
%ADD10O,1.600000X1.600000*%
G04 #@! TD*
G04 #@! TA.AperFunction,ComponentPad*
%ADD11R,1.600000X1.600000*%
G04 #@! TD*
G04 #@! TA.AperFunction,ComponentPad*
%ADD12C,2.200000*%
G04 #@! TD*
G04 #@! TA.AperFunction,ComponentPad*
%ADD13C,2.000000*%
G04 #@! TD*
G04 #@! TA.AperFunction,ComponentPad*
%ADD14O,1.000000X2.000000*%
G04 #@! TD*
G04 #@! TA.AperFunction,ComponentPad*
%ADD15R,1.500000X1.500000*%
G04 #@! TD*
G04 #@! TA.AperFunction,ComponentPad*
%ADD16C,1.500000*%
G04 #@! TD*
G04 #@! TA.AperFunction,ViaPad*
%ADD17C,0.800000*%
G04 #@! TD*
G04 #@! TA.AperFunction,Conductor*
%ADD18C,0.250000*%
G04 #@! TD*
G04 #@! TA.AperFunction,Conductor*
%ADD19C,0.254000*%
G04 #@! TD*
G04 #@! TA.AperFunction,Conductor*
%ADD20C,0.100000*%
G04 #@! TD*
G04 APERTURE END LIST*
D10*
X172948600Y-74218800D03*
X180568600Y-81838800D03*
X175488600Y-74218800D03*
X178028600Y-81838800D03*
X178028600Y-74218800D03*
X175488600Y-81838800D03*
X180568600Y-74218800D03*
D11*
X172948600Y-81838800D03*
D12*
X177215800Y-67945000D03*
X183565800Y-65405000D03*
D13*
X189355800Y-62560200D03*
X182855800Y-62560200D03*
D12*
X177215800Y-86995000D03*
X183565800Y-84455000D03*
D14*
X185673900Y-93603100D03*
X176453900Y-93603100D03*
X176453900Y-98103100D03*
X185673900Y-98103100D03*
D15*
X177800000Y-63500000D03*
D16*
X175260000Y-63500000D03*
X172720000Y-63500000D03*
D17*
X173786800Y-77698600D03*
X183997600Y-86766400D03*
X187789820Y-90083640D03*
X187655200Y-71704200D03*
X178917600Y-85928200D03*
X185826400Y-65963800D03*
X184505600Y-67945000D03*
X172669200Y-68427600D03*
X183997600Y-81051400D03*
X176479200Y-66268600D03*
X188798200Y-87553800D03*
X183921400Y-90424000D03*
X189255400Y-93383100D03*
X189966600Y-86487000D03*
X182194200Y-94335600D03*
X185953400Y-83540600D03*
X185432700Y-78818740D03*
X186905900Y-78831440D03*
X188003180Y-76106020D03*
D18*
X172720000Y-63500000D02*
X174238591Y-65018591D01*
X174238591Y-72928809D02*
X172948600Y-74218800D01*
X174238591Y-65018591D02*
X174238591Y-72928809D01*
X189440390Y-89540510D02*
X187152820Y-91828080D01*
X189440390Y-88088575D02*
X189440390Y-89540510D01*
X189332975Y-88088575D02*
X188798200Y-87553800D01*
X189440390Y-88088575D02*
X189332975Y-88088575D01*
X187152820Y-91828080D02*
X184233280Y-91828080D01*
X183921400Y-91516200D02*
X183921400Y-90424000D01*
X184233280Y-91828080D02*
X183921400Y-91516200D01*
X184251710Y-92278090D02*
X187350510Y-92278090D01*
X182194200Y-94335600D02*
X184251710Y-92278090D01*
X189890400Y-89738200D02*
X189890400Y-87007700D01*
X188620400Y-93383100D02*
X187432950Y-92195650D01*
X189255400Y-93383100D02*
X188620400Y-93383100D01*
X187432950Y-92195650D02*
X189890400Y-89738200D01*
X187350510Y-92278090D02*
X187432950Y-92195650D01*
X189966600Y-86931500D02*
X189890400Y-87007700D01*
X189966600Y-86487000D02*
X189966600Y-86931500D01*
X185953400Y-83070700D02*
X185953400Y-83540600D01*
X188735801Y-80288299D02*
X185953400Y-83070700D01*
X188735801Y-66815801D02*
X188735801Y-80288299D01*
X184480200Y-62560200D02*
X188735801Y-66815801D01*
X182855800Y-62560200D02*
X184480200Y-62560200D01*
X174073601Y-82963801D02*
X172948600Y-81838800D01*
X177026203Y-82963801D02*
X174073601Y-82963801D01*
X179942403Y-85880001D02*
X177026203Y-82963801D01*
X184249801Y-85880001D02*
X179942403Y-85880001D01*
X185953400Y-84176402D02*
X184249801Y-85880001D01*
X185953400Y-83540600D02*
X185953400Y-84176402D01*
X174688601Y-64071399D02*
X175260000Y-63500000D01*
X174688601Y-73418801D02*
X174688601Y-64071399D01*
X175488600Y-74218800D02*
X174688601Y-73418801D01*
X178508660Y-78818740D02*
X175488600Y-81838800D01*
X185432700Y-78818740D02*
X178508660Y-78818740D01*
X180323659Y-79543741D02*
X178028600Y-81838800D01*
X186193599Y-79543741D02*
X180323659Y-79543741D01*
X186905900Y-78831440D02*
X186193599Y-79543741D01*
X178700799Y-72350999D02*
X180568600Y-74218800D01*
X178700799Y-69368999D02*
X178700799Y-72350999D01*
X182664798Y-65405000D02*
X178700799Y-69368999D01*
X183565800Y-65405000D02*
X182664798Y-65405000D01*
X188003180Y-80017620D02*
X187553600Y-80467200D01*
X188003180Y-76106020D02*
X188003180Y-80017620D01*
X187553600Y-80467200D02*
X183565800Y-84455000D01*
X188010800Y-80010000D02*
X187553600Y-80467200D01*
X187240961Y-75343801D02*
X188003180Y-76106020D01*
X179153601Y-75343801D02*
X187240961Y-75343801D01*
X178028600Y-74218800D02*
X179153601Y-75343801D01*
D19*
X189476102Y-61507843D02*
X189590659Y-61542430D01*
X189696321Y-61598611D01*
X189789060Y-61674248D01*
X189865339Y-61766454D01*
X189922259Y-61871724D01*
X189962203Y-62000764D01*
X189967001Y-62032284D01*
X189967000Y-85452000D01*
X189864661Y-85452000D01*
X189664702Y-85491774D01*
X189476344Y-85569795D01*
X189306826Y-85683063D01*
X189162663Y-85827226D01*
X189049395Y-85996744D01*
X188971374Y-86185102D01*
X188931600Y-86385061D01*
X188931600Y-86525058D01*
X188900139Y-86518800D01*
X188696261Y-86518800D01*
X188496302Y-86558574D01*
X188307944Y-86636595D01*
X188138426Y-86749863D01*
X187994263Y-86894026D01*
X187880995Y-87063544D01*
X187802974Y-87251902D01*
X187763200Y-87451861D01*
X187763200Y-87655739D01*
X187802974Y-87855698D01*
X187880995Y-88044056D01*
X187994263Y-88213574D01*
X188138426Y-88357737D01*
X188307944Y-88471005D01*
X188496302Y-88549026D01*
X188680390Y-88585643D01*
X188680391Y-89225707D01*
X186838019Y-91068080D01*
X184735823Y-91068080D01*
X184838605Y-90914256D01*
X184916626Y-90725898D01*
X184956400Y-90525939D01*
X184956400Y-90485707D01*
X185159168Y-90688475D01*
X185402389Y-90850990D01*
X185672642Y-90962932D01*
X185959540Y-91020000D01*
X186252060Y-91020000D01*
X186538958Y-90962932D01*
X186809211Y-90850990D01*
X187052432Y-90688475D01*
X187259275Y-90481632D01*
X187421790Y-90238411D01*
X187533732Y-89968158D01*
X187590800Y-89681260D01*
X187590800Y-89388740D01*
X187533732Y-89101842D01*
X187421790Y-88831589D01*
X187259275Y-88588368D01*
X187052432Y-88381525D01*
X186809211Y-88219010D01*
X186538958Y-88107068D01*
X186252060Y-88050000D01*
X185959540Y-88050000D01*
X185672642Y-88107068D01*
X185402389Y-88219010D01*
X185159168Y-88381525D01*
X184952325Y-88588368D01*
X184789810Y-88831589D01*
X184677868Y-89101842D01*
X184620800Y-89388740D01*
X184620800Y-89659689D01*
X184581174Y-89620063D01*
X184411656Y-89506795D01*
X184223298Y-89428774D01*
X184023339Y-89389000D01*
X183819461Y-89389000D01*
X183660800Y-89420559D01*
X183660800Y-89275475D01*
X183559539Y-88766399D01*
X183360907Y-88286859D01*
X183072538Y-87855285D01*
X182705515Y-87488262D01*
X182273941Y-87199893D01*
X181794401Y-87001261D01*
X181285325Y-86900000D01*
X180766275Y-86900000D01*
X180257199Y-87001261D01*
X179777659Y-87199893D01*
X179346085Y-87488262D01*
X178979062Y-87855285D01*
X178690693Y-88286859D01*
X178492061Y-88766399D01*
X178390800Y-89275475D01*
X178390800Y-89794525D01*
X178492061Y-90303601D01*
X178690693Y-90783141D01*
X178979062Y-91214715D01*
X179346085Y-91581738D01*
X179777659Y-91870107D01*
X180257199Y-92068739D01*
X180766275Y-92170000D01*
X181285325Y-92170000D01*
X181794401Y-92068739D01*
X182273941Y-91870107D01*
X182705515Y-91581738D01*
X183072538Y-91214715D01*
X183142980Y-91109291D01*
X183161400Y-91127711D01*
X183161400Y-91478877D01*
X183157724Y-91516200D01*
X183161400Y-91553522D01*
X183161400Y-91553532D01*
X183172397Y-91665185D01*
X183204609Y-91771374D01*
X183215854Y-91808446D01*
X183286426Y-91940476D01*
X183316454Y-91977065D01*
X183381399Y-92056201D01*
X183390955Y-92064043D01*
X182154399Y-93300600D01*
X182092261Y-93300600D01*
X181892302Y-93340374D01*
X181703944Y-93418395D01*
X181534426Y-93531663D01*
X181390263Y-93675826D01*
X181276995Y-93845344D01*
X181198974Y-94033702D01*
X181159200Y-94233661D01*
X181159200Y-94437539D01*
X181198974Y-94637498D01*
X181276995Y-94825856D01*
X181390263Y-94995374D01*
X181534426Y-95139537D01*
X181703944Y-95252805D01*
X181892302Y-95330826D01*
X182092261Y-95370600D01*
X182296139Y-95370600D01*
X182496098Y-95330826D01*
X182684456Y-95252805D01*
X182853974Y-95139537D01*
X182998137Y-94995374D01*
X183111405Y-94825856D01*
X183189426Y-94637498D01*
X183229200Y-94437539D01*
X183229200Y-94375401D01*
X183330669Y-94273932D01*
X183368674Y-94464998D01*
X183446695Y-94653356D01*
X183559963Y-94822874D01*
X183704126Y-94967037D01*
X183873644Y-95080305D01*
X184062002Y-95158326D01*
X184261961Y-95198100D01*
X184465839Y-95198100D01*
X184665798Y-95158326D01*
X184854156Y-95080305D01*
X185023674Y-94967037D01*
X185167837Y-94822874D01*
X185281105Y-94653356D01*
X185359126Y-94464998D01*
X185398900Y-94265039D01*
X185398900Y-94061161D01*
X185359126Y-93861202D01*
X185281105Y-93672844D01*
X185167837Y-93503326D01*
X185023674Y-93359163D01*
X184854156Y-93245895D01*
X184665798Y-93167874D01*
X184474733Y-93129869D01*
X184566512Y-93038090D01*
X187200589Y-93038090D01*
X188056601Y-93894103D01*
X188080399Y-93923101D01*
X188109397Y-93946899D01*
X188196123Y-94018074D01*
X188276733Y-94061161D01*
X188328153Y-94088646D01*
X188471414Y-94132103D01*
X188548261Y-94139672D01*
X188595626Y-94187037D01*
X188765144Y-94300305D01*
X188953502Y-94378326D01*
X189153461Y-94418100D01*
X189357339Y-94418100D01*
X189557298Y-94378326D01*
X189745656Y-94300305D01*
X189915174Y-94187037D01*
X189967000Y-94135211D01*
X189967000Y-98900721D01*
X189952278Y-99050869D01*
X189918047Y-99164246D01*
X189862446Y-99268817D01*
X189787594Y-99360595D01*
X189696335Y-99436091D01*
X189592160Y-99492419D01*
X189479024Y-99527440D01*
X189330979Y-99543000D01*
X172752279Y-99543000D01*
X172602131Y-99528278D01*
X172488754Y-99494047D01*
X172384183Y-99438446D01*
X172292405Y-99363594D01*
X172216909Y-99272335D01*
X172160581Y-99168160D01*
X172125560Y-99055024D01*
X172110000Y-98906979D01*
X172110000Y-94061161D01*
X176728900Y-94061161D01*
X176728900Y-94265039D01*
X176768674Y-94464998D01*
X176846695Y-94653356D01*
X176959963Y-94822874D01*
X177104126Y-94967037D01*
X177273644Y-95080305D01*
X177462002Y-95158326D01*
X177661961Y-95198100D01*
X177865839Y-95198100D01*
X178065798Y-95158326D01*
X178254156Y-95080305D01*
X178423674Y-94967037D01*
X178567837Y-94822874D01*
X178681105Y-94653356D01*
X178759126Y-94464998D01*
X178798900Y-94265039D01*
X178798900Y-94061161D01*
X178759126Y-93861202D01*
X178681105Y-93672844D01*
X178567837Y-93503326D01*
X178423674Y-93359163D01*
X178254156Y-93245895D01*
X178065798Y-93167874D01*
X177865839Y-93128100D01*
X177661961Y-93128100D01*
X177462002Y-93167874D01*
X177273644Y-93245895D01*
X177104126Y-93359163D01*
X176959963Y-93503326D01*
X176846695Y-93672844D01*
X176768674Y-93861202D01*
X176728900Y-94061161D01*
X172110000Y-94061161D01*
X172110000Y-89388740D01*
X174460800Y-89388740D01*
X174460800Y-89681260D01*
X174517868Y-89968158D01*
X174629810Y-90238411D01*
X174792325Y-90481632D01*
X174999168Y-90688475D01*
X175242389Y-90850990D01*
X175512642Y-90962932D01*
X175799540Y-91020000D01*
X176092060Y-91020000D01*
X176378958Y-90962932D01*
X176649211Y-90850990D01*
X176892432Y-90688475D01*
X177099275Y-90481632D01*
X177261790Y-90238411D01*
X177373732Y-89968158D01*
X177430800Y-89681260D01*
X177430800Y-89388740D01*
X177373732Y-89101842D01*
X177261790Y-88831589D01*
X177099275Y-88588368D01*
X176892432Y-88381525D01*
X176649211Y-88219010D01*
X176378958Y-88107068D01*
X176092060Y-88050000D01*
X175799540Y-88050000D01*
X175512642Y-88107068D01*
X175242389Y-88219010D01*
X174999168Y-88381525D01*
X174792325Y-88588368D01*
X174629810Y-88831589D01*
X174517868Y-89101842D01*
X174460800Y-89388740D01*
X172110000Y-89388740D01*
X172110000Y-83273070D01*
X172148600Y-83276872D01*
X173311870Y-83276872D01*
X173509801Y-83474803D01*
X173533600Y-83503802D01*
X173649325Y-83598775D01*
X173781354Y-83669347D01*
X173924615Y-83712804D01*
X174036268Y-83723801D01*
X174036276Y-83723801D01*
X174073601Y-83727477D01*
X174110926Y-83723801D01*
X176711402Y-83723801D01*
X179378604Y-86391004D01*
X179402402Y-86420002D01*
X179431400Y-86443800D01*
X179518127Y-86514975D01*
X179650156Y-86585547D01*
X179793417Y-86629004D01*
X179942403Y-86643678D01*
X179979736Y-86640001D01*
X184212479Y-86640001D01*
X184249801Y-86643677D01*
X184287123Y-86640001D01*
X184287134Y-86640001D01*
X184398787Y-86629004D01*
X184542048Y-86585547D01*
X184674077Y-86514975D01*
X184789802Y-86420002D01*
X184813605Y-86390998D01*
X186464403Y-84740201D01*
X186493401Y-84716403D01*
X186588374Y-84600678D01*
X186658946Y-84468649D01*
X186702403Y-84325388D01*
X186710059Y-84247652D01*
X186757337Y-84200374D01*
X186870605Y-84030856D01*
X186948626Y-83842498D01*
X186988400Y-83642539D01*
X186988400Y-83438661D01*
X186948626Y-83238702D01*
X186922726Y-83176175D01*
X189246804Y-80852098D01*
X189275802Y-80828300D01*
X189370775Y-80712575D01*
X189441347Y-80580546D01*
X189484804Y-80437285D01*
X189495801Y-80325632D01*
X189495801Y-80325623D01*
X189499477Y-80288300D01*
X189495801Y-80250977D01*
X189495801Y-66853126D01*
X189499477Y-66815801D01*
X189495801Y-66778476D01*
X189495801Y-66778468D01*
X189484804Y-66666815D01*
X189441347Y-66523554D01*
X189370775Y-66391525D01*
X189275802Y-66275800D01*
X189246805Y-66252003D01*
X185044004Y-62049203D01*
X185020201Y-62020199D01*
X184904476Y-61925226D01*
X184772447Y-61854654D01*
X184629186Y-61811197D01*
X184517533Y-61800200D01*
X184517522Y-61800200D01*
X184480200Y-61796524D01*
X184442878Y-61800200D01*
X184310709Y-61800200D01*
X184304718Y-61785737D01*
X184125787Y-61517948D01*
X184100839Y-61493000D01*
X189324720Y-61493000D01*
X189476102Y-61507843D01*
G04 #@! TA.AperFunction,Conductor*
D20*
G36*
X189476102Y-61507843D02*
G01*
X189590659Y-61542430D01*
X189696321Y-61598611D01*
X189789060Y-61674248D01*
X189865339Y-61766454D01*
X189922259Y-61871724D01*
X189962203Y-62000764D01*
X189967001Y-62032284D01*
X189967000Y-85452000D01*
X189864661Y-85452000D01*
X189664702Y-85491774D01*
X189476344Y-85569795D01*
X189306826Y-85683063D01*
X189162663Y-85827226D01*
X189049395Y-85996744D01*
X188971374Y-86185102D01*
X188931600Y-86385061D01*
X188931600Y-86525058D01*
X188900139Y-86518800D01*
X188696261Y-86518800D01*
X188496302Y-86558574D01*
X188307944Y-86636595D01*
X188138426Y-86749863D01*
X187994263Y-86894026D01*
X187880995Y-87063544D01*
X187802974Y-87251902D01*
X187763200Y-87451861D01*
X187763200Y-87655739D01*
X187802974Y-87855698D01*
X187880995Y-88044056D01*
X187994263Y-88213574D01*
X188138426Y-88357737D01*
X188307944Y-88471005D01*
X188496302Y-88549026D01*
X188680390Y-88585643D01*
X188680391Y-89225707D01*
X186838019Y-91068080D01*
X184735823Y-91068080D01*
X184838605Y-90914256D01*
X184916626Y-90725898D01*
X184956400Y-90525939D01*
X184956400Y-90485707D01*
X185159168Y-90688475D01*
X185402389Y-90850990D01*
X185672642Y-90962932D01*
X185959540Y-91020000D01*
X186252060Y-91020000D01*
X186538958Y-90962932D01*
X186809211Y-90850990D01*
X187052432Y-90688475D01*
X187259275Y-90481632D01*
X187421790Y-90238411D01*
X187533732Y-89968158D01*
X187590800Y-89681260D01*
X187590800Y-89388740D01*
X187533732Y-89101842D01*
X187421790Y-88831589D01*
X187259275Y-88588368D01*
X187052432Y-88381525D01*
X186809211Y-88219010D01*
X186538958Y-88107068D01*
X186252060Y-88050000D01*
X185959540Y-88050000D01*
X185672642Y-88107068D01*
X185402389Y-88219010D01*
X185159168Y-88381525D01*
X184952325Y-88588368D01*
X184789810Y-88831589D01*
X184677868Y-89101842D01*
X184620800Y-89388740D01*
X184620800Y-89659689D01*
X184581174Y-89620063D01*
X184411656Y-89506795D01*
X184223298Y-89428774D01*
X184023339Y-89389000D01*
X183819461Y-89389000D01*
X183660800Y-89420559D01*
X183660800Y-89275475D01*
X183559539Y-88766399D01*
X183360907Y-88286859D01*
X183072538Y-87855285D01*
X182705515Y-87488262D01*
X182273941Y-87199893D01*
X181794401Y-87001261D01*
X181285325Y-86900000D01*
X180766275Y-86900000D01*
X180257199Y-87001261D01*
X179777659Y-87199893D01*
X179346085Y-87488262D01*
X178979062Y-87855285D01*
X178690693Y-88286859D01*
X178492061Y-88766399D01*
X178390800Y-89275475D01*
X178390800Y-89794525D01*
X178492061Y-90303601D01*
X178690693Y-90783141D01*
X178979062Y-91214715D01*
X179346085Y-91581738D01*
X179777659Y-91870107D01*
X180257199Y-92068739D01*
X180766275Y-92170000D01*
X181285325Y-92170000D01*
X181794401Y-92068739D01*
X182273941Y-91870107D01*
X182705515Y-91581738D01*
X183072538Y-91214715D01*
X183142980Y-91109291D01*
X183161400Y-91127711D01*
X183161400Y-91478877D01*
X183157724Y-91516200D01*
X183161400Y-91553522D01*
X183161400Y-91553532D01*
X183172397Y-91665185D01*
X183204609Y-91771374D01*
X183215854Y-91808446D01*
X183286426Y-91940476D01*
X183316454Y-91977065D01*
X183381399Y-92056201D01*
X183390955Y-92064043D01*
X182154399Y-93300600D01*
X182092261Y-93300600D01*
X181892302Y-93340374D01*
X181703944Y-93418395D01*
X181534426Y-93531663D01*
X181390263Y-93675826D01*
X181276995Y-93845344D01*
X181198974Y-94033702D01*
X181159200Y-94233661D01*
X181159200Y-94437539D01*
X181198974Y-94637498D01*
X181276995Y-94825856D01*
X181390263Y-94995374D01*
X181534426Y-95139537D01*
X181703944Y-95252805D01*
X181892302Y-95330826D01*
X182092261Y-95370600D01*
X182296139Y-95370600D01*
X182496098Y-95330826D01*
X182684456Y-95252805D01*
X182853974Y-95139537D01*
X182998137Y-94995374D01*
X183111405Y-94825856D01*
X183189426Y-94637498D01*
X183229200Y-94437539D01*
X183229200Y-94375401D01*
X183330669Y-94273932D01*
X183368674Y-94464998D01*
X183446695Y-94653356D01*
X183559963Y-94822874D01*
X183704126Y-94967037D01*
X183873644Y-95080305D01*
X184062002Y-95158326D01*
X184261961Y-95198100D01*
X184465839Y-95198100D01*
X184665798Y-95158326D01*
X184854156Y-95080305D01*
X185023674Y-94967037D01*
X185167837Y-94822874D01*
X185281105Y-94653356D01*
X185359126Y-94464998D01*
X185398900Y-94265039D01*
X185398900Y-94061161D01*
X185359126Y-93861202D01*
X185281105Y-93672844D01*
X185167837Y-93503326D01*
X185023674Y-93359163D01*
X184854156Y-93245895D01*
X184665798Y-93167874D01*
X184474733Y-93129869D01*
X184566512Y-93038090D01*
X187200589Y-93038090D01*
X188056601Y-93894103D01*
X188080399Y-93923101D01*
X188109397Y-93946899D01*
X188196123Y-94018074D01*
X188276733Y-94061161D01*
X188328153Y-94088646D01*
X188471414Y-94132103D01*
X188548261Y-94139672D01*
X188595626Y-94187037D01*
X188765144Y-94300305D01*
X188953502Y-94378326D01*
X189153461Y-94418100D01*
X189357339Y-94418100D01*
X189557298Y-94378326D01*
X189745656Y-94300305D01*
X189915174Y-94187037D01*
X189967000Y-94135211D01*
X189967000Y-98900721D01*
X189952278Y-99050869D01*
X189918047Y-99164246D01*
X189862446Y-99268817D01*
X189787594Y-99360595D01*
X189696335Y-99436091D01*
X189592160Y-99492419D01*
X189479024Y-99527440D01*
X189330979Y-99543000D01*
X172752279Y-99543000D01*
X172602131Y-99528278D01*
X172488754Y-99494047D01*
X172384183Y-99438446D01*
X172292405Y-99363594D01*
X172216909Y-99272335D01*
X172160581Y-99168160D01*
X172125560Y-99055024D01*
X172110000Y-98906979D01*
X172110000Y-94061161D01*
X176728900Y-94061161D01*
X176728900Y-94265039D01*
X176768674Y-94464998D01*
X176846695Y-94653356D01*
X176959963Y-94822874D01*
X177104126Y-94967037D01*
X177273644Y-95080305D01*
X177462002Y-95158326D01*
X177661961Y-95198100D01*
X177865839Y-95198100D01*
X178065798Y-95158326D01*
X178254156Y-95080305D01*
X178423674Y-94967037D01*
X178567837Y-94822874D01*
X178681105Y-94653356D01*
X178759126Y-94464998D01*
X178798900Y-94265039D01*
X178798900Y-94061161D01*
X178759126Y-93861202D01*
X178681105Y-93672844D01*
X178567837Y-93503326D01*
X178423674Y-93359163D01*
X178254156Y-93245895D01*
X178065798Y-93167874D01*
X177865839Y-93128100D01*
X177661961Y-93128100D01*
X177462002Y-93167874D01*
X177273644Y-93245895D01*
X177104126Y-93359163D01*
X176959963Y-93503326D01*
X176846695Y-93672844D01*
X176768674Y-93861202D01*
X176728900Y-94061161D01*
X172110000Y-94061161D01*
X172110000Y-89388740D01*
X174460800Y-89388740D01*
X174460800Y-89681260D01*
X174517868Y-89968158D01*
X174629810Y-90238411D01*
X174792325Y-90481632D01*
X174999168Y-90688475D01*
X175242389Y-90850990D01*
X175512642Y-90962932D01*
X175799540Y-91020000D01*
X176092060Y-91020000D01*
X176378958Y-90962932D01*
X176649211Y-90850990D01*
X176892432Y-90688475D01*
X177099275Y-90481632D01*
X177261790Y-90238411D01*
X177373732Y-89968158D01*
X177430800Y-89681260D01*
X177430800Y-89388740D01*
X177373732Y-89101842D01*
X177261790Y-88831589D01*
X177099275Y-88588368D01*
X176892432Y-88381525D01*
X176649211Y-88219010D01*
X176378958Y-88107068D01*
X176092060Y-88050000D01*
X175799540Y-88050000D01*
X175512642Y-88107068D01*
X175242389Y-88219010D01*
X174999168Y-88381525D01*
X174792325Y-88588368D01*
X174629810Y-88831589D01*
X174517868Y-89101842D01*
X174460800Y-89388740D01*
X172110000Y-89388740D01*
X172110000Y-83273070D01*
X172148600Y-83276872D01*
X173311870Y-83276872D01*
X173509801Y-83474803D01*
X173533600Y-83503802D01*
X173649325Y-83598775D01*
X173781354Y-83669347D01*
X173924615Y-83712804D01*
X174036268Y-83723801D01*
X174036276Y-83723801D01*
X174073601Y-83727477D01*
X174110926Y-83723801D01*
X176711402Y-83723801D01*
X179378604Y-86391004D01*
X179402402Y-86420002D01*
X179431400Y-86443800D01*
X179518127Y-86514975D01*
X179650156Y-86585547D01*
X179793417Y-86629004D01*
X179942403Y-86643678D01*
X179979736Y-86640001D01*
X184212479Y-86640001D01*
X184249801Y-86643677D01*
X184287123Y-86640001D01*
X184287134Y-86640001D01*
X184398787Y-86629004D01*
X184542048Y-86585547D01*
X184674077Y-86514975D01*
X184789802Y-86420002D01*
X184813605Y-86390998D01*
X186464403Y-84740201D01*
X186493401Y-84716403D01*
X186588374Y-84600678D01*
X186658946Y-84468649D01*
X186702403Y-84325388D01*
X186710059Y-84247652D01*
X186757337Y-84200374D01*
X186870605Y-84030856D01*
X186948626Y-83842498D01*
X186988400Y-83642539D01*
X186988400Y-83438661D01*
X186948626Y-83238702D01*
X186922726Y-83176175D01*
X189246804Y-80852098D01*
X189275802Y-80828300D01*
X189370775Y-80712575D01*
X189441347Y-80580546D01*
X189484804Y-80437285D01*
X189495801Y-80325632D01*
X189495801Y-80325623D01*
X189499477Y-80288300D01*
X189495801Y-80250977D01*
X189495801Y-66853126D01*
X189499477Y-66815801D01*
X189495801Y-66778476D01*
X189495801Y-66778468D01*
X189484804Y-66666815D01*
X189441347Y-66523554D01*
X189370775Y-66391525D01*
X189275802Y-66275800D01*
X189246805Y-66252003D01*
X185044004Y-62049203D01*
X185020201Y-62020199D01*
X184904476Y-61925226D01*
X184772447Y-61854654D01*
X184629186Y-61811197D01*
X184517533Y-61800200D01*
X184517522Y-61800200D01*
X184480200Y-61796524D01*
X184442878Y-61800200D01*
X184310709Y-61800200D01*
X184304718Y-61785737D01*
X184125787Y-61517948D01*
X184100839Y-61493000D01*
X189324720Y-61493000D01*
X189476102Y-61507843D01*
G37*
G04 #@! TD.AperFunction*
D19*
X187042603Y-79903396D02*
X187042597Y-79903401D01*
X184133712Y-82812286D01*
X184071881Y-82786675D01*
X183736683Y-82720000D01*
X183394917Y-82720000D01*
X183059719Y-82786675D01*
X182743969Y-82917463D01*
X182459802Y-83107337D01*
X182218137Y-83349002D01*
X182028263Y-83633169D01*
X181897475Y-83948919D01*
X181830800Y-84284117D01*
X181830800Y-84625883D01*
X181897475Y-84961081D01*
X181963302Y-85120001D01*
X180257205Y-85120001D01*
X178371007Y-83233804D01*
X178447174Y-83218653D01*
X178708327Y-83110480D01*
X178943359Y-82953437D01*
X179143237Y-82753559D01*
X179300280Y-82518527D01*
X179408453Y-82257374D01*
X179463600Y-81980135D01*
X179463600Y-81697465D01*
X179427288Y-81514914D01*
X180638461Y-80303741D01*
X186156277Y-80303741D01*
X186193599Y-80307417D01*
X186230921Y-80303741D01*
X186230932Y-80303741D01*
X186342585Y-80292744D01*
X186485846Y-80249287D01*
X186617875Y-80178715D01*
X186733600Y-80083742D01*
X186757402Y-80054739D01*
X186945701Y-79866440D01*
X187007839Y-79866440D01*
X187097367Y-79848632D01*
X187042603Y-79903396D01*
G04 #@! TA.AperFunction,Conductor*
D20*
G36*
X187042603Y-79903396D02*
G01*
X187042597Y-79903401D01*
X184133712Y-82812286D01*
X184071881Y-82786675D01*
X183736683Y-82720000D01*
X183394917Y-82720000D01*
X183059719Y-82786675D01*
X182743969Y-82917463D01*
X182459802Y-83107337D01*
X182218137Y-83349002D01*
X182028263Y-83633169D01*
X181897475Y-83948919D01*
X181830800Y-84284117D01*
X181830800Y-84625883D01*
X181897475Y-84961081D01*
X181963302Y-85120001D01*
X180257205Y-85120001D01*
X178371007Y-83233804D01*
X178447174Y-83218653D01*
X178708327Y-83110480D01*
X178943359Y-82953437D01*
X179143237Y-82753559D01*
X179300280Y-82518527D01*
X179408453Y-82257374D01*
X179463600Y-81980135D01*
X179463600Y-81697465D01*
X179427288Y-81514914D01*
X180638461Y-80303741D01*
X186156277Y-80303741D01*
X186193599Y-80307417D01*
X186230921Y-80303741D01*
X186230932Y-80303741D01*
X186342585Y-80292744D01*
X186485846Y-80249287D01*
X186617875Y-80178715D01*
X186733600Y-80083742D01*
X186757402Y-80054739D01*
X186945701Y-79866440D01*
X187007839Y-79866440D01*
X187097367Y-79848632D01*
X187042603Y-79903396D01*
G37*
G04 #@! TD.AperFunction*
D19*
X176913963Y-75133559D02*
X177113841Y-75333437D01*
X177348873Y-75490480D01*
X177610026Y-75598653D01*
X177887265Y-75653800D01*
X178169935Y-75653800D01*
X178352486Y-75617488D01*
X178589801Y-75854803D01*
X178613600Y-75883802D01*
X178729325Y-75978775D01*
X178861354Y-76049347D01*
X179004615Y-76092804D01*
X179116268Y-76103801D01*
X179116276Y-76103801D01*
X179153601Y-76107477D01*
X179190926Y-76103801D01*
X186926159Y-76103801D01*
X186968180Y-76145822D01*
X186968180Y-76207959D01*
X187007954Y-76407918D01*
X187085975Y-76596276D01*
X187199243Y-76765794D01*
X187243180Y-76809731D01*
X187243180Y-77850870D01*
X187207798Y-77836214D01*
X187007839Y-77796440D01*
X186803961Y-77796440D01*
X186604002Y-77836214D01*
X186415644Y-77914235D01*
X186246126Y-78027503D01*
X186175650Y-78097979D01*
X186092474Y-78014803D01*
X185922956Y-77901535D01*
X185734598Y-77823514D01*
X185534639Y-77783740D01*
X185330761Y-77783740D01*
X185130802Y-77823514D01*
X184942444Y-77901535D01*
X184772926Y-78014803D01*
X184728989Y-78058740D01*
X178545983Y-78058740D01*
X178508660Y-78055064D01*
X178471337Y-78058740D01*
X178471327Y-78058740D01*
X178359674Y-78069737D01*
X178216413Y-78113194D01*
X178084384Y-78183766D01*
X177968659Y-78278739D01*
X177944861Y-78307737D01*
X175812486Y-80440112D01*
X175629935Y-80403800D01*
X175347265Y-80403800D01*
X175070026Y-80458947D01*
X174808873Y-80567120D01*
X174573841Y-80724163D01*
X174375243Y-80922761D01*
X174374412Y-80914318D01*
X174338102Y-80794620D01*
X174279137Y-80684306D01*
X174199785Y-80587615D01*
X174103094Y-80508263D01*
X173992780Y-80449298D01*
X173873082Y-80412988D01*
X173748600Y-80400728D01*
X172148600Y-80400728D01*
X172110000Y-80404530D01*
X172110000Y-75384325D01*
X172268873Y-75490480D01*
X172530026Y-75598653D01*
X172807265Y-75653800D01*
X173089935Y-75653800D01*
X173367174Y-75598653D01*
X173628327Y-75490480D01*
X173863359Y-75333437D01*
X174063237Y-75133559D01*
X174218600Y-74901041D01*
X174373963Y-75133559D01*
X174573841Y-75333437D01*
X174808873Y-75490480D01*
X175070026Y-75598653D01*
X175347265Y-75653800D01*
X175629935Y-75653800D01*
X175907174Y-75598653D01*
X176168327Y-75490480D01*
X176403359Y-75333437D01*
X176603237Y-75133559D01*
X176758600Y-74901041D01*
X176913963Y-75133559D01*
G04 #@! TA.AperFunction,Conductor*
D20*
G36*
X176913963Y-75133559D02*
G01*
X177113841Y-75333437D01*
X177348873Y-75490480D01*
X177610026Y-75598653D01*
X177887265Y-75653800D01*
X178169935Y-75653800D01*
X178352486Y-75617488D01*
X178589801Y-75854803D01*
X178613600Y-75883802D01*
X178729325Y-75978775D01*
X178861354Y-76049347D01*
X179004615Y-76092804D01*
X179116268Y-76103801D01*
X179116276Y-76103801D01*
X179153601Y-76107477D01*
X179190926Y-76103801D01*
X186926159Y-76103801D01*
X186968180Y-76145822D01*
X186968180Y-76207959D01*
X187007954Y-76407918D01*
X187085975Y-76596276D01*
X187199243Y-76765794D01*
X187243180Y-76809731D01*
X187243180Y-77850870D01*
X187207798Y-77836214D01*
X187007839Y-77796440D01*
X186803961Y-77796440D01*
X186604002Y-77836214D01*
X186415644Y-77914235D01*
X186246126Y-78027503D01*
X186175650Y-78097979D01*
X186092474Y-78014803D01*
X185922956Y-77901535D01*
X185734598Y-77823514D01*
X185534639Y-77783740D01*
X185330761Y-77783740D01*
X185130802Y-77823514D01*
X184942444Y-77901535D01*
X184772926Y-78014803D01*
X184728989Y-78058740D01*
X178545983Y-78058740D01*
X178508660Y-78055064D01*
X178471337Y-78058740D01*
X178471327Y-78058740D01*
X178359674Y-78069737D01*
X178216413Y-78113194D01*
X178084384Y-78183766D01*
X177968659Y-78278739D01*
X177944861Y-78307737D01*
X175812486Y-80440112D01*
X175629935Y-80403800D01*
X175347265Y-80403800D01*
X175070026Y-80458947D01*
X174808873Y-80567120D01*
X174573841Y-80724163D01*
X174375243Y-80922761D01*
X174374412Y-80914318D01*
X174338102Y-80794620D01*
X174279137Y-80684306D01*
X174199785Y-80587615D01*
X174103094Y-80508263D01*
X173992780Y-80449298D01*
X173873082Y-80412988D01*
X173748600Y-80400728D01*
X172148600Y-80400728D01*
X172110000Y-80404530D01*
X172110000Y-75384325D01*
X172268873Y-75490480D01*
X172530026Y-75598653D01*
X172807265Y-75653800D01*
X173089935Y-75653800D01*
X173367174Y-75598653D01*
X173628327Y-75490480D01*
X173863359Y-75333437D01*
X174063237Y-75133559D01*
X174218600Y-74901041D01*
X174373963Y-75133559D01*
X174573841Y-75333437D01*
X174808873Y-75490480D01*
X175070026Y-75598653D01*
X175347265Y-75653800D01*
X175629935Y-75653800D01*
X175907174Y-75598653D01*
X176168327Y-75490480D01*
X176403359Y-75333437D01*
X176603237Y-75133559D01*
X176758600Y-74901041D01*
X176913963Y-75133559D01*
G37*
G04 #@! TD.AperFunction*
D19*
X187975801Y-67130603D02*
X187975802Y-75003840D01*
X187804764Y-74832803D01*
X187780962Y-74803800D01*
X187665237Y-74708827D01*
X187533208Y-74638255D01*
X187389947Y-74594798D01*
X187278294Y-74583801D01*
X187278283Y-74583801D01*
X187240961Y-74580125D01*
X187203639Y-74583801D01*
X181959109Y-74583801D01*
X182003600Y-74360135D01*
X182003600Y-74077465D01*
X181948453Y-73800226D01*
X181840280Y-73539073D01*
X181683237Y-73304041D01*
X181483359Y-73104163D01*
X181456194Y-73086012D01*
X181794401Y-73018739D01*
X182273941Y-72820107D01*
X182705515Y-72531738D01*
X183072538Y-72164715D01*
X183360907Y-71733141D01*
X183559539Y-71253601D01*
X183660800Y-70744525D01*
X183660800Y-70338740D01*
X184620800Y-70338740D01*
X184620800Y-70631260D01*
X184677868Y-70918158D01*
X184789810Y-71188411D01*
X184952325Y-71431632D01*
X185159168Y-71638475D01*
X185402389Y-71800990D01*
X185672642Y-71912932D01*
X185959540Y-71970000D01*
X186252060Y-71970000D01*
X186538958Y-71912932D01*
X186809211Y-71800990D01*
X187052432Y-71638475D01*
X187259275Y-71431632D01*
X187421790Y-71188411D01*
X187533732Y-70918158D01*
X187590800Y-70631260D01*
X187590800Y-70338740D01*
X187533732Y-70051842D01*
X187421790Y-69781589D01*
X187259275Y-69538368D01*
X187052432Y-69331525D01*
X186809211Y-69169010D01*
X186538958Y-69057068D01*
X186252060Y-69000000D01*
X185959540Y-69000000D01*
X185672642Y-69057068D01*
X185402389Y-69169010D01*
X185159168Y-69331525D01*
X184952325Y-69538368D01*
X184789810Y-69781589D01*
X184677868Y-70051842D01*
X184620800Y-70338740D01*
X183660800Y-70338740D01*
X183660800Y-70225475D01*
X183559539Y-69716399D01*
X183360907Y-69236859D01*
X183072538Y-68805285D01*
X182705515Y-68438262D01*
X182273941Y-68149893D01*
X181794401Y-67951261D01*
X181293061Y-67851539D01*
X182425869Y-66718730D01*
X182459802Y-66752663D01*
X182743969Y-66942537D01*
X183059719Y-67073325D01*
X183394917Y-67140000D01*
X183736683Y-67140000D01*
X184071881Y-67073325D01*
X184387631Y-66942537D01*
X184671798Y-66752663D01*
X184913463Y-66510998D01*
X185103337Y-66226831D01*
X185234125Y-65911081D01*
X185300800Y-65575883D01*
X185300800Y-65234117D01*
X185234125Y-64898919D01*
X185103337Y-64583169D01*
X184913463Y-64299002D01*
X184671798Y-64057337D01*
X184387631Y-63867463D01*
X184071881Y-63736675D01*
X184004889Y-63723350D01*
X184125787Y-63602452D01*
X184254708Y-63409509D01*
X187975801Y-67130603D01*
G04 #@! TA.AperFunction,Conductor*
D20*
G36*
X187975801Y-67130603D02*
G01*
X187975802Y-75003840D01*
X187804764Y-74832803D01*
X187780962Y-74803800D01*
X187665237Y-74708827D01*
X187533208Y-74638255D01*
X187389947Y-74594798D01*
X187278294Y-74583801D01*
X187278283Y-74583801D01*
X187240961Y-74580125D01*
X187203639Y-74583801D01*
X181959109Y-74583801D01*
X182003600Y-74360135D01*
X182003600Y-74077465D01*
X181948453Y-73800226D01*
X181840280Y-73539073D01*
X181683237Y-73304041D01*
X181483359Y-73104163D01*
X181456194Y-73086012D01*
X181794401Y-73018739D01*
X182273941Y-72820107D01*
X182705515Y-72531738D01*
X183072538Y-72164715D01*
X183360907Y-71733141D01*
X183559539Y-71253601D01*
X183660800Y-70744525D01*
X183660800Y-70338740D01*
X184620800Y-70338740D01*
X184620800Y-70631260D01*
X184677868Y-70918158D01*
X184789810Y-71188411D01*
X184952325Y-71431632D01*
X185159168Y-71638475D01*
X185402389Y-71800990D01*
X185672642Y-71912932D01*
X185959540Y-71970000D01*
X186252060Y-71970000D01*
X186538958Y-71912932D01*
X186809211Y-71800990D01*
X187052432Y-71638475D01*
X187259275Y-71431632D01*
X187421790Y-71188411D01*
X187533732Y-70918158D01*
X187590800Y-70631260D01*
X187590800Y-70338740D01*
X187533732Y-70051842D01*
X187421790Y-69781589D01*
X187259275Y-69538368D01*
X187052432Y-69331525D01*
X186809211Y-69169010D01*
X186538958Y-69057068D01*
X186252060Y-69000000D01*
X185959540Y-69000000D01*
X185672642Y-69057068D01*
X185402389Y-69169010D01*
X185159168Y-69331525D01*
X184952325Y-69538368D01*
X184789810Y-69781589D01*
X184677868Y-70051842D01*
X184620800Y-70338740D01*
X183660800Y-70338740D01*
X183660800Y-70225475D01*
X183559539Y-69716399D01*
X183360907Y-69236859D01*
X183072538Y-68805285D01*
X182705515Y-68438262D01*
X182273941Y-68149893D01*
X181794401Y-67951261D01*
X181293061Y-67851539D01*
X182425869Y-66718730D01*
X182459802Y-66752663D01*
X182743969Y-66942537D01*
X183059719Y-67073325D01*
X183394917Y-67140000D01*
X183736683Y-67140000D01*
X184071881Y-67073325D01*
X184387631Y-66942537D01*
X184671798Y-66752663D01*
X184913463Y-66510998D01*
X185103337Y-66226831D01*
X185234125Y-65911081D01*
X185300800Y-65575883D01*
X185300800Y-65234117D01*
X185234125Y-64898919D01*
X185103337Y-64583169D01*
X184913463Y-64299002D01*
X184671798Y-64057337D01*
X184387631Y-63867463D01*
X184071881Y-63736675D01*
X184004889Y-63723350D01*
X184125787Y-63602452D01*
X184254708Y-63409509D01*
X187975801Y-67130603D01*
G37*
G04 #@! TD.AperFunction*
D19*
X181585813Y-61517948D02*
X181406882Y-61785737D01*
X181283632Y-62083288D01*
X181220800Y-62399167D01*
X181220800Y-62721233D01*
X181283632Y-63037112D01*
X181406882Y-63334663D01*
X181585813Y-63602452D01*
X181813548Y-63830187D01*
X182081337Y-64009118D01*
X182378888Y-64132368D01*
X182383795Y-64133344D01*
X182218137Y-64299002D01*
X182028263Y-64583169D01*
X181897475Y-64898919D01*
X181848162Y-65146835D01*
X178189802Y-68805195D01*
X178160798Y-68828998D01*
X178105670Y-68896173D01*
X178065825Y-68944723D01*
X178036279Y-69000000D01*
X177995253Y-69076753D01*
X177951796Y-69220014D01*
X177940799Y-69331667D01*
X177940799Y-69331677D01*
X177937123Y-69368999D01*
X177940799Y-69406322D01*
X177940800Y-72313667D01*
X177937123Y-72350999D01*
X177951797Y-72499984D01*
X177995253Y-72643245D01*
X178065825Y-72775275D01*
X178072821Y-72783800D01*
X177887265Y-72783800D01*
X177610026Y-72838947D01*
X177348873Y-72947120D01*
X177113841Y-73104163D01*
X176913963Y-73304041D01*
X176758600Y-73536559D01*
X176603237Y-73304041D01*
X176403359Y-73104163D01*
X176168327Y-72947120D01*
X175907174Y-72838947D01*
X175629935Y-72783800D01*
X175448601Y-72783800D01*
X175448601Y-71886405D01*
X175512642Y-71912932D01*
X175799540Y-71970000D01*
X176092060Y-71970000D01*
X176378958Y-71912932D01*
X176649211Y-71800990D01*
X176892432Y-71638475D01*
X177099275Y-71431632D01*
X177261790Y-71188411D01*
X177373732Y-70918158D01*
X177430800Y-70631260D01*
X177430800Y-70338740D01*
X177373732Y-70051842D01*
X177261790Y-69781589D01*
X177099275Y-69538368D01*
X176892432Y-69331525D01*
X176649211Y-69169010D01*
X176378958Y-69057068D01*
X176092060Y-69000000D01*
X175799540Y-69000000D01*
X175512642Y-69057068D01*
X175448601Y-69083595D01*
X175448601Y-64874619D01*
X175663989Y-64831775D01*
X175916043Y-64727371D01*
X176142886Y-64575799D01*
X176335799Y-64382886D01*
X176487371Y-64156043D01*
X176591775Y-63903989D01*
X176645000Y-63636411D01*
X176645000Y-63363589D01*
X176591775Y-63096011D01*
X176487371Y-62843957D01*
X176335799Y-62617114D01*
X176142886Y-62424201D01*
X175916043Y-62272629D01*
X175663989Y-62168225D01*
X175396411Y-62115000D01*
X175123589Y-62115000D01*
X174856011Y-62168225D01*
X174603957Y-62272629D01*
X174377114Y-62424201D01*
X174184201Y-62617114D01*
X174032629Y-62843957D01*
X173990000Y-62946873D01*
X173947371Y-62843957D01*
X173795799Y-62617114D01*
X173602886Y-62424201D01*
X173376043Y-62272629D01*
X173123989Y-62168225D01*
X172856411Y-62115000D01*
X172583589Y-62115000D01*
X172316011Y-62168225D01*
X172110000Y-62253557D01*
X172110000Y-61500275D01*
X172110666Y-61493487D01*
X172115301Y-61493000D01*
X181610761Y-61493000D01*
X181585813Y-61517948D01*
G04 #@! TA.AperFunction,Conductor*
D20*
G36*
X181585813Y-61517948D02*
G01*
X181406882Y-61785737D01*
X181283632Y-62083288D01*
X181220800Y-62399167D01*
X181220800Y-62721233D01*
X181283632Y-63037112D01*
X181406882Y-63334663D01*
X181585813Y-63602452D01*
X181813548Y-63830187D01*
X182081337Y-64009118D01*
X182378888Y-64132368D01*
X182383795Y-64133344D01*
X182218137Y-64299002D01*
X182028263Y-64583169D01*
X181897475Y-64898919D01*
X181848162Y-65146835D01*
X178189802Y-68805195D01*
X178160798Y-68828998D01*
X178105670Y-68896173D01*
X178065825Y-68944723D01*
X178036279Y-69000000D01*
X177995253Y-69076753D01*
X177951796Y-69220014D01*
X177940799Y-69331667D01*
X177940799Y-69331677D01*
X177937123Y-69368999D01*
X177940799Y-69406322D01*
X177940800Y-72313667D01*
X177937123Y-72350999D01*
X177951797Y-72499984D01*
X177995253Y-72643245D01*
X178065825Y-72775275D01*
X178072821Y-72783800D01*
X177887265Y-72783800D01*
X177610026Y-72838947D01*
X177348873Y-72947120D01*
X177113841Y-73104163D01*
X176913963Y-73304041D01*
X176758600Y-73536559D01*
X176603237Y-73304041D01*
X176403359Y-73104163D01*
X176168327Y-72947120D01*
X175907174Y-72838947D01*
X175629935Y-72783800D01*
X175448601Y-72783800D01*
X175448601Y-71886405D01*
X175512642Y-71912932D01*
X175799540Y-71970000D01*
X176092060Y-71970000D01*
X176378958Y-71912932D01*
X176649211Y-71800990D01*
X176892432Y-71638475D01*
X177099275Y-71431632D01*
X177261790Y-71188411D01*
X177373732Y-70918158D01*
X177430800Y-70631260D01*
X177430800Y-70338740D01*
X177373732Y-70051842D01*
X177261790Y-69781589D01*
X177099275Y-69538368D01*
X176892432Y-69331525D01*
X176649211Y-69169010D01*
X176378958Y-69057068D01*
X176092060Y-69000000D01*
X175799540Y-69000000D01*
X175512642Y-69057068D01*
X175448601Y-69083595D01*
X175448601Y-64874619D01*
X175663989Y-64831775D01*
X175916043Y-64727371D01*
X176142886Y-64575799D01*
X176335799Y-64382886D01*
X176487371Y-64156043D01*
X176591775Y-63903989D01*
X176645000Y-63636411D01*
X176645000Y-63363589D01*
X176591775Y-63096011D01*
X176487371Y-62843957D01*
X176335799Y-62617114D01*
X176142886Y-62424201D01*
X175916043Y-62272629D01*
X175663989Y-62168225D01*
X175396411Y-62115000D01*
X175123589Y-62115000D01*
X174856011Y-62168225D01*
X174603957Y-62272629D01*
X174377114Y-62424201D01*
X174184201Y-62617114D01*
X174032629Y-62843957D01*
X173990000Y-62946873D01*
X173947371Y-62843957D01*
X173795799Y-62617114D01*
X173602886Y-62424201D01*
X173376043Y-62272629D01*
X173123989Y-62168225D01*
X172856411Y-62115000D01*
X172583589Y-62115000D01*
X172316011Y-62168225D01*
X172110000Y-62253557D01*
X172110000Y-61500275D01*
X172110666Y-61493487D01*
X172115301Y-61493000D01*
X181610761Y-61493000D01*
X181585813Y-61517948D01*
G37*
G04 #@! TD.AperFunction*
D19*
X172316011Y-64831775D02*
X172583589Y-64885000D01*
X172856411Y-64885000D01*
X173001365Y-64856167D01*
X173478591Y-65333393D01*
X173478592Y-72614006D01*
X173272486Y-72820112D01*
X173089935Y-72783800D01*
X172807265Y-72783800D01*
X172530026Y-72838947D01*
X172268873Y-72947120D01*
X172110000Y-73053275D01*
X172110000Y-64746443D01*
X172316011Y-64831775D01*
G04 #@! TA.AperFunction,Conductor*
D20*
G36*
X172316011Y-64831775D02*
G01*
X172583589Y-64885000D01*
X172856411Y-64885000D01*
X173001365Y-64856167D01*
X173478591Y-65333393D01*
X173478592Y-72614006D01*
X173272486Y-72820112D01*
X173089935Y-72783800D01*
X172807265Y-72783800D01*
X172530026Y-72838947D01*
X172268873Y-72947120D01*
X172110000Y-73053275D01*
X172110000Y-64746443D01*
X172316011Y-64831775D01*
G37*
G04 #@! TD.AperFunction*
M02*
